<?xml version="1.0" encoding="UTF-8"?>
<svg xmlns="http://www.w3.org/2000/svg" version="1.1" viewBox="0 0 300 300">
  <defs>
    <style>
      .cls-1 {
        fill: #fff;
      }
    </style>
  </defs>
  <!-- Generator: Adobe Illustrator 28.6.0, SVG Export Plug-In . SVG Version: 1.2.0 Build 709)  -->
  <g>
    <g id="Layer_1">
      <g>
        <path class="cls-1" d="M90.8,142.3v61.2c0,2.2.4,4.3,2.9,5.4,2.5,1,4.4-.3,5.8-1.8,4.4-4.4,9-9,13.5-13.6,1-1,1.7-1.2,2.8-1,.2,1.2.4,2.5.7,3.7,2,7.9,8.8,13,17.4,13h50.2c1.3,0,2.2.4,3,1.2,2.5,2.6,5.1,5.2,7.7,7.8,1.9,1.9,3.8,3.8,5.7,5.7.9,1,2.2,2.1,4,2.1s1.2-.1,1.8-.4c2.6-1.1,2.9-3.3,2.9-5.2v-61.6c0-10.3-7.5-17.8-17.9-17.8h-7.1c-.8-10.1-8.8-17-19.4-16.8-13.4.2-26.9.2-40,.1-5.3,0-10.7,0-16,0-10.6,0-18,7.4-18,17.9ZM174.9,174.2c0,5.7-3.2,8.9-8.9,8.9h-52.3c-2.4,0-4.2.7-5.7,2.4-1.9,2.1-4,4.2-6,6.2-.6.6-1.1,1.1-1.7,1.7v-1.5c0-5.5,0-11,0-16.5,0-10.8,0-21.9,0-32.9,0-4.4,3-8.8,8.8-8.8h57.1c5.5,0,8.7,3.2,8.7,8.8v31.8ZM125.5,192.5h41c8.8,0,15.6-5.5,17.3-14.1.2-1.2.2-2.6.2-3.8v-23.9c1.1,0,2.1,0,3.1,0,2.3,0,4.5-.2,6.6,0,3.9.5,6.4,3.8,6.4,8.6v50.8c-.2-.2-.4-.3-.6-.5-2.5-2.4-5-4.9-7.4-7.4-1.5-1.6-3.1-2.3-5.5-2.3h-52.9c-4,0-7-2.1-8-5.6-.1-.5-.2-1.1-.3-1.9Z"/>
        <path class="cls-1" d="M133.3,100.1h33.5c6.3,0,11.4-3.9,12.5-9.5,1.8-9.3.4-17.5-4-24.6-1.4-2.1-3-4.1-4.7-6-.9-1-1.7-2-2.6-3.1,6.9-11.7,2.4-23.1-4.8-28.8-7.9-6.1-19.2-6-26.9.3-7.2,6-11,17.6-4.3,28.5-.5.6-1,1.1-1.5,1.7-1.9,2.2-3.7,4.2-5.3,6.5-5,7.3-5.3,15.7-5.1,22.2.2,7.1,5.9,12.7,13,12.7ZM150.1,33.1c6.6,0,12,5.4,12,12.1s-1.3,6.3-3.7,8.6c-2.3,2.3-5.4,3.5-8.5,3.5-6.5,0-12-5.7-12-12.2s4.8-11.4,11-12h0s1.2,0,1.2,0ZM140.4,64.2c6.5,3.2,13,3.2,19.4,0,.9-.4,1.4-.2,2.1.3,5.6,4.4,8.5,10.3,8.8,18.1v3.7c0,3.2-1.4,4.5-4.5,4.5h-31.9c-3.4,0-4.6-1.2-4.7-4.7-.2-4.8,0-10.4,3.3-15.3,1.1-1.7,2.6-3.2,4-4.6.6-.6,1.1-1.2,1.7-1.8.5-.6.9-.6,1.8-.2Z"/>
        <path class="cls-1" d="M83,220.1c.5-3.1.4-6.4.2-9.4-.4-7.8-3.3-14.6-8.7-20.3-.7-.7-1.4-1.4-2.1-2-.4-.3-.7-.7-1-1,7-11.4,2.9-22.8-4-28.6-7.7-6.5-19-6.7-26.9-.5-7.6,5.9-11.6,17.7-4.8,28.9-.7.8-1.4,1.6-2,2.4-1.7,1.9-3.2,3.7-4.6,5.7-3.8,5.7-5.4,12.3-5.2,21.4.2,8.1,5.6,13.6,13.3,13.6,5.5,0,11,0,16.6,0s11.1,0,16.5,0c6.5,0,11.6-4.1,12.8-10.1ZM37.6,220.7c-3.1,0-4.5-1.3-4.6-4.4-.2-5,.1-10.8,3.5-15.8,1.3-1.8,2.9-3.5,4.5-5,.4-.4.7-.7,1.1-1.1.2-.2,1.2-.3,1.6-.1,6.6,3.1,13.1,3.1,19.4,0,.9-.4,1.3-.4,2.1.2,5.4,4.3,8.4,10.2,8.8,17.5v4.8c0,2.6-1.5,4-4.2,4h-15.9c0,0-16.4,0-16.4,0ZM53.6,187.2h0c-3.2,0-6.2-1.2-8.5-3.5-2.3-2.3-3.6-5.4-3.6-8.6,0-6.7,5.4-12.1,12.1-12.1,0,0,.1,0,.2,0,3.1,0,6,1.2,8.3,3.5,2.3,2.3,3.6,5.3,3.6,8.5,0,6.7-5.4,12.2-12.1,12.2Z"/>
        <path class="cls-1" d="M275.5,205.5c-1.2-6.9-5-13.1-11.3-18.2,7-11.3,3.1-22.7-3.6-28.4-7.6-6.6-18.5-7.1-26.6-1.2-4,2.9-6.8,6.8-8.1,11.5-1.7,6.3-.8,12.3,2.7,17.9-.9,1-1.7,2-2.6,3-1.5,1.7-2.9,3.3-4.1,5.1-4.9,7.1-5.4,15.3-5.2,21.6.2,8,5.5,13.4,13.1,13.5,4.7,0,9.4.1,14.2.1s12.9,0,19.1-.1h.2c6.8-.1,12.4-4.9,12.8-10.9.3-5.1.1-9.6-.6-13.8ZM258.7,175.1c0,6.7-5.5,12.1-12.2,12.1s-12.1-5.4-12.1-12c0-3.1,1.2-6.2,3.5-8.5,2.3-2.4,5.5-3.7,8.7-3.7,6.7,0,12.1,5.5,12.1,12.1ZM255.9,194.5c1.1-.6,1.7-.4,2.5.2,5.3,4.3,8.2,10.2,8.6,17.6v4.6c0,2.5-1.6,3.9-4.1,3.9h-16.6c0,0-16.4.1-16.4.1-2.3,0-3.7-1.2-3.9-3.2-.6-7.7.7-13.3,4-18.2.8-1.1,1.7-2.1,2.6-3.1,1.2-1.4,2.3-2.1,3.6-2.1s1.6.2,2.6.7c5.3,2.5,11.2,2.3,17.1-.6Z"/>
        <path class="cls-1" d="M214.9,242c-14,12.5-30.2,20.4-48.2,23.5-21,3.7-41.5.5-60.7-9.4-7.5-3.8-14.3-8.5-20.8-14.5-1.7-1.3-3.2-1.7-5-1.2-1.8.5-2.9,1.9-3.2,3.8-.3,2.1.9,3.5,2.3,4.8,19.5,17.5,43.3,26.9,68.8,27.3h.2c15,0,27.9-2.4,40.5-7.3,12-4.7,22.8-11.5,32.4-20.1,1.3-1.2,2.1-2.6,2.1-3.9,0-1.1-.4-2.2-1.3-3.2-2-2.1-4.7-2-7.2.3Z"/>
        <path class="cls-1" d="M53.9,145.8h.1s0,0,0,0c2.4,0,3.5-1.1,4.7-4.5,6.7-20,18.7-36.3,35.5-48.3,2.3-1.6,4.7-3,7.1-4.4,1.5-.9,3-1.7,4.4-2.7,2.4-1.5,3.2-4,2-6.2-1.1-2.2-3.7-3-6.2-1.9-.3.1-.5.2-.8.4-.2.1-.4.2-.7.3-21,11.4-36.5,28.3-46.2,50-1.6,3.5-3,7.2-4.2,11-.5,1.6-.3,3.3.6,4.5.8,1.2,2.2,1.8,3.8,1.9Z"/>
        <path class="cls-1" d="M195.2,86.3c22.7,12.4,38.4,31.2,46.5,55.8.5,1.6,1.4,2.8,2.6,3.4.6.3,1.2.4,1.9.4s1.1,0,1.6-.3c2.7-1,3.8-3.4,2.8-6.4-9-27.2-26.3-47.8-51.4-61.4-.7-.3-1.3-.5-1.7-.7l-2.2-.7.8.8c-2.5.4-4.1,2.1-4.1,4.5s1.7,3.7,3.3,4.5Z"/>
        <path class="cls-1" d="M137.4,153.9c-2.5,0-4.6,2-4.6,4.5s2,4.5,4.5,4.6h.1c0,.1.2.1.2.1,2.5,0,4.6-2.1,4.6-4.7-.1-2.6-2.1-4.5-4.8-4.5Z"/>
        <path class="cls-1" d="M158.8,157.8c-.2-2.4-2.1-4.1-4.7-4.1s-4.4,1.9-4.4,4.6,2,4.6,4.7,4.6,4.5-2,4.5-4.6v-.5h-.1Z"/>
        <path class="cls-1" d="M120.6,153.8h0c-2.6.1-4.5,2-4.5,4.6s2.1,4.6,4.7,4.6,4.6-2.1,4.6-4.7c-.1-2.6-2.1-4.5-4.8-4.5Z"/>
      </g>
    </g>
  </g>
</svg>