<?xml version="1.0" encoding="utf-8"?>
<!-- Generator: Adobe Illustrator 28.0.0, SVG Export Plug-In . SVG Version: 6.00 Build 0)  -->
<svg version="1.1" id="Layer_1" xmlns="http://www.w3.org/2000/svg" xmlns:xlink="http://www.w3.org/1999/xlink" x="0px" y="0px"
	 viewBox="0 0 300 300" style="enable-background:new 0 0 300 300;" xml:space="preserve">
<style type="text/css">
	.st0{fill:#FFFFFF;}
</style>
<path class="st0" d="M260.8,99.8c-6.1,4.8-11.7,9.2-17.3,13.6c-19.6,15.4-39.3,30.9-58.9,46.3c-9.5,7.4-18.2,7.4-27.7-0.1
	c-17.9-14.1-35.8-28.1-53.7-42.1c-1.5-1.2-3.2-2-5.6-3.5c-2.1,1.2-6.1,3.1-9.5,5.8c-4.7,3.6-4.7,9.1-3.9,14.3
	c0.3,2.2,1.2,4.3,2.3,6.2c8.3,14.4,16.7,28.8,25,43.2c2.2,3.9,5.5,6.6,9.6,8.4c4,1.8,7.9,1.8,11.8-0.6c2.9-1.8,5.9-3.4,8.9-5.1
	c8.8-5,18.1-4.4,26.2,1.8c0.8,0.6,1.6,1.2,2.3,1.9c11.5,12.2,20.6,25.8,25.1,42.1c2.1,7.8,0,14.8-8.1,19.3
	c-29.5,16.2-57.6,13.1-84.5-5.7c-11.9-8.3-21.6-18.9-29-31.2c-11.3-18.7-22.3-37.5-32.8-56.6c-8-14.5-12.6-30.2-13.2-46.8
	c-1-27.1,9.1-49,30.9-65.3c3.1-2.3,6.7-4.3,10.2-5.9c6.1-2.8,11.4-0.7,16.2,3.2c6.2,5,10.6,11.5,14.3,18.4c2.7,5,5.1,10.1,7.8,15.1
	c0.4,0.7,1.5,1.2,2.4,1.5c0.7,0.2,1.6,0.1,2.4,0.1c47,0,94.1,0,141.1,0c2.6,0,5.2,0.2,7.7,0.8c7.6,2,11.8,7.5,11.8,15.3
	c0,6.5,0,12.9,0,19.4c0,28.2,0,56.3,0,84.5c0,10.7-6.6,17.3-17.3,17.3c-17.4,0-34.7,0-52.1,0c-4.3,0-6.9-2.2-6.9-5.8
	c0-3.6,2.5-5.9,6.9-5.9c16.8,0,33.6,0,50.5,0c1.1,0,2.2,0,3.2-0.1c2.4-0.3,4-1.5,4-4.2c0-0.4,0-0.9,0-1.4c0-31.6,0-63.2,0-94.7
	C260.8,102.4,260.8,101.5,260.8,99.8z M149.7,250c10.6-0.3,21.1-2.7,30.7-8.5c4.4-2.6,4.5-2.6,3.4-7.6c-0.1-0.4-0.3-0.9-0.4-1.3
	c-2.9-9.9-8.7-18.3-14.6-26.6c-2.4-3.4-5.5-6.4-8.6-9.2c-3.8-3.3-8-3.6-12.4-0.8c-3.2,2.1-6.6,4-10.1,5.7c-2.5,1.2-5.1,2.4-7.8,2.7
	c-12.4,1.1-21.9-4.1-28.2-14.6c-8.5-14.1-16.6-28.6-25-42.8c-3.5-5.9-5.2-12.2-4.6-19c0.8-8.4,4.2-15.3,11.9-19.7
	c2.8-1.6,5.6-3.2,8.4-4.8c6.8-3.9,8.4-7.1,6.2-14.7C95,76,88.7,64.6,80.2,54.4c-1.2-1.5-2.9-2.7-4.6-3.7c-0.7-0.4-2-0.5-2.7-0.1
	c-2.8,1.5-5.6,2.9-8.1,4.8c-16.6,12.3-25.1,29-25.6,49.6c-0.4,17.9,4.6,34.5,13.3,49.9c9.5,17,19.4,33.8,29.3,50.6
	c5.4,9.2,12.2,17.3,20.2,24.5C115.5,242,130.8,249.7,149.7,250z M107.1,106c1.1,0.8,2,1.3,2.8,2c17.9,14,35.8,28.1,53.6,42.2
	c5.6,4.4,8.5,4.4,14.1,0c22.3-17.5,44.5-35,66.8-52.4c3.2-2.5,6.4-5.1,10-7.9c-48.2,0-95.8,0-143.7,0
	C111.5,95.6,110.5,101,107.1,106z"/>
</svg>
