<?xml version="1.0" encoding="utf-8"?>
<!-- Generator: Adobe Illustrator 27.6.1, SVG Export Plug-In . SVG Version: 6.00 Build 0)  -->
<svg version="1.1" id="Layer_1" xmlns="http://www.w3.org/2000/svg" xmlns:xlink="http://www.w3.org/1999/xlink" x="0px" y="0px"
	 viewBox="0 0 300 300" style="enable-background:new 0 0 300 300;" xml:space="preserve">
<style type="text/css">
	.st0{fill:#FFFFFF;}
</style>
<path class="st0" d="M127.63,55.69c0-3.57,0.06-7.09-0.01-10.61c-0.2-9.62,6.19-17.93,14.15-21.1c11.73-4.66,24.57,1.45,28.98,12.53
	c1.1,2.77,1.57,5.61,1.58,8.56c0.01,3.23,0.02,6.45-0.01,9.68c-0.01,0.66,0.15,0.98,0.83,1.2c16.9,5.32,30.3,15.43,40.44,29.88
	c4.8,6.85,8.32,14.33,10.62,22.39c2.08,7.29,3.18,14.72,3.19,22.3c0.01,8.41-0.07,16.82,0.03,25.24c0.07,5.68,0.26,11.36,1.48,16.95
	c1.01,4.63,1.78,9.33,3.07,13.88c2.79,9.85,6.93,19.14,12.27,27.9c4.35,7.15,9.36,13.8,15.12,19.88c0.7,0.74,1.35,1.58,1.84,2.46
	c2.49,4.45-0.42,10.14-5.5,10.75c-1.28,0.15-2.59,0.15-3.88,0.15c-20.62,0.01-41.24,0-61.86,0c-0.83,0-1.67,0.04-2.49-0.04
	c-0.72-0.07-0.94,0.23-1.11,0.89c-2.84,11.32-9.45,19.69-19.79,25.06c-4.29,2.23-8.9,3.42-13.73,3.82
	c-17.61,1.43-33.91-10.08-38.77-26.97c-0.12-0.41-0.26-0.82-0.37-1.24c-0.42-1.56-0.42-1.54-2.06-1.54c-21.98,0-43.97-0.04-65.95,0
	c-4.29,0.01-7.1-2.98-7.77-6.02c-0.54-2.49,0.29-4.58,1.88-6.44c2.76-3.24,5.66-6.36,8.28-9.71c6.71-8.58,12.07-17.95,16.13-28.07
	c2.12-5.27,3.95-10.65,5.15-16.2c1.09-5.02,1.95-10.1,2.61-15.2c0.45-3.52,0.51-7.1,0.54-10.65c0.07-9.11-0.11-18.22,0.07-27.33
	c0.1-5.24,0.84-10.45,2.03-15.58c3.62-15.57,11.31-28.76,22.98-39.64c7.78-7.26,16.77-12.56,26.75-16.21
	C125.39,56.3,126.46,56.04,127.63,55.69z M238.81,232.94c-0.4-0.58-0.66-0.99-0.96-1.39c-6.11-8.38-11.19-17.35-15.19-26.92
	c-3.92-9.37-6.74-19.07-8.39-29.1c-1.32-8.01-2.06-16.07-2.04-24.2c0.02-7.85,0.06-15.69-0.02-23.54
	c-0.04-3.75-0.35-7.48-1.15-11.18c-1.81-8.33-5.1-15.99-10.02-22.93c-7.01-9.89-16.11-17.19-27.34-21.87
	c-6.99-2.92-14.3-4.37-21.8-4.7c-7.42-0.32-14.69,0.9-21.76,3.26c-10.24,3.43-19,9.15-26.27,17.1
	c-8.08,8.82-13.15,19.18-15.34,30.91c-0.54,2.92-0.75,5.94-0.8,8.92c-0.11,7.08-0.13,14.17-0.01,21.25
	c0.11,6.46-0.22,12.9-0.96,19.3c-0.55,4.77-1.59,9.48-2.44,14.21c-1.04,5.8-2.82,11.4-4.84,16.92
	c-4.34,11.9-10.29,22.95-17.82,33.14c-0.16,0.21-0.26,0.47-0.45,0.81C120.49,232.94,179.55,232.94,238.81,232.94z M128.88,247.81
	c2.7,9.67,13.15,15.84,24.55,14.65c7.67-0.8,17.17-8.71,17.5-14.65C156.95,247.81,142.97,247.81,128.88,247.81z M157.32,52.38
	c0.03-0.13,0.1-0.31,0.1-0.5c0.02-2.46,0.08-4.91,0.02-7.37c-0.03-0.94-0.18-1.94-0.56-2.79c-1.62-3.59-5.06-5.06-9.14-4.13
	c-2.47,0.56-5.34,3.64-5.23,6.86c0.08,2.45,0.03,4.91,0.05,7.37c0,0.21,0.08,0.43,0.11,0.56C147.59,52.38,152.43,52.38,157.32,52.38
	z M37.85,130.42c0.4,3.22,2.73,5.58,6.22,6.47c2.25,0.57,5.45-0.82,7.14-3.04c1.12-1.46,1.29-3.15,1.41-4.89
	c0.32-4.6,0.46-9.24,1.09-13.8c1.23-8.81,3.73-17.3,7.4-25.43c3.95-8.75,9.03-16.77,15.37-23.98c1.69-1.92,3.54-3.71,5.16-5.68
	c1.85-2.24,2.1-4.85,1.01-7.5c-1.06-2.55-3.04-4.07-5.81-4.43c-2.4-0.31-4.46,0.49-6.16,2.18c-3.94,3.92-7.58,8.11-10.89,12.58
	c-9.06,12.24-15.38,25.78-18.95,40.58c-1.81,7.51-2.7,15.15-3.2,22.87C37.7,127.71,37.68,130.08,37.85,130.42z M260.81,111.88
	c-1.1-6.85-2.81-13.57-5.17-20.12c-3.29-9.14-7.71-17.69-13.21-25.7c-3.79-5.53-8.14-10.59-12.76-15.43
	c-3.54-3.71-8.16-3.01-10.82-0.36c-2.79,2.77-2.87,7.2-0.14,10.28c1.3,1.47,2.72,2.83,4.02,4.29
	c12.32,13.92,20.18,30.03,23.18,48.38c0.88,5.36,1.12,10.83,1.41,16.26c0.23,4.19,2.89,6.68,6.61,7.49c2.74,0.6,6.4-1.73,7.69-4.73
	c0.8-1.87,0.7-3.83,0.73-5.81C261.86,121.58,261.59,116.69,260.81,111.88z"/>
</svg>
