<?xml version="1.0" encoding="UTF-8"?>
<svg xmlns="http://www.w3.org/2000/svg" version="1.1" viewBox="0 0 300 300">
  <defs>
    <style>
      .cls-1 {
        fill: #fff;
      }
    </style>
  </defs>
  <!-- Generator: Adobe Illustrator 28.6.0, SVG Export Plug-In . SVG Version: 1.2.0 Build 709)  -->
  <g>
    <g id="Layer_1">
      <g>
        <path class="cls-1" d="M207.6,207.2h-16.3c-6.6-.1-11.4,2.4-15.3,7.7-5.1,7-10.3,13.9-15.5,20.9l-5.2,7c-1.3,1.7-3.2,3.7-5.3,3.7s-4-2-5.2-3.7l-5.4-7.2c-5.1-6.7-10.1-13.4-15-20.2-4-5.6-9.4-8.4-16.3-8.2-15.6.1-31.3.1-46.9,0h-5.2c-1.9,0-4-.1-6-.5-10.2-2.3-16.6-10.5-16.6-21.5v-110.8c.2-12,9.1-20.8,21.1-20.9h15.1c6,0,8.2-3.7,8.3-6.9,0-1.8-.6-3.5-1.8-4.7-1-1-3-2.3-6.3-2.3h-15.2c-19.6.1-35,15.5-35,35v111.9c0,2.8.3,5.4.9,7.8,3.9,16,17.6,26.8,34.1,26.8h54.2c1.8,0,2.8.5,3.9,2,7.2,9.8,14.4,19.5,21.8,29.1,4.1,5.3,9.3,8.1,15.2,8.1s2.4-.1,3.7-.3c4.8-.9,9-3.6,12.4-8.2l6.3-8.4c5.1-6.8,10.2-13.6,15.2-20.4.9-1.3,1.9-1.6,3.3-1.7,5.7.1,11.5,0,17.2,0s5.1-1.2,6.4-3.2c1.2-1.8,1.5-4.1.7-6.2-1-3.2-3.5-4.7-7.3-4.7Z"/>
        <path class="cls-1" d="M94.3,156.2s0,0,0,0c12.5,0,22.6-10.2,22.5-22.6,0-6-2.4-11.7-6.8-16-4.3-4.3-9.9-6.7-15.9-6.5-12.4,0-22.4,10.4-22.3,22.9,0,12.3,10.2,22.2,22.5,22.2ZM85.6,133.7c0-4.8,3.9-8.6,8.7-8.6h0c2.3,0,4.5.9,6.2,2.6,1.6,1.6,2.5,3.8,2.5,6.1,0,4.8-3.9,8.6-8.7,8.6h0c-2.3,0-4.5-.9-6.2-2.6-1.6-1.7-2.5-3.8-2.5-6.1Z"/>
        <path class="cls-1" d="M279.9,68.4c-3.5-17.5-17.3-28.9-35.1-28.9H88.8c-1.1,0-2.4,0-3.7.3-3.6.8-5.7,4-5.1,7.3.6,2.8,3.2,4.8,4,5.4,1.5,1,3.3,1,5.2.9h155.2c1.8,0,3.6,0,5.1.3,10.5,2.1,17.1,10.3,17.1,21.5v110.7c-.2,11.7-8.3,20.3-19.9,21-4.3.2-8.6.2-12.9.2h-6.8c-5.5.1-8,3.5-8,6.9s3.3,7,8,7h11.5c2.5,0,5,0,7.5-.1,12.7-.4,22.8-6.1,29.2-16.7,1.7-2.8,2.7-5.9,3.7-8.9.4-1.3.8-2.5,1.3-3.7l.2-121.9-.5-1.3Z"/>
        <path class="cls-1" d="M208,156.2h0c6.1,0,11.7-2.4,16-6.7s6.6-9.9,6.6-15.9-2.4-11.7-6.8-16c-4.3-4.2-9.9-6.6-15.7-6.6h-.2c-12.3,0-22.3,10.2-22.3,22.5s2.3,11.8,6.6,16.1c4.2,4.3,9.8,6.6,15.8,6.6ZM199.4,133.6c0-2.3.9-4.5,2.6-6.1,1.7-1.6,4-2.2,6.2-2.5,2.3,0,4.5.9,6.1,2.6,1.6,1.6,2.5,3.8,2.5,6.1,0,4.8-3.9,8.6-8.7,8.6h0c-2.3,0-4.5-.9-6.1-2.6-1.8-1.5-2.7-3.7-2.6-6.1Z"/>
        <path class="cls-1" d="M151.2,156.2c5.9,0,11.5-2.3,15.8-6.5,4.3-4.3,6.7-10,6.7-16,0-12.3-10-22.5-22.2-22.6h-.3c-12.3,0-22.3,10-22.5,22.4-.1,5.9,2.2,11.6,6.4,15.9,4.3,4.4,10,6.8,16,6.8h.1ZM151.2,125h0c2.3,0,4.5.9,6.1,2.5,1.6,1.6,2.5,3.8,2.5,6.2,0,4.9-3.8,8.6-8.6,8.6h0c-4.9,0-8.6-3.7-8.6-8.7s.9-4.6,2.5-6.2c1.6-1.5,3.8-2.4,6.1-2.4Z"/>
      </g>
    </g>
  </g>
</svg>