<?xml version="1.0" encoding="utf-8"?>
<!-- Generator: Adobe Illustrator 27.8.1, SVG Export Plug-In . SVG Version: 6.00 Build 0)  -->
<svg version="1.1" id="Layer_1" xmlns="http://www.w3.org/2000/svg" xmlns:xlink="http://www.w3.org/1999/xlink" x="0px" y="0px"
	 viewBox="0 0 300 300" style="enable-background:new 0 0 300 300;" xml:space="preserve">
<style type="text/css">
	.st0{fill:#FFFFFF;}
</style>
<path class="st0" d="M257.9,222.1c2.9-7.3,1.2-15.1-4.3-19.9c-9.2-8-16.2-17-21.3-27.5c-1.7-3.4-5.4-4.7-8.9-3
	c-3.5,1.7-4.7,5.5-3,9.1c1.5,3.1,3.2,6.3,5.1,9.3c4.6,7.5,10.4,14.4,18,21c1.6,1.4,2.4,3.1,2.3,4.7c-0.1,1.3-0.8,2.4-1.9,3.1
	c-1.4,0.9-3.1,1.1-4.3,1.1c-49.9,0-99.7,0-149.6,0l-37.4,0c0,0,0,0,0,0c-1.8,0-4.8,0-6.1-3.1c-1.3-3.1,0.9-4.9,2-5.9l0.5-0.5
	c20.6-18.8,31.2-42.2,31.6-69.6c0.1-6,0.1-12.1,0-18.1c0-4.7,0-9.4,0-14c0.1-10,2.1-19.2,6-27.5c8.8-18.6,23.4-30.7,43.4-36
	c4.4-1.1,6.7-4.7,5.6-8.6c-0.9-3.5-4.6-5.6-8.6-4.7c-33.3,7.4-59.6,39.9-59.9,74c0,4.3,0,8.5,0,12.8c0,6.8,0.1,13.8-0.1,20.7
	c-0.2,6.9-0.8,12.9-2,18.3c-3.6,17-12.4,31.6-26.2,43.5c-5.3,4.6-7.3,10.3-6.1,17.1c1.7,9.1,9,14.9,18.5,15h52.1h1.4l1.1,3.9
	c4.9,18.3,21.1,30.6,40.1,30.6c0,0,0,0,0,0c18.6,0,35-12.7,39.7-30.9c0.7-2.7,2.1-3.8,4.9-3.8c0,0,0,0,0.1,0
	c16.8,0.1,33.5,0.1,50.2,0C248.5,233.5,255.2,229,257.9,222.1z M171.7,236c-2.5,10.3-14.1,18.6-25.8,18.6c-0.4,0-0.7,0-1.1,0
	c-11.6-0.5-23.4-9.5-24.9-18.8l-0.3-2.2h52.7L171.7,236z"/>
<path class="st0" d="M50.8,233.5c16.8,0,33.5,0.1,50.2,0c0,0,0,0,0.1,0c2.8,0,4.2,1.1,4.9,3.8c4.8,18.1,21.1,30.8,39.7,30.8
	c0,0,0,0,0,0c19.1,0,35.2-12.3,40.1-30.6l1.1-3.9h1.4h52.1c9.5,0,16.8-5.9,18.5-15c1.3-6.8-0.8-12.6-6.1-17.1
	c-13.8-11.9-22.6-26.5-26.2-43.5c-1.1-5.4-1.8-11.4-2-18.3c-0.2-6.9-0.1-13.9-0.1-20.7c0-4.3,0-8.5,0-12.8
	c-0.2-34.1-26.6-66.6-59.9-74c-3.9-0.9-7.6,1.2-8.6,4.7c-1,3.9,1.3,7.5,5.6,8.6c20,5.3,34.6,17.4,43.4,36c3.9,8.2,5.9,17.5,6,27.5
	c0,4.7,0,9.4,0,14c0,6,0,12.1,0,18.1c0.3,27.4,10.9,50.9,31.6,69.6l0.5,0.5c1.2,1,3.3,2.7,2.1,5.9c-1.3,3.1-4.2,3.1-6.1,3.1
	c0,0,0,0,0,0l-37.4,0c-49.9,0-99.7,0-149.6,0c-1.2,0-3-0.2-4.3-1.1c-1.2-0.7-1.8-1.8-1.9-3.1c-0.1-1.6,0.7-3.3,2.3-4.7
	c7.5-6.6,13.4-13.5,18-21c1.8-3,3.6-6.2,5.1-9.3c1.7-3.6,0.5-7.4-3-9.1c-3.5-1.7-7.2-0.4-8.9,3c-5.2,10.5-12.2,19.5-21.3,27.5
	c-5.5,4.8-7.2,12.6-4.3,19.9C36.7,229,43.3,233.5,50.8,233.5z M119.5,233.7h52.7l-0.3,2.2c-1.4,9.3-13.3,18.2-24.9,18.8
	c-0.4,0-0.7,0-1.1,0c-11.7,0-23.3-8.3-25.8-18.6L119.5,233.7z"/>
</svg>
