<?xml version="1.0" encoding="utf-8"?>
<!-- Generator: Adobe Illustrator 28.0.0, SVG Export Plug-In . SVG Version: 6.00 Build 0)  -->
<svg version="1.1" id="Layer_1" xmlns="http://www.w3.org/2000/svg" xmlns:xlink="http://www.w3.org/1999/xlink" x="0px" y="0px"
	 viewBox="0 0 300 300" style="enable-background:new 0 0 300 300;" xml:space="preserve">
<style type="text/css">
	.st0{fill:#FFFFFF;}
</style>
<path class="st0" d="M258.3,258.3c-5.6,0-11.1,0-16.9,0c-0.7-28.9-11.9-52.7-34.1-70.9c-17.7-14.5-38.3-21.1-61.1-20.3
	c-46.4,1.7-87.3,40.4-87.7,91.1c-5.5,0-11,0-16.8,0c0.2-22.9,6.7-43.8,19.9-62.4c13.3-18.6,30.8-31.8,52.6-39.7
	c-0.6-0.5-0.9-0.9-1.3-1.2c-14.6-11.1-23.1-25.6-25.2-43.9C84.9,85,99.1,59.4,122.6,48.1c6.5-3.1,13.2-5.1,20.3-6
	c0.6-0.1,1.1-0.3,1.6-0.4c3.7,0,7.3,0,11,0c1.9,0.3,3.9,0.7,5.8,1c26.5,4.7,47.7,26.9,50.8,53.8c2.7,23.9-5.9,43.3-24.8,58.1
	c-0.5,0.4-0.9,0.8-1.5,1.3c0.8,0.4,1.4,0.6,1.9,0.8c19.2,7.2,35.1,18.9,47.7,35c11.1,14.1,18.2,30,21.2,47.7
	c0.7,3.9,1.1,7.8,1.7,11.7C258.3,253.5,258.3,255.9,258.3,258.3z M151.6,149.9c26.4-1.2,44.9-23,44-47.1c-1-26.5-23.1-45-47.1-44.1
	c-26.4,1-44.9,23-44,47C105.4,132.3,127.5,150.7,151.6,149.9z"/>
</svg>
