<?xml version="1.0" encoding="utf-8"?>
<!-- Generator: Adobe Illustrator 28.0.0, SVG Export Plug-In . SVG Version: 6.00 Build 0)  -->
<svg version="1.1" id="Layer_1" xmlns="http://www.w3.org/2000/svg" xmlns:xlink="http://www.w3.org/1999/xlink" x="0px" y="0px"
	 viewBox="0 0 300 300" style="enable-background:new 0 0 300 300;" xml:space="preserve">
<style type="text/css">
	.st0{fill:#FFFFFF;}
</style>
<g>
	<path class="st0" d="M278.7,20.2c-46.8,0-93.3,0-140.1,0c-2.3,10.7-4.5,21.4-6.8,32c-8.7,41-17.3,82.1-26,123.1
		c-0.8,3.7-3.2,5.7-6.3,5.1c-3.2-0.6-4.7-3.4-3.9-7.3c5.9-27.8,11.8-55.6,17.7-83.4c5.3-24.8,10.5-49.7,15.8-74.5
		c0.9-4.3,2.4-5.4,6.7-5.4c49.3,0,98.5,0,147.8,0c5.5,0,7.4,2.4,6.3,7.8c-18.7,88.6-37.4,177.2-56.2,265.9c-1.3,6.1-2.3,6.9-8.5,6.9
		c-48.5,0-97,0-145.5,0c-6.6,0-8.4-2.1-7-8.5c0.8-4.1,1.7-8.3,2.6-12.4c0.8-3.5,3.2-5.3,6.2-4.7c3.2,0.7,4.7,3.3,4,7
		c-0.5,2.6-1.1,5.3-1.7,8.1c46.7,0,93.2,0,140.1,0C242.1,193.3,260.4,106.8,278.7,20.2z"/>
	<path class="st0" d="M130.5,259.1c20.5,0,41.3,0,62.5,0c0.3-0.8,0.5-1.5,0.8-2.3c2.9-8.9,8.8-14.8,17.8-17.3c2.3-0.6,3-1.7,3.5-3.8
		c9.4-42.3,18.8-84.6,28.2-126.9c3.4-15.2,6.8-30.4,10.1-45.6c0.1-0.6,0.2-1.2,0.3-2.1c-10-3.2-16.5-9.7-19.1-20c-21,0-42,0-62.9,0
		c-1.5,3.1-2.6,6.2-4.4,9c-3.3,5.3-8.2,9-14.3,10.5c-2.5,0.6-3.4,2-3.9,4.3c-7.6,34.5-15.3,69-22.9,103.5c-1.1,4.9-2.2,9.7-3.2,14.6
		c-1,4.3-3.1,6.2-6.5,5.6c-3.3-0.6-4.7-3.4-3.7-7.7c5.2-23.5,10.5-47.1,15.7-70.6c4-17.8,7.9-35.7,11.9-53.5c0.9-4.2,2-5.1,6.4-5.4
		c7.9-0.7,13.8-6.6,14.5-14.5c0.4-4.7,2-6.2,6.8-6.2c23.2,0,46.3,0,69.5,0c5,0,6.5,1.4,6.9,6.4c0.7,7.7,6.7,13.6,14.4,14.3
		c5.4,0.5,7,2.7,5.8,7.9c-13.5,61-27.1,122-40.6,182.9c-1.2,5.5-1.8,6-7.4,6.7c-7.4,0.9-13.1,6.8-13.8,14.2
		c-0.5,5.2-1.9,6.5-7.2,6.5c-23,0-45.9,0-68.9,0c-5.3,0-6.4-1.3-7.3-6.5c-0.5-3-1.9-5.9-3.5-8.5c-2-3.3-2.1-6.1,0.5-8.1
		c2.5-1.9,5.7-1.4,7.8,1.8C125.7,251.5,127.4,255.1,130.5,259.1z"/>
	<path class="st0" d="M15.5,144.8c0.6,0.2,1.7,0.6,2.8,1.1c44.4,22.2,88.7,44.3,133.1,66.5c2.2,1.1,3.8,2.5,3.8,5.1
		s-1.6,4.1-3.8,5.2C107,244.9,62.7,267,18.3,289.2c-2.3,1.1-4.5,1.7-6.7-0.1c-2.1-1.7-2.2-3.9-1.6-6.5c4.8-20.5,9.5-41,14.2-61.6
		c0.5-2.2,0.5-4.7,0-6.9c-4.6-20.7-9.5-41.3-14.2-61.9C9.1,148,11.2,144.8,15.5,144.8z M22.5,275.5c38.9-19.5,77.1-38.6,116-58
		c-39-19.5-77.2-38.6-116-58c4.2,18,8.2,35.3,12.2,52.8c12.2,0,24.1,0,36,0c4.2,0,6.5,1.8,6.6,5c0.1,3.3-2.4,5.3-6.7,5.3
		c-10.8,0-21.6,0-32.5,0c-1.2,0-2.3,0-3.5,0C30.6,240.4,26.6,257.6,22.5,275.5z"/>
	<path class="st0" d="M181.3,113.6c20,0,36.3,16.4,36.3,36.4s-16.4,36.3-36.4,36.3s-36.3-16.4-36.3-36.4
		C144.9,130.9,161.3,113.6,181.3,113.6z M181.2,124c-14.3,0-26,11.7-26,26c0,14.2,11.6,25.8,25.8,25.9c14.3,0.1,26.1-11.6,26.1-25.9
		C207.2,135.7,195.6,124,181.2,124z"/>
	<path class="st0" d="M61.7,40.9c-14.8,0-29.7,0-44.5,0c-1,0-2,0.1-2.9-0.1c-2.8-0.5-4.5-2.2-4.5-5.1c0-2.9,1.7-4.6,4.5-5.1
		c1.1-0.2,2.2-0.1,3.2-0.1c29.4,0,58.9,0,88.3,0c1.1,0,2.2-0.1,3.2,0.1c2.8,0.5,4.5,2.2,4.5,5.1s-1.7,4.6-4.5,5.1
		c-0.9,0.2-1.9,0.1-2.9,0.1C91.4,40.9,76.5,40.9,61.7,40.9z"/>
	<path class="st0" d="M67.2,56.5c11.7,0,23.4,0,35.1,0c3.6,0,5.7,1.7,6.1,4.5c0.4,3.2-2,5.8-5.8,5.8c-7.5,0.1-14.9,0-22.4,0
		c-16,0-32,0-48.1-0.1c-1.6,0-3.9-0.3-4.8-1.3c-1.1-1.3-1.9-3.7-1.6-5.4c0.4-2.6,2.7-3.6,5.4-3.6c10.1,0,20.1,0,30.2,0
		C63.3,56.5,65.3,56.5,67.2,56.5z"/>
	<path class="st0" d="M61.7,92.8c-11.8,0-23.6,0-35.4,0c-3.6,0-5.7-1.7-6.1-4.5c-0.4-3.2,2-5.8,5.8-5.8c7.3-0.1,14.5,0,21.8,0
		c16.2,0,32.5,0,48.7,0.1c1.6,0,3.9,0.2,4.8,1.3c1.2,1.3,1.9,3.7,1.6,5.4c-0.4,2.6-2.7,3.7-5.4,3.7c-9.5,0-19.1,0-28.6,0
		C66.5,92.8,64.1,92.8,61.7,92.8z"/>
	<path class="st0" d="M56.8,108.4c11.7,0,23.4,0,35.1,0c3.6,0,5.7,1.7,6.1,4.5c0.4,3.2-2,5.8-5.8,5.8c-7,0.1-14.1,0-21.1,0
		c-16.5,0-32.9,0-49.4-0.1c-1.6,0-3.9-0.3-4.8-1.3c-1.2-1.3-1.9-3.7-1.6-5.4c0.4-2.6,2.7-3.6,5.4-3.6c10.1,0,20.1,0,30.2,0
		C52.9,108.4,54.9,108.4,56.8,108.4z"/>
	<path class="st0" d="M212.4,77.3c0,8.5-7,15.5-15.5,15.5c-8.6,0-15.7-7.1-15.6-15.7c0-8.6,7.2-15.6,15.8-15.5
		C205.5,61.8,212.4,68.8,212.4,77.3z M202,77.3c0-2.8-2.3-5.2-5.2-5.2c-2.8,0-5.2,2.3-5.2,5.2c0,2.8,2.3,5.2,5.2,5.2
		C199.6,82.4,202,80.1,202,77.3z"/>
	<path class="st0" d="M61.6,144.8c-8.2,0-16.5,0-24.7,0c-4,0-6.4-2-6.4-5.3c0.1-3.2,2.4-5.1,6.3-5.1c16.6,0,33.1,0,49.7,0
		c4,0,6.4,2.1,6.4,5.3c-0.1,3.1-2.4,5.1-6.3,5.1C78.3,144.8,69.9,144.8,61.6,144.8z"/>
	<path class="st0" d="M176,221.8c0,12-11.4,19.7-21.4,15.4c-3.1-1.3-4.5-3.9-3.6-6.7c1-2.9,3.8-4.3,7.1-3.1c3,1.1,5.3,0.5,6.9-2.3
		c1.4-2.5,0.6-4.8-2.2-6.9c-3-2.3-3.7-4.9-2-7.5s4.9-3,8-1C173.5,212.7,175.8,217.2,176,221.8z"/>
</g>
</svg>
