<?xml version="1.0" encoding="utf-8"?>
<!-- Generator: Adobe Illustrator 28.0.0, SVG Export Plug-In . SVG Version: 6.00 Build 0)  -->
<svg version="1.1" id="Layer_1" xmlns="http://www.w3.org/2000/svg" xmlns:xlink="http://www.w3.org/1999/xlink" x="0px" y="0px"
	 viewBox="0 0 300 300" style="enable-background:new 0 0 300 300;" xml:space="preserve">
<style type="text/css">
	.st0{fill:#FFFFFF;}
</style>
<path class="st0" d="M171,79.8c3.8,0,5.7,1.6,5.8,4.8c0,1.6-0.4,2.8-1.2,3.7c-0.9,1-2.5,1.5-4.6,1.5c-14.4,0-28.8,0-43.2,0h-7.2
	l-13.4,0c-12.3,0-24.6,0-36.9,0c-2.6,0-4.6-1.5-5-3.6c-0.6-3.9,1.2-5.2,2.6-5.8c0.8-0.3,1.8-0.5,3.1-0.5
	C104.3,79.7,137.6,79.7,171,79.8z M149,126c5.3,0,6-2.8,6-5c0-1.6-0.4-2.8-1.2-3.6c-1-1-2.6-1.5-4.7-1.5c-26,0-51.9,0-77.9,0
	c-5.3,0-5.9,2.8-6,5c0,1.7,0.5,2.9,1.4,3.7c1,0.9,2.5,1.3,4.6,1.3c9,0,18.1,0,27.1,0l11.6,0l11.7,0C130.8,126,139.9,126,149,126z
	 M260.3,137.2c-17.1,16.9-34.1,33.8-51.3,50.7c-2.4,2.3-3.4,4.6-3.3,7.8c0.1,6.1,0,12.3,0,18.5c-0.1,10-0.1,20.3,0.2,30.5
	c0.2,5.2-1.8,10.1-5.5,13.9c-3.8,3.9-8.9,6-14.4,6c0,0-0.1,0-0.1,0c-19.6-0.1-39.4-0.1-59-0.1c-11.1,0-22.1,0-32.9,0
	c-12.8,0-25.7,0-38.6,0c-11.8,0-19.8-7.9-19.8-19.7c0-63.1,0-126.1,0-189.2c0-11.9,8-19.8,20-19.8c12.8,0,25.6,0,38.4,0
	c30.1,0,61.2,0.1,91.8-0.1c0,0,0.1,0,0.1,0c5.5,0,10.6,2.1,14.4,5.9c3.7,3.8,5.7,8.8,5.6,14.2c-0.3,16.7-0.3,33.6-0.2,50
	c0,6.9,0.1,13.8,0.1,20.7v5l2.9,1.2l7.7-7.8c4.9-4.9,9.8-9.9,14.7-14.8c3.4-3.4,6.7-5.1,9.9-5.1c0,0,0,0,0,0c3.2,0,6.5,1.7,9.8,5
	l2.1,2.1c2.5,2.5,5,4.9,7.4,7.4C265.8,124.9,265.8,131.8,260.3,137.2z M195.7,217.1l0-14.5l-2.6,1.9c-1,0.7-2,1.5-2.9,2.2
	c-1.8,1.5-3.4,2.7-5.2,3.6c-8.2,4-16.4,7.8-24.7,11.6l-10.3,4.8c-3.5,1.7-5.6,1.6-7.5-0.4c-1.9-1.9-1.9-4-0.3-7.5l5.8-12.3
	c3.5-7.6,7.1-15.1,10.6-22.6c0.8-1.6,1.9-3.2,3.2-4.5c4-4.1,8.1-8.1,12.2-12.2c6.3-6.3,12.5-12.6,18.7-18.9c1.6-1.7,2.8-4.4,2.8-6.7
	c0.1-16.3,0.1-32.7,0.1-49.1l0-13.3l0-6.9c0-5.6,0-11.1,0-16.7c-0.1-6-3.4-9.4-9.5-9.4c-43.7,0-87.5,0-131.2,0c-5.8,0-8.9,3.1-8.9,9
	c0,6.2,0,12.5,0,18.8v170.5c0,6.5,3,9.6,9,9.6c21.9,0,43.9,0,65.8,0c21.9,0,43.9,0,65.8,0c5.5,0,8.9-3.2,9-8.3
	C195.8,236.1,195.8,226.6,195.7,217.1z M233.6,148.8l-13-13.5l-2.1,2c-0.6,0.6-1.2,1.1-1.8,1.7c-4.1,4.1-8.1,8.2-12.2,12.3
	c-9.4,9.6-19.2,19.5-29.2,28.8c-6.8,6.3-10.1,14.4-13.3,22.1c-0.7,1.7-1.4,3.5-2.2,5.2l-1.7,3.9l7.7-3.6c2.9-1.4,5.9-2.8,8.9-4
	c4.4-1.9,8.4-4.6,12.5-8.8c9.9-10,20-19.9,30-29.8l13.2-13.1c0.5-0.5,1-1.1,1.5-1.6L233.6,148.8z M253.8,127.9l-12.4-12.8
	l-12.6,12.5l12.6,13.1L253.8,127.9z M66.4,160.8c0.9,1,2.5,1.5,4.6,1.5c6.7,0,13.4,0,20.2,0h8.1h8.1c6.7,0,13.4,0,20.2,0h0
	c2.1,0,3.6-0.5,4.6-1.5c0.8-0.8,1.2-2.1,1.2-3.7c-0.1-3.2-2-4.8-5.8-4.8c-18.8,0-37.7,0-56.5,0c-3.8,0-5.7,1.6-5.8,4.8
	C65.2,158.7,65.6,159.9,66.4,160.8z"/>
</svg>
