<?xml version="1.0" encoding="UTF-8"?>
<svg xmlns="http://www.w3.org/2000/svg" version="1.1" viewBox="0 0 300 300">
  <defs>
    <style>
      .cls-1 {
        fill: #fff;
      }
    </style>
  </defs>
  <!-- Generator: Adobe Illustrator 28.6.0, SVG Export Plug-In . SVG Version: 1.2.0 Build 709)  -->
  <g>
    <g id="Layer_1">
      <path class="cls-1" d="M150,29.3c-32.2,0-62.5,12.6-85.3,35.3-22.8,22.8-35.3,53.1-35.3,85.3s12.6,62.5,35.3,85.3c22.8,22.8,53.1,35.3,85.3,35.3s62.5-12.6,85.3-35.3c22.8-22.8,35.3-53.1,35.3-85.3s-12.6-62.5-35.3-85.3c-22.8-22.8-53.1-35.3-85.3-35.3h0ZM124.2,46.7c-10.7,10.3-19.7,23.2-26.4,37.7h-31.6c14.4-18.3,34.7-31.9,58-37.7ZM98,142.9c.7-15.8,3.9-30.8,9.1-44.5h85.8c5.2,13.6,8.4,28.7,9.1,44.5h-104ZM202,157.1c-.7,15.8-3.9,30.8-9.1,44.5h-85.8c-5.2-13.6-8.4-28.7-9.1-44.5h104ZM56.8,98.5h35.3c-4.7,13.9-7.6,28.9-8.2,44.5h-40.1c1.1-16,5.7-31.1,13.1-44.5ZM56.8,201.5c-7.4-13.3-12-28.4-13.1-44.5h40.1c.7,15.6,3.5,30.6,8.2,44.5h-35.3ZM66.2,215.7h31.6c6.7,14.5,15.7,27.3,26.4,37.7-23.3-5.8-43.6-19.3-58-37.7ZM150,255.5c-15.1-9-27.5-22.8-36.5-39.8h73c-9,17-21.5,30.9-36.5,39.8ZM175.8,253.3c10.7-10.3,19.7-23.2,26.4-37.7h31.6c-14.4,18.3-34.7,31.9-58,37.7ZM243.2,201.5h-35.3c4.7-13.9,7.6-28.9,8.2-44.5h40.1c-1.1,16-5.7,31.1-13.1,44.5ZM243.2,98.5c7.4,13.3,12,28.4,13.1,44.5h-40.1c-.7-15.6-3.5-30.6-8.2-44.5h35.3ZM233.8,84.3h-31.6c-6.7-14.5-15.7-27.3-26.4-37.7,23.3,5.8,43.6,19.3,58,37.7ZM186.5,84.3h-73c9-17,21.5-30.9,36.5-39.8,15,9,27.5,22.8,36.5,39.8Z"/>
    </g>
  </g>
</svg>