<?xml version="1.0" encoding="utf-8"?>
<!-- Generator: Adobe Illustrator 28.3.0, SVG Export Plug-In . SVG Version: 6.00 Build 0)  -->
<svg version="1.1" id="Layer_1" xmlns="http://www.w3.org/2000/svg" xmlns:xlink="http://www.w3.org/1999/xlink" x="0px" y="0px"
	 viewBox="0 0 300 300" style="enable-background:new 0 0 300 300;" xml:space="preserve">
<style type="text/css">
	.st0{fill:#FFFFFF;}
</style>
<g>
	<path class="st0" d="M183,209c0,15.2,0,30.5,0,45.7c0,3.4-0.8,6.4-2.9,9.1c-3.3,4.2-8.9,6-14.2,4.6c-5.1-1.4-9.2-5.8-9.5-11.1
		c-0.4-7.7-0.2-15.5-0.2-23.2c0-2.2,1.6-3.5,3.6-3.4c2,0.1,3.3,1.4,3.3,3.7c0.1,6.4,0,12.8,0,19.3c0,5.2,2.3,8.2,6.4,8.3
		c4.1,0.1,6.5-3,6.5-8.3c0-44.9,0-89.9,0-134.8c0-5.7,1.9-10.2,5.9-14.3c18.2-18,36.3-36.1,54.3-54.3c1.2-1.2,2.3-2.8,2.7-4.4
		c0.8-2.5-0.6-5.2-2.9-6.6c-2.2-1.4-5-1.3-7.2,0.3c-0.8,0.6-1.5,1.3-2.2,2c-16.7,16.7-33.4,33.3-50,50.1c-2.8,2.8-5.8,4.4-9.9,4.2
		c-0.9,0-2,0.4-2.8,0.8c-9.3,4.8-18.6,4.8-28,0c-1-0.5-2.2-0.9-3.3-0.8c-3.7,0.1-6.5-1.3-9.1-3.9c-17-17-34-34-51-51
		c-1.9-1.9-4-3.2-6.8-2.6c-5,1.1-6.7,7.1-3,10.9c3.8,4,7.7,7.8,11.6,11.7c0.4,0.4,0.9,0.9,1.3,1.3c1.3,1.6,1.2,3.5-0.1,4.8
		c-1.3,1.3-3.4,1.5-4.8,0c-4.8-4.7-9.7-9.3-14.2-14.4c-4.5-5.1-3.7-13.2,1.3-17.9c5.1-4.8,13-5,18.1-0.3c3.8,3.5,7.4,7.3,11,10.9
		c11.1,11.1,22.2,22.2,33.3,33.3c0.5,0.5,1.1,1,1.9,1.8c-3.5-14.4,0.1-26.1,12.5-34c10.5-6.6,21.5-6.3,31.6,0.8
		c11.4,8,14.6,19.4,11.3,32.7c0.2,0.2,0.4,0.4,0.6,0.7c0.4-0.7,0.7-1.5,1.3-2C194,64.4,208.3,50,222.7,35.7
		c4.7-4.7,10.9-5.8,16.3-2.9c7.9,4.2,9.5,14.7,3.1,21.3c-5.5,5.7-11.1,11.2-16.7,16.8c-5.3,5.3-10.6,10.6-15.9,15.9
		c-0.5,0.5-1,1.1-1.8,2c1.3,0,2.1,0,2.9,0c8.6,0,17.2-0.1,25.8,0c6.8,0.1,12.3,5,13.3,11.6c0.9,6.2-3,12.5-9.1,14.5
		c-1.7,0.5-3.5,0.7-5.2,0.7c-16.5,0.1-32.9,0-49.4,0c-0.8,0-1.7,0-2.8,0c0,1-0.1,1.8-0.1,2.6c0,16.6,0,33.3,0,49.9
		c0,1.5,0.4,2.6,1.5,3.6c19.1,19,38.1,38,57.1,57.1c4.2,4.2,5.6,9,3.7,14.6c-3,8.5-13.4,11.6-20.6,6.2c-1-0.7-1.9-1.6-2.7-2.5
		c-12.3-12.2-24.5-24.5-36.7-36.8c-0.6-0.6-0.9-1.5-1.3-2.2C183.7,208.5,183.3,208.7,183,209z M172,71.2c0-12.2-9.8-21.9-22-21.9
		c-12.2,0-22,9.8-22,21.9c0,12.2,10,22.2,22.1,22.1C162.2,93.2,172,83.3,172,71.2z M183,180.2c0,5.7,0.1,10.8,0,15.8
		c0,1.6,0.5,2.7,1.6,3.8c10.5,10.5,21,21,31.5,31.5c4,4,8.1,8.1,12.2,12.1c2.1,2,5.1,2.4,7.5,1.1c2.4-1.3,3.9-4,3.2-6.6
		c-0.5-1.7-1.5-3.4-2.8-4.6c-17-17.2-34.2-34.3-51.3-51.4C184.4,181.5,183.9,181.1,183,180.2z M187.8,108.7c16.6,0,32.6,0,48.6,0
		c3.8,0,6.5-2.9,6.5-6.5c0-3.6-2.8-6.4-6.8-6.4c-11.4-0.1-22.7,0-34.1,0c-0.6,0-1.4,0.1-1.7,0.4
		C196.1,100.2,192.1,104.3,187.8,108.7z"/>
	<path class="st0" d="M116.2,208.4c-0.5,0.7-0.9,1.5-1.5,2.1c-12.5,12.5-24.9,25-37.4,37.4c-5.8,5.8-14.2,5.9-19.6,0.3
		c-4.8-5-5.1-12.7-0.6-17.9c0.6-0.8,1.4-1.5,2.1-2.2c18.7-18.7,37.4-37.4,56.1-56.1c1.2-1.2,1.8-2.5,1.8-4.2
		c-0.1-16.4,0-32.8,0-49.2c0-0.9,0-1.8,0-3c-1.2,0-2.1,0-3,0c-16.8,0-33.6,0.1-50.3,0c-10.1-0.1-16.5-10.6-11.9-19.5
		c2.5-4.9,6.8-7.3,12.2-7.4c8.4-0.1,16.9,0,25.3,0c0.8,0,1.7,0,2.9,0c-0.6-0.7-0.9-1.2-1.3-1.6c-2.7-2.7-5.5-5.4-8.2-8.2
		c-1.8-1.8-1.8-3.9-0.3-5.3c1.5-1.5,3.5-1.4,5.3,0.5c7.8,7.8,15.7,15.6,23.5,23.4c2.5,2.5,5,5.1,7.6,7.5c3.7,3.5,5.3,7.8,5.3,12.9
		c0,45,0,90,0,135c0,1,0,2,0.1,3c0.3,3.2,3,5.7,6.2,5.8c3.1,0.1,5.9-2.1,6.4-5.2c0.2-1.1,0.2-2.3,0.2-3.5c0-22.8,0-45.6,0-68.4
		c0-5.9,2.7-10.1,7.8-11.1c3.4-0.6,7.1-0.6,10.6,0c4.6,0.7,7.8,4.7,7.9,9.4c0.2,11.5,0.1,23,0.1,34.6c0,2.4-1.5,3.7-3.6,3.7
		c-2.1-0.1-3.4-1.5-3.4-4.2c0-10.3,0-20.6,0-30.9c0-0.8,0-1.5,0-2.3c-0.2-2.8-1.4-3.6-5-3.7c-6.3-0.2-7,0.7-7.4,3.6
		c-0.1,0.8,0,1.5,0,2.3c0,22.5,0,45,0,67.5c0,1.8-0.1,3.6-0.5,5.3c-1.6,6.4-7.9,10.6-14.4,9.9c-6.7-0.8-11.8-6.3-11.9-13
		c-0.1-14.8,0-29.5,0-44.3c0-0.8,0-1.7,0-2.5C116.7,208.8,116.4,208.6,116.2,208.4z M117,180.3c-0.6,0.5-0.9,0.7-1.1,0.9
		c-17.6,17.6-35.2,35.2-52.8,52.8c-2.9,2.9-3,6.9-0.3,9.5c2.6,2.6,6.6,2.4,9.5-0.5c14.6-14.5,29.1-29.1,43.6-43.6
		c0.5-0.5,1-1.4,1.1-2.2C117,191.8,117,186.3,117,180.3z M112.3,108.7c-4.4-4.4-8.3-8.4-12.4-12.3c-0.4-0.4-1.3-0.5-1.9-0.5
		c-11.3,0-22.7-0.1-34,0c-1.4,0-2.9,0.5-4.1,1.3c-2.3,1.4-3.2,4.3-2.4,6.9c0.9,2.9,3.2,4.6,6.4,4.6c7.6,0,15.3,0,22.9,0
		C95.1,108.7,103.4,108.7,112.3,108.7z"/>
	<path class="st0" d="M78.7,122.6c2.8,0,4.1,2.2,3.4,5.2c-1,4.1-2.1,8.2-2.7,12.4c-2,15.3,0.8,29.7,8.1,43.2
		c0.1,0.3,0.3,0.5,0.5,0.8c1.4,2.6,1.1,4.6-0.8,5.7c-2,1.1-3.8,0.4-5.3-2.1c-4.8-8.5-8-17.6-9.4-27.2c-1.7-11.7-0.8-23.3,2.7-34.6
		C75.9,124.1,76.8,122.7,78.7,122.6z"/>
	<path class="st0" d="M95.4,149.1c0-8.5,1.9-16.5,5.7-24.1c1.1-2.2,2.9-2.9,4.7-2c1.9,0.9,2.5,2.7,1.6,4.9c-0.1,0.4-0.3,0.7-0.5,1
		c-2.7,5.8-4.2,11.9-4.5,18.3c-0.2,6.7,0.8,13.2,3.3,19.5c0.2,0.4,0.4,0.9,0.5,1.3c0.6,2.1-0.2,3.9-1.9,4.6c-1.8,0.7-3.9,0-4.5-2.1
		c-1.5-5.4-2.9-10.8-4.1-16.3C95.4,152.6,95.5,150.8,95.4,149.1z"/>
	<path class="st0" d="M204.5,149.3c0,7.2-1.4,14.1-4.2,20.8c-0.9,2.3-2.6,3.2-4.5,2.6c-2.1-0.6-3-2.7-1.9-5.3
		c2.9-7.2,4-14.7,3.4-22.5c-0.5-5.8-2.1-11.2-4.5-16.4c-0.5-1.2-0.6-2.9-0.2-4.1c0.3-0.8,2-1.8,2.9-1.6c1.2,0.2,2.6,1.2,3.1,2.2
		c3.2,6.1,5,12.6,5.5,19.5C204.4,146.1,204.5,147.7,204.5,149.3z"/>
	<path class="st0" d="M215.3,190.4c-3.8,0-4.9-2.7-3.6-5.8c2.3-5.2,4.6-10.4,6.6-15.7c0.8-2.1,1.1-4.5,1.7-6.7
		c0.6-2.3,2.1-3.4,4.2-3c2,0.4,3.1,2.2,2.7,4.4c-1.7,8.6-4.6,16.8-9,24.4C217.2,189.1,215.9,189.9,215.3,190.4z"/>
	<path class="st0" d="M228,144.4c0,0.5,0.1,0.9,0.1,1.4c0,2.4-1.2,3.9-3.2,4c-2,0.1-3.4-1.2-3.7-3.6c-0.6-4.6-1.3-9.3-2-13.9
		c-0.3-1.6-0.9-3.1-1.3-4.7c-0.6-2.4,0.4-4.3,2.4-4.8c1.9-0.5,3.7,0.6,4.3,2.8c0.8,2.6,1.5,5.2,2,7.8c0.7,3.6,1.1,7.3,1.7,10.9
		C228.2,144.3,228.1,144.3,228,144.4z"/>
	<path class="st0" d="M149.9,86.9c-4.3-0.2-7.8-1.9-10.3-5.6c-1.2-1.8-1-3.8,0.5-5c1.5-1.2,3.6-0.9,5.1,0.8c3.2,3.7,6.3,3.7,9.4,0
		c1.4-1.6,3.3-2,4.9-0.9c1.6,1.2,1.9,3.2,0.6,5.1C157.7,84.9,154.3,86.7,149.9,86.9z"/>
	<path class="st0" d="M162.1,65.7c0,0.6,0.1,1.2,0,1.9c-0.2,1.9-1.2,3-3.1,3.1c-2,0.2-3.4-0.9-3.7-2.8c-0.3-1.6-0.3-3.3,0-4.8
		c0.3-1.9,1.7-3,3.6-2.8c2,0.2,3,1.3,3.2,3.3C162.2,64.3,162.1,65,162.1,65.7C162.1,65.7,162.1,65.7,162.1,65.7z"/>
	<path class="st0" d="M144.6,65.5c0,0.5,0,1.1,0,1.6c-0.1,2.3-1.4,3.6-3.4,3.6c-2,0-3.4-1.3-3.6-3.5c-0.1-1.1-0.1-2.2,0-3.2
		c0.1-2.4,1.5-3.8,3.6-3.7c2.1,0,3.3,1.4,3.4,3.8C144.6,64.6,144.6,65,144.6,65.5C144.6,65.5,144.6,65.5,144.6,65.5z"/>
</g>
</svg>
