<?xml version="1.0" encoding="UTF-8"?>
<svg id="Layer_1" data-name="Layer 1" xmlns="http://www.w3.org/2000/svg" version="1.1" viewBox="0 0 300 300">
  <defs>
    <style>
      .cls-1 {
        fill: #fff;
        stroke-width: 0px;
      }
    </style>
  </defs>
  <path class="cls-1" d="M13.5,257.1c.5-2.2.9-4.5,1.6-6.7.9-2.8,1.8-5.6,2.9-8.3,1-2.4,3.2-3.2,5.2-2.3,2.2.9,3.2,3.1,2,5.5-3.9,8.1-4,16.6-3.7,25.3.2,4.6,3.6,7.7,8.5,7.7,11.1,0,22.2,0,33.3,0,9.9,0,19.7,0,29.6,0,5.7,0,8.9-3.2,9-8.9.1-7.6,0-15.1-3-22.3-10-24.3-40.5-32.6-61.4-16.7-.6.5-1.2,1-1.9,1.4-2,1.2-4.2.9-5.5-.8-1.3-1.7-1.3-4,.7-5.4,3.5-2.5,7.3-4.7,10.9-7,1-.6,2.1-.9,3.5-1.6-8.6-6.8-12.8-15.5-11.8-26.3.6-6.8,3.5-12.6,8.3-17.4,9.7-9.7,26.5-11.9,39.4-.7,3-1.5,6.1-3.1,9.4-4.8-.7-.7-1.4-1.3-2.1-1.9-8.9-7.9-12-20.3-7.8-31.3,1.3-3.3,3.3-4.6,5.6-3.7,2.5,1,3,3.1,1.8,6.5-4,11.3,2,23.4,13.3,26.8,11.5,3.4,23.3-3.5,25.9-15.3,1.6-7.5-.4-14.1-6.1-19.4-5.7-5.3-12.6-6.6-20.1-4.6-.6.2-1.2.4-1.8.6-2.3.6-4.4-.4-5.1-2.6-.7-2.1.4-4.1,2.8-5,6.6-2.4,13.2-2.6,19.8-.2,20.7,7.5,25.6,34.1,9,48.5-.6.5-1.2,1-1.9,1.6,2.5,1.2,4.7,2.4,7.1,3.4.5.2,1.3,0,1.8-.4,11.7-7.7,22.9-7.7,34.3,0,.6.4,1.8.5,2.5.2,2.5-1,4.8-2.2,7.4-3.5-7.9-6.6-12.1-14.9-11.3-25.4.7-8,4.2-14.6,10.4-19.7,11.9-9.8,29.4-8.2,39.6,3.4,9.4,10.8,10.6,30.2-5.4,42.4,2.8,1.5,5.6,2.9,8.4,4.4,15.5-10.5,30.4-9.7,40.9,2.2,5.6,6.4,7.9,13.8,7,22.2-.9,8.2-5,14.8-11.7,19.9,2.8,1.5,5.5,2.7,8,4.1,3,1.7,3.8,3.8,2.6,6-1.3,2.3-3.6,2.6-6.7.8-21.7-12.5-48.6-3.3-57.9,19.7-3.1,7.6-3.2,15.6-2.7,23.6.3,4.2,3.7,7.1,8,7.1,21.4,0,42.8,0,64.2,0,4.7,0,7.8-3.5,8-8.2.4-10.5-.5-20.6-6.5-29.7-1.4-2.1-.6-4.4,1.3-5.6,1.9-1.1,4.1-.6,5.5,1.5,4.6,7.2,7.1,15,7.6,23.5.2,3.6.2,7.3,0,10.9-.2,8.4-7,15.4-15.3,15.4-21.9.1-43.7,0-65.6,0-4.5,0-8.2-2.1-11.4-5.3-4.1,4.5-9.3,5.4-15.1,5.4-19.8-.1-39.6-.1-59.4,0-5.2,0-9.8-1.3-13.5-5.2-1.9,1.2-3.6,2.8-5.6,3.5-2.4.9-5.1,1.5-7.7,1.5-20.7.1-41.4,0-62.1,0-8.7,0-14.1-4-16.7-12.4-.1-.3-.3-.6-.4-1,0-5.3,0-10.7,0-16ZM150,278.4c10.6,0,21.1,0,31.7,0,5.1,0,8.3-3.2,8.4-8.3,0-2.9,0-5.9,0-8.8-.5-19.7-14.8-35.5-34.9-38.6-18.2-2.8-36.8,8.7-43.1,26.6-2.3,6.6-2.2,13.4-2.2,20.3,0,5.7,3.2,8.8,8.9,8.9,10.4,0,20.8,0,31.2,0ZM133.3,217.3c-12.8-11.3-15.2-24.3-7.4-39.2-10.4-6.8-30-6.2-39.4,1.3,7,14.6,4.2,27.2-8.2,37.9,12.7,4.9,21.6,13.6,27.6,25.8,5.9-12.5,15-20.9,27.4-25.8ZM193.6,242.2c3.9-4.9,7.4-10.4,11.9-14.7,4.6-4.3,10.3-7.3,15.4-10.8-11.8-10.2-14.4-22.9-7.5-37.4-12-8.2-30.6-7.3-39.4-1,7.8,14.9,5.2,27.9-7.5,39.1,12.6,5,21.5,13.4,27,24.9ZM170.5,193.4c-.4-11.7-9.7-20.4-21.4-20.1-11,.3-19.9,9.7-19.7,20.7.2,11.5,9.7,20.6,21,20.3,11.3-.3,20.4-9.8,20.1-21ZM214.6,144.8c0-11.4-9-20.5-20.3-20.6-11.4,0-20.8,9.2-20.7,20.5,0,11.2,9.4,20.5,20.6,20.5,11.3,0,20.5-9.2,20.5-20.5ZM41.2,193.8c0,11.3,9.1,20.6,20.4,20.6,11.3,0,20.7-9.3,20.7-20.7,0-11.3-9.3-20.4-20.6-20.4-11.4,0-20.5,9.1-20.5,20.4ZM258.8,193.7c0-11.4-9.2-20.4-20.5-20.4-11.3,0-20.5,9.2-20.5,20.5,0,11.3,9.4,20.7,20.7,20.6,11.3-.1,20.4-9.3,20.3-20.7Z"/>
  <path class="cls-1" d="M177.2,13.5c1.7,1.2,2.7,2.6,2.7,4.8,0,13.1,0,26.1,0,39.2,0,6.5-4.9,11.7-11.3,12.4-5.9.7-11.7-3.2-13.4-9.1-2.6-9,5.2-17.4,14.7-15.8.6.1,1.2.3,1.9.4v-23.2c-8.8,1.4-17.4,2.7-26.4,4.1,0,1,0,2,0,2.9,0,11.4,0,22.7,0,34.1,0,5.4-3.8,9.9-8.8,11.4-5.2,1.6-10.8-.3-13.9-4.8-3.1-4.4-3.3-9.2-.5-13.8,2.9-4.7,7.3-6.6,12.7-5.9.8,0,1.5.3,2.6.5,0-4.2,0-8.1,0-12.1,0-4.9,0-9.8,0-14.7,0-3.5,1.1-4.7,4.6-5.2,10.3-1.6,20.5-3.2,30.8-4.8.4,0,.8-.3,1.2-.5,1.1,0,2.1,0,3.2,0ZM167.1,52.8c-2.6,0-4.5,2-4.5,4.6,0,2.5,2,4.6,4.5,4.6,2.5,0,4.7-2.2,4.6-4.8,0-2.5-2.1-4.4-4.7-4.4ZM137.3,62.7c0-2.6-1.9-4.5-4.5-4.5-2.5,0-4.6,1.9-4.7,4.4,0,2.6,2.1,4.8,4.7,4.7,2.5,0,4.5-2.1,4.5-4.6Z"/>
  <path class="cls-1" d="M86.5,81c0-5.4-.2-10.7,0-15.9,0-1.7,1-3.5,2-4.9,1.5-2,3.4-3.6,5.2-5.3,1.9-1.8,4.1-1.7,5.7-.1,1.6,1.6,1.8,4.2-.2,5.7-4.9,3.5-5.2,8.3-4.9,13.6.3,6.3.2,12.6,0,18.9-.1,6.7-4.7,11.6-11.2,12.5-5.8.8-11.5-2.9-13.4-8.7-2.9-8.9,4.7-17.7,13.9-16.2.8.1,1.6.3,2.8.5ZM86.4,92.9c0-2.4-2.1-4.6-4.5-4.6-2.5,0-4.6,2-4.6,4.5,0,2.6,2.1,4.8,4.6,4.7,2.4,0,4.5-2.2,4.5-4.6Z"/>
  <path class="cls-1" d="M216.5,81c0-5.6-.1-10.8,0-16,0-1.6.9-3.4,1.9-4.7,1.5-2,3.4-3.6,5.2-5.3,1.9-1.8,4-1.8,5.7-.3,1.7,1.6,1.9,4.3-.2,5.9-4.5,3.3-5.1,7.7-4.9,12.8.3,6.5.2,13,0,19.4-.1,6.5-4.4,11.5-10.6,12.5-5.9,1-11.7-2.3-13.8-8-1.6-4.5-1-8.8,2.1-12.5,3-3.6,7-5.1,11.7-4.3.8.1,1.6.3,2.6.4ZM212,97.5c2.4,0,4.5-2.2,4.5-4.6,0-2.5-2.3-4.7-4.8-4.6-2.5.1-4.4,2.3-4.3,4.8,0,2.5,2.2,4.5,4.7,4.4Z"/>
</svg>