<?xml version="1.0" encoding="UTF-8"?>
<svg xmlns="http://www.w3.org/2000/svg" version="1.1" viewBox="0 0 300 300">
  <defs>
    <style>
      .cls-1 {
        fill: #fff;
      }
    </style>
  </defs>
  <!-- Generator: Adobe Illustrator 28.6.0, SVG Export Plug-In . SVG Version: 1.2.0 Build 709)  -->
  <g>
    <g id="Layer_1">
      <path class="cls-1" d="M260.8,99.8c-6.1,4.8-11.7,9.2-17.3,13.6-19.6,15.4-39.3,30.9-58.9,46.3-9.5,7.4-18.2,7.4-27.7-.1-17.9-14.1-35.8-28.1-53.7-42.1-1.5-1.2-3.2-2-5.6-3.5-2.1,1.2-6.1,3.1-9.5,5.8-4.7,3.6-4.7,9.1-3.9,14.3.3,2.2,1.2,4.3,2.3,6.2,8.3,14.4,16.7,28.8,25,43.2,2.2,3.9,5.5,6.6,9.6,8.4,4,1.8,7.9,1.8,11.8-.6,2.9-1.8,5.9-3.4,8.9-5.1,8.8-5,18.1-4.4,26.2,1.8.8.6,1.6,1.2,2.3,1.9,11.5,12.2,20.6,25.8,25.1,42.1,2.1,7.8,0,14.8-8.1,19.3-29.5,16.2-57.6,13.1-84.5-5.7-11.9-8.3-21.6-18.9-29-31.2-11.3-18.7-22.3-37.5-32.8-56.6-8-14.5-12.6-30.2-13.2-46.8-1-27.1,9.1-49,30.9-65.3,3.1-2.3,6.7-4.3,10.2-5.9,6.1-2.8,11.4-.7,16.2,3.2,6.2,5,10.6,11.5,14.3,18.4,2.7,5,5.1,10.1,7.8,15.1.4.7,1.5,1.2,2.4,1.5.7.2,1.6,0,2.4,0h141.1c2.6,0,5.2.2,7.7.8,7.6,2,11.8,7.5,11.8,15.3v103.9c0,10.7-6.6,17.3-17.3,17.3h-52.1c-4.3,0-6.9-2.2-6.9-5.8s2.5-5.9,6.9-5.9h50.5c1.1,0,2.2,0,3.2-.1,2.4-.3,4-1.5,4-4.2v-96.1c-.1-.9-.1-1.8-.1-3.5ZM149.7,250c10.6-.3,21.1-2.7,30.7-8.5,4.4-2.6,4.5-2.6,3.4-7.6-.1-.4-.3-.9-.4-1.3-2.9-9.9-8.7-18.3-14.6-26.6-2.4-3.4-5.5-6.4-8.6-9.2-3.8-3.3-8-3.6-12.4-.8-3.2,2.1-6.6,4-10.1,5.7-2.5,1.2-5.1,2.4-7.8,2.7-12.4,1.1-21.9-4.1-28.2-14.6-8.5-14.1-16.6-28.6-25-42.8-3.5-5.9-5.2-12.2-4.6-19,.8-8.4,4.2-15.3,11.9-19.7,2.8-1.6,5.6-3.2,8.4-4.8,6.8-3.9,8.4-7.1,6.2-14.7-3.6-12.8-9.9-24.2-18.4-34.4-1.2-1.5-2.9-2.7-4.6-3.7-.7-.4-2-.5-2.7,0-2.8,1.5-5.6,2.9-8.1,4.8-16.6,12.3-25.1,29-25.6,49.6-.4,17.9,4.6,34.5,13.3,49.9,9.5,17,19.4,33.8,29.3,50.6,5.4,9.2,12.2,17.3,20.2,24.5,13.5,12,28.8,19.7,47.7,20ZM107.1,106c1.1.8,2,1.3,2.8,2,17.9,14,35.8,28.1,53.6,42.2,5.6,4.4,8.5,4.4,14.1,0,22.3-17.5,44.5-35,66.8-52.4,3.2-2.5,6.4-5.1,10-7.9H110.7c.8,5.7-.2,11.1-3.6,16.1Z"/>
    </g>
  </g>
</svg>