<?xml version="1.0" encoding="utf-8"?>
<!-- Generator: Adobe Illustrator 28.3.0, SVG Export Plug-In . SVG Version: 6.00 Build 0)  -->
<svg version="1.1" id="Layer_1" xmlns="http://www.w3.org/2000/svg" xmlns:xlink="http://www.w3.org/1999/xlink" x="0px" y="0px"
	 viewBox="0 0 300 300" style="enable-background:new 0 0 300 300;" xml:space="preserve">
<style type="text/css">
	.st0{fill:#FFFFFF;}
</style>
<path class="st0" d="M231.8,92.3c-11.9-5.9-23.8-11.8-35.7-17.7C185.6,69.5,175,64.3,164.5,59c-1.4-0.7-2.3-0.7-3.6,0.4
	c-5.8,5.1-13.9,5-19.7,0c-1-0.9-1.8-1.2-3.1-0.6c-22.3,11.1-44.6,22.1-66.9,33.1c-0.2,0.1-0.4,0.3-0.7,1c0.9,0,1.8,0,2.8,0
	c35,0,70.1,0,105.1,0c1.1,0,2.3,0,3.3,0.3c1.9,0.5,2.8,2,2.7,3.9c-0.2,1.9-1.3,3.2-3.2,3.5c-1.1,0.2-2.2,0.1-3.3,0.1
	c-47.8,0-95.7,0-143.5,0.1c-2.1,0-4.4,0.7-6.2,1.7c-2.1,1.2-2.3,3.6-2.3,6c0,21.1,0,42.3,0,63.4c0,26.3,0,52.6,0,78.9
	c0,6.3,2.2,8.5,8.5,8.5c53.6,0,107.2,0,160.8,0c0.9,0,1.9-0.1,2.8,0c2.2,0.2,3.5,1.5,3.5,3.7c0.1,2.2-1.2,3.5-3.3,3.9
	c-0.7,0.2-1.5,0.1-2.3,0.1c-54.1,0-108.2,0-162.4,0C24,267,18,261.1,18,251.6c0-47.8,0-95.5,0-143.3c0-9.5,5.9-15.4,15.5-15.4
	c0.1,0,0.2,0,0.3,0c6,0,12.3,0.9,18-0.4c5.7-1.3,10.9-5,16.2-7.6c22-10.9,44-21.8,66-32.6c1.6-0.8,2.2-1.6,2.2-3.4
	c-0.3-8.8,6.5-15.9,15.1-15.8c8.6,0,15.3,7.1,14.9,16c-0.1,1.6,0.4,2.4,1.8,3.1C195,65.4,222,78.8,249.1,92.1c1,0.5,2.3,0.7,3.5,0.7
	c4.7,0.1,9.4,0,14.2,0c9.2,0,15.2,6,15.2,15.2c0,47.9,0,95.9,0,143.8c0,9-6,15.1-15,15.1c-17.5,0-35,0-52.6,0
	c-1.3,0-2.9-0.3-3.8-1.1c-0.8-0.8-1.4-2.6-1.1-3.6c0.4-1.2,1.8-2.1,2.9-2.8c0.7-0.4,1.8-0.1,2.8-0.1c16.9,0,33.8,0,50.8,0
	c5.8,0,8.1-2.4,8.1-8.1c0-47.4,0-94.9,0-142.3c0-5.8-2.3-8.1-8.1-8.1c-22.3,0-44.7,0-67,0c-0.8,0-1.5,0-2.3,0
	c-2.8-0.1-4.5-1.5-4.5-3.9c0-2.3,1.7-3.9,4.5-3.9c10.5,0,21,0,31.4,0c1.2,0,2.4,0,3.5,0C231.8,92.7,231.8,92.5,231.8,92.3z
	 M158.3,48c0-4-3.2-7.2-7.1-7.3c-4-0.1-7.4,3.3-7.4,7.3c0,3.9,3.2,7.2,7.2,7.2C155.1,55.4,158.3,52.2,158.3,48z"/>
<path class="st0" d="M41.4,116.1c0,42.7,0,85,0,127.4c72.4,0,144.7,0,217.1,0c0-42.4,0-84.7,0-127.4c-1.1,0-2.3,0-3.5,0
	c-47.8,0-95.7,0-143.5,0c-1,0-2.1,0-3.1-0.1c-2-0.3-3.1-1.4-3.3-3.4c-0.2-2.1,0.8-3.5,2.8-4.1c0.9-0.2,1.9-0.3,2.8-0.3
	c50,0,100,0,150,0c4.6,0,5.8,1.2,5.8,5.8c0,43.8,0,87.6,0,131.5c0,4.8-1.1,5.9-5.9,5.9c-73.7,0-147.4,0-221.1,0
	c-4.8,0-5.9-1.1-5.9-5.9c0-43.8,0-87.6,0-131.5c0-4.6,1.2-5.8,5.8-5.8c17.4,0,34.9,0,52.3,0c0.9,0,1.9,0,2.8,0.3
	c1.9,0.5,2.9,1.9,2.8,3.8c-0.1,2-1.3,3.4-3.4,3.6c-0.8,0.1-1.7,0.1-2.6,0.1c-15.5,0-31.1,0-46.6,0C43.6,116.1,42.6,116.1,41.4,116.1
	z"/>
<g>
	<path class="st0" d="M76.8,198c0,0.4,0,0.7-0.1,1c0,0.3-0.1,0.5-0.2,0.7c-0.1,0.2-0.2,0.3-0.4,0.4c-0.1,0.1-0.3,0.1-0.5,0.1H56.2
		c-0.5,0-0.9-0.2-1.4-0.5c-0.4-0.3-0.6-0.9-0.6-1.7v-36.3c0-0.8,0.2-1.4,0.6-1.7c0.4-0.3,0.9-0.5,1.4-0.5h19.3c0.2,0,0.3,0,0.5,0.1
		c0.1,0.1,0.2,0.2,0.3,0.4c0.1,0.2,0.2,0.4,0.2,0.7c0.1,0.3,0.1,0.6,0.1,1.1c0,0.4,0,0.7-0.1,1c-0.1,0.3-0.1,0.5-0.2,0.7
		c-0.1,0.2-0.2,0.3-0.3,0.4c-0.1,0.1-0.3,0.1-0.5,0.1H59.6v12.8h13.6c0.2,0,0.3,0,0.5,0.1c0.1,0.1,0.3,0.2,0.3,0.4
		c0.1,0.2,0.2,0.4,0.2,0.7c0,0.3,0.1,0.6,0.1,1c0,0.4,0,0.7-0.1,1c0,0.3-0.1,0.5-0.2,0.7c-0.1,0.2-0.2,0.3-0.3,0.4
		c-0.1,0.1-0.3,0.1-0.5,0.1H59.6v14.5h16.1c0.2,0,0.3,0,0.5,0.1c0.1,0.1,0.3,0.2,0.4,0.4c0.1,0.2,0.2,0.4,0.2,0.7
		C76.8,197.2,76.8,197.5,76.8,198z"/>
	<path class="st0" d="M102.1,199.2c-0.1,0.2-0.2,0.4-0.3,0.6c-0.1,0.1-0.4,0.3-0.6,0.3c-0.3,0.1-0.6,0.1-1,0.2c-0.4,0-0.9,0-1.5,0
		c-0.5,0-0.9,0-1.2,0c-0.3,0-0.6,0-0.9-0.1c-0.3,0-0.5-0.1-0.6-0.1c-0.2-0.1-0.3-0.1-0.5-0.2c-0.1-0.1-0.2-0.2-0.3-0.3
		c-0.1-0.1-0.1-0.3-0.2-0.4l-13.3-37.8c-0.2-0.5-0.3-0.8-0.3-1.1c0-0.3,0.1-0.5,0.3-0.6c0.2-0.1,0.5-0.2,0.9-0.3
		c0.4,0,1-0.1,1.7-0.1c0.6,0,1.1,0,1.4,0c0.3,0,0.6,0.1,0.8,0.2c0.2,0.1,0.3,0.2,0.4,0.3c0.1,0.1,0.2,0.3,0.3,0.5l11.7,34.2h0
		l11.3-34.2c0.1-0.2,0.1-0.4,0.2-0.6c0.1-0.1,0.2-0.3,0.4-0.3c0.2-0.1,0.5-0.1,0.9-0.2c0.4,0,0.9,0,1.5,0c0.6,0,1.2,0,1.5,0.1
		c0.4,0.1,0.6,0.2,0.8,0.3c0.1,0.1,0.2,0.4,0.2,0.6c0,0.3-0.1,0.7-0.3,1.1L102.1,199.2z"/>
	<path class="st0" d="M144.8,198c0,0.4,0,0.7-0.1,1c0,0.3-0.1,0.5-0.2,0.7c-0.1,0.2-0.2,0.3-0.4,0.4c-0.1,0.1-0.3,0.1-0.5,0.1h-19.5
		c-0.5,0-0.9-0.2-1.4-0.5c-0.4-0.3-0.6-0.9-0.6-1.7v-36.3c0-0.8,0.2-1.4,0.6-1.7c0.4-0.3,0.9-0.5,1.4-0.5h19.3c0.2,0,0.3,0,0.5,0.1
		c0.1,0.1,0.2,0.2,0.3,0.4c0.1,0.2,0.2,0.4,0.2,0.7c0.1,0.3,0.1,0.6,0.1,1.1c0,0.4,0,0.7-0.1,1c-0.1,0.3-0.1,0.5-0.2,0.7
		c-0.1,0.2-0.2,0.3-0.3,0.4c-0.1,0.1-0.3,0.1-0.5,0.1h-15.9v12.8h13.6c0.2,0,0.3,0,0.5,0.1c0.1,0.1,0.3,0.2,0.3,0.4
		c0.1,0.2,0.2,0.4,0.2,0.7c0,0.3,0.1,0.6,0.1,1c0,0.4,0,0.7-0.1,1c0,0.3-0.1,0.5-0.2,0.7c-0.1,0.2-0.2,0.3-0.3,0.4
		c-0.1,0.1-0.3,0.1-0.5,0.1h-13.6v14.5h16.1c0.2,0,0.3,0,0.5,0.1c0.1,0.1,0.3,0.2,0.4,0.4c0.1,0.2,0.2,0.4,0.2,0.7
		C144.8,197.2,144.8,197.5,144.8,198z"/>
	<path class="st0" d="M184.3,198c0,0.4-0.1,0.8-0.2,1.1c-0.1,0.3-0.3,0.5-0.6,0.7c-0.2,0.2-0.5,0.3-0.8,0.4
		c-0.3,0.1-0.6,0.1-0.8,0.1h-1.8c-0.6,0-1.1-0.1-1.5-0.2c-0.4-0.1-0.8-0.3-1.2-0.6c-0.4-0.3-0.8-0.7-1.1-1.2c-0.4-0.5-0.8-1.2-1.2-2
		l-12.4-23.1c-0.6-1.2-1.3-2.4-2-3.8c-0.7-1.3-1.3-2.6-1.8-3.8h-0.1c0,1.5,0.1,3,0.1,4.6c0,1.6,0,3.1,0,4.7v24.5
		c0,0.1,0,0.3-0.1,0.4c-0.1,0.1-0.2,0.2-0.4,0.3c-0.2,0.1-0.5,0.1-0.8,0.2c-0.3,0.1-0.8,0.1-1.3,0.1c-0.5,0-1,0-1.3-0.1
		c-0.3-0.1-0.6-0.1-0.8-0.2c-0.2-0.1-0.3-0.2-0.4-0.3c-0.1-0.1-0.1-0.3-0.1-0.4v-37.5c0-0.8,0.2-1.4,0.7-1.8c0.5-0.4,1-0.5,1.6-0.5
		h2.7c0.6,0,1.2,0.1,1.6,0.2s0.8,0.3,1.1,0.5c0.3,0.2,0.7,0.6,1,1c0.3,0.4,0.6,1,1,1.6l9.5,17.8c0.6,1.1,1.2,2.2,1.7,3.2
		c0.5,1,1.1,2.1,1.6,3.1c0.5,1,1,2,1.5,3c0.5,1,1,2,1.5,2.9h0c0-1.7-0.1-3.4-0.1-5.2c0-1.8,0-3.5,0-5.2v-22.1c0-0.1,0-0.3,0.1-0.4
		c0.1-0.1,0.2-0.2,0.4-0.3c0.2-0.1,0.5-0.2,0.8-0.2c0.3,0,0.8-0.1,1.3-0.1c0.5,0,0.9,0,1.3,0.1c0.4,0,0.6,0.1,0.8,0.2
		c0.2,0.1,0.3,0.2,0.4,0.3c0.1,0.1,0.1,0.3,0.1,0.4V198z"/>
	<path class="st0" d="M220.6,161.9c0,0.4,0,0.7-0.1,1c0,0.3-0.1,0.5-0.2,0.7c-0.1,0.2-0.2,0.3-0.3,0.4c-0.1,0.1-0.3,0.1-0.5,0.1
		h-11.4v35.3c0,0.2,0,0.3-0.1,0.4s-0.2,0.2-0.4,0.3c-0.2,0.1-0.5,0.1-0.8,0.2c-0.3,0.1-0.8,0.1-1.3,0.1c-0.5,0-0.9,0-1.3-0.1
		c-0.4-0.1-0.6-0.1-0.8-0.2c-0.2-0.1-0.4-0.2-0.4-0.3c-0.1-0.1-0.1-0.3-0.1-0.4v-35.3h-11.4c-0.2,0-0.3,0-0.5-0.1
		c-0.1-0.1-0.2-0.2-0.3-0.4c-0.1-0.2-0.2-0.4-0.2-0.7c-0.1-0.3-0.1-0.6-0.1-1c0-0.4,0-0.7,0.1-1.1s0.1-0.6,0.2-0.7
		c0.1-0.2,0.2-0.3,0.3-0.4c0.1-0.1,0.3-0.1,0.5-0.1h28.3c0.2,0,0.3,0,0.5,0.1c0.1,0.1,0.3,0.2,0.3,0.4c0.1,0.2,0.2,0.4,0.2,0.7
		C220.6,161.1,220.6,161.5,220.6,161.9z"/>
	<path class="st0" d="M248,188.8c0,1.9-0.4,3.6-1.1,5.1c-0.7,1.5-1.7,2.7-2.9,3.8c-1.2,1-2.7,1.8-4.4,2.3c-1.7,0.5-3.5,0.8-5.5,0.8
		c-1.4,0-2.6-0.1-3.8-0.3c-1.2-0.2-2.2-0.5-3.1-0.8c-0.9-0.3-1.7-0.7-2.3-1c-0.6-0.4-1-0.7-1.3-0.9c-0.2-0.3-0.4-0.6-0.5-1
		c-0.1-0.4-0.2-0.9-0.2-1.6c0-0.5,0-0.8,0.1-1.1c0-0.3,0.1-0.6,0.2-0.7c0.1-0.2,0.2-0.3,0.3-0.4c0.1-0.1,0.3-0.1,0.4-0.1
		c0.3,0,0.7,0.2,1.2,0.5c0.5,0.4,1.2,0.7,2.1,1.2c0.8,0.4,1.8,0.8,3,1.2c1.2,0.4,2.6,0.5,4.1,0.5c1.2,0,2.2-0.2,3.2-0.5
		c1-0.3,1.8-0.8,2.5-1.3c0.7-0.6,1.2-1.3,1.6-2.1c0.4-0.8,0.6-1.8,0.6-2.9c0-1.2-0.3-2.1-0.8-3c-0.5-0.8-1.2-1.5-2.1-2.2
		c-0.9-0.6-1.8-1.2-2.9-1.7c-1.1-0.5-2.2-1-3.4-1.6c-1.2-0.5-2.3-1.1-3.4-1.8c-1.1-0.6-2.1-1.4-2.9-2.3c-0.9-0.9-1.6-1.9-2.1-3.1
		c-0.5-1.2-0.8-2.6-0.8-4.3c0-1.7,0.3-3.2,0.9-4.5c0.6-1.3,1.5-2.4,2.6-3.3c1.1-0.9,2.4-1.6,3.9-2.1c1.5-0.5,3.2-0.7,4.9-0.7
		c0.9,0,1.8,0.1,2.7,0.2c0.9,0.2,1.8,0.4,2.6,0.6c0.8,0.3,1.5,0.6,2.2,0.9c0.6,0.3,1,0.6,1.2,0.8c0.2,0.2,0.3,0.4,0.4,0.5
		c0.1,0.1,0.1,0.3,0.2,0.4c0,0.2,0.1,0.4,0.1,0.6c0,0.3,0,0.6,0,1c0,0.4,0,0.7,0,1c0,0.3-0.1,0.5-0.1,0.7c-0.1,0.2-0.2,0.3-0.3,0.4
		c-0.1,0.1-0.2,0.1-0.4,0.1c-0.2,0-0.6-0.1-1.1-0.4c-0.5-0.3-1.1-0.6-1.8-1c-0.7-0.4-1.6-0.7-2.5-1c-1-0.3-2.1-0.5-3.3-0.5
		c-1.1,0-2.1,0.2-3,0.5c-0.8,0.3-1.5,0.7-2.1,1.2c-0.5,0.5-1,1.1-1.2,1.8c-0.3,0.7-0.4,1.4-0.4,2.2c0,1.1,0.3,2.1,0.8,2.9
		c0.5,0.8,1.2,1.5,2.1,2.2c0.9,0.6,1.9,1.2,3,1.7c1.1,0.5,2.2,1.1,3.4,1.6c1.2,0.5,2.3,1.1,3.4,1.8c1.1,0.6,2.1,1.4,3,2.3
		c0.9,0.9,1.6,1.9,2.1,3.1C247.7,185.8,248,187.2,248,188.8z"/>
</g>
</svg>
