<?xml version="1.0" encoding="utf-8"?>
<!-- Generator: Adobe Illustrator 28.0.0, SVG Export Plug-In . SVG Version: 6.00 Build 0)  -->
<svg version="1.1" id="Layer_1" xmlns="http://www.w3.org/2000/svg" xmlns:xlink="http://www.w3.org/1999/xlink" x="0px" y="0px"
	 viewBox="0 0 300 300" style="enable-background:new 0 0 300 300;" xml:space="preserve">
<style type="text/css">
	.st0{fill:#FFFFFF;}
</style>
<path class="st0" d="M148.4,279.9c-2.8-1.5-3.7-3.8-3.6-6.9c0.2-7.5,0-15,0.1-22.6c0-3.7,2-6,5.1-6c3.1,0,5.1,2.3,5.1,6
	c0,7.5-0.1,15,0.1,22.6c0.1,3.1-0.8,5.4-3.6,6.9C150.5,279.9,149.4,279.9,148.4,279.9z M57.6,236.2c0-47.9,0-95.7,0-143.6
	c0-5.8,3-8.7,8.7-8.8c3.5-0.1,7.1,0.1,10.6-0.3c2.8-0.3,4.5-2.4,4.5-4.9c0-2.4-1.6-4.7-4.3-4.8c-5.4-0.1-11.1-0.5-16.3,0.6
	c-8.4,1.7-13.3,8.9-13.3,17.7c0,23.9,0,47.9,0,71.8c0,28.2,0,56.3,0,84.5c0,2,0.3,3.9,2,5.2c2.1,1.6,4.6,1.3,7.2-0.8
	c9.9-8.3,19.8-16.6,29.7-25c1.4-1.2,2.7-1.6,4.6-1.6c47.4,0.1,94.7,0,142.1,0c12.2,0,19.6-7.4,19.6-19.6c0-37.7-0.2-75.4,0.1-113.1
	c0.1-10.7-7.1-20-19.9-20c-37.9,0.1-75.8,0-113.6,0.1c-1,0-2,0.1-3,0.3c-2.6,0.6-4.2,2.6-4.1,5.1c0.1,2.4,1.7,4.2,4.2,4.7
	c1.2,0.2,2.3,0.3,3.5,0.3c37.7,0,75.4,0,113.1,0c6.8,0,9.6,2.8,9.6,9.5c0,33.2,0,66.3,0,99.4c0,0.9,0,1.8,0,2.9c-1.2,0-2.2,0-3.1,0
	c-9.4,0-18.8,0-28.2,0c-0.6,0-1.2,0-1.8,0c-3.5,0.1-5.8,2-5.8,5c0,3,2.2,5.1,5.7,5.1c10.1,0,20.1,0,30.2,0c0.9,0,1.8,0,2.7,0
	c0.7,6.6-2.6,10.2-9.1,10.2c-48,0-96.1,0-144.1-0.1c-3.3,0-5.8,1-8.2,3.1c-7.5,6.5-15.1,12.8-23.2,19.6
	C57.6,237.4,57.6,236.8,57.6,236.2z M156.4,170.2c0,5.8,1.5,7.3,7.1,7.3c3.6,0,7.1,0.1,10.6-0.1c8.4-0.6,14.8-4.7,19.2-12
	c4-6.7,3.9-14.1,2.9-21.4c-1.3-10.7-7.6-17.8-18.1-20.4c-4.8-1.2-10.1-0.8-15.1-0.9c-4.9-0.1-6.7,1.7-6.7,6.7c0,6.9,0,13.7,0,20.6
	C156.4,156.6,156.4,163.4,156.4,170.2z M166.7,133.2c11.5-2.1,19.8,4,19.7,14.9c0,2.4,0,4.8-0.3,7.1c-1,7.1-6.3,11.9-13.4,12.1
	c-1.9,0.1-3.9,0-6,0C166.7,155.6,166.7,144.4,166.7,133.2z M130.6,165.1c0.9,2.6,1.8,5.3,2.7,7.9c1.2,3.5,3.8,5.1,6.7,4.2
	c3-0.9,4.2-3.9,3-7.5c-4.8-14.3-9.6-28.6-14.4-42.9c-0.8-2.4-2.3-4.2-5.1-4.2c-2.7,0-4.3,1.6-5.1,4.1c-4.8,14.5-9.7,28.9-14.6,43.4
	c-1.1,3.3,0.2,6.1,3,7.1c2.8,0.9,5.5-0.6,6.7-3.8c0.9-2.4,1.6-4.8,2.5-7.1c0.3-0.7,1.2-1.4,1.8-1.5c4.1-0.1,8.3-0.1,12.5-0.1
	C130.5,165,130.5,165,130.6,165.1z M119.9,154.3c1.1-3.4,2.2-6.6,3.5-10.4c1.3,3.7,2.3,6.9,3.5,10.4
	C124.4,154.3,122.3,154.3,119.9,154.3z M144.9,49.9c0,3.4,2.2,5.7,5.2,5.6c2.9-0.1,4.9-2.3,4.9-5.6c0-8,0-16.1,0-24.1
	c0-3.5-2-5.7-5-5.8c-3,0-5,2.2-5.1,5.7c0,4,0,8,0,11.9C144.9,41.8,144.9,45.9,144.9,49.9z M208,30.2c-2.3-1.1-4.3-0.3-6,1.3
	c-5.7,5.7-11.4,11.3-17,17c-2.4,2.4-2.4,5.3-0.4,7.5c2.1,2.2,5.1,2.1,7.6-0.3c5.7-5.6,11.3-11.2,16.8-16.9c1-1,1.5-2.5,1.9-3.2
	C210.9,32.7,209.9,31.2,208,30.2z M208.7,260.8c-4.8-5-9.8-9.8-14.7-14.7c-1-0.9-1.9-2-3-2.7c-3.3-2.3-7.8-0.2-7.8,3.7
	c0,1.6,1.1,3.6,2.2,4.8c5.2,5.4,10.6,10.7,15.9,16c0.6,0.6,1.2,1.4,1.9,1.5c1.6,0.2,3.6,0.6,5,0c1.4-0.6,2.1-2.5,3.3-4.1
	C210.5,263.5,209.8,261.9,208.7,260.8z M89.5,32.8c-1.3,2.2-0.4,4.4,1.4,6.2c5.6,5.5,11.1,11.1,16.7,16.7c2.6,2.5,5.5,2.7,7.7,0.6
	c2.2-2.1,2.1-5.1-0.3-7.6c-5.6-5.7-11.2-11.3-16.9-16.8c-1-1-2.5-1.5-4.3-2.6C92.2,30.4,90.4,31.3,89.5,32.8z M91.9,269.8
	c2.3,1.1,4.3,0.3,6-1.4c5.6-5.6,11.3-11.2,16.9-16.9c2.5-2.5,2.6-5.5,0.5-7.6c-2.2-2.2-5.2-2.1-7.8,0.5c-5.5,5.5-11,11-16.5,16.5
	c-1,1-1.6,2.5-2,3.1C88.9,267.2,89.9,268.8,91.9,269.8z M188.5,195.7c-2.7,0-5,2.2-5.1,4.9c-0.1,2.8,2.3,5.2,5.1,5.2
	c2.7,0,5-2.2,5-4.9C193.6,198,191.4,195.7,188.5,195.7z M96.8,73.6c-2.7-0.1-5.2,2.4-5.1,5.2c0.1,2.7,2.3,4.9,5.1,4.9
	c2.8,0,5-2.3,5-5C101.7,76,99.4,73.6,96.8,73.6z"/>
</svg>
