<?xml version="1.0" encoding="utf-8"?>
<!-- Generator: Adobe Illustrator 28.3.0, SVG Export Plug-In . SVG Version: 6.00 Build 0)  -->
<svg version="1.1" id="Layer_1" xmlns="http://www.w3.org/2000/svg" xmlns:xlink="http://www.w3.org/1999/xlink" x="0px" y="0px"
	 viewBox="0 0 300 300" style="enable-background:new 0 0 300 300;" xml:space="preserve">
<style type="text/css">
	.st0{fill:#FFFFFF;}
</style>
<g>
	<path class="st0" d="M47.8,83.5c0-8.4,0-16.6,0-24.7c0-4.6,1.6-6.2,6.3-6.2c4.9,0,9.8,0,14.9,0c0-1,0-1.9,0-2.7c0-6,0-12,0-18.1
		c0-3.2,1.9-5.1,5.1-5.2c0.6,0,1.3,0,1.9,0c63.5,0,126.9,0,190.4,0c5.6,0,7,1.3,7,6.9c0,70.9,0,141.9,0,212.8
		c0,13.1-7.8,23.4-20.1,26.3c-2.2,0.5-4.4,0.7-6.7,0.7c-64.4,0-128.8,0-193.3,0c-15.4,0-26.7-11.3-26.7-26.8c0-52.3,0-104.6,0-156.9
		c0-4.6,1.6-6.2,6.2-6.2C37.8,83.5,42.6,83.5,47.8,83.5z M263.7,36.4c-61.8,0-123.4,0-185,0c0,1.1,0,2.1,0,3.1c0,32.5,0,64.9,0,97.4
		c0,0.9,0.1,1.8-0.1,2.6c-0.3,2.5-2.4,4.2-4.8,4.2c-2.4,0-4.4-1.8-4.8-4.3c-0.1-0.8-0.1-1.6-0.1-2.4c0-23.9,0-47.9,0-71.8
		c0-0.9,0-1.9,0-2.8c-4,0-7.8,0-11.6,0c0,1.2,0,2.3,0,3.3c0,58.2,0,116.3,0,174.5c0,4.8-1.6,7.1-4.9,7.1c-3.2,0-4.8-2.3-4.8-7
		c0-48,0-96.1,0-144.1c0-1,0-2,0-3c-4,0-7.7,0-11.6,0c0,1,0,1.8,0,2.7c0,50,0,99.9,0,149.9c0,0.8,0,1.6,0,2.4
		c0.4,8.4,7.5,15.3,15.9,15.5C61.5,264,69,256.6,69,247c0-21,0-41.9,0-62.9c0-0.8,0-1.6,0.1-2.4c0.3-2.4,2.4-4.2,4.8-4.2
		c2.4,0,4.5,1.8,4.8,4.2c0.1,0.8,0.1,1.6,0.1,2.4c0,20-0.1,40,0.1,60c0.1,7-1.2,13.4-5.4,19.1c-0.1,0.1,0.1,0.3,0.1,0.5
		c0.3,0,0.6,0.1,0.9,0.1c57.6,0,115.2,0,172.8,0c1.7,0,3.5-0.3,5.2-0.8c7.2-2.3,11.3-8.4,11.3-16.9c0-68.9,0-137.8,0-206.8
		C263.7,38.4,263.7,37.5,263.7,36.4z"/>
	<path class="st0" d="M171.1,102.8c-24.2,0-48.3,0-72.5,0c-4.9,0-6.4-1.5-6.4-6.5c0-10.5,0-21,0-31.6c0-4.6,1.6-6.3,6.2-6.3
		c48.6,0,97.1,0,145.7,0c4.6,0,6.2,1.6,6.2,6.3c0,10.6,0,21.2,0,31.8c0,4.7-1.6,6.3-6.4,6.3C219.6,102.8,195.3,102.8,171.1,102.8z
		 M101.9,93c46.3,0,92.4,0,138.5,0c0-8.4,0-16.6,0-24.8c-46.2,0-92.3,0-138.5,0C101.9,76.5,101.9,84.6,101.9,93z"/>
	<path class="st0" d="M92.2,167.1c0-14.9,0-29.7,0-44.6c0-4.6,1.6-6.3,6.2-6.3c23.8,0,47.7,0,71.5,0c4.5,0,6.2,1.6,6.2,6.1
		c0,30,0,60.1,0,90.1c0,4.3-1.7,6-5.9,6c-24,0-48,0-72,0c-4.2,0-5.9-1.7-5.9-6.1C92.2,197.3,92.2,182.2,92.2,167.1z M102,126
		c0,27.7,0,55.1,0,82.6c21.5,0,42.9,0,64.3,0c0-27.6,0-55,0-82.6C144.8,126,123.5,126,102,126z"/>
	<path class="st0" d="M171,241.6c-24,0-48,0-72,0c-0.8,0-1.6,0-2.4,0c-2.6-0.3-4.4-2.4-4.4-4.9c0.1-2.4,1.9-4.4,4.4-4.7
		c0.8-0.1,1.6,0,2.4,0c48.2,0,96.3,0,144.5,0c4.4,0,6.7,1.6,6.8,4.7c0.1,3.2-2.3,4.9-6.8,4.9C219.3,241.6,195.1,241.6,171,241.6z"/>
	<path class="st0" d="M219.7,125.9c-8.3,0-16.7,0-25,0c-2.9,0-4.9-1.8-5.2-4.4c-0.2-2.5,1.5-4.8,4-5.2c0.5-0.1,1.1-0.1,1.7-0.1
		c16.4,0,32.9,0,49.3,0c3.5,0,5.7,1.9,5.7,4.8c0,2.9-2.2,4.8-5.7,4.8C236.3,125.9,228,125.9,219.7,125.9z"/>
	<path class="st0" d="M220.1,139.4c8.1,0,16.2,0,24.3,0c3.7,0,5.9,1.9,5.8,4.9c-0.1,2.9-2.2,4.7-5.8,4.7c-16.4,0-32.7,0-49.1,0
		c-3.7,0-5.9-1.9-5.8-4.9c0.1-2.9,2.2-4.7,5.8-4.7C203.6,139.4,211.8,139.4,220.1,139.4z"/>
	<path class="st0" d="M219.6,172.2c-8.1,0-16.2,0-24.3,0c-3.6,0-5.7-1.8-5.8-4.7c-0.1-3,2.2-4.9,5.8-4.9c16.4,0,32.7,0,49.1,0
		c3.5,0,5.7,1.8,5.8,4.7c0.1,3-2.2,4.9-5.8,4.9C236.2,172.2,227.9,172.2,219.6,172.2z"/>
	<path class="st0" d="M220.1,185.7c8.1,0,16.2,0,24.3,0c3.5,0,5.7,1.8,5.8,4.7c0.1,3-2.2,4.9-5.8,4.9c-16.4,0-32.7,0-49.1,0
		c-3.6,0-5.9-1.9-5.8-4.9c0.1-2.9,2.2-4.7,5.8-4.7C203.6,185.7,211.9,185.7,220.1,185.7z"/>
	<path class="st0" d="M220.1,208.8c8.1,0,16.2,0,24.3,0c3.5,0,5.7,1.8,5.8,4.7c0.1,3-2.2,4.9-5.8,4.9c-16.4,0-32.7,0-49.1,0
		c-3.6,0-5.9-1.9-5.8-4.9c0.1-2.9,2.2-4.7,5.8-4.7C203.6,208.8,211.9,208.8,220.1,208.8z"/>
	<path class="st0" d="M78.9,160.7c-0.1,2.6-2.2,4.7-4.8,4.7c-2.7,0-4.8-2.2-4.8-4.9c0.1-2.6,2.2-4.7,4.8-4.7
		C76.8,155.8,78.9,158,78.9,160.7z"/>
</g>
</svg>
