<?xml version="1.0" encoding="utf-8"?>
<!-- Generator: Adobe Illustrator 28.0.0, SVG Export Plug-In . SVG Version: 6.00 Build 0)  -->
<svg version="1.1" id="Layer_1" xmlns="http://www.w3.org/2000/svg" xmlns:xlink="http://www.w3.org/1999/xlink" x="0px" y="0px"
	 viewBox="0 0 300 300" style="enable-background:new 0 0 300 300;" xml:space="preserve">
<style type="text/css">
	.st0{fill:#FFFFFF;}
</style>
<g>
	<path class="st0" d="M38.8,117.6c0-3,0-5.5,0-8c0-27.8,0-55.5,0-83.3c0-9.4,5.7-15.2,15.1-15.2c36.3,0,72.5,0,108.8,0
		c9.2,0,15,5.8,15,15c0,4.9,0,9.8,0,15c1.7-0.6,3.1-1.2,4.6-1.6c11.8-3,23,5.6,23.1,18c0.1,18.2,0,36.4,0,54.7c0,7.1,0,14.2,0,21.6
		c10.3-4.6,18.5-2.2,25.1,6.5c10.6-7.4,21.3-4.3,27.8,4.6c0.6-0.4,1.2-0.8,1.9-1.2c11.6-7.4,27.2-0.3,28.3,13.4
		c0.7,8.7,0.7,17.6-0.6,26.2c-1.1,7.4-4.5,14.5-7,21.6c-4.8,13.6-9.7,27.2-14.5,40.8c-0.5,1.4-0.8,3-0.8,4.5
		c-0.1,10.8,0,21.6,0,32.4c0,4.6-1.5,6.1-6,6.1c-29.9,0-59.8,0-89.7,0c-4.7,0-6.1-1.5-6.1-6.3c0-7.9-0.3-15.8,0.1-23.7
		c0.3-7.4-0.8-14.3-3.7-21.1c-1.8-4.4-1.7-4.1-6.4-4.5c-4-0.3-6.3,1.1-8.4,4.4c-4,6.3-8.6,12.3-12.8,18.6c-0.7,1.1-1.2,2.6-1.2,4
		c-0.1,7.6,0,15.2-0.1,22.8c0,4.3-1.6,5.9-6,5.9c-33.1,0-66.2,0-99.2,0c-4.3,0-6-1.6-5.9-6c1-24.3-2.4-48.3-4.4-72.4
		c-1.9-22.5-5.4-45-4.9-67.7c0.3-15.5,9.5-25.1,25-25.2C36.9,117.6,37.7,117.6,38.8,117.6z M168.5,120.1c0-1.4,0-2.4,0-3.4
		c0-29.9,0-59.8,0-89.7c0-5.3-1.3-6.6-6.7-6.6c-35.7,0-71.4,0-107,0c-5.3,0-6.7,1.3-6.7,6.7c0,29.1,0,58.2,0,87.4c0,1,0,2,0,3.2
		c6.7,0,12.9-0.1,19.2,0c11.8,0.3,21.5,9.6,22.4,21.3c0.9,11.8-7.1,22.6-18.8,24.4c-6.3,0.9-12.9,0.5-19.3,0.6c-1.1,0-2.2,0-3.3,0
		c0,11,0,21.5,0,32.4c27.8,0,55.4,0,83,0c0,3.2,0,6.2,0,9.3c-27.8,0-55.3,0-83.1,0c0,4,0,7.9,0,11.7c0,5.5,1.3,6.7,6.9,6.7
		c32.3,0,64.6,0,96.9,0c1,0,2,0,3.3,0c-0.4-1.3-0.7-2.2-1-3.1c-3.6-10.2-7.4-20.4-10.9-30.8c-1.2-3.7-2.4-7.7-2.4-11.5
		c-0.3-14.4-0.2-28.7-0.1-43.1c0.1-8.6,6.1-15.7,14.5-17.6C159.7,117,164,117.9,168.5,120.1z M196.2,173c0-1.4,0-2.5,0-3.6
		c0-36.4,0-72.9,0-109.3c0-1,0-1.9,0-2.9c-0.2-4.7-3.8-8.5-8.3-8.9c-4.5-0.5-8.8,2.6-9.9,7.1c-0.3,1.3-0.3,2.7-0.3,4
		c0,36.7,0,73.5,0,110.2c0,1.1,0,2.2,0,3.4c-3.3,0-6.2,0-9.3,0c0-12,0-23.9,0-35.7c0-6.2-3.7-10.3-9.2-10.3c-5.5,0-9.3,4.2-9.3,10.3
		c0,13-0.1,26,0.1,39c0.1,3.6,0.7,7.3,1.9,10.7c6.1,17.6,12.5,35.2,18.7,52.8c0.7,2.1,1.5,3,4,3c26.8-0.1,53.6-0.1,80.4,0
		c2,0,3-0.5,3.7-2.5c6.2-17.8,12.7-35.5,18.9-53.3c0.9-2.6,1.7-5.4,1.8-8.1c0.3-6.4,0.1-12.9,0.1-19.4c0-3.1-1.3-5.6-3.8-7.4
		c-2.9-2.1-6-2.5-9.3-1c-3.4,1.7-5.3,4.4-5.4,8.3c-0.1,6.1,0,12.3,0,18.4c-3.3,0-6.2,0-9.3,0c0-1.3,0-2.3,0-3.4
		c0-6.6,0.1-13.1,0-19.7c-0.1-5.2-4.3-9.2-9.3-9.2c-5.1,0-9.1,4-9.2,9.2c-0.1,3.6,0,7.1,0,10.7c0,2.6,0,5.1,0,7.7
		c-3.3,0-6.1,0-9.3,0c0-1.2,0-2.2,0-3.2c0-6.7,0.1-13.3,0-20c-0.1-4.8-3.8-8.7-8.5-9c-4.5-0.4-8.8,2.8-9.8,7.3
		c-0.3,1.2-0.2,2.5-0.2,3.7c0,7,0,14,0,21.2C202.4,173,199.5,173,196.2,173z M137.3,233.3c-1.7,0-2.8,0-3.8,0c-26.7,0-53.4,0-80.1,0
		c-8.6,0-14.5-5.9-14.6-14.5c0-19.4,0-38.7,0-58.1c0-4.5,1.5-6,6.1-6c7.2,0,14.5,0.1,21.7,0c7.7-0.1,13.8-6.2,13.8-13.8
		c0-7.6-6-13.9-13.7-13.9c-11-0.1-22-0.1-33,0c-7.1,0.1-13.1,5.7-13.4,12.6c-0.3,7.1-0.5,14.3,0.1,21.4c2.3,26.2,4.9,52.4,7.4,78.5
		c0.4,4.1,0.8,8.2,1.3,12.1c0.4,0.1,0.5,0.2,0.6,0.2c31,0,62.1,0.1,93.1,0c0.7,0,1.7-0.4,2.1-1C130.1,245.2,133,239.5,137.3,233.3z
		 M29.7,279.4c30.9,0,61.6,0,92.3,0c0-6.1,0-12.1,0-18.1c-30.8,0-61.5,0-92.3,0C29.7,267.3,29.7,273.3,29.7,279.4z M173.3,252
		c0,9.3,0,18.4,0,27.4c4.7,0,9.1,0,13.5,0c0-9.3,0-18.3,0-27.4C182.3,252,177.9,252,173.3,252z M196.4,252c0,9.3,0,18.4,0,27.4
		c4.7,0,9.1,0,13.5,0c0-9.3,0-18.3,0-27.4C205.4,252,201,252,196.4,252z M219.5,279.4c4.7,0,9.2,0,13.6,0c0-9.2,0-18.3,0-27.4
		c-4.6,0-9.1,0-13.6,0C219.5,261.2,219.5,270.2,219.5,279.4z M256.3,252.1c-4.8,0-9.2,0-13.6,0c0,9.2,0,18.3,0,27.4
		c4.6,0,9.1,0,13.6,0C256.3,270.2,256.3,261.2,256.3,252.1z"/>
	<path class="st0" d="M275.7,72.9c-2.2,2.1-4.3,4.1-6.4,6.1c-3.1-3.3-6.4-6.7-9.6-10.1c-0.3,0.2-0.6,0.4-0.9,0.5
		c0,17.5,0,35.1,0,52.8c-3.2,0-6.1,0-9.3,0c0-17.5,0-35.1,0-52.7c-0.2-0.1-0.4-0.2-0.6-0.3c-3.1,3.5-6.2,6.9-9.4,10.5
		c-2.6-2.9-4.6-5.1-6.7-7.5c3.8-3.8,8-8,12.3-12.2c1.8-1.8,3.6-3.7,5.5-5.5c2.2-2,4.5-2.3,6.5-0.4C263.3,60.4,269.4,66.6,275.7,72.9
		z"/>
	<path class="st0" d="M108.4,29.7c25.2,0,46.1,20.8,46.2,46c0.1,25.7-20.6,46.6-46.1,46.6c-25.8,0-46.5-20.7-46.5-46.5
		C62,50.3,82.8,29.7,108.4,29.7z M71.3,75.8c-0.1,20.4,16.5,37,36.8,37.1c20.3,0.1,37.2-16.5,37.2-36.8
		c0.1-20.5-16.4-37.2-36.7-37.3C88,38.9,71.3,55.3,71.3,75.8z"/>
	<g>
		<path class="st0" d="M119.9,101.7L110.4,81c0-0.2-0.2-0.3-0.5-0.3h-8.5c-0.3,0-0.4,0.1-0.4,0.4v20.3c0,0.8-0.4,1.2-1.2,1.2h-6.1
			c-0.8,0-1.2-0.4-1.2-1.2V53c0-0.8,0.4-1.2,1.2-1.2h19.6c2.9,0,5.6,0.6,7.8,1.8c2.3,1.2,4,3,5.3,5.2c1.3,2.2,1.9,4.8,1.9,7.7
			c0,3.3-0.9,6.2-2.6,8.5c-1.7,2.3-4.1,3.9-7.1,4.8c-0.1,0-0.2,0.1-0.3,0.3c0,0.1,0,0.2,0.1,0.3l10,20.7l0.1,0.6
			c0,0.5-0.3,0.8-1,0.8h-6.4C120.6,102.6,120.1,102.3,119.9,101.7z M101,59.5v14.3c0,0.3,0.1,0.4,0.4,0.4h10.8
			c2.3,0,4.2-0.7,5.6-2.1c1.4-1.4,2.1-3.2,2.1-5.4c0-2.3-0.7-4.1-2.1-5.5c-1.4-1.4-3.3-2.1-5.6-2.1h-10.8
			C101.1,59,101,59.2,101,59.5z"/>
	</g>
</g>
</svg>
