<?xml version="1.0" encoding="utf-8"?>
<!-- Generator: Adobe Illustrator 28.0.0, SVG Export Plug-In . SVG Version: 6.00 Build 0)  -->
<svg version="1.1" id="Layer_1" xmlns="http://www.w3.org/2000/svg" xmlns:xlink="http://www.w3.org/1999/xlink" x="0px" y="0px"
	 viewBox="0 0 300 300" style="enable-background:new 0 0 300 300;" xml:space="preserve">
<style type="text/css">
	.st0{fill:#FFFFFF;}
</style>
<g>
	<path class="st0" d="M234,33.4c7.4,0,14.5,0,21.5,0c5,0,6.5,1.4,6.5,6.4c0,82.8,0,165.5,0,248.3c0,5.1-1.4,6.5-6.6,6.5
		c-60.9,0-121.9,0-182.8,0c-5.1,0-6.5-1.4-6.5-6.6c0-7,0-14,0-21.4c-1.6,0-3,0-4.4,0c-6,0-12,0-18.1,0c-3.8,0-5.4-1.7-5.5-5.5
		c0-0.7,0-1.4,0-2c0-65.2,0-130.4-0.1-195.6c0-2.8,0.8-4.9,2.8-6.9C57.2,40.4,73.5,24.1,89.7,7.7c1.5-1.6,3.1-2.3,5.3-2.3
		c44.2,0,88.4,0,132.6,0c4.8,0,6.3,1.5,6.3,6.3C234,18.8,234,25.9,234,33.4z M224.5,257.2c0-80.9,0-161.6,0-242.2
		c-42,0-83.8,0-125.8,0c0,15.1,0,29.9,0,44.8c0,4.8-1.5,6.3-6.2,6.3c-13.9,0-27.8,0-41.7,0c-1,0-2.1,0-3.2,0c0,63.9,0,127.4,0,191.1
		C106.6,257.2,165.4,257.2,224.5,257.2z M252.4,285.2c0-80.9,0-161.6,0-242.2c-6.3,0-12.3,0-18.5,0c0,1.5,0,2.8,0,4
		c0,70.8,0,141.6,0,212.4c0,6-1.2,7.2-7.1,7.2c-49.3,0-98.5,0-147.8,0c-1.1,0-2.3,0-3.5,0c0,6.3,0,12.4,0,18.5
		C134.6,285.2,193.4,285.2,252.4,285.2z M89.3,23C78.1,34.1,66.7,45.6,55.7,56.6c10.6,0,22,0,33.6,0C89.3,45,89.3,33.6,89.3,23z"/>
	<path class="st0" d="M136.2,117.4c18.2,0,36.3,0,54.5,0c9.5,0,15.3,5.7,15.3,15.2c0,30.3,0,60.6,0,90.9c0,9.5-5.8,15.2-15.3,15.2
		c-36.4,0-72.9,0-109.3,0c-9.6,0-15.3-5.7-15.3-15.5c0-30.1,0-60.2,0-90.3c0-9.9,5.7-15.5,15.6-15.5
		C99.8,117.4,118,117.4,136.2,117.4z M103.5,145.2c21.8,0,43.4,0,64.9,0c0-6.3,0-12.3,0-18.3c-21.8,0-43.3,0-64.9,0
		C103.5,133,103.5,139,103.5,145.2z M103.6,154.8c0,6.2,0,12.3,0,18.3c21.8,0,43.4,0,65,0c0-6.2,0-12.2,0-18.3
		C146.9,154.8,125.4,154.8,103.6,154.8z M168.5,182.9c-21.8,0-43.4,0-64.9,0c0,6.3,0,12.3,0,18.3c21.8,0,43.3,0,64.9,0
		C168.5,195,168.5,189.1,168.5,182.9z M168.6,210.9c-21.9,0-43.5,0-65,0c0,6.2,0,12.2,0,18.3c21.7,0,43.3,0,65,0
		C168.6,223,168.6,217,168.6,210.9z M75.5,173.1c6.3,0,12.3,0,18.3,0c0-6.3,0-12.3,0-18.3c-6.2,0-12.2,0-18.3,0
		C75.5,161,75.5,166.9,75.5,173.1z M178.2,154.8c0,6.3,0,12.3,0,18.3c6.2,0,12.2,0,18.3,0c0-6.2,0-12.3,0-18.3
		C190.3,154.8,184.3,154.8,178.2,154.8z M93.9,182.9c-6.2,0-12.3,0-18.3,0c0,6.2,0,12.3,0,18.3c6.2,0,12.2,0,18.3,0
		C93.9,195.1,93.9,189.1,93.9,182.9z M178.1,201.1c6.3,0,12.3,0,18.3,0c0-6.3,0-12.3,0-18.3c-6.2,0-12.2,0-18.3,0
		C178.1,188.9,178.1,194.9,178.1,201.1z M93.9,126.7c-4.9,0-9.4-0.1-14,0c-2.6,0.1-4.4,1.6-4.5,4.1c-0.2,4.7-0.1,9.5-0.1,14.3
		c6.3,0,12.3,0,18.5,0C93.9,139,93.9,133,93.9,126.7z M178.1,145.2c6.3,0,12.4,0,18.6,0c0-4.7,0.1-9.3,0-13.8c0-2.3-1.3-4.2-3.5-4.4
		c-5-0.3-10-0.1-15-0.1C178.1,133.1,178.1,139,178.1,145.2z M75.4,210.7c0,4.9-0.1,9.5,0,14.2c0.1,2.3,1.5,4.1,3.7,4.2
		c4.9,0.3,9.8,0.1,14.7,0.1c0-6.4,0-12.4,0-18.5C87.7,210.7,81.7,210.7,75.4,210.7z M178.1,229.3c4.9,0,9.5,0.1,14.2,0
		c2.3-0.1,4.1-1.5,4.2-3.7c0.3-4.9,0.1-9.8,0.1-14.7c-6.3,0-12.4,0-18.5,0C178.1,217,178.1,222.9,178.1,229.3z"/>
	<path class="st0" d="M108.3,75.4c12,0,24.1,0,36.1,0c3.3,0,5.3,1.7,5.5,4.4c0.2,2.7-1.9,4.9-4.9,4.9c-3.7,0.1-7.4,0-11.1,0
		c-20.6,0-41.2,0-61.8,0c-1.5,0-3.5-0.2-4.3-1.2c-1-1.2-1.7-3.3-1.5-4.9c0.3-2.2,2.3-3.2,4.6-3.2c7.8,0,15.5,0,23.3,0
		C99,75.4,103.7,75.4,108.3,75.4z"/>
	<path class="st0" d="M107.7,103.4c-11.9,0-23.7,0-35.6,0c-1.4,0-3.3-0.1-4.1-1c-1.1-1.2-1.9-3.2-1.8-4.8c0.2-2.2,2.1-3.4,4.4-3.5
		c2.9-0.1,5.8,0,8.7,0c21.1,0,42.2,0,63.3,0c0.8,0,1.6,0,2.3,0c3,0.1,4.9,2,4.9,4.6c0,2.6-2,4.6-4.9,4.6c-5.9,0.1-11.9,0-17.8,0
		C120.8,103.4,114.3,103.4,107.7,103.4z"/>
	<g>
		<path class="st0" d="M196.3,100.1l-10-21.9c-0.1-0.2-0.2-0.3-0.5-0.3h-8.9c-0.3,0-0.5,0.2-0.5,0.5v21.4c0,0.8-0.4,1.2-1.2,1.2
			h-6.4c-0.8,0-1.2-0.4-1.2-1.2V48.6c0-0.8,0.4-1.2,1.2-1.2h20.7c3.1,0,5.9,0.6,8.3,1.9c2.4,1.3,4.3,3.1,5.6,5.5
			c1.3,2.4,2,5.1,2,8.1c0,3.5-0.9,6.5-2.7,9c-1.8,2.5-4.3,4.2-7.5,5.1c-0.2,0.1-0.3,0.1-0.3,0.3c-0.1,0.1,0,0.2,0.1,0.3l10.6,21.9
			l0.2,0.6c0,0.6-0.4,0.8-1.1,0.8h-6.7C197,101,196.5,100.7,196.3,100.1z M176.3,55.5v15.1c0,0.3,0.2,0.5,0.5,0.5h11.4
			c2.4,0,4.4-0.7,5.9-2.2c1.5-1.5,2.3-3.4,2.3-5.7c0-2.4-0.8-4.3-2.3-5.8c-1.5-1.5-3.5-2.3-5.9-2.3h-11.4
			C176.5,55,176.3,55.2,176.3,55.5z"/>
	</g>
</g>
</svg>
