<?xml version="1.0" encoding="utf-8"?>
<!-- Generator: Adobe Illustrator 28.0.0, SVG Export Plug-In . SVG Version: 6.00 Build 0)  -->
<svg version="1.1" id="Layer_1" xmlns="http://www.w3.org/2000/svg" xmlns:xlink="http://www.w3.org/1999/xlink" x="0px" y="0px"
	 viewBox="0 0 300 300" style="enable-background:new 0 0 300 300;" xml:space="preserve">
<style type="text/css">
	.st0{fill:#FFFFFF;}
</style>
<path class="st0" d="M78.7,270.9c-4.8-2.2-6-6.1-5.9-11.1c0.2-11.8,0.1-23.6,0.1-35.4c0-0.7,0-1.4,0-2.1c0.2-2.2,1.6-3.7,3.5-3.7
	c2,0,3.6,1.5,3.6,3.8c0.1,2.8,0,5.7,0,8.5c0,5.7,0,11.4,0,17.3c46.4,0,92.7,0,139.2,0c0-1,0-1.9,0-2.9c0-25.2,0-50.5,0-75.7
	c0-3.9,1-5.6,3.4-5.7c2.5-0.1,3.7,1.8,3.7,5.7c0,30.3-0.1,60.6,0.1,90.8c0,5-1.5,8.5-6.2,10.5C173.1,270.9,125.9,270.9,78.7,270.9z
	 M80,255.5c0,1.8,0,3.4,0,4.9c0,3.3,0,3.3,3.4,3.3c44.1,0,88.2,0,132.3,0c0.6,0,1.3,0.1,1.9,0c0.6-0.2,1.4-0.7,1.4-1.2
	c0.1-2.3,0.1-4.6,0.1-7C172.6,255.5,126.5,255.5,80,255.5z M228.4,64c-3.6-1.3-7.1-2.8-10.6-3.9c-7.7-2.6-15.4-5-23-7.6
	c-1.6-0.5-2.4-0.1-3.3,1.1c-7.2,9.1-14.5,18.2-21.8,27.2c-0.3,0.4-0.6,0.7-0.9,1.1c-2.1,2.4-4.5,2.3-6.4-0.3
	c-3.5-4.8-6.9-9.7-10.4-14.6c-0.4-0.6-0.9-1.2-1.5-2c-0.6,0.8-1.1,1.4-1.5,2c-3.2,4.5-6.4,9-9.6,13.4c-3.1,4.3-5,4.3-8.3,0.2
	c-7.4-9.2-14.8-18.4-22.1-27.6c-1.1-1.3-2-1.8-3.7-1.3C94,54.5,83.3,58.5,72.7,62.9c-1.6,0.7-1.9,1.6-1.5,3.2
	c2.8,10.6,5.5,21.2,8.2,31.9c0.4,1.4,0.6,2.9,0.6,4.4c0,34.7,0,69.4,0,104.1c0,0.6,0.1,1.3-0.1,1.9c-0.5,1.9-1.6,3.1-3.7,3
	c-2-0.1-3.2-1.2-3.4-3.2c-0.1-0.9-0.1-1.7-0.1-2.6c0-23.8,0-47.5,0-71.3c0-1.9-0.6-2.7-2.3-3.4c-9-3.7-18-7.4-27-11.2
	c-6.5-2.7-8.6-7.2-6.6-14c2.8-9.1,4.9-18.4,9.9-26.6C54.5,66.9,64.2,57.2,78.5,53c6.5-1.9,12.7-4.6,19.3-6.1
	c6.5-1.5,10.7-4.8,14.1-10.6c5.2-8.7,2.7-7,12.7-7c18.8-0.1,37.6,0,56.4-0.1c2.7,0,4.4,0.9,5.7,3.2c2.2,3.6,4.5,7.2,7,10.7
	c0.8,1.2,2.2,2.2,3.5,2.7c8.2,2.8,16.5,5.6,24.8,8.2c14.1,4.3,23.7,13.8,31,26c5.4,9,7.6,19.2,10.5,29.1c0.3,1.1,0.1,2.4-0.1,3.5
	c-0.7,3.6-3,6-6.3,7.4c-9.6,4-19.1,8-28.7,11.9c-1.5,0.6-2.1,1.3-2.1,3.1c0.1,5.6,0.1,11.2,0.1,16.8c0,0.6,0,1.3,0,1.9
	c-0.2,2-1.7,3.4-3.6,3.4c-1.9,0-3.4-1.3-3.5-3.4c-0.1-1.9-0.1-3.8-0.1-5.7c0-10.6,0.3-21.2-0.1-31.8c-0.4-11,1-21.5,4.2-32
	C225.2,77.5,226.7,70.9,228.4,64z M226.4,124.5c0.5,0,0.8,0,1-0.1c9-3.8,18.1-7.5,27.1-11.3c1.7-0.7,2.3-2,1.8-3.8
	c-0.7-2.2-1.4-4.5-2-6.8c-2.6-9.5-6-18.7-12.5-26.4c-2.1-2.5-4.5-4.9-7.1-7.6c-1.6,6.3-2.8,12.1-4.6,17.7
	c-3.2,10.2-4.4,20.5-3.8,31.1C226.5,119.7,226.4,122.1,226.4,124.5z M64.6,69.2c-3.1,2.1-7.7,7.6-10.7,12.4
	C48.5,90,46.5,99.7,43.6,109c-0.6,2,0.5,3.1,2.2,3.8c5.8,2.4,11.6,4.8,17.4,7.2c3.1,1.3,6.2,2.6,9.6,4c0-6.7,0.1-12.9,0-19.2
	c-0.1-2.4-0.4-4.8-0.9-7.2c-1.1-4.9-2.4-9.7-3.7-14.6C67.1,78.5,65.8,73.9,64.6,69.2z M119.1,38c-1.7,2.6-3.2,5-4.8,7.3
	c-0.9,1.3-0.8,2.1,0.2,3.2c4.2,5.1,8.3,10.3,12.4,15.4c2.7,3.3,5.4,6.7,8.2,10.2c3.6-5,7-9.9,10.5-14.8
	C136.6,52.2,127.9,45.2,119.1,38z M165.8,74.2C173.1,65,180.4,56,187.6,47c-2-3-3.9-5.9-5.9-9c-8.9,7.1-17.6,14.2-26.4,21.3
	C158.9,64.4,162.3,69.2,165.8,74.2z M130.2,36.3c-0.1,0.3-0.3,0.5-0.4,0.8c2,1,3.9,2.9,5.9,3c9.9,0.4,19.8,0.1,29.6,0.5
	c3.7,0.1,5.2-2.2,8-4.2C157.5,36.3,143.3,36.3,130.2,36.3z M142,47.3c2.7,2.2,5.1,4.2,7.5,6c0.4,0.3,1.3,0.4,1.6,0.2
	c2.5-1.9,4.8-3.8,7.8-6.2C152.9,47.3,147.7,47.3,142,47.3z M169.7,115.8c0-3.1-0.1-6.1,0-9.2c0.1-4.2,3-7.1,7.2-7.1
	c6,0,11.9,0,17.9,0c4,0,7.2,2.5,7.3,6.5c0.2,6.9,0.4,13.9-0.4,20.7c-0.9,8.4-8.5,13.5-17.9,12.9c-7.5-0.5-13.9-7.1-14.1-14.8
	C169.6,121.8,169.7,118.8,169.7,115.8C169.7,115.8,169.7,115.8,169.7,115.8z M176.9,106.7c0,6.2-0.2,12.3,0.1,18.3
	c0.2,4.6,4.5,7.8,9.5,7.5c4.8-0.2,8.3-3.5,8.4-8.1c0.1-3,0.1-6,0.1-9c0-2.9,0-5.8,0-8.7C188.8,106.7,183,106.7,176.9,106.7z
	 M154.2,106.6c0-1.9-1.4-3.5-3.4-3.6c-1.9-0.1-3.7,1.6-3.7,3.5c0,1.9,1.6,3.7,3.5,3.7C152.6,110.3,154.2,108.6,154.2,106.6z
	 M147.1,79.5c0,1.9,1.4,3.5,3.3,3.6c2.1,0.1,3.7-1.3,3.8-3.3c0.1-2-1.4-3.7-3.4-3.8C148.9,75.9,147.2,77.5,147.1,79.5z M150.7,89.6
	c-1.9,0-3.5,1.5-3.5,3.4c-0.1,2,1.5,3.7,3.5,3.7c2,0.1,3.6-1.5,3.6-3.5C154.2,91.1,152.7,89.6,150.7,89.6z"/>
</svg>
