<?xml version="1.0" encoding="utf-8"?>
<!-- Generator: Adobe Illustrator 28.0.0, SVG Export Plug-In . SVG Version: 6.00 Build 0)  -->
<svg version="1.1" id="Layer_1" xmlns="http://www.w3.org/2000/svg" xmlns:xlink="http://www.w3.org/1999/xlink" x="0px" y="0px"
	 viewBox="0 0 300 300" style="enable-background:new 0 0 300 300;" xml:space="preserve">
<style type="text/css">
	.st0{fill:#FFFFFF;}
</style>
<g>
	<path class="st0" d="M78.9,246.5c4.9,14.6,17.8,24,33,24c0,0,0,0,0,0c15.2,0,28.2-9.4,33-23.9c1.4-4.1,4.1-4.6,6.7-4.6
		c0,0,0,0,0.1,0c14.2,0.1,28.5,0.1,42.7,0l26.1,0c14.3,0,28.6,0,42.8-0.1c1.5,0,3.4-0.6,4.7-1.4c2.2-1.4,3.1-4.2,2.2-6.9
		c-1-3-3.3-4.5-6.6-4.5h-9.3c-34.2,0-68.5,0-102.7,0c0,0,0,0-0.1,0c-2.4,0-5.2-0.6-6.6-4.7c-4.9-14.5-17.8-23.9-33-23.9c0,0,0,0,0,0
		c-14.9,0-28.2,9.7-33,24.1c-1.1,3.1-3.2,4.5-6.2,4.5c-11.3-0.1-22.7-0.1-34,0l-1.9,0c-1,0-2,0-2.7,0.2c-3.1,0.9-5,3.8-4.6,7.2
		c0.4,3,3.2,5.4,6.4,5.4c12.2,0,24.3,0.1,36.5,0c0,0,0.1,0,0.1,0C74.8,241.9,77.6,242.5,78.9,246.5z M96.3,220.1
		c4.2-4.2,9.8-6.6,15.6-6.6c0,0,0,0,0.1,0c12.1,0,21.9,9.9,22,21.9c0.1,5.8-2.3,11.4-6.5,15.6c-4.2,4.2-9.8,6.6-15.6,6.6
		c0,0,0,0-0.1,0c-11.9,0-21.9-10.1-22-21.9C89.8,229.9,92.1,224.3,96.3,220.1z"/>
	<path class="st0" d="M144.9,53.2C140,38.8,127,29.5,111.8,29.5c0,0-0.1,0-0.1,0c-14.8,0-28,9.6-32.8,23.9c-1.4,4.2-4.2,4.5-6.7,4.7
		C62,58,51.9,58,41.7,58l-5.1,0c-4.4,0-7.2,2.5-7.2,6.4c0,3.9,2.8,6.4,7.2,6.4l2.1,0c11.2,0,22.4,0,33.5,0c0,0,0.1,0,0.1,0
		c2.4,0,5.3,0.6,6.6,4.7c4.8,14.2,17.9,23.8,32.8,23.9c0,0,0.1,0,0.1,0c15.2,0,28.2-9.3,33.1-23.8c1.4-4.2,4.3-4.8,6.9-4.8
		c0,0,0,0,0.1,0c14.3,0.1,28.6,0.1,43,0.1l27.6,0c13.7,0,27.4,0,41.2,0c0,0,0,0,0,0c3.2,0,5.2-1.2,6.5-3.9c0.9-2,0.8-4-0.3-5.8
		c-1.3-2-3.6-3.2-6.2-3.2c-37.2,0-74.5,0-111.7,0C148.9,58.2,146.3,57.5,144.9,53.2z M111.9,86.5c-0.1,0-0.1,0-0.2,0
		c-5.8-0.1-11.5-2.5-15.6-6.8c-4.2-4.3-6.4-9.8-6.3-15.7c0.2-11.9,10.6-21.7,22.2-21.7c5.8,0,11.5,2.5,15.6,6.8
		c4.2,4.3,6.4,9.8,6.3,15.6C133.8,76.6,123.7,86.5,111.9,86.5z"/>
	<path class="st0" d="M36.5,156.4c37.3,0,74.7,0,112,0c0,0,0,0,0.1,0c2.3,0,5.1,0.5,6.4,4.5c4.8,14.4,18,24,33,24c0,0,0,0,0,0
		c15.2,0,28.2-9.4,33-23.9c1.4-4.1,4.2-4.4,6.7-4.7c10.7,0.1,21.4,0,32.1,0l3.6,0c4.4,0,7.2-2.5,7.2-6.4c0-3.8-2.9-6.4-7.2-6.4
		l-7.2,0c-9.4,0-18.7,0-28.1,0.1c-3.6,0.1-5.9-1.5-7.1-5c-4.9-14.3-17.8-23.6-32.9-23.6c0,0,0,0,0,0c-14.9,0-28.1,9.6-32.8,23.8
		c-1.4,4.2-4.2,4.8-6.8,4.8c0,0-0.1,0-0.1,0c-14.6-0.1-29.1-0.1-43.7-0.1l-68.3,0c-2,0-3.8,0.7-5,1.9c-1.2,1.2-1.8,2.9-1.7,4.8
		C29.5,153.9,32.4,156.4,36.5,156.4z M172.6,134.3c4.3-4.2,10.1-6.7,15.6-6.4c11.9,0.1,21.9,10.3,21.9,22.1
		c0,11.9-10.1,21.9-21.9,22c-0.1,0-0.1,0-0.1,0c-5.8,0-11.3-2.3-15.5-6.5c-4.3-4.2-6.6-9.8-6.6-15.6
		C165.9,144.1,168.3,138.5,172.6,134.3z"/>
</g>
</svg>
