<?xml version="1.0" encoding="utf-8"?>
<!-- Generator: Adobe Illustrator 28.0.0, SVG Export Plug-In . SVG Version: 6.00 Build 0)  -->
<svg version="1.1" id="Layer_1" xmlns="http://www.w3.org/2000/svg" xmlns:xlink="http://www.w3.org/1999/xlink" x="0px" y="0px"
	 viewBox="0 0 300 300" style="enable-background:new 0 0 300 300;" xml:space="preserve">
<style type="text/css">
	.st0{fill:#FFFFFF;}
</style>
<path class="st0" d="M249.7,192.2c4.9-8.3,7.3-18,7.5-29.7c0.2-17-3-34.3-9.4-51.4c-7.6-20.1-16.6-35.3-28.2-47.8
	c-8-8.6-15.7-13.9-24.1-16.8c-11.7-4-23-0.9-30.3,8.2c-0.6,0.7-1.1,1.5-1.6,2.2c-0.8,1.2-1.6,2.3-2.5,3.4
	c-14.6,16.4-31.6,30.8-52,44.2c-18.3,12-35.4,21-52.2,27.4c-5.9,2.3-9.7,6-11.4,11.3c-1.5,4.7-2.4,9.1-2.5,13
	c-0.5,13,3,25.9,10.7,39.4c4.5,7.9,9.7,13.7,15.9,17.7c5.3,3.4,10,4.5,14.9,3.5l23.3-4.5c0.5-0.1,0.9-0.1,1.4-0.1
	c2.1,0,3.7,1.1,4.7,3.2c2.6,5.5,5.2,11,7.8,16.5l5.4,11.3c0.9,1.8,2,2.9,4,3.5c5.8,1.9,11.6,3.9,17.4,5.9l5.8,2
	c1.2,0.4,2.4,0.4,3.3-0.1c0.8-0.4,1.4-1.2,1.7-2.2c0.4-1.2,0.4-2.9,0.2-4.5c-1.2-9.8-2.4-19.6-3.6-29.5l-1.6-12.6l2.9-0.2
	c18.6-1.6,35.4-2,51.4-1.2c3.1,0.1,6.2,0.5,9.4,0.9c1.8,0.2,3.7,0.4,5.5,0.6c2.1,0.2,3.9,0.3,5.7,0.2
	C237.7,205.6,244.6,201,249.7,192.2z M143.2,241.1c-2.3-0.7-4.6-1.4-6.7-2.1c-1.2-0.4-2.3-1.4-2.8-2.5c-3.3-7.2-6.5-14.5-9.8-21.7
	l-0.9-2l0.5-3l2.1-0.5l19.2-2.5l4.6,36.3L143.2,241.1z M186.5,195.9c-3.7,0-7.2-0.1-10.7,0c-31.4,0.9-62.3,4.9-91.7,11.9
	c-1.1,0.3-2.2,0.4-3.3,0.4c-3.1,0-5.9-1.1-8.1-3.3c-3.4-3.4-7.2-7.2-10.1-11.5c-7.9-11.7-11.6-24.6-10.9-38.2c0.1-2,0.4-4.3,1-6.8
	c0.9-3.8,3.2-6.4,7.2-8c32.2-13,61.8-31.3,87.9-54.5l2.4-1.8l4-1.8l0.3,4.2c-0.1,40.7,12.8,74.9,39.6,104.7l4.2,4.7L186.5,195.9z
	 M164,101.5l3.8,0.8c5,1.1,8.2,3.9,10.1,5.9c7.7,8.1,12.9,18.4,15.7,31.4c1.9,8.8,2.1,15.6,0.4,22.1c-0.3,1.2-0.8,2.3-1.4,3.6
	l-2.8,6.8l-2.9-4.6c-12.7-20-20.1-40.3-22.6-62.1L164,101.5z M240.1,189.1c-3.7,5.4-8.5,8.1-14.2,8.1c-2.1,0-4.4-0.4-6.8-1.1
	c-4.7-1.5-9.1-4.1-13.5-7.9c-2.3-2-4.4-4.1-6.6-6.2l-5-4.8l2.1-2c6.3-6.2,8.9-14,8.4-25.3c-0.2-4.6-0.9-9.4-2.2-14.3
	c-3.1-12.3-8.9-23.4-17.3-32.8c-5.4-6.1-11.4-9.1-18.7-9.5l-3-0.2l0.6-5c1-9.2,2.1-18.7,8.2-26.8c5-6.5,11.5-8.7,19.4-6.2
	c9,2.7,15.5,8.6,20.6,14c10.5,11.1,18.7,24.6,25.8,42.4c5,12.7,8,24.4,9.2,35.6c1.4,13.5,0.4,24.5-3.2,34.6
	C243.1,184.1,241.8,186.6,240.1,189.1z"/>
</svg>
