<?xml version="1.0" encoding="utf-8"?>
<!-- Generator: Adobe Illustrator 28.0.0, SVG Export Plug-In . SVG Version: 6.00 Build 0)  -->
<svg version="1.1" id="Layer_1" xmlns="http://www.w3.org/2000/svg" xmlns:xlink="http://www.w3.org/1999/xlink" x="0px" y="0px"
	 viewBox="0 0 300 300" style="enable-background:new 0 0 300 300;" xml:space="preserve">
<style type="text/css">
	.st0{fill:#FFFFFF;}
</style>
<path class="st0" d="M97.1,267.8c-0.8-1.1-1.9-2.2-2.3-3.5c-2.8-8.4-5.4-16.9-8.1-25.3c-0.2-0.6-0.4-1.3-0.7-2
	c-9.4,2.1-18.8,4.1-28.1,6.2c-1.7,0.4-3.2,0.4-4.4-1.1c-1.2-1.6-0.9-3.1,0-4.7c5.1-8.8,10.2-17.6,15.3-26.5c1.4-2.5,3.3-3.2,5.2-2.2
	c2,1.1,2.3,3.2,0.8,5.8c-3.4,6-6.9,11.9-10.3,17.9c-0.4,0.6-0.7,1.3-1.2,2.3c6.9-1.5,13.5-2.9,20-4.4c7.4-1.7,7.4-1.7,9.7,5.4
	c2,6.4,4.1,12.9,6.3,19.9c10-17.4,19.8-34.4,29.7-51.6c-13.9-3.6-26.1-10.1-36.9-19.6c-2.4,4.1-4.7,8.2-7,12.2
	c-0.5,0.9-1,1.9-1.6,2.8c-1.2,1.8-3,2.2-4.8,1.2c-1.8-1.1-2.3-2.8-1.2-4.7c2.8-4.9,5.6-9.9,8.5-14.7c0.8-1.4,0.6-2.2-0.4-3.4
	c-12.3-13.6-19.9-29.5-21.8-47.6c-3.3-30.8,6.8-56.6,30-77.3c1.7-1.5,3.8-1.5,5.1,0c1.5,1.7,1.3,3.7-0.7,5.4
	c-7.3,6.3-13.3,13.6-17.9,22c-7.7,14.1-11,29-9.9,45.1c2.3,33.9,26.7,62.9,59.4,71.6c43.2,11.5,88.3-15.6,98.2-59.3
	c9.8-43-15.7-85.2-58.2-96.1c-19.7-5-38.7-2.6-56.8,6.7c-3.3,1.7-5.2,1.6-6.4-0.5c-1.1-2.1-0.1-3.9,3.1-5.6
	c50.1-26.6,112.8,2.1,125.1,57.5c6.5,29.3-0.4,55.4-20,78c-1.2,1.4-1.1,2.3-0.3,3.8c10.7,18.5,21.3,37,32,55.5
	c0.8,1.5,1.5,2.9,0.5,4.5c-0.9,1.4-2.2,2-3.9,1.6c-8.9-2-17.8-3.8-26.7-5.9c-1.8-0.4-2.4,0-2.9,1.7c-2.5,8.3-5.2,16.5-7.8,24.7
	c-0.6,1.8-1.4,3.3-3.1,4.2c-0.5,0-0.9,0-1.4,0c-0.9-0.8-2-1.4-2.6-2.4c-1.9-3-3.6-6.1-5.3-9.1c-1.2-2.1-0.7-4.1,1.1-5.1
	c1.8-1,3.6-0.4,4.9,1.6c0.5,0.7,0.9,1.5,1.6,2.7c0.4-1.2,0.6-1.9,0.9-2.6c2.1-6.8,4.3-13.6,6.4-20.3c1-3.1,2.3-3.8,5.3-3.1
	c3.6,0.8,7.2,1.6,10.8,2.4c4.1,0.9,8.2,1.7,12.8,2.7c-9.8-16.9-19.2-33.4-28.8-50.1c-10.8,9.6-23,16-36.8,19.7
	c0.5,0.9,0.8,1.6,1.2,2.2c5.8,10.1,11.6,20.2,17.4,30.3c0.4,0.7,0.9,1.5,1.2,2.2c0.8,1.9,0.1,3.4-1.5,4.3c-1.6,0.9-3.1,0.6-4.3-0.8
	c-0.5-0.6-0.8-1.3-1.2-1.9c-6.4-11.1-12.8-22.1-19.1-33.2c-0.7-1.3-1.4-1.6-2.9-1.4c-7.8,1.2-15.6,1.2-23.4,0.1
	c-2-0.3-2.8,0.3-3.7,1.9c-10.8,18.9-21.7,37.8-32.6,56.7c-0.7,1.2-1.6,2.2-2.4,3.3C98.9,267.8,98,267.8,97.1,267.8z M137.1,57.3
	c-34.5,7.5-56.5,40.8-49,75.1c5.4,24.9,20.9,41.6,45.6,48.2c24.6,6.6,46-0.3,63.4-18.9c3.5-3.7,6-8.3,8.8-12.6
	c1.4-2.1,0.8-4.1-1-5.2c-1.9-1.1-3.8-0.4-5.1,1.9c-0.2,0.3-0.3,0.5-0.5,0.8c-12.3,21.8-35.1,32.6-59.8,28.3
	c-30.7-5.3-51.7-37.1-44.6-67.6c6.7-28.9,32.5-47.2,61.9-43.9c21.7,2.4,40.7,18.5,47,39.6c2.6,8.8,3.1,17.7,1.4,26.8
	c-0.5,2.9,0.4,4.6,2.5,5.1c2.3,0.5,3.7-0.8,4.3-3.8c1.3-6.8,1.4-13.7,0.4-20.6c-4.4-31.3-31.3-54.7-62.8-54.8
	C145.6,56.2,141.3,56.4,137.1,57.3z M185.1,104.1c-6.7-1-13.3-1.9-20-2.8c-1.4-0.2-2.1-0.7-2.8-2c-2.9-6-5.8-12-8.7-17.9
	c-0.8-1.5-1.7-2.7-3.6-2.7c-1.9,0-2.8,1.2-3.6,2.7c-2.9,6-5.8,12-8.8,17.9c-0.4,0.8-1.4,1.7-2.2,1.8c-6.6,1.1-13.2,2-19.8,2.8
	c-1.8,0.2-3.3,0.7-4,2.6c-0.7,1.9,0.4,3.2,1.7,4.4c4.6,4.4,9.1,8.9,13.7,13.3c1.3,1.2,1.7,2.4,1.4,4.2c-1.2,6.3-2.2,12.7-3.3,19
	c-0.3,1.8-0.3,3.2,1.2,4.3c1.6,1.2,3.1,0.8,4.7-0.1c5.8-3.1,11.6-6.1,17.4-9.3c1.2-0.7,2.1-0.7,3.4,0c5.9,3.2,11.8,6.2,17.6,9.4
	c1.5,0.8,3,1.1,4.5,0c1.3-1.1,1.5-2.4,1.2-4.1c-1.2-6.6-2.4-13.2-3.4-19.9c-0.1-0.9,0.3-2.2,1-2.9c4.6-4.7,9.4-9.2,14.1-13.9
	c0.9-0.9,1.5-2,1.9-2.6C188.6,105.8,187.2,104.4,185.1,104.1z M135.8,126.1c0.3-1.9-0.2-3.2-1.5-4.5c-3.7-3.9-7.3-7.8-10.8-11.6
	c4.6-0.7,9.9-1.5,15.1-2.2c2.2-0.3,3.4-1.3,4.3-3.2c2.2-4.7,4.5-9.3,7.1-14.4c0.9,1.8,1.7,3.3,2.4,4.8c1.7,3.4,3.3,6.7,4.9,10.1
	c0.8,1.7,2,2.5,3.9,2.8c5.3,0.7,10.6,1.5,16.2,2.4c-0.5,0.6-0.8,1-1.2,1.4c-3.4,3.4-6.9,6.8-10.4,10.1c-1.3,1.3-1.9,2.6-1.6,4.5
	c1,5.3,1.8,10.7,2.8,16.4c-3.4-1.8-6.5-3.4-9.7-5.1c-8.9-4.6-5.8-4.5-14.7,0c-3.1,1.6-6.2,3.3-9.7,5.1
	C133.9,136.8,134.8,131.5,135.8,126.1z"/>
</svg>
