<?xml version="1.0" encoding="utf-8"?>
<!-- Generator: Adobe Illustrator 28.0.0, SVG Export Plug-In . SVG Version: 6.00 Build 0)  -->
<svg version="1.1" id="Layer_1" xmlns="http://www.w3.org/2000/svg" xmlns:xlink="http://www.w3.org/1999/xlink" x="0px" y="0px"
	 viewBox="0 0 300 300" style="enable-background:new 0 0 300 300;" xml:space="preserve">
<style type="text/css">
	.st0{fill:#FFFFFF;}
</style>
<path class="st0" d="M36.1,216.8c2.5-43,13.6-78.9,36.9-110.6c19.4-26.5,45.2-44.6,75.6-56.4c23.8-9.3,48.6-14.3,74.2-13.5
	c7.6,0.2,15.2,1.8,22.7,3.4c7.5,1.7,12.2,6.7,14.6,14.1c3.2,10.1,4.1,20.4,3.7,30.9c-1.4,39.8-13.2,76.2-36.8,108.5
	c-19.6,26.8-45.8,45-76.4,57.1c-22.6,8.9-46,13.7-70.3,13.5c-6.6-0.1-13.2-1-19.8-1.9c-13-1.8-20.8-9-22.2-22.3
	C37.3,230.7,36.6,221.7,36.1,216.8z M48.6,194.9c0.5,0.8,1,1.7,1.7,2.4c17.5,17.4,35,34.9,52.5,52.2c0.7,0.7,2.3,1.2,3.3,1
	c5.9-1.1,11.9-2.2,17.7-3.7c37-9.4,68.7-27.4,92.4-57.9c18.7-24.1,29.7-51.4,34.4-81.5c0.2-1.1-0.2-2.6-0.9-3.4
	c-17.9-18-35.9-36-53.9-53.9c-0.8-0.8-2.4-1.4-3.4-1.2c-13.1,3.4-26.6,6.1-39.2,10.7c-27.6,10-51,26.5-69.1,49.9
	c-15.6,20-25.7,42.6-31.6,67.2C51.1,182.7,50,188.6,48.6,194.9z M208.7,47.1c15.2,14.9,29.6,29.1,44,43.2
	c0.1-10.2,0.9-20.9-2.2-31.3c-1.1-3.7-2.5-7.2-6.6-8.6C232.7,46.6,221.2,46.6,208.7,47.1z M88.1,252.6c-13.3-13.6-27-27.6-40.9-41.9
	c-0.6,10.3-0.3,20.3,2.1,30.1c1.3,5.5,4.9,8.2,10.2,9.6C69.2,253,79.1,252.7,88.1,252.6z M165,172.4c2.5,2.4,6.1,2.6,8.3,0.5
	c2.2-2.1,2-5.6-0.4-8.2c-0.8-0.9-1.7-1.7-2.5-2.5c-4.2-4.1-8.4-8.2-12.1-11.8c5.8-5.8,11.1-11.1,16.8-16.8c4.4,4.4,9,9.2,13.7,13.9
	c3.1,3.1,6.6,3.4,9.1,1.1c2.5-2.4,2.1-5.5-1.3-8.9c-4.7-4.7-9.4-9.3-14.8-14.6c3.2-3,6.3-5.8,9.3-8.7c3.1-3.1,3.4-6.3,1.1-8.8
	c-2.5-2.5-5.8-2.1-9,1.1c-2.9,2.9-5.9,5.8-8.9,8.7c-0.9-0.9-1.7-1.6-2.4-2.3c-4.3-4.3-8.6-8.6-12.9-12.8c-2-2-4.5-2.2-6.9-1
	c-2.5,1.2-3,3.7-2.4,6.1c0.3,1.3,1.4,2.5,2.3,3.4c4.8,4.8,9.6,9.5,14.2,14.1c-5.6,5.7-11,11.2-16.8,17c-0.6-0.8-1.3-1.9-2.1-2.7
	c-4.3-4.3-8.5-8.6-12.9-12.8c-2.2-2.1-5.8-2.1-7.7-0.1c-2,1.9-2,5.4-0.1,7.8c0.9,1.1,2,2.1,3,3.1c4.2,4.1,8.5,8.1,12.5,11.9
	c-5.9,6-11.2,11.4-17,17.4c-1-1.2-1.8-2.5-2.9-3.6c-4-4.1-8-8.1-12.1-12.1c-2-2-4.4-2.2-6.9-0.8c-2.6,1.5-2.8,4.1-2.1,6.6
	c0.4,1.3,1.5,2.4,2.5,3.4c4.7,4.7,9.4,9.3,14,13.8c-0.4,0.8-0.4,1-0.6,1.2c-2.6,2.6-5.2,5.2-7.8,7.8c-3.1,3.1-3.6,6.7-1.3,9.1
	c2.4,2.5,5.8,2.1,9-1.1c2.8-2.9,5.5-5.8,8.5-9c5.2,5.3,9.9,10.3,15,15c1.4,1.3,3.8,2.4,5.6,2.1c1.6-0.2,3.8-2.1,4.1-3.6
	c0.4-1.8-0.4-4.5-1.7-5.9c-4.7-5.3-9.8-10.2-14.4-14.8c5.6-5.6,11-11,16.6-16.6C155.2,162.5,160.1,167.5,165,172.4z M84.3,144.3
	c6.5-15.1,16.4-27.6,28.7-38.4c13.5-11.9,28.8-20.7,45.6-26.9c2.9-1,4.8-2.6,4.7-5.8c-0.2-4.1-3.6-6.4-7.9-4.6
	c-8.6,3.6-17.3,7.2-25.4,11.7c-21.6,12.1-39.2,28.5-51.3,50.4c-1.9,3.4-3.6,6.9-5,10.6c-1.7,4.3,0.5,7.9,5.1,8
	C81.5,149.2,83.1,147.1,84.3,144.3z"/>
</svg>
