<?xml version="1.0" encoding="utf-8"?>
<!-- Generator: Adobe Illustrator 28.0.0, SVG Export Plug-In . SVG Version: 6.00 Build 0)  -->
<svg version="1.1" id="Layer_1" xmlns="http://www.w3.org/2000/svg" xmlns:xlink="http://www.w3.org/1999/xlink" x="0px" y="0px"
	 viewBox="0 0 300 300" style="enable-background:new 0 0 300 300;" xml:space="preserve">
<style type="text/css">
	.st0{fill:#FFFFFF;}
</style>
<path class="st0" d="M280.4,93.5c-0.5,23.4-7,42.5-19,59.9c-9.6,13.9-21.6,25.1-36.1,33.8c-7.3,4.4-15.1,7.8-23.3,10.3
	c-7.9,2.4-16,3.8-24.3,4.3c-2.7,0.2-5.4,0-8.1,0.5c-5.6,1.1-11.2,2.5-16.8,3.9c-5.1,1.3-10.2,2.6-15.3,4.1
	c-8.7,2.5-17.3,5.5-25.6,9.2c-6.5,2.9-12.9,6-18.3,10.7c-3.6,3.1-6.8,6.6-10.2,9.9c-12.3,12.3-24.6,24.6-36.9,36.9
	c-2.7,2.7-5.9,4.2-9.8,3c-1.6-0.5-3.2-1.3-4.3-2.4c-3.5-3.2-6.9-6.6-10.2-10.1c-3.9-4.1-3.8-9.7,0.2-13.8
	c7.4-7.5,14.9-14.9,22.3-22.4c7.4-7.4,14.7-14.7,22.1-22.1c5.2-5.1,8.7-11.4,11.8-17.8c3.9-8.1,6.9-16.6,9.6-25.1
	c3.1-10,5.7-20.2,8-30.5c0.8-3.8,1.3-7.5,1.5-11.3c0.3-6.2,1-12.3,2.3-18.3c3.3-15,9.7-28.7,18.9-41c10.5-14.1,23.5-25.3,39-33.5
	c8.2-4.4,16.9-7.5,26-9.5c7.8-1.8,15.6-2.5,23.5-2.1c25,1.2,45.2,11.6,59.6,32.3c5.8,8.3,9.4,17.6,11.2,27.5
	C279.6,84.9,280,90.3,280.4,93.5z M88.7,225.4c4.8-4.1,11.4-8,18.1-11.2c12.5-5.8,25.6-9.9,38.8-13.4c6.5-1.7,13.1-3.1,19.7-4.7
	c3.7-0.9,7.5-1.4,11.4-1.5c3.5-0.1,7-0.2,10.4-0.8c8.2-1.3,16.1-3.4,23.6-7c30.7-14.4,51.1-37.7,60-70.7c1.4-5.1,2-10.3,2.2-15.6
	c0.4-9.1-0.2-18.1-2.9-26.9s-6.9-16.8-12.9-23.7c-12-13.9-27.3-21.2-45.4-23c-8.3-0.8-16.5-0.3-24.6,1.3c-9.4,1.9-18.3,5.1-26.7,9.7
	c-15.6,8.5-28.4,20-38.4,34.7c-6.4,9.4-11.2,19.6-14.1,30.6c-1.5,5.7-2.7,11.4-2.7,17.3c0,5.7-0.8,11.2-2.1,16.7
	c-1.8,7.4-3.7,14.7-5.6,22c-2.7,10.2-6,20.1-10.2,29.8c-3.2,7.5-7,14.7-12.1,21.1c-0.7,0.9-0.6,1.4,0.2,2.1c1.3,1.2,2.6,2.5,3.8,3.8
	c0.2,0.2,0.5,0.4,0.5,0.4c0.7-1.3,1.2-2.5,2-3.6c2.1-3.4,4.4-6.6,6.4-10.1c7.1-13,11.7-26.9,15.8-41.1c0.4-1.5,0.9-3.1,1.4-4.6
	c0.5-1.3,1.4-2.2,2.8-2.2c1.5-0.1,2.6,0.4,3.3,1.8c0.3,0.7,0.8,1.4,1.1,2.1c6.7,13.1,16.7,22.8,29.9,29.2c1.6,0.8,2.4,1.9,2.3,3.6
	c-0.1,1.7-1.1,2.6-2.6,3.1c-2.8,0.8-5.6,1.6-8.4,2.5c-4.8,1.5-9.6,3.1-14.3,4.7c-9.1,3.2-17.9,7-26.2,11.9c-3.4,2-6.1,5.3-10.4,5.9
	C84.8,221.6,86.7,223.4,88.7,225.4z M69.4,216.6c0.1-0.1,0.1-0.2,0.2-0.4c-0.1,0.1-0.2,0.2-0.3,0.3c-7.9,7.9-15.7,15.7-23.6,23.6
	c-6,6-12,12-18,18c-1.3,1.3-1.5,3.2-0.3,4.4c3.2,3.2,6.4,6.5,9.6,9.6c1.4,1.4,2.9,1.4,4.5,0.2c0.4-0.3,0.8-0.7,1.2-1.1
	c11.6-11.6,23.3-23.2,34.9-34.9c2-2,4-4,6.1-6.1C78.8,225.8,74.1,221.2,69.4,216.6z M95.2,204.7c11.9-6,24.3-10.4,37.3-14.3
	c-9.4-6-16.9-13.5-22.9-22.6C105.6,180.4,101.2,192.8,95.2,204.7z M279.3,232.9c1,19.6-13.7,39.1-36.8,40.7
	c-21.6,1.5-40.7-14.8-41.9-37.4c-1.2-21.4,15.2-39.9,36.9-41.3C261,193.4,279.1,212.4,279.3,232.9z M246.6,202.5
	c0,0.4,0,0.8-0.1,1.1c-0.4,2.7-0.5,5.5-1.2,8.1c-4.2,16.2-18.7,28.3-36,29.2c-0.9,0.1-1.1,0.4-0.9,1.2c0.5,1.5,0.9,3,1.5,4.4
	c3.5,8.6,9.6,14.5,18.1,18c1.1,0.4,2.2,0.7,3.5,1.1c0.1-11.1,3.9-20.6,11.6-28.4c7.8-7.8,17.3-11.4,28.2-11.7
	C270.8,216.5,256.5,203.1,246.6,202.5z M272.7,232.9c-0.4-0.1-0.6-0.1-0.7-0.1c-8.1-0.2-15.4,2-21.6,7.2c-8,6.7-11.9,15.3-11.9,25.7
	c0,0.8,0.3,1.1,1,1c2.8-0.3,5.6-0.2,8.3-0.9c13-3.1,22.8-13.5,24.7-27.9C272.6,236.3,272.6,234.6,272.7,232.9z M207.7,233.9
	c9.5-0.1,17.4-3.6,23.7-10.4c5.6-6.1,8.3-13.3,8.5-21.6C222.3,201.6,207.4,216.4,207.7,233.9z M176.6,184.9
	c-16.3-0.3-28.8-3.9-39.7-12.4c-9.9-7.7-16.3-17.8-19.5-29.9c-1.7-6.8-2.7-13.6-2.1-20.7c1.8-22.5,11.2-41.4,26.9-57.4
	c9.2-9.5,20-16.7,32.3-21.7c9.9-4,20.1-6.1,30.8-5.9c12,0.2,23.3,3.1,33.3,10c11,7.5,18.3,17.7,21.9,30.5c1.9,6.8,3.2,13.7,2.8,20.7
	c-0.2,3.3-0.7,6.6-1.3,9.9c-2.1,13.1-7.3,25-14.9,35.9c-8.4,12.2-19.1,22-32,29.4c-7.6,4.4-15.7,7.7-24.2,9.5
	C185.3,183.9,179.6,185.1,176.6,184.9z M198.1,160.5c3.8-3.7,7.3-7.3,10.9-10.9c-0.4-0.4-0.6-0.7-1-1c-3-3.1-6.1-6.1-9.1-9.1
	c-0.8-0.8-1.2-0.7-1.9,0c-2.8,2.9-5.7,5.7-8.5,8.6c-0.5,0.5-1.1,1-1.7,1.5c0.2-0.1,0.4-0.1,0.7-0.2
	C191,152.9,194.5,156.7,198.1,160.5z M161.2,102c-3.6-3.6-7.3-7.3-10.7-10.7c-3.6,3.6-7.2,7.2-10.6,10.6c3.5,3.6,7.1,7.3,10.6,10.8
	C154,109.1,157.6,105.5,161.2,102z M177.2,117.9c-3.4-3.5-6.8-6.9-10.2-10.3c-0.6-0.6-1.1-0.6-1.7,0.1c-2,2.1-4,4-6.1,6.1
	c-1.3,1.3-2.7,2.7-3.7,3.8c3.6,3.8,7.2,7.5,10.8,11.2C170,125.1,173.6,121.5,177.2,117.9z M155.4,86.1c0,0.1,0.1,0.2,0.1,0.2
	c3.4,3.4,6.8,6.8,10.2,10.2c0.5,0.6,0.9,0.3,1.3-0.2c3.2-3.2,6.4-6.4,9.5-9.6c0.2-0.2,0.4-0.5,0.7-0.8c-3.7-3.7-7.3-7.3-10.8-10.8
	C162.8,78.8,159.1,82.5,155.4,86.1z M182.2,154.3c-3.7,3.7-7.4,7.4-11,10.9c0.6,0.7,1.2,1.4,1.8,1.9c2.7,2.8,5.5,5.5,8.2,8.2
	c0.7,0.7,1.2,0.8,2,0c2.9-2.9,5.8-5.8,8.7-8.7c1.4-1.4,1.3-1.4,0-2.8C188.6,160.8,185.5,157.6,182.2,154.3z M134.3,128.5
	c3.7-3.6,7.4-7.2,11-10.8c-3.6-3.6-7.1-7.1-10.8-10.7c-3.6,3.6-7.2,7.3-10.8,10.8C127.3,121.4,130.9,125.1,134.3,128.5z M224.7,70.2
	c-0.3-0.3-0.5-0.6-0.8-0.9c-3.2-3.2-6.4-6.3-9.5-9.6c-0.5-0.5-0.8-0.3-1.2,0.1c-3.1,3.2-6.3,6.4-9.4,9.5c-0.8,0.8-0.8,1.2,0,2
	c2.9,2.8,5.7,5.7,8.6,8.5c1.5,1.5,1.5,1.5,2.9,0c2.8-2.8,5.7-5.6,8.5-8.4C224.1,71,224.4,70.6,224.7,70.2z M150.4,122.8
	c-3.6,3.7-7.2,7.4-10.6,10.9c3.4,3.5,7,7.2,10.6,10.9c3.6-3.7,7.2-7.3,10.7-10.9C157.6,130.2,154.1,126.6,150.4,122.8z M187.1,54
	c3.8,3.8,7.4,7.4,11.1,11.1c3.3-3.3,6.6-6.7,10.1-10.1c0.5-0.5,0.5-0.9,0-1.4c-2.9-2.8-5.8-5.8-8.6-8.6c-1.6-1.5-1.8-1.5-3.3-0.1
	C193.2,48,190.1,51.1,187.1,54z M245.6,113c3.1-3.1,6.1-6.2,9.1-9.2c1.7-1.7,1.7-2.1,0-3.8c-2.9-2.9-5.7-5.8-8.6-8.6
	c-0.1-0.2-0.4-0.2-0.6-0.4c-3.3,3.3-6.6,6.7-10,10c-0.8,0.8-0.8,1.2,0,2C238.8,106.2,242.1,109.6,245.6,113z M240.6,86
	c-3.8-3.7-7.4-7.2-11-10.8c-0.4,0.4-0.9,0.8-1.3,1.2c-2.9,2.9-5.7,5.8-8.6,8.6c-0.8,0.8-0.8,1.3,0,2c1,1,2,2,3,3
	c2.3,2.3,4.7,4.7,7.1,7.1C233.4,93.4,236.9,89.7,240.6,86z M155.4,149.5c3.3,3.4,6.7,6.8,10.1,10.2c0.5,0.5,0.9,0.5,1.5,0
	c3.2-3.2,6.4-6.5,9.7-9.7c0.5-0.5,0.5-0.8,0-1.2c-3.2-3.2-6.4-6.4-9.6-9.6c-0.6-0.7-1.1-0.5-1.6,0.1c-2.6,2.7-5.3,5.3-8,7.9
	C156.8,148,156.1,148.8,155.4,149.5z M209,86.5c-3.9-4-7.4-7.6-11.1-11.3c-3.6,3.6-7.2,7.2-10.9,10.9c0.2,0.3,0.4,0.5,0.6,0.8
	c3.2,3.2,6.4,6.5,9.6,9.7c0.5,0.5,0.8,0.3,1.2-0.1c1.2-1.2,2.4-2.4,3.6-3.5C204.5,90.7,206.9,88.5,209,86.5z M182.1,112.8
	c3.7-3.7,7.3-7.3,10.9-10.9c-0.5-0.5-0.9-0.9-1.4-1.4c-2.9-2.9-5.9-5.9-8.8-8.8c-0.4-0.4-0.7-0.8-1.3-0.2c-3.2,3.2-6.4,6.4-9.6,9.6
	c-0.7,0.7-0.5,1.1,0.1,1.7c2.9,2.9,5.8,5.8,8.7,8.7C181.2,112,181.7,112.4,182.1,112.8z M182.1,59.3c-3.6,3.6-7.1,7.3-10.8,11
	c0.2,0.2,0.4,0.5,0.7,0.8c3.1,3.1,6.2,6.3,9.3,9.4c0.6,0.6,1,0.5,1.5,0c3.3-3.3,6.6-6.6,9.9-9.9c0.1-0.1,0.2-0.3,0.1-0.2
	C189.3,66.7,185.7,63,182.1,59.3z M213.7,122.8c-3.4,3.4-6.9,6.8-10.3,10.3c-0.5,0.5-0.3,0.9,0.1,1.3c3.2,3.2,6.4,6.3,9.6,9.5
	c0.6,0.6,1,0.6,1.6,0c1.4-1.4,2.8-2.9,4.2-4.3c2-1.9,3.9-3.9,5.9-5.8C221.1,130,217.4,126.4,213.7,122.8z M193,133.6
	c-3.4-3.5-6.9-7-10.4-10.5c-0.5-0.6-0.9-0.1-1.2,0.2c-2.3,2.3-4.7,4.6-7,7c-1.1,1.1-2.1,2.2-2.8,3c3.5,3.6,7.1,7.4,10.5,11
	C185.8,140.8,189.4,137.2,193,133.6z M187.1,117.5c0.1,0.3,0.1,0.4,0.1,0.4c3.4,3.4,6.8,6.9,10.3,10.3c0.2,0.2,0.9,0.1,1.1-0.1
	c2.5-2.4,5-5,7.5-7.4c0.9-0.9,1.9-1.8,2.9-2.9c-3.6-3.6-7-7-10.5-10.4c-0.2-0.2-0.9-0.2-1.1-0.1C194,110.7,190.6,114.1,187.1,117.5z
	 M229.4,106.9c-3.2,3.3-6.6,6.6-9.9,10c-0.6,0.6-0.7,1.1,0,1.7c0.5,0.5,1,1,1.5,1.5c2.9,2.9,5.7,5.8,8.4,8.5
	c3.7-3.7,7.4-7.3,11-10.8C236.8,114.2,233.2,110.7,229.4,106.9z M213.8,112.9c0.2-0.2,0.4-0.3,0.6-0.5c3.2-3.2,6.4-6.5,9.6-9.7
	c0.6-0.6,0.6-0.9,0-1.5c-3.2-3.2-6.4-6.5-9.6-9.8c-0.5-0.5-0.7-0.3-1.1,0.1c-3.1,3.1-6.1,6.1-9.2,9.2c-1.2,1.2-1.2,1.2,0,2.5
	C207.2,106.3,210.5,109.6,213.8,112.9z M150.6,154.4c-0.4,0.2-0.6,0.3-0.7,0.4c-3.4,3.4-6.8,6.7-10.1,10.1c-0.2,0.2-0.1,0.8,0.1,1
	c1,0.9,1.9,1.9,3,2.6c3,1.8,6.1,3.5,9.2,5.1c0.3,0.2,1-0.1,1.3-0.3c2.2-2.1,4.3-4.2,6.4-6.4c1.6-1.6,1.5-1.6-0.1-3.2
	C156.7,160.7,153.7,157.6,150.6,154.4z M134.4,160.5c0.4-0.3,0.6-0.4,0.7-0.5c3.3-3.3,6.6-6.6,10-9.9c0.5-0.5,0.2-0.8-0.2-1.2
	c-3-2.9-6-5.9-8.9-8.8c-0.5-0.5-0.8-1-1.3-1.6c-2.9,3-5.6,5.6-8.2,8.3c-0.2,0.2-0.3,0.8-0.1,1.1c1.7,3.1,3.3,6.3,5.2,9.3
	C132.3,158.3,133.4,159.3,134.4,160.5z M245.9,81c1.9-2,4-4.1,6.1-6.3c0.2-0.2,0.2-0.7,0.1-0.9c-2.1-4.5-4.5-8.8-7.7-12.7
	c-0.1-0.2-0.4-0.2-0.4-0.3c-3.2,3.1-6.2,6.1-9.3,9C238.4,73.7,242.1,77.3,245.9,81z M239.2,56c-4.1-3.3-8.1-6.1-12.8-7.9
	c-0.8-0.3-1.3-0.1-1.9,0.5c-1.6,1.6-3.1,3.3-4.8,4.8c-0.8,0.8-0.8,1.3,0,2c2.8,2.8,5.6,5.6,8.4,8.4c0.5,0.5,1.1,1.1,1.5,1.4
	C232.7,62.1,235.9,59.1,239.2,56z M229.5,138.7c-0.3,0.3-0.7,0.7-1.1,1.1c-2.9,2.9-5.9,5.9-8.8,8.8c-0.6,0.6-0.9,1-0.1,1.7
	c2.1,2,4.1,4,6.1,6c0.5,0.5,0.9,0.6,1.4,0.1c1.9-1.9,3.9-3.7,5.7-5.6c1.5-1.6,2.9-3.2,4.5-5C234.5,143.4,232.1,141.1,229.5,138.7z
	 M154,62.9c-4,3.2-7.7,6.8-10.9,10.5c2.5,2.6,5,5.1,7.1,7.3c3.6-3.6,7.3-7.1,10.9-10.7C158.8,67.8,156.5,65.4,154,62.9z
	 M213.6,154.5C213.8,154.5,213.7,154.5,213.6,154.5c-3.4,3.4-6.9,6.8-10.3,10.3c-0.2,0.2-0.2,0.8,0,1c1.1,1.1,2.1,2.3,3.3,3.3
	c0.3,0.3,1.1,0.3,1.4,0.1c1.4-0.7,2.8-1.4,4.1-2.2c2.6-1.6,5.1-3.3,7.7-5c0.4-0.3,1-0.7,0.4-1.3
	C218.1,158.7,215.9,156.7,213.6,154.5z M134.6,97.3c3.5-3.6,6.8-6.9,10.1-10.2c0.7-0.7,0.7-1.2,0-1.9c-1.7-1.7-3.5-3.4-5.1-5.2
	c-0.7-0.7-1.1-0.8-1.6,0.1c-2.5,4.1-5,8.1-7.5,12.2c-0.1,0.2-0.1,0.7,0.1,0.9C131.8,94.4,133.1,95.8,134.6,97.3z M234.6,133.9
	c1.8,1.8,3.7,3.6,5.6,5.4c1,1,1.1,1,1.8-0.1c2.5-4.2,5-8.4,7.3-12.2c-1.4-1.6-2.5-2.9-3.6-4.2C242,126.5,238.4,130.1,234.6,133.9z
	 M166.3,65.3c0.5-0.5,0.9-0.8,1.3-1.2c2.5-2.5,5-5,7.6-7.5c2.2-2.2,2.2-2.2,0-4.3c-1.5-1.5-1.6-1.6-3.5-0.6
	c-4.1,2.2-8.1,4.5-11.9,6.7C162,60.7,164.1,62.9,166.3,65.3z M122.4,126.5c-0.4,4.1,0.4,11.2,1.4,12.6c1.9-1.8,3.9-3.6,5.6-5.2
	C127.1,131.4,124.8,130,122.4,126.5z M166.1,170.7c-1.6,1.7-3.5,3.6-5.6,5.7c4.3,0.5,8.6,0.9,12.8,1.4c0-0.1,0.1-0.2,0.1-0.4
	C170.9,175.2,168.5,172.9,166.1,170.7z M218.1,45.8c-0.1-0.2-0.2-0.4-0.3-0.6c-3-0.5-6.1-1-9.1-1.5c-0.1,0.1-0.1,0.3-0.2,0.4
	c1.7,1.7,3.4,3.4,5.2,5.1c0.1,0.1,0.6,0.1,0.7-0.1C215.6,48,216.8,46.9,218.1,45.8z M254.9,82.1c-1.5,1.6-2.8,2.9-3.9,3.9
	c1.5,1.5,3.2,3.2,5,5.1C255.6,88.1,255.2,85.1,254.9,82.1z M193.5,174.7c0.1,0.1,0.2,0.2,0.3,0.3c2-1.1,4.4-1,6.3-2.4
	c-0.1-0.2-0.2-0.4-0.2-0.4c-2.2-2.4-1.5-2.2-3.7-0.2C195.2,172.9,194.4,173.8,193.5,174.7z M124.9,106.2c0.1,0,0.1,0,0.2,0
	c1.3-1.2,2.6-2.4,3.9-3.7c0.2-0.2,0.3-0.8,0.1-1c-0.5-0.6-1.1-1.2-1.6-1.8c-0.2,0-0.3,0-0.4,0C126.4,101.9,125.7,104.1,124.9,106.2z
	 M180.9,47.6c0.3,1.2,1,1.9,1.6,1.5c0.8-0.5,1.5-1.3,2.2-2c-0.1-0.1-0.1-0.2-0.2-0.3C183.2,47,182.1,47.3,180.9,47.6z M253.2,115.4
	c-0.1,0-0.2-0.1-0.3-0.1c-0.7,0.6-1.4,1.2-2,1.9c-0.2,0.2-0.3,0.6-0.2,0.8c0.3,0.4,0.8,0.7,1.2,1c0,0,0.4-0.2,0.4-0.4
	C252.6,117.6,252.9,116.5,253.2,115.4z"/>
</svg>
