<?xml version="1.0" encoding="utf-8"?>
<!-- Generator: Adobe Illustrator 28.0.0, SVG Export Plug-In . SVG Version: 6.00 Build 0)  -->
<svg version="1.1" id="Layer_1" xmlns="http://www.w3.org/2000/svg" xmlns:xlink="http://www.w3.org/1999/xlink" x="0px" y="0px"
	 viewBox="0 0 300 300" style="enable-background:new 0 0 300 300;" xml:space="preserve">
<style type="text/css">
	.st0{fill:#FFFFFF;}
</style>
<path class="st0" d="M67.4,275.9c-4.5-3.1-4.7-5.8-0.7-9.7c6.4-6.4,12.8-12.7,19.1-19.1c1.8-1.8,3.7-2.6,6.3-2.6
	c6.5,0,12.9,0,19.4-0.4c7.2-0.4,13.7-3,19.7-6.9c7.7-5.1,15.4-10.3,23.1-15.4c2.1-1.4,3.5-3.3,3.1-6c-0.4-2.1-1.6-4-3.8-4.3
	c-1.7-0.2-3.8,0.1-5.3,0.9c-3.1,1.6-6,3.7-9.1,5.4c-4.6,2.5-9.3,0.1-9.9-4.8c-0.3-2.6,1.1-4.5,2.8-6.2
	c10.4-10.4,20.8-20.7,31.1-31.1c1.6-1.6,2.9-3.2,2.5-5.6c-0.4-2.1-1.5-3.6-3.6-4.3c-2.3-0.8-4.2,0-5.8,1.6
	c-7,6.9-13.9,13.9-20.9,20.8c-0.8,0.8-1.6,1.6-2.5,2.3c-2,1.4-4.6,1.3-6.3-0.3c-1.8-1.7-2-4.3-0.5-6.5c0.6-0.8,1.3-1.5,2-2.2
	c9.3-9.3,18.6-18.5,27.8-27.8c1.7-1.7,3.1-3.6,2.2-6.3c-1.1-3.5-4.8-4.9-7.9-2.9c-0.9,0.6-1.6,1.3-2.4,2.1c-9.3,9.3-18.7,18.7-28,28
	c-1.6,1.6-3.3,2.9-5.8,2.1c-3.2-1.1-4.5-4.5-2.7-7.3c0.5-0.8,1.2-1.5,1.9-2.2c7.1-7.1,14.2-14.3,21.4-21.4c3.2-3.2,2.4-7.8-1.6-9.2
	c-2.5-0.9-4.5,0.1-6.2,1.9c-3.9,3.9-7.8,7.8-11.6,11.7c-3.5,3.5-7,7.1-10.6,10.6c-1.7,1.7-3.8,2.3-6.1,1.1c-2.2-1.1-3-3.1-2.4-5.4
	c0.3-1.1,1.1-2.2,1.8-3.1c1.6-1.8,3.3-3.4,5-5.1c2.4-2.5,2.6-5.7,0.4-7.9c-2.1-2.1-5.2-2.1-7.7,0.1c-0.9,0.8-1.7,1.6-2.4,2.4
	c-8.6,8.6-17.2,17.1-25.6,25.9c-8.1,8.5-11.7,18.9-11.9,30.6c-0.1,2.9-0.1,5.9,0,8.9c0.1,2.4-0.8,4.2-2.4,5.9
	c-6.5,6.5-13,13-19.5,19.4c-3.8,3.8-6.5,3.5-9.6-0.9c0-1,0-2,0-2.9c3.6-3.8,7.1-7.6,10.8-11.4c3.1-3.2,6.3-6.2,9.3-9.4
	c0.8-0.9,1.5-2.4,1.5-3.6c-0.1-8.1,0.2-16.2,3-24c2.2-6.3,5.4-12,9.8-17.4c-5.6-5.2-8.8-11.3-7.5-19.1c1.4-7.7,6-12.7,13.6-15.4
	c-4-5.6-5.3-11.6-3.3-18.1c2-6.5,6.5-10.6,13.1-12.8c-5.1-9.2-4.9-18,2.9-25.3c7.2-6.7,15.6-6.8,23.6-2.1c2.1-2.9,3.7-6.2,6.2-8.5
	c7.9-7.4,18.8-7,27,0.6c3.3,3.1,6.4,6.3,9.6,9.6c2.5,2.6,2.6,5.6,0.4,7.6c-2.1,2-5,1.8-7.4-0.6c-3.3-3.2-6.5-6.5-9.8-9.7
	c-2.8-2.7-6.1-3.4-9.8-2.2c-3.7,1.2-5.7,4-6.2,7.8c-0.4,3.1,0.8,5.7,3,8c8.8,8.7,17.5,17.5,26.2,26.3c1.6,1.6,2.8,3.2,2.1,5.6
	c-1,3.4-4.7,4.8-7.6,2.7c-0.8-0.6-1.5-1.3-2.2-2c-11.6-11.6-23.2-23.2-34.8-34.8c-3.9-3.9-8.8-4.6-12.7-1.9
	c-5,3.4-5.6,10.2-1.1,14.7c6.3,6.4,12.7,12.8,19.1,19.1c0.5,0.5,0.9,0.9,1.4,1.4c2.2,2.5,2.3,5.5,0.2,7.4c-2,1.9-4.9,1.8-7.3-0.5
	c-3.7-3.5-7.2-7.2-10.8-10.8c-0.9-0.8-1.8-1.7-2.9-2.2c-4-2-8.6-0.9-11.5,2.7c-2.7,3.4-2.9,8.3,0.1,11.5c4.2,4.5,8.9,8.7,13.5,13.2
	c3.7-4,7.9-7.5,14.1-7.2c6.1,0.3,10.4,3.4,13.7,9.2c1.8-2,3.5-3.8,5.1-5.6c7.9-9.3,21.2-7.7,26.6,3c7.2-3.1,13.9-2.6,19.3,3.7
	c4.5,5.2,4.6,11.1,1.9,17.1c1.9,1.7,4,3.1,5.7,5c4.6,5.4,4.8,13.7,0,18.9c-5.9,6.4-12.1,12.4-18.3,18.6c-0.6,0.6-1.5,1-2.4,1.5
	c3.4,1.3,6.2,1.8,8.4,3.2c9.4,5.9,10,18.5,1.3,25.3c-2.8,2.2-5.8,4-8.7,6.8c4.7,1,9.3,2.5,14,2.9c6.8,0.6,13.7,0.6,20.6,0.6
	c2.8,0,5,0.8,7,2.8c8,8.1,16.1,16.1,24.1,24.2c1.1,1.1,2.2,2.9,2.2,4.4c0,1.4-1.1,3.4-2.4,4.1c-1.2,0.7-3.2,0.4-4.8,0
	c-0.9-0.2-1.7-1.3-2.4-2c-7.3-7.3-14.6-14.6-22-21.9c-0.9-0.9-2.5-1.6-3.8-1.6c-8.6-0.1-17.2,0.2-25.7-1.9
	c-4.9-1.2-9.7-2.9-14.4-4.7c-2-0.8-3.4-0.7-5.1,0.6c-8.2,6-17.3,9.9-27.5,10.7c-5.8,0.5-11.6,0.2-17.4,0.4c-1.2,0.1-2.7,0.6-3.6,1.5
	c-5.6,5.4-11,11-16.6,16.5c-1.3,1.3-2.8,2.5-4.2,3.7C69.3,275.9,68.4,275.9,67.4,275.9z M78.3,143.2c-2.8-3.5-6.1-5.5-10.7-4.3
	c-4.1,1.1-6.4,3.9-7,8c-0.5,4.1,1.5,7.1,4.5,9.4C69.6,151.9,73.8,147.7,78.3,143.2z M24.1,38.4c1.2-2.5,2.1-5.3,3.8-7.6
	c4.9-6.6,13.2-8.4,20.7-5.1c0.8,0.4,2,0.4,2.8,0c7.2-3.2,15.1-1.6,20.1,4.1c5.3,6.1,5.8,14,1.3,20.8c-5.2,8-12.2,14.3-19.6,20.2
	c-2.1,1.7-4.4,1.6-6.5-0.1c-7.2-5.7-14-11.9-19.1-19.6c-1.4-2.1-2.3-4.6-3.4-6.9C24.1,42.3,24.1,40.3,24.1,38.4z M50,60.8
	c2-1.8,3.9-3.2,5.5-5c3.2-3.6,6.5-7.2,9.3-11.1c2.2-3.1,1.3-6.7-1.4-9c-2.8-2.3-6.1-2.3-9.2,0.1c-3.5,2.7-4.7,2.5-8.5,0
	c-1.6-1.1-3.9-1.7-5.9-1.6c-3.8,0.3-7.8,5.6-4.6,10.6C39.1,51.1,44.4,55.9,50,60.8z M167.9,97c-2.5-2.5-5.3-2.6-7.4-0.5
	c-2.1,2.1-2.1,4.9,0.3,7.4c8.9,9,17.9,18,26.9,26.9c1.6,1.6,3.6,2.6,6,2.2c5.5-0.8,7.9-6.1,5-11.1c-2.5-4.3-5.1-8.6-7.8-12.8
	c-1.6-2.7-2.2-5.5-1.3-8.4c1.1-3.7,3.6-6,7.4-6.7c4.4-0.8,7.8,0.9,10.3,4.7c7.1,10.6,14.2,21.1,21.2,31.6
	c7.5,11.3,11.2,23.7,11.1,37.3c-0.1,6.6-0.1,13.3,0.1,19.9c0.1,1.7,0.6,3.7,1.7,4.9c4.1,4.5,8.4,8.7,12.8,12.9
	c1,0.9,2.9,1.7,4.1,1.4c1.5-0.4,3.2-1.7,4-3.1c1.1-1.8,0.2-3.8-1.3-5.3c-3.3-3.4-6.8-6.7-10-10.1c-0.8-0.9-1.4-2.2-1.4-3.4
	c-0.1-5.5-0.1-11,0-16.5c0.1-15.3-3.7-29.5-12.1-42.3c-7.2-11.1-14.6-22.1-22.1-33.1c-5.2-7.5-13.7-10.5-21.6-8.3
	c-8.9,2.4-16.6,11.6-13.8,24.6C175.6,104.7,171.8,100.8,167.9,97z M224.2,67.4c0.6-12.6,13-20.2,24.4-15c0.8,0.3,1.9,0.4,2.6,0.1
	c7.4-3.3,15.4-1.7,20.3,4.1c5.3,6.3,5.7,14.1,1,21.1c-5.2,7.8-12,14-19.3,19.8c-2.2,1.8-4.5,1.7-6.7-0.1c-7.1-5.7-13.8-11.8-19-19.4
	C225.3,74.4,224.1,70.8,224.2,67.4z M250.1,87.3c5.6-4.9,11-9.7,14.8-16c2-3.3,1.3-6.7-1.4-9c-2.7-2.4-6.2-2.4-9.2,0
	c-3.5,2.8-4.7,2.6-8.5,0.1c-1.6-1.1-4-1.9-5.8-1.6c-5.2,0.8-7.4,6.3-4.5,11C239.2,77.9,244.5,82.5,250.1,87.3z M192,189.4
	c2.1,2.2,4.9,2.4,7,0.6c2-1.8,2.3-4.4,0.6-6.8c-0.5-0.7-1-1.3-1.5-1.9c-2.2-3.1-3.1-6.6-2.5-10.4c0.6-3.8,2.9-6.5,5.4-9.1
	c2.3-2.3,2.4-5.2,0.5-7.2c-1.9-2.1-5-2.1-7.4,0.2c-5.4,5-8.6,11-8.6,19.6C185.5,179.4,187.7,184.8,192,189.4z M275.9,215.3
	c0.1-2.7-2.3-5.1-5-5.1c-2.6,0.1-4.8,2.3-4.8,4.9c0,2.6,2.2,4.8,4.8,4.9C273.6,220,275.8,217.9,275.9,215.3z M147.4,88.2
	c-0.1,2.7,2.1,5.1,4.8,5.2c2.5,0.1,5.1-2.4,5.1-5c0-2.6-2.3-4.8-4.9-4.8C149.6,83.5,147.5,85.5,147.4,88.2z"/>
</svg>
