<?xml version="1.0" encoding="utf-8"?>
<!-- Generator: Adobe Illustrator 28.0.0, SVG Export Plug-In . SVG Version: 6.00 Build 0)  -->
<svg version="1.1" id="Layer_1" xmlns="http://www.w3.org/2000/svg" xmlns:xlink="http://www.w3.org/1999/xlink" x="0px" y="0px"
	 viewBox="0 0 300 300" style="enable-background:new 0 0 300 300;" xml:space="preserve">
<style type="text/css">
	.st0{fill:#FFFFFF;}
</style>
<path class="st0" d="M142.2,32.5c5.2,0,10.4,0,15.6,0c0.7,0.2,1.3,0.3,2,0.4c4.8,0.7,9.7,1.1,14.5,2.1c24.6,5.3,45.5,17.2,62.5,35.8
	c16,17.5,25.8,38,29.4,61.4c0.5,3.3,0.9,6.6,1.4,9.9c0,5.2,0,10.4,0,15.6c-0.4,2.8-0.6,5.6-1.1,8.4c-4.7,31-19.1,56.5-43.7,75.9
	c-26.1,20.6-55.9,28.7-88.7,24.2c-31.1-4.2-56.6-18.9-76-43.5c-20.7-26.1-28.7-56-24.4-88.9c3-23.2,12.5-43.6,27.9-61.2
	c18.9-21.4,42.5-34.5,70.8-38.9C135.6,33.3,138.9,32.9,142.2,32.5z M150,249.2c54.7,0,99.1-44.4,99.2-99.1
	c0.1-54.8-44.4-99.3-99.2-99.3c-54.7,0-99.1,44.4-99.2,99.1C50.8,204.7,95.2,249.2,150,249.2z M140.8,149.9c0,3.4,1.1,6.2,3.8,8.2
	c12.1,9.1,24.3,18.3,36.5,27.4c2.2,1.6,4.7,2.1,7.4,1.4c3.7-1,6.1-3.3,6.8-7c0.8-3.9-0.6-7.1-3.8-9.4c-10.1-7.6-20.1-15.2-30.3-22.6
	c-1.6-1.2-2.1-2.4-2.1-4.3c0.1-15.6,0.1-31.2,0-46.8c0-4.3-2.2-7.6-5.8-9c-6.1-2.4-12.4,1.9-12.5,8.6c-0.1,9,0,18,0,27.1
	C140.9,132.1,140.9,141,140.8,149.9z"/>
</svg>
