<?xml version="1.0" encoding="utf-8"?>
<!-- Generator: Adobe Illustrator 28.0.0, SVG Export Plug-In . SVG Version: 6.00 Build 0)  -->
<svg version="1.1" id="Layer_1" xmlns="http://www.w3.org/2000/svg" xmlns:xlink="http://www.w3.org/1999/xlink" x="0px" y="0px"
	 viewBox="0 0 300 300" style="enable-background:new 0 0 300 300;" xml:space="preserve">
<style type="text/css">
	.st0{fill:#FFFFFF;}
</style>
<g>
	<path class="st0" d="M201.9,201.7l-4.4,0c-3.4,0-6.9,0-10.3,0c-5.9-0.1-10.3,2.1-13.8,6.9c-4.6,6.3-9.3,12.6-14,18.8l-4.7,6.3
		c-1.1,1.5-2.9,3.4-4.8,3.4c-1.8,0-3.6-1.8-4.7-3.3l-4.9-6.5c-4.6-6-9.1-12.1-13.5-18.2c-3.6-5-8.5-7.5-14.7-7.4
		c-14.1,0.1-28.2,0.1-42.3,0l-4.7,0c-1.7,0-3.6-0.1-5.4-0.4c-9.2-2.1-14.9-9.5-14.9-19.3l0-59.3V99.7l0-5.4c0-4.1,0-8.2,0-12.2
		c0.2-10.8,8.2-18.8,19-18.9c2.6,0,5.1,0,7.7,0h5.9c5.4,0,7.4-3.4,7.5-6.2c0-1.7-0.6-3.2-1.7-4.3c-0.9-0.9-2.7-2.1-5.7-2.1
		c-4.6,0-9.1,0-13.7,0c-17.6,0.1-31.4,14-31.5,31.6v33.4v16.7v12.3c0,12.8,0,25.5,0,38.3c0,2.5,0.3,4.9,0.8,7.1
		c3.5,14.4,15.8,24.1,30.7,24.2h2.7c15.4,0,30.7,0,46.1,0c0,0,0,0,0,0c1.7,0,2.5,0.4,3.5,1.8c6.5,8.8,13,17.5,19.6,26.2
		c3.7,4.8,8.4,7.3,13.7,7.3c1.1,0,2.2-0.1,3.4-0.3c4.4-0.8,8.1-3.3,11.2-7.4l5.7-7.6c4.6-6.1,9.2-12.2,13.7-18.4
		c0.9-1.1,1.7-1.5,3-1.5c5.2,0.1,10.4,0,15.5,0c2.5,0,4.6-1.1,5.8-2.8c1.1-1.6,1.3-3.7,0.6-5.6C207.6,203,205.4,201.7,201.9,201.7z"
		/>
	<path class="st0" d="M99.8,155.7C99.8,155.7,99.9,155.7,99.8,155.7c11.3,0,20.3-9.2,20.3-20.4c0-5.4-2.2-10.5-6.1-14.4
		c-3.9-3.8-8.9-6.1-14.4-5.9c-11.2,0.1-20.2,9.4-20.1,20.6C79.6,146.7,88.7,155.7,99.8,155.7z M92,135.4c0-4.3,3.5-7.8,7.8-7.8
		c0,0,0,0,0,0c2.1,0,4.1,0.8,5.6,2.3c1.5,1.5,2.3,3.4,2.3,5.5c0,4.3-3.6,7.8-7.9,7.8h0c-2.1,0-4.1-0.8-5.5-2.3
		C92.8,139.4,92,137.4,92,135.4z"/>
	<path class="st0" d="M267,76.6c-3.2-15.8-15.6-26-31.6-26H94.8c-1,0-2.1,0-3.3,0.3c-3.2,0.8-5.2,3.6-4.6,6.6
		c0.5,2.6,2.9,4.3,3.6,4.8c1.4,0.9,3,0.9,4.7,0.8l139.9,0c1.7,0,3.2,0,4.6,0.3c9.5,1.9,15.4,9.3,15.4,19.3c0,19.1,0,38.2,0,57.3
		v19.1l0,7.2c0,5.4,0,10.8,0,16.2c-0.1,10.5-7.5,18.3-17.9,18.9c-3.9,0.2-7.8,0.2-11.6,0.2c-2.1,0-4.1,0-6.1,0
		c-5,0.1-7.2,3.2-7.2,6.2c0,3.7,2.9,6.3,7.2,6.3l4.8,0c1.9,0,3.7,0,5.6,0c2.2,0,4.5,0,6.7-0.1c11.5-0.3,20.6-5.5,26.3-15
		c1.5-2.5,2.5-5.3,3.3-8c0.4-1.1,0.8-2.3,1.2-3.4l0.2-109.9L267,76.6z"/>
	<path class="st0" d="M202.3,155.7C202.3,155.7,202.3,155.7,202.3,155.7c5.5,0,10.6-2.1,14.4-6c3.8-3.9,5.9-9,5.9-14.4
		s-2.2-10.5-6.1-14.4c-3.9-3.8-8.9-5.9-14.2-5.9c-0.1,0-0.1,0-0.1,0c-11.1,0.1-20.1,9.2-20.1,20.3c0,5.5,2.1,10.6,5.9,14.5
		C191.8,153.6,196.9,155.7,202.3,155.7z M194.5,135.4c0-2.1,0.8-4,2.3-5.5c1.5-1.5,3.6-1.9,5.6-2.2c2.1,0,4.1,0.8,5.5,2.3
		c1.4,1.5,2.2,3.4,2.2,5.5c0,4.4-3.5,7.8-7.8,7.8c0,0,0,0,0,0c-2.1,0-4-0.8-5.5-2.3C195.3,139.4,194.5,137.4,194.5,135.4z"/>
	<path class="st0" d="M151.1,155.7c5.4,0,10.4-2.1,14.2-5.9c3.9-3.8,6-9,6-14.4c0-11.1-9-20.2-20-20.4c-0.1,0-0.2,0-0.2,0
		c-11.1,0-20.1,9-20.3,20.2c-0.1,5.4,2,10.4,5.8,14.3c3.9,3.9,9,6.1,14.4,6.2C151,155.7,151.1,155.7,151.1,155.7z M151.1,127.6
		C151.1,127.6,151.1,127.6,151.1,127.6c2.1,0,4.1,0.8,5.5,2.3c1.5,1.5,2.3,3.4,2.2,5.6c0,4.4-3.4,7.8-7.8,7.8h0
		c-4.4,0-7.7-3.4-7.7-7.8c0-2.1,0.8-4.1,2.2-5.6C147,128.4,149,127.6,151.1,127.6z"/>
</g>
</svg>
