<?xml version="1.0" encoding="utf-8"?>
<!-- Generator: Adobe Illustrator 28.0.0, SVG Export Plug-In . SVG Version: 6.00 Build 0)  -->
<svg version="1.1" id="Layer_1" xmlns="http://www.w3.org/2000/svg" xmlns:xlink="http://www.w3.org/1999/xlink" x="0px" y="0px"
	 viewBox="0 0 300 300" style="enable-background:new 0 0 300 300;" xml:space="preserve">
<style type="text/css">
	.st0{fill:#FFFFFF;}
</style>
<path class="st0" d="M203.3,32.4c0.8,0.4,1.6,0.7,2.4,1.1c4.6,2.3,7,6,7.2,11.2c0.1,4.7,0,9.3,0,14.3c3.1,0,5.9,0,8.8,0
	c2.8,0,5.7-0.1,8.5,0c6.6,0.2,11.6,5.4,11.6,12.1c0,47.5,0,94.9,0,142.4c0,2.7-1.2,4.2-3.4,4.3c-2.2,0-3.5-1.6-3.5-4.4
	c0-46.9,0-93.7-0.1-140.6c0-1.8-0.7-3.7-1.6-5.3c-0.5-0.8-2.1-1.5-3.1-1.5c-5.6-0.2-11.3-0.1-17.3-0.1c0,1.1-0.1,2.1,0,3
	c0.8,9.6-5.9,14.7-12.4,14.7c-6.7,0-13.1-5.4-12.3-14.6c0.1-1,0-1.9,0-3c-8.6,0-17,0-25.8,0c0,1.5,0,3.1,0,4.7c0,7.3-5.4,13-12.3,13
	c-7,0.1-12.4-5.7-12.4-13.1c0-1.4,0-2.9,0-4.5c-8.6,0-17,0-25.8,0c0,1.7,0,3.4,0,5.2c-0.1,6.9-5.7,12.5-12.4,12.5
	c-6.8,0-12.2-5.6-12.3-12.5c0-1.7,0-3.3,0-5.2c-6,0-11.8-0.1-17.6,0.1c-2.7,0.1-4.5,2.6-4.5,5.7c0,5.3,0,10.6,0,15.8
	c0,2.7-1.2,4.2-3.4,4.2c-2.2,0-3.4-1.5-3.4-4.2c0-5.5,0-11,0-16.5c0-6.6,5-11.9,11.6-12c5.7-0.1,11.3,0,17.3,0c0-2.1,0-4,0-5.8
	c0-2.9-0.1-5.8,0-8.7c0.3-5.2,2.8-8.9,7.6-11.1c0.7-0.3,1.3-0.6,2-0.9c1.8,0,3.7,0,5.5,0c0.5,0.3,1,0.5,1.6,0.8
	c4.9,1.9,7.9,6.3,8,11.5c0,2.3,0,4.6,0,6.9c0,2.4,0,4.8,0,7.2c8.8,0,17.2,0,25.8,0c0-4.8-0.1-9.5,0-14.1c0.1-5.1,2.6-8.8,7.2-11.1
	c0.8-0.4,1.6-0.7,2.4-1.1c1.8,0,3.7,0,5.5,0c2.2,1.5,4.8,2.7,6.7,4.5c2.2,2.1,2.9,5.1,2.9,8.2c0,4.6,0,9.1,0,13.7
	c8.8,0,17.2,0,25.8,0c0-4.8-0.1-9.5,0-14.1c0.1-5.1,2.6-8.8,7.2-11.1c0.8-0.4,1.6-0.7,2.4-1.1C199.6,32.4,201.5,32.4,203.3,32.4z
	 M104.9,57.9c0-4.2,0.1-8.4,0-12.6c-0.1-3.6-2.4-6.1-5.5-6c-3,0.1-5.3,2.5-5.3,6c-0.1,8.5-0.1,17,0.1,25.4c0,1.6,0.9,3.4,2,4.6
	c1.4,1.6,3.6,1.6,5.5,0.8c2.3-1,3.2-3,3.2-5.4C104.9,66.5,104.9,62.2,104.9,57.9z M155.4,58.1c0-4.2,0-8.4,0-12.6
	c-0.1-3.7-2.2-6.2-5.3-6.2c-3.2-0.1-5.4,2.5-5.5,6.3c0,0.8,0,1.7,0,2.5c0,7.4,0,14.8,0,22.2c0,3.7,1.8,5.9,4.8,6.2
	c3.6,0.3,6-1.9,6.1-5.8C155.5,66.5,155.4,62.3,155.4,58.1z M195.2,57.9c0,4.4-0.1,8.7,0,13.1c0.1,3.5,2.3,5.6,5.4,5.6
	c3,0,5.3-2.1,5.3-5.4c0.1-8.8,0.1-17.6,0-26.4c0-2.2-1-4-3.1-5c-3.7-1.8-7.6,0.8-7.7,5.3C195.1,49.4,195.1,53.7,195.2,57.9z
	 M229.6,267.6c7.1,0,12.3-5.2,12.4-12.3c0-8,0-16.1,0-24.1c0-2.7-1.3-4.3-3.4-4.3c-2.2-0.1-3.5,1.6-3.5,4.4c0,7.4,0,14.7,0,22.1
	c0,5.7-1.7,7.4-7.4,7.4c-51.8,0-103.6,0-155.3,0c-5.7,0-7.4-1.7-7.4-7.4c0-49,0-98,0-147c0-0.8,0.1-1.7-0.1-2.5
	c-0.3-1.8-1.6-2.8-3.4-2.8c-1.8,0-3,1-3.4,2.8c-0.1,0.7,0,1.4,0,2.1c0,49.6,0,99.1,0,148.6c0,8.1,5,13.1,13.1,13.1
	c26.2,0,52.4,0,78.6,0C176.4,267.6,203,267.6,229.6,267.6z M170.4,159.7c11.9,0,23.9,0,35.8,0c8.1,0,13.4,7.3,10.8,14.5
	c-1.5,4-4.4,6.4-8.6,7c-1,0.1-2,0.2-3,0.2c-23.3,0-46.6,0-69.8,0c-6,0-10.3-2.8-11.8-7.7c-2.2-7.2,3.1-14.1,11-14.1
	C146.7,159.7,158.6,159.7,170.4,159.7z M170.6,174.4c11.6,0,23.1,0,34.7,0c0.8,0,1.6,0.1,2.3-0.1c2-0.4,3.1-1.7,3.1-3.7
	s-1-3.4-3-3.7c-0.9-0.2-1.8-0.1-2.8-0.1c-22.9,0-45.8,0-68.7,0c-0.9,0-1.9,0-2.8,0.1c-2.1,0.4-3.4,2.3-2.9,4.4
	c0.4,2.1,1.8,3.1,4.4,3.1C146.8,174.4,158.7,174.4,170.6,174.4z M170.6,227.1c-11.9,0-23.9,0-35.8,0c-7.8,0-13.1-6.8-10.9-13.9
	c1.3-4.3,4.3-7,8.8-7.6c1.2-0.2,2.4-0.2,3.7-0.2c22.9,0,45.8,0,68.7,0c1.7,0,3.6,0.1,5.2,0.6c5.2,1.6,8.2,6.7,7.3,12.2
	c-0.8,5.1-5.4,8.8-11,8.9C194.5,227.1,182.6,227.1,170.6,227.1z M170.5,212.4c-11.5,0-23,0-34.5,0c-3.8,0-5.6,1.3-5.6,3.9
	c0,2.6,1.8,3.8,5.7,3.8c23,0,45.9,0,68.9,0c0.9,0,1.9,0,2.7-0.2c1.9-0.4,2.9-1.7,2.9-3.6c0-2-1.1-3.3-3-3.8
	c-0.8-0.2-1.7-0.1-2.5-0.1C193.6,212.4,182,212.4,170.5,212.4z M170.5,135.8c-11.9,0-23.7,0-35.6,0c-5.6,0-9.7-3-11-7.9
	c-1.9-7,3.2-13.7,10.7-13.7c17.3,0,34.6,0,51.9,0c6.9,0,13.8-0.1,20.7,0c5.3,0.1,9.9,4.1,10.5,9.1c0.7,5.7-2.4,10.7-7.9,12.1
	c-1.4,0.4-2.9,0.4-4.3,0.4C193.7,135.9,182.1,135.9,170.5,135.8z M170.5,128.9c9.7,0,19.4,0,29.1,0c2.3,0,4.6,0,6.9,0
	c2.6-0.1,4.2-1.6,4.2-3.8c0-2.2-1.6-3.7-4-3.9c-0.5-0.1-1.1,0-1.6,0c-23,0-46.1,0-69.1,0c-0.9,0-1.9,0-2.7,0.2
	c-2,0.5-2.9,1.9-2.8,3.9c0.1,2,1.3,3.2,3.3,3.6c0.7,0.1,1.4,0.1,2.1,0.1C147.4,128.9,158.9,128.9,170.5,128.9z M92.2,210.1
	c-1.4-2.2-3.2-2.7-5-1.7c-1.8,1.1-2.2,3.1-0.9,5.4c1.8,3,3.7,6,5.5,9c2.2,3.4,4.4,3.6,7,0.5c5-6,10-12,15-18
	c1.9-2.3,3.9-4.6,5.7-6.9c1.4-1.8,1.2-3.6-0.4-4.9c-1.5-1.3-3.4-1.1-4.9,0.4c-0.8,0.8-1.5,1.7-2.2,2.6c-5.3,6.4-10.7,12.8-16.2,19.4
	C94.6,214,93.5,212,92.2,210.1z M92.2,118.8c-1.4-2.1-3.3-2.6-5.1-1.5c-1.7,1.1-2.1,3.1-0.8,5.2c1.8,3.1,3.8,6.1,5.7,9.2
	c2.1,3.3,4.4,3.5,6.9,0.5c3.8-4.6,7.6-9.2,11.4-13.8c3.1-3.7,6.2-7.4,9.2-11.2c1.5-1.8,1.2-3.8-0.4-5.1c-1.6-1.2-3.3-1-4.9,0.6
	c-0.5,0.5-0.9,1.1-1.3,1.6c-5.6,6.7-11.2,13.4-16.9,20.4C94.6,122.6,93.4,120.7,92.2,118.8z M92.2,164.2c-1.3-2.1-3.3-2.6-5.1-1.4
	c-1.6,1.1-2,3.1-0.8,5.1c2,3.4,4,6.7,6.1,10c1.6,2.5,4.1,2.7,6.1,0.4c7-8.3,13.9-16.7,20.8-25.1c1.7-2,1.6-3.9-0.1-5.3
	c-1.7-1.4-3.6-1.1-5.4,0.9c-0.3,0.4-0.7,0.8-1,1.2c-5.6,6.7-11.2,13.4-16.9,20.3C94.6,168.1,93.4,166.1,92.2,164.2z"/>
</svg>
