<?xml version="1.0" encoding="utf-8"?>
<!-- Generator: Adobe Illustrator 27.6.1, SVG Export Plug-In . SVG Version: 6.00 Build 0)  -->
<svg version="1.1" id="Layer_1" xmlns="http://www.w3.org/2000/svg" xmlns:xlink="http://www.w3.org/1999/xlink" x="0px" y="0px"
	 viewBox="0 0 300 300" style="enable-background:new 0 0 300 300;" xml:space="preserve">
<style type="text/css">
	.st0{fill:url(#SVGID_1_);}
</style>
<linearGradient id="SVGID_1_" gradientUnits="userSpaceOnUse" x1="33.4251" y1="242.2958" x2="245.4318" y2="30.2891">
	<stop  offset="0" style="stop-color:#D33027"/>
	<stop  offset="0.0429" style="stop-color:#D53A27"/>
	<stop  offset="0.1132" style="stop-color:#D95228"/>
	<stop  offset="0.2022" style="stop-color:#E17A29"/>
	<stop  offset="0.3053" style="stop-color:#EBB12A"/>
	<stop  offset="0.4022" style="stop-color:#F6EC2C"/>
	<stop  offset="0.4804" style="stop-color:#F6EC2C"/>
	<stop  offset="0.5232" style="stop-color:#D9D230"/>
	<stop  offset="0.6185" style="stop-color:#9E9E39"/>
	<stop  offset="0.7106" style="stop-color:#6D7240"/>
	<stop  offset="0.7971" style="stop-color:#475045"/>
	<stop  offset="0.8766" style="stop-color:#2C3849"/>
	<stop  offset="0.9467" style="stop-color:#1B294C"/>
	<stop  offset="1" style="stop-color:#15244C"/>
</linearGradient>
<path class="st0" d="M67.38,275.9c-4.48-3.13-4.68-5.79-0.74-9.73c6.37-6.38,12.78-12.72,19.11-19.14c1.78-1.81,3.73-2.64,6.31-2.64
	c6.47,0.02,12.95-0.01,19.4-0.4c7.16-0.43,13.71-3.04,19.68-6.95c7.73-5.08,15.39-10.27,23.07-15.43c2.11-1.42,3.51-3.31,3.07-5.96
	c-0.35-2.15-1.62-4.03-3.82-4.31c-1.72-0.22-3.75,0.14-5.31,0.92c-3.14,1.56-5.99,3.69-9.08,5.37c-4.56,2.48-9.31,0.14-9.93-4.8
	c-0.33-2.63,1.12-4.48,2.84-6.2c10.38-10.37,20.75-20.74,31.13-31.11c1.55-1.55,2.87-3.21,2.46-5.57c-0.36-2.08-1.49-3.57-3.57-4.26
	c-2.31-0.78-4.18,0.01-5.79,1.61c-6.97,6.93-13.93,13.89-20.89,20.83c-0.81,0.81-1.61,1.65-2.53,2.32
	c-1.96,1.44-4.65,1.26-6.31-0.32c-1.81-1.71-2.04-4.33-0.49-6.47c0.57-0.79,1.28-1.49,1.97-2.18c9.28-9.27,18.57-18.52,27.85-27.79
	c1.74-1.74,3.1-3.61,2.24-6.3c-1.12-3.47-4.82-4.87-7.88-2.88c-0.88,0.57-1.65,1.33-2.4,2.08c-9.34,9.32-18.66,18.66-27.99,27.99
	c-1.61,1.61-3.34,2.93-5.85,2.1c-3.19-1.06-4.47-4.47-2.66-7.29c0.52-0.82,1.22-1.54,1.91-2.23c7.11-7.15,14.25-14.26,21.35-21.42
	c3.17-3.2,2.37-7.75-1.55-9.17c-2.51-0.91-4.47,0.12-6.19,1.85c-3.88,3.88-7.75,7.78-11.63,11.66c-3.53,3.54-7.04,7.11-10.61,10.6
	c-1.73,1.69-3.8,2.28-6.06,1.08c-2.15-1.14-3-3.06-2.45-5.36c0.27-1.12,1.05-2.2,1.84-3.08c1.58-1.77,3.35-3.37,5-5.08
	c2.43-2.51,2.59-5.67,0.42-7.87c-2.08-2.12-5.16-2.1-7.72,0.1c-0.87,0.75-1.65,1.6-2.45,2.41c-8.55,8.6-17.24,17.07-25.6,25.86
	c-8.09,8.51-11.7,18.95-11.92,30.61c-0.06,2.95-0.11,5.9,0.02,8.85c0.11,2.4-0.76,4.24-2.44,5.9c-6.53,6.46-12.99,12.97-19.49,19.45
	c-3.78,3.76-6.49,3.49-9.57-0.9c0-0.98,0-1.97,0-2.95c3.59-3.8,7.15-7.64,10.79-11.39c3.08-3.18,6.33-6.2,9.32-9.45
	c0.83-0.9,1.47-2.37,1.45-3.58c-0.08-8.14,0.25-16.18,3-23.98c2.23-6.31,5.44-12.04,9.76-17.41c-5.58-5.2-8.84-11.32-7.45-19.06
	c1.38-7.66,6-12.7,13.6-15.43c-3.99-5.58-5.32-11.59-3.28-18.1c2.04-6.49,6.54-10.58,13.06-12.81c-5.13-9.21-4.9-18,2.94-25.29
	c7.22-6.71,15.55-6.81,23.6-2.14c2.08-2.91,3.68-6.15,6.16-8.46c7.91-7.38,18.79-7.04,26.96,0.57c3.3,3.07,6.44,6.31,9.58,9.55
	c2.48,2.56,2.59,5.56,0.41,7.61c-2.09,1.97-4.97,1.78-7.43-0.61c-3.29-3.2-6.47-6.51-9.77-9.71c-2.77-2.69-6.11-3.42-9.75-2.19
	c-3.69,1.25-5.74,4-6.21,7.8c-0.39,3.12,0.79,5.74,3.02,7.96c8.76,8.74,17.49,17.52,26.23,26.28c1.55,1.55,2.84,3.19,2.15,5.61
	c-0.97,3.42-4.67,4.79-7.57,2.72c-0.79-0.56-1.5-1.27-2.19-1.96C120.9,104.62,109.33,93,97.74,81.42c-3.9-3.9-8.75-4.6-12.66-1.95
	c-4.99,3.38-5.58,10.16-1.12,14.71c6.31,6.44,12.74,12.76,19.11,19.14c0.46,0.46,0.95,0.91,1.39,1.4c2.24,2.51,2.32,5.48,0.21,7.45
	c-2.03,1.9-4.93,1.79-7.26-0.47c-3.65-3.54-7.18-7.19-10.81-10.75c-0.87-0.85-1.84-1.66-2.91-2.21c-4.01-2.03-8.62-0.91-11.46,2.65
	c-2.69,3.38-2.91,8.26,0.12,11.52c4.23,4.54,8.86,8.7,13.48,13.18c3.73-3.98,7.92-7.53,14.11-7.23c6.14,0.3,10.43,3.38,13.69,9.17
	c1.79-1.99,3.47-3.77,5.06-5.62c7.94-9.28,21.18-7.7,26.63,3.03c7.2-3.09,13.93-2.55,19.29,3.66c4.48,5.19,4.65,11.11,1.88,17.09
	c1.93,1.68,4.04,3.12,5.66,4.99c4.64,5.37,4.8,13.7,0.01,18.94c-5.85,6.41-12.13,12.44-18.26,18.59c-0.62,0.62-1.52,0.96-2.45,1.53
	c3.4,1.27,6.17,1.84,8.42,3.24c9.42,5.88,10,18.47,1.26,25.29c-2.76,2.16-5.75,4.03-8.71,6.75c4.66,1.02,9.28,2.51,14,2.94
	c6.83,0.62,13.73,0.57,20.61,0.62c2.8,0.02,5,0.81,7,2.84c7.99,8.12,16.13,16.1,24.09,24.24c1.11,1.14,2.19,2.92,2.17,4.39
	c-0.02,1.43-1.15,3.39-2.38,4.09c-1.23,0.7-3.24,0.36-4.8,0.01c-0.91-0.2-1.67-1.26-2.42-2.01c-7.31-7.29-14.57-14.64-21.97-21.85
	c-0.93-0.9-2.51-1.57-3.8-1.59c-8.6-0.09-17.24,0.22-25.66-1.88c-4.89-1.22-9.7-2.88-14.42-4.67c-2.01-0.76-3.4-0.68-5.12,0.58
	c-8.23,5.97-17.35,9.92-27.54,10.74c-5.78,0.47-11.63,0.16-17.44,0.38c-1.23,0.05-2.71,0.62-3.58,1.46
	c-5.6,5.41-11.04,10.98-16.58,16.45c-1.33,1.31-2.83,2.45-4.25,3.66C69.35,275.9,68.36,275.9,67.38,275.9z M78.27,143.25
	c-2.75-3.47-6.11-5.46-10.66-4.27c-4.06,1.06-6.42,3.86-6.96,7.96c-0.55,4.13,1.52,7.11,4.51,9.4
	C69.58,151.93,73.85,147.66,78.27,143.25z M24.1,38.38c1.24-2.54,2.12-5.35,3.77-7.58c4.87-6.57,13.2-8.42,20.66-5.05
	c0.8,0.36,2.05,0.4,2.84,0.04c7.19-3.23,15.12-1.64,20.12,4.14c5.29,6.12,5.82,13.98,1.28,20.84c-5.25,7.95-12.17,14.32-19.6,20.16
	c-2.11,1.66-4.4,1.61-6.54-0.11c-7.18-5.74-14-11.87-19.1-19.63c-1.4-2.14-2.31-4.6-3.44-6.91C24.1,42.31,24.1,40.34,24.1,38.38z
	 M49.99,60.79c2-1.79,3.93-3.23,5.5-4.98c3.22-3.58,6.5-7.16,9.28-11.08c2.22-3.13,1.35-6.69-1.42-9.03
	c-2.77-2.33-6.11-2.29-9.19,0.13c-3.49,2.74-4.7,2.53-8.47,0.01c-1.61-1.08-3.94-1.7-5.87-1.57c-3.84,0.27-7.77,5.57-4.63,10.6
	C39.06,51.09,44.44,55.86,49.99,60.79z M167.86,96.98c-2.53-2.48-5.27-2.6-7.4-0.53c-2.15,2.09-2.14,4.93,0.3,7.4
	c8.94,9.02,17.92,17.99,26.94,26.94c1.6,1.59,3.56,2.61,5.96,2.24c5.51-0.84,7.92-6.06,5.01-11.14c-2.49-4.33-5.14-8.56-7.75-12.81
	c-1.62-2.65-2.2-5.46-1.3-8.45c1.11-3.7,3.64-6.02,7.42-6.68c4.4-0.77,7.82,0.95,10.29,4.66c7.05,10.55,14.17,21.05,21.18,31.62
	c7.48,11.28,11.22,23.7,11.09,37.27c-0.07,6.64-0.13,13.27,0.05,19.91c0.05,1.67,0.6,3.72,1.68,4.9c4.09,4.47,8.42,8.73,12.84,12.87
	c1,0.94,2.92,1.72,4.13,1.41c1.52-0.38,3.17-1.7,3.98-3.07c1.07-1.83,0.23-3.83-1.27-5.34c-3.34-3.38-6.78-6.67-10.02-10.13
	c-0.79-0.85-1.37-2.23-1.4-3.39c-0.13-5.49-0.05-10.98-0.01-16.47c0.1-15.28-3.71-29.47-12.09-42.29
	c-7.25-11.1-14.62-22.13-22.12-33.06c-5.18-7.54-13.69-10.51-21.62-8.35c-8.92,2.44-16.59,11.59-13.78,24.64
	C175.6,104.73,171.78,100.81,167.86,96.98z M224.22,67.39c0.58-12.63,13.01-20.25,24.44-15.03c0.75,0.34,1.9,0.39,2.63,0.06
	c7.4-3.29,15.35-1.71,20.32,4.13c5.33,6.28,5.71,14.09,1.03,21.05c-5.22,7.77-12.03,14.01-19.28,19.79
	c-2.23,1.78-4.47,1.73-6.74-0.08c-7.13-5.67-13.81-11.8-18.97-19.41C225.27,74.4,224.06,70.83,224.22,67.39z M250.05,87.34
	c5.56-4.95,11-9.69,14.78-15.96c1.96-3.26,1.33-6.68-1.4-9.05c-2.74-2.39-6.16-2.38-9.18,0c-3.54,2.8-4.74,2.61-8.47,0.12
	c-1.62-1.08-3.99-1.9-5.84-1.63c-5.2,0.78-7.35,6.3-4.47,10.97C239.23,77.86,244.51,82.53,250.05,87.34z M191.96,189.35
	c2.07,2.22,4.88,2.42,7.01,0.58c2.04-1.75,2.26-4.39,0.56-6.83c-0.47-0.67-1.03-1.28-1.5-1.94c-2.23-3.14-3.15-6.56-2.48-10.42
	c0.65-3.76,2.87-6.48,5.45-9.08c2.27-2.28,2.39-5.23,0.52-7.24c-1.95-2.09-4.99-2.09-7.43,0.18c-5.38,5-8.65,11.02-8.64,19.58
	C185.52,179.39,187.71,184.79,191.96,189.35z M275.9,215.26c0.07-2.69-2.3-5.1-4.96-5.05c-2.58,0.05-4.83,2.34-4.84,4.93
	c0,2.65,2.17,4.84,4.84,4.87C273.61,220.04,275.84,217.91,275.9,215.26z M147.43,88.19c-0.1,2.73,2.08,5.1,4.77,5.16
	c2.53,0.06,5.06-2.44,5.05-4.99c-0.02-2.55-2.27-4.78-4.87-4.81C149.65,83.51,147.53,85.51,147.43,88.19z"/>
</svg>
