<?xml version="1.0" encoding="utf-8"?>
<!-- Generator: Adobe Illustrator 27.6.1, SVG Export Plug-In . SVG Version: 6.00 Build 0)  -->
<svg version="1.1" id="Layer_1" xmlns="http://www.w3.org/2000/svg" xmlns:xlink="http://www.w3.org/1999/xlink" x="0px" y="0px"
	 viewBox="0 0 300 300" style="enable-background:new 0 0 300 300;" xml:space="preserve">
<style type="text/css">
	.st0{fill:url(#SVGID_1_);}
</style>
<linearGradient id="SVGID_1_" gradientUnits="userSpaceOnUse" x1="28.2779" y1="317.0157" x2="231.4934" y2="113.8002">
	<stop  offset="0" style="stop-color:#D33027"/>
	<stop  offset="0.0429" style="stop-color:#D53A27"/>
	<stop  offset="0.1132" style="stop-color:#D95228"/>
	<stop  offset="0.2022" style="stop-color:#E17A29"/>
	<stop  offset="0.3053" style="stop-color:#EBB12A"/>
	<stop  offset="0.4022" style="stop-color:#F6EC2C"/>
	<stop  offset="0.4804" style="stop-color:#F6EC2C"/>
	<stop  offset="0.5232" style="stop-color:#D9D230"/>
	<stop  offset="0.6185" style="stop-color:#9E9E39"/>
	<stop  offset="0.7106" style="stop-color:#6D7240"/>
	<stop  offset="0.7971" style="stop-color:#475045"/>
	<stop  offset="0.8766" style="stop-color:#2C3849"/>
	<stop  offset="0.9467" style="stop-color:#1B294C"/>
	<stop  offset="1" style="stop-color:#15244C"/>
</linearGradient>
<path class="st0" d="M102.69,172.79c-17.47,8.35-36.46,12.8-52.57,23.91c-7.29,5.03-14.74,3.19-19.68-4.11
	c-2.89-4.27-5.65-8.64-8.45-12.98c-2.82-4.37-3.01-8.89-0.31-13.3c2.75-4.5,7-6.05,12.14-5.41c0.75,0.09,1.58,0.05,2.24,0.36
	c8.08,3.73,15.23,1.63,22.7-2.46c10.22-5.59,20.96-10.23,31.42-15.25c-1.15-9.15-0.11-10.45,9.13-11.81
	c7.03-1.03,14.04-2.14,21.72-3.31c-1.07-2.73-2.02-5.04-2.87-7.38c-0.95-2.6-0.59-4.84,2.17-6.11c3.04-1.4,4.6,0.7,5.75,2.88
	c1.33,2.53,2.26,5.26,3.55,8.33c10.06-4.22,19.91-8.35,30.25-12.68c-3.26-8.47-6.39-16.76-9.7-24.97c-0.32-0.8-1.76-1.49-2.76-1.62
	c-3.16-0.4-6.49-0.06-9.5-0.91c-1.69-0.47-2.89-2.72-4.3-4.17c1.52-1.34,2.94-3.67,4.58-3.84c4.94-0.51,9.96-0.18,15.25-0.18
	c0-3.04,0-6,0-9.4c-5.88-0.33-11.64-0.57-17.38-1c-2.85-0.21-6.19-0.21-6.22-4.35c-0.03-4.05,3.21-4.18,6.13-4.56
	c-3.71-4.73-6.04-4.96-10.52-1.35c-4.26,3.43-9.1,5.33-14.67,5.27c-4.84-0.05-6.77,2.73-4.91,7.32c3.46,8.57,7.13,17.06,10.72,25.59
	c0.35,0.84,0.71,1.67,1.04,2.52c1.07,2.73,1.02,5.29-2.08,6.46c-3.04,1.14-4.83-0.6-5.9-3.39c-0.63-1.66-1.46-3.24-2.22-4.88
	c-0.68,0.19-1.23,0.18-1.51,0.45c-7.82,7.42-17.41,7.59-27.3,6.87c-6.52-0.48-13.06-0.63-19.6-0.92
	c-8.25-0.36-14.03-5.89-13.89-13.3c0.14-7.43,6.06-12.89,14.22-12.96c8.67-0.07,17.35-0.23,26.02,0.07
	c4.68,0.16,7.47-2.9,10.79-5.11c0.6-0.4,0.56-1.87,0.7-2.86c0.42-2.96,0.79-5.94,1.21-9.22c-11.04-8.8-13.19-21.79-12.82-35.14
	c0.29-10.52,9.15-18.47,19.88-19.9c9.94-1.33,20.66,4.7,23.93,14.4c2.98,8.85,6.23,17.84,4.09,27.85
	c6.07,2.02,10.33,6.12,13.7,11.37c0.66,1.02,2.4,1.78,3.7,1.89c6.21,0.51,12.44,0.81,18.66,1.06c5.39,0.22,10.04,1.98,13.95,5.78
	c6.55,6.36,13.26,12.55,19.78,18.94c6,5.88,6.24,14.26,0.8,19.99c-5.54,5.82-13.7,6.01-19.95,0.18c-5.23-4.87-10.33-9.9-15.24-15.09
	c-2.53-2.68-5.14-4.12-9.43-2.95c2.01,5.28,3.94,10.57,6.04,15.79c6.37,15.9,12.83,31.76,19.15,47.68c0.81,2.05,0.88,4.39,1.43,6.56
	c0.43,1.67,0.95,3.35,1.65,4.92c2.67,5.95,7.3,7.33,13.61,6.83c12.88-1.02,25.82-1.25,38.73-1.93c1.6-0.08,3.22-0.76,4.71-1.43
	c4.01-1.79,7.9-3.87,11.95-5.58c5.86-2.47,11.36-0.53,14.25,5.15c3.02,5.94,5.86,11.99,8.5,18.12c1.96,4.56,1.25,8.98-2.18,12.69
	c-3.53,3.82-8.25,5.67-12.77,3.16c-12.99-7.22-26.64-4.02-40.12-3.38c-12.91,0.61-25.8,1.52-38.69,2.42
	c-5.88,0.41-10.71-1.46-14.71-5.75c-1.66-1.78-3.61-3.28-5.22-5.1c-2.03-2.3-4.15-3.48-7.45-2.93c-3.97,0.66-6.38-1.91-8.3-5.16
	c-5.29-8.97-5.34-8.92-15.49-6.4c-6.91,1.71-13.81,3.44-20.75,5.02C107.76,179.36,105.88,178.44,102.69,172.79z M133.48,133.89
	c8.26,14.37,16.17,28.13,24.4,42.43c6.37-6.45,12.36-12.47,18.24-18.59c0.56-0.58,0.83-2.01,0.53-2.76
	c-4.4-11.09-8.91-22.13-13.54-33.53C153.09,125.65,143.5,130.68,133.48,133.89z M168.48,177.88c3.35,3.45,6.29,6.98,9.78,9.86
	c1.69,1.4,4.42,2.31,6.62,2.2c14.87-0.72,29.73-1.76,44.58-2.74c5.09-0.34,10.17-0.84,15.63-1.3c-0.89-2.07-1.75-3.52-2.15-5.09
	c-1.23-4.87-4.34-5.38-8.87-5.01c-10.75,0.88-21.64,0.43-32.3,1.81c-9.9,1.28-16.86-1.55-21.49-10.3c-0.11-0.21-0.46-0.3-0.67-0.42
	C175.93,170.52,172.26,174.15,168.48,177.88z M140.18,162.86c-3.06-5.38-5.81-10.24-8.58-15.08c-6.58-11.52-6.58-11.52-19.55-9.36
	c-4.23,0.7-8.45,1.42-12.98,2.18c3.77,9.26,7.24,17.96,10.95,26.56c0.42,0.97,2.37,2.08,3.34,1.87
	C122.19,167.16,130.98,165.02,140.18,162.86z M54.27,170.31c5.55,10.68,5.55,10.68,15.86,6.53c0.42-0.17,0.87-0.27,1.29-0.44
	c9.35-3.79,18.7-7.59,28.3-11.5c-1.95-4.72-3.72-9.02-5.65-13.7C80.65,157.65,67.57,163.93,54.27,170.31z M162.83,78.91
	c5.56-1.47,8.51,2.12,11.71,5.37c4.69,4.75,9.45,9.41,14.25,14.05c3.11,3.01,6.58,3.39,8.77,0.96c2.99-3.32,1.43-6.03-1.28-8.59
	c-6.16-5.84-12.38-11.63-18.39-17.62c-4.35-4.34-9.58-4.18-15.06-4.23C162.83,72.38,162.83,75.36,162.83,78.91z M125.09,37.51
	c-4.69-0.82-9.28-0.52-12.51-2.47c-3.54-2.14-5.87-2.24-8.93,0c-1.71,1.26-3.89,1.96-5.35,3.42c-0.98,0.98-1.8,3.04-1.47,4.28
	c2.11,7.89,9.04,12.27,16.46,10.77C121.74,51.81,126.08,45.45,125.09,37.51z M94.01,30.62c1.51-0.8,3.04-1.4,4.34-2.32
	c6.23-4.42,12.37-6.36,18.87-0.35c0.67,0.62,2.83,0.12,3.99-0.47c0.65-0.33,1.05-1.98,0.89-2.92c-1.4-7.92-9.17-13.46-16.54-11.93
	C96.68,14.47,92,21.54,94.01,30.62z M249.54,173.33c1.66,9.49,6.92,15.69,16.53,17.73c1.32,0.28,3.41,0.38,4.06-0.37
	c0.87-1.02,1.24-3.1,0.84-4.43c-0.83-2.72-2.29-5.26-3.52-7.85c-5.79-12.15-5.8-12.15-17.6-5.46
	C249.72,173.03,249.65,173.19,249.54,173.33z M52.67,184.19c-2.27-3.46-4.46-6.9-6.78-10.25c-0.55-0.8-1.45-1.59-2.35-1.87
	c-3.3-1.03-6.64-2.03-10.04-2.65c-1.28-0.23-3.39,0.2-3.97,1.09c-0.72,1.09-0.76,3.21-0.18,4.46c1.2,2.58,2.98,4.9,4.56,7.3
	c7.03,10.71,7.66,10.82,17.99,3.17C52.13,185.28,52.22,184.94,52.67,184.19z M86.58,85.1c-9.73,0-19.28-0.16-28.81,0.19
	c-1.33,0.05-3.83,2.93-3.58,3.96c0.41,1.7,2.58,4.16,4.09,4.22c9.8,0.38,19.63,0.19,29.82,0.19C87.69,91.3,87.17,88.4,86.58,85.1z
	 M96.69,91.53c7.95-3.25,8.37-4.98,3.22-12.09C94.7,82.26,94.7,82.26,96.69,91.53z M106.8,287.72c0-23.11,0-45.58,0-68.01
	c-8.76-1.04-10.7-3.27-10.7-12.1c0-3.5-0.07-7,0.02-10.5c0.14-5.25,3.32-8.66,8.48-8.71c13.09-0.11,26.18-0.1,39.27-0.01
	c5.28,0.04,8.39,3.2,8.66,8.59c0.18,3.64,0.05,7.3,0.05,10.96c-0.01,8.42-2.09,10.76-10.9,11.8c0,7.5,0,15.08,0,22.65
	c0,1.37-0.03,2.74,0,4.11c0.07,3.19-1.25,5.63-4.56,5.59c-3.09-0.04-4.29-2.58-4.31-5.45c-0.06-7.31-0.02-14.61-0.03-21.92
	c0-1.63,0-3.26,0-5.12c-5.89,0-11.28,0-16.93,0c0,22.67,0,45.1,0,67.82c5.68,0,11.05,0,16.93,0c0-5.69-0.03-11.13,0.02-16.57
	c0.01-1.35-0.19-3.04,0.51-3.96c1.06-1.4,3.39-3.46,4.19-3.09c1.72,0.79,3.84,2.87,3.97,4.57c0.47,6.19,0.19,12.44,0.19,19.34
	c2.09,0,3.86,0,5.62,0c46.88,0,93.75,0,140.63,0c1.52,0,3.26-0.41,4.51,0.18c1.43,0.67,3.41,2.28,3.38,3.44
	c-0.04,1.54-1.54,3.36-2.9,4.44c-0.87,0.69-2.64,0.3-4,0.3c-92.54,0.01-185.07,0.01-277.61,0c-1.37,0-3.1,0.4-4.01-0.26
	c-1.4-1.02-3.14-2.86-3.07-4.26c0.07-1.32,2.12-2.85,3.63-3.68c1.06-0.58,2.68-0.15,4.05-0.15c29.68,0,59.36,0,89.04,0
	C102.72,287.72,104.53,287.72,106.8,287.72z M143.37,210.99c0-5.2,0-9.65,0-14.13c-12.96,0-25.5,0-38.67,0
	c0,4.08-0.12,7.99,0.1,11.87c0.04,0.79,1.35,2.15,2.09,2.16C118.98,211.03,131.08,210.99,143.37,210.99z"/>
</svg>
