<?xml version="1.0" encoding="utf-8"?>
<!-- Generator: Adobe Illustrator 27.6.1, SVG Export Plug-In . SVG Version: 6.00 Build 0)  -->
<svg version="1.1" id="Layer_1" xmlns="http://www.w3.org/2000/svg" xmlns:xlink="http://www.w3.org/1999/xlink" x="0px" y="0px"
	 viewBox="0 0 300 300" style="enable-background:new 0 0 300 300;" xml:space="preserve">
<style type="text/css">
	.st0{fill:#15244C;}
</style>
<g>
	<path class="st0" d="M216.32,153.15c-1.39-0.02-2.77-0.02-4.16-0.01h-10.17c-0.6-0.01-1.2-0.01-1.8-0.01c-1,0-2,0.01-3,0.02
		c-1.66,0.02-3.23,0.69-4.39,1.89c-1.15,1.17-1.77,2.69-1.75,4.27c0.05,3.31,2.77,6.03,6.08,6.07c6.38,0.06,12.75,0.06,19.14,0
		c1.66-0.01,3.21-0.66,4.38-1.85c1.14-1.16,1.76-2.7,1.74-4.32C222.36,155.86,219.69,153.2,216.32,153.15z"/>
	<path class="st0" d="M140.25,222.07L140.25,222.07c6.45,0.08,12.91,0.08,19.36,0c3.25-0.04,5.99-2.85,5.99-6.13
		c0.01-3.29-2.69-6.02-6.01-6.09c-1.49-0.04-2.98-0.05-4.46-0.02l-8.08,0.01c-1.08-0.01-2.16-0.02-3.24-0.02
		c-1.18,0-2.35,0.01-3.52,0.04c-3.36,0.07-5.99,2.75-5.98,6.09C134.3,219.27,136.97,222.03,140.25,222.07z"/>
	<path class="st0" d="M165.6,159.22c-0.05-3.31-2.78-6.03-6.09-6.07c-1.63-0.01-3.25,0-4.9-0.01l-10.66-0.01l-3.55,0.02
		c-3.37,0.04-6.05,2.69-6.1,6.03c-0.03,1.64,0.58,3.19,1.73,4.37c1.14,1.17,2.67,1.83,4.31,1.84c6.38,0.06,12.76,0.06,19.15,0
		c1.66-0.01,3.21-0.68,4.38-1.88C165.02,162.32,165.63,160.8,165.6,159.22L165.6,159.22z"/>
	<path class="st0" d="M196.92,222.06c6.49,0.1,13.07,0.1,19.58,0c3.23-0.04,5.93-2.87,5.9-6.17c-0.04-3.25-2.67-5.96-5.87-6.03
		h-0.01c-2.21-0.07-4.45-0.04-6.68-0.03l-3.07,0.01l-3.79-0.02c-0.94-0.01-1.89-0.02-2.83-0.02c-1.05,0-2.09,0.01-3.13,0.04
		c-3.27,0.08-6,2.9-5.95,6.15C191.11,219.23,193.79,222.01,196.92,222.06z"/>
	<path class="st0" d="M233.46,268.32c2.89-0.68,5.62-1.31,8.2-2.3c16.66-6.4,27.86-22.75,27.88-40.69l0-5.12
		c0.02-42.57,0.04-85.14-0.01-127.71c-0.02-22.34-17.5-41.3-39.79-43.17c-2.8-0.24-5.68-0.17-8.71-0.1
		c-1.62,0.04-3.14,0.07-4.71,0.07h-3.47l0.01-6.65c0.01-2.07,0.01-3.98-0.01-5.89c-0.03-3.95-2.5-6.61-6.13-6.61
		c-3.6,0.01-6.12,2.74-6.14,6.65l-0.01,5.86l0.01,6.13H99.4l0.01-6.14c0.01-1.99,0.01-3.95-0.01-5.9c-0.02-3.88-2.56-6.59-6.17-6.59
		c-3.56,0.01-6.06,2.67-6.1,6.46c-0.02,1.91-0.02,3.83,0,5.84v6.49l-5.86,0.02l-5.3-0.02c-13.57,0-24.95,4.8-33.81,14.26
		c-6.22,6.64-10.02,14.6-11.31,23.65c-0.08,0.59-0.26,1.09-0.42,1.48l-0.02,141.83c0.13,0.47,0.28,1.19,0.43,1.91
		c0.31,1.56,0.63,3.16,1.11,4.66c5.91,18.48,18.01,28.97,36.99,32.07c0.53,0.09,0.98,0.25,1.33,0.38l159.52,0.03
		c1.18-0.3,2.38-0.58,3.58-0.86l0.43,1.52l0,0L233.46,268.32z M51.77,70.94c5.29-5.42,15.18-11.47,32.33-9.21l3.04,0.39l-0.02,15.37
		c0,2.08-0.01,4.17,0.03,6.25c0.06,3.34,2.74,5.97,6.1,5.97c3.33,0,6.09-2.68,6.14-5.96c0.05-3.75,0.05-7.5,0.03-11.25L99.4,61.54
		h101.18l-0.02,11.45c-0.01,3.55-0.01,7.08,0.03,10.63c0.01,1.66,0.67,3.2,1.84,4.35c1.05,1.02,2.52,1.59,4.49,1.74
		c3.21-0.06,5.87-2.71,5.91-6.06c0.04-4.27,0.03-8.55,0.01-12.82V62.3l2.94-0.45c12.45-1.97,23.96,1.06,31.58,8.26
		c7.74,7.32,11.11,18.5,9.76,32.31l-0.33,3.13H43.57l-0.46-2.95C41.2,90.06,44.36,78.53,51.77,70.94z M224.63,256.87
		c-24.84,0.04-49.7,0.05-74.55,0.05c-24.87,0-49.73-0.02-74.61-0.04c-19-0.02-32.76-13.9-32.77-32.99V118.2h214.58v105.84
		C257.27,243.05,243.54,256.86,224.63,256.87z"/>
	<path class="st0" d="M107.18,155.01c-1.17-1.19-2.72-1.85-4.37-1.86c-3.19-0.02-6.39-0.02-9.58-0.02c-3.2,0-6.39,0.01-9.59,0.02
		c-3.3,0.03-6.01,2.75-6.05,6.06c-0.03,3.35,2.72,6.13,6.13,6.17c1.72,0.04,3.43,0.03,5.1,0.02l4.2-0.01l3.13,0.01
		c2.2,0.01,4.44,0.01,6.66-0.02c3.31-0.06,6.05-2.79,6.1-6.08C108.95,157.71,108.33,156.19,107.18,155.01z"/>
	<path class="st0" d="M83.67,222.08c2.16,0.05,4.31,0.02,6.46,0.01l3.08-0.01l3.08,0.01c2.22,0.02,4.46,0.01,6.68-0.03
		c3.28-0.07,6.01-2.89,5.97-6.16c-0.03-3.3-2.65-6.01-5.83-6.05c-6.29-0.09-12.7-0.1-19.59-0.01c-3.29,0.04-5.94,2.79-5.91,6.13
		C77.63,219.27,80.35,222.01,83.67,222.08z"/>
</g>
</svg>
