<?xml version="1.0" encoding="utf-8"?>
<!-- Generator: Adobe Illustrator 27.6.1, SVG Export Plug-In . SVG Version: 6.00 Build 0)  -->
<svg version="1.1" id="Layer_1" xmlns="http://www.w3.org/2000/svg" xmlns:xlink="http://www.w3.org/1999/xlink" x="0px" y="0px"
	 viewBox="0 0 300 300" style="enable-background:new 0 0 300 300;" xml:space="preserve">
<style type="text/css">
	.st0{fill:url(#SVGID_1_);}
</style>
<linearGradient id="SVGID_1_" gradientUnits="userSpaceOnUse" x1="55.4157" y1="288.5451" x2="282.7491" y2="61.2118">
	<stop  offset="0" style="stop-color:#D33027"/>
	<stop  offset="0.0429" style="stop-color:#D53A27"/>
	<stop  offset="0.1132" style="stop-color:#D95228"/>
	<stop  offset="0.2022" style="stop-color:#E17A29"/>
	<stop  offset="0.3053" style="stop-color:#EBB12A"/>
	<stop  offset="0.4022" style="stop-color:#F6EC2C"/>
	<stop  offset="0.4804" style="stop-color:#F6EC2C"/>
	<stop  offset="0.5232" style="stop-color:#D9D230"/>
	<stop  offset="0.6185" style="stop-color:#9E9E39"/>
	<stop  offset="0.7106" style="stop-color:#6D7240"/>
	<stop  offset="0.7971" style="stop-color:#475045"/>
	<stop  offset="0.8766" style="stop-color:#2C3849"/>
	<stop  offset="0.9467" style="stop-color:#1B294C"/>
	<stop  offset="1" style="stop-color:#15244C"/>
</linearGradient>
<path class="st0" d="M230.47,211.41c-0.19-0.31-0.38-0.64-0.59-0.96c-0.63-0.93-1.33-1.81-1.89-2.79c-0.93-1.63-0.49-3.29,1.08-4.55
	c1.4-1.12,3-1.1,4.37,0.19c0.69,0.65,1.25,1.44,1.81,2.21c1.91,2.62,4.12,4.88,7.06,6.37c1.49,0.76,2.3,1.95,2.27,3.74
	c-0.07,4.42-0.01,8.85-0.07,13.28c-0.01,0.75,0.2,1.01,0.89,1.23c4.47,1.45,8.19,3.93,10.63,8.07c1.6,2.72,2.58,5.65,2.6,8.82
	c0.04,8.59,0.03,17.18,0.02,25.76c0,2.35-1.58,3.92-3.98,4.06c-0.3,0.02-0.59,0.01-0.89,0.01c-69.15,0-138.3,0-207.45,0
	c-0.4,0-0.8,0.01-1.19-0.04c-2.47-0.32-3.73-1.79-3.76-4.49c-0.04-4.59-0.04-9.18-0.04-13.77c0-3.14-0.11-6.29,0.11-9.41
	c0.46-6.49,4.51-11.85,10.16-14.07c3.06-1.2,2.44-0.45,2.44-3.58c-0.01-3.4,0-6.8-0.02-10.2c-0.01-1.62,0.8-2.64,2.24-3.29
	c3.15-1.42,6-3.32,8.54-5.68c5.78-5.35,8.95-12.11,10.74-19.66c0.91-3.85,1.15-7.76,1.47-11.67c0.05-0.61-0.2-0.78-0.71-0.94
	c-6.65-2.13-11.03-8.18-10.67-15.09c0.32-6.03,3.31-10.45,8.74-13.15c0.82-0.41,1.67-0.76,2.63-1.2c-0.23-0.35-0.42-0.68-0.64-0.98
	c-6.1-8.16-8.61-17.3-7.12-27.39c0.39-2.65,1.33-5.23,2.21-7.78c0.61-1.77,1.86-2.39,3.73-2.33c1.52,0.06,2.5,0.91,2.91,2.26
	c0.24,0.78,0.22,1.71,0.04,2.51c-0.43,1.92-1.23,3.78-1.5,5.72c-1.47,10.49,1.3,19.53,9.34,26.72c0.81,0.72,1.67,0.93,2.7,0.93
	c10.5-0.03,21-0.09,31.5,0c1.78,0.02,3.04-0.49,4.28-1.69c5.15-4.98,8.2-11.06,8.82-18.13c1.18-13.28-6.35-25.16-18.97-29.76
	c-2.81-1.03-5.77-1.45-8.82-1.53c-7.3-0.18-13.67,2.06-19.26,6.69c-0.87,0.72-1.73,1.35-2.98,1.34c-1.67-0.01-2.71-0.81-3.43-2.23
	c-0.74-1.44-0.31-2.77,0.77-3.68c1.95-1.66,3.98-3.28,6.16-4.61c5.63-3.43,11.85-5.04,18.4-4.93c16.39,0.27,29.45,11.05,33.75,24.95
	c3.62,11.72,1.71,22.61-5.43,32.59c-0.3,0.42-0.64,0.82-1.02,1.3c0.98,0.44,1.92,0.81,2.81,1.26c5.57,2.81,8.6,7.4,8.67,13.58
	c0.07,6.45-3.23,11.04-8.9,13.97c-0.61,0.31-1.33,0.41-1.95,0.7c-0.28,0.13-0.64,0.53-0.62,0.78c0.55,8.6,1.87,16.99,6.52,24.5
	c0.14,0.22,0.3,0.44,0.44,0.66c0.41,0.66,0.84,0.68,1.29,0.04c0.71-1.03,1.46-2.04,2.11-3.11c2.25-3.67,3.85-7.64,5.29-11.69
	c2.3-6.45,3.84-13.09,5.13-19.79c0.78-4.04,1.36-8.13,1.9-12.21c0.49-3.73,0.7-7.49,1.24-11.21c0.93-6.43,0.76-12.91,1.2-19.36
	c0.02-0.29-0.34-0.74-0.64-0.89c-1.66-0.87-3.5-1.47-5.01-2.53c-8.1-5.69-9.52-16.51-3.29-24.21c0.1-0.13,0.21-0.25,0.39-0.48
	c-0.38-0.22-0.73-0.45-1.09-0.64c-6.71-3.45-11.31-8.73-12.99-16.09c-0.95-4.15-1.06-8.5-1.52-12.76
	c-0.37-3.44-0.72-6.89-1.05-10.34c-0.35-3.78-0.66-7.56-0.99-11.34c-0.4-4.57-0.79-9.14-1.2-13.71c-0.24-2.66-0.59-5.32-0.75-7.98
	c-0.19-3.12,1.24-4.56,4.39-4.6c2.28-0.03,4.56-0.01,6.84-0.01c3.14,0,6.27,0,9.41,0c3.2,0,4.39,0.95,4.86,4.09
	c0.53,3.52,0.93,7.06,1.42,10.59c0.56,4.02,1.11,8.03,1.77,12.03c0.4,2.41,2.85,4.34,4.97,4.12c2.81-0.3,4.73-2.4,4.73-5.17
	c0-7.13,0.06-14.27-0.01-21.4c-0.02-2.46,1.65-4.18,4.2-4.25c0.79-0.02,1.58-0.01,2.38-0.01c9.87,0,19.75,0,29.62,0
	c1.85,0,3.4,0.6,4.21,2.38c0.26,0.58,0.42,1.26,0.43,1.9c0.03,7.1,0.02,14.2,0.02,21.31c0,2.68,1.06,3.95,3.51,5
	c1.94,0.84,5.71-1.08,6.01-3.56c0.53-4.25,1.17-8.49,1.76-12.74c0.51-3.62,0.95-7.26,1.56-10.87c0.4-2.35,1.65-3.38,4.03-3.4
	c5.81-0.05,11.62-0.06,17.44,0c2.25,0.02,4.2,1.74,3.95,4.23c-0.32,3.19-0.61,6.37-0.88,9.56c-0.59,7.1-1.13,14.21-1.74,21.32
	c-0.17,2.04-0.57,4.05-0.76,6.09c-0.37,3.94-0.61,7.9-1.02,11.84c-0.33,3.24-0.5,6.52-1.62,9.64c-2.2,6.15-6.18,10.75-11.93,13.83
	c-0.55,0.29-1.1,0.59-1.56,0.83c0.93,1.56,1.98,3.04,2.74,4.65c3.03,6.35,1.12,14.57-4.28,19.08c-1.88,1.57-3.99,2.69-6.28,3.48
	c-0.66,0.23-0.9,0.53-0.86,1.28c0.37,6.16,0.55,12.34,1.07,18.49c0.42,4.99,1.17,9.95,1.88,14.91c0.59,4.11,1.15,8.24,2.06,12.28
	c1.13,5.04,2.59,10.01,3.93,15.01c0.17,0.63,0.47,1.23,0.66,1.86c0.59,1.95-0.33,3.77-2.27,4.55c-1.65,0.66-3.62-0.04-4.37-1.84
	c-0.87-2.09-1.6-4.26-2.16-6.46c-1.34-5.27-2.79-10.53-3.74-15.87c-1.25-7.01-2.27-14.07-3.01-21.15
	c-0.72-6.95-0.96-13.96-1.42-20.94c-0.03-0.45-0.06-0.91-0.1-1.43c-15.41,0-30.75,0-46.15,0c-0.02,0.24-0.03,0.43-0.05,0.62
	c-0.29,4.41-0.55,8.83-0.87,13.23c-0.29,3.98-0.56,7.97-0.99,11.94c-0.75,6.95-1.87,13.84-3.25,20.7
	c-1.67,8.3-3.84,16.43-7.13,24.24c-1.77,4.21-3.93,8.21-6.81,11.79c-0.06,0.07-0.08,0.17-0.21,0.44
	C174.08,211.41,202.22,211.41,230.47,211.41z M175.4,30.52c0,0.48,0,0.84,0,1.2c0,4.95,0.01,9.91-0.01,14.86
	c0,1.05-0.09,2.11-0.2,3.16c-0.88,8.07-8.05,12.37-14.24,11.3c-4.9-0.85-9.54-5.42-10.16-10.32c-0.83-6.48-1.77-12.94-2.63-19.41
	c-0.09-0.65-0.34-0.8-0.95-0.8c-3.1,0.02-6.21,0-9.31,0c-0.15,0-0.31,0.05-0.46,0.07c0,1.01-0.07,1.97,0.01,2.91
	c0.4,4.57,0.87,9.13,1.28,13.7c0.52,5.85,1.02,11.7,1.52,17.56c0.4,4.7,0.81,9.4,1.18,14.1c0.35,4.38,1.94,8.21,5.07,11.3
	c3.54,3.5,7.88,4.98,12.83,4.98c19.32-0.01,38.63,0.01,57.95,0.05c9.08,0.02,16.36-6.19,17.55-15.18c0.38-2.84,0.43-5.73,0.68-8.58
	c0.62-6.84,1.28-13.67,1.89-20.5c0.27-2.99,0.4-5.99,0.67-8.99c0.32-3.48,0.7-6.96,1.09-10.43c0.08-0.73-0.08-0.99-0.87-0.98
	c-3.04,0.03-6.08,0-9.11-0.05c-0.6-0.01-0.81,0.21-0.89,0.77c-0.27,1.86-0.61,3.71-0.86,5.57c-0.49,3.73-0.88,7.47-1.44,11.19
	c-0.29,1.91-0.62,3.87-1.3,5.66c-2.39,6.22-10.11,9.32-16.03,6.51c-4.75-2.26-7.33-6.1-7.47-11.34c-0.15-5.74-0.08-11.49-0.07-17.24
	c0-0.81-0.2-1.07-1.04-1.07c-7.2,0.03-14.4,0.01-21.6,0.01C177.5,30.52,176.52,30.52,175.4,30.52z M251.15,269.49
	c0.02-0.38,0.05-0.7,0.05-1.02c0.01-7.13,0.03-14.27,0.02-21.4c0-0.85-0.07-1.73-0.28-2.55c-1.07-4.07-5.01-7.57-10.06-7.56
	c-34.97,0.04-69.94,0.01-104.91,0c-0.82,0-1.66,0.02-2.46,0.16c-4.16,0.74-8.5,4.23-8.38,10.78c0.13,6.77,0.11,13.54,0.09,20.31
	c0,0.99,0.2,1.28,1.23,1.28c40.25-0.02,80.5-0.02,120.76-0.01C248.49,269.49,249.77,269.49,251.15,269.49z M118.69,241.18
	c-0.39,0-0.79,0-1.18,0c-19.74,0-39.48,0-59.23,0c-0.33,0-0.66,0-0.99,0.01c-5.08,0.13-8.63,4.53-8.5,8.98
	c0.18,6.14,0.05,12.28,0.03,18.43c0,0.69,0.15,0.91,0.87,0.91c6.67-0.03,13.34-0.02,20.01-0.02c15.62,0,31.23-0.01,46.85,0.02
	c0.88,0,1.25-0.17,1.18-1.14c-0.09-1.22-0.06-2.44-0.01-3.66C118.05,256.92,116.86,249.07,118.69,241.18z M131.81,217.67
	c0-0.54,0.02-1.09,0-1.64c-0.07-1.59,0.38-2.95,1.78-3.84c0.73-0.46,0.65-0.9,0.22-1.52c-2.97-4.35-4.98-9.13-6.34-14.2
	c-1.26-4.7-2.06-9.47-2.16-14.34c-0.02-1.05-0.43-1.22-1.37-1.22c-12.84,0.03-25.68,0.01-38.52,0.01c-0.29,0-0.58,0.03-0.92,0.06
	c-0.88,13.79-4.04,26.64-14.68,36.69C90.56,217.67,111.13,217.67,131.81,217.67z M188.28,102.44c-8.72,0-17.43,0-26.15,0.01
	c-0.79,0-1.58,0.06-2.36,0.18c-4.18,0.59-7.5,4.29-7.71,8.56c-0.22,4.45,2.64,8.53,6.83,9.46c1.53,0.34,3.14,0.38,4.71,0.39
	c15.88,0.01,31.76-0.01,47.64-0.03c1.65,0,3.3,0.03,4.94-0.1c6.42-0.49,10.81-8.29,6.39-14.6c-1.94-2.76-4.73-3.86-8.04-3.86
	C205.78,102.45,197.03,102.44,188.28,102.44z M138.97,219.04c0,2.9-0.01,5.67,0,8.44c0.01,2.05,0.01,2.05,2.06,2.05
	c31.79,0,63.58,0.01,95.37,0.01c0.25,0,0.5-0.04,0.76-0.06c0-3.52,0-6.97,0-10.44C204.42,219.04,171.76,219.04,138.97,219.04z
	 M104.7,173.45c0-0.01,0-0.01,0-0.02c7.89,0,15.78,0.03,23.67-0.03c1.32-0.01,2.74-0.21,3.92-0.75c5.36-2.42,5.51-10.08,1.62-13.14
	c-1.61-1.27-3.37-1.84-5.39-1.84c-15.25,0.01-30.5,0-45.75,0c-1.05,0-2.12-0.03-3.16,0.08c-4.88,0.5-8.19,6.37-6.14,10.83
	c1.59,3.45,4.27,4.95,8.06,4.91C89.25,173.39,96.97,173.45,104.7,173.45z M131.77,225.14c-23.54,0-46.99,0-70.44,0
	c0,2.94,0,5.8,0,8.71c2.2,0,4.33,0,6.47,0c18.42,0.01,36.85,0.02,55.27,0.01c0.44,0,0.99-0.04,1.3-0.29c2.2-1.74,4.7-2.87,7.4-3.64
	C131.77,228.35,131.77,226.81,131.77,225.14z"/>
</svg>
