<?xml version="1.0" encoding="utf-8"?>
<!-- Generator: Adobe Illustrator 27.6.1, SVG Export Plug-In . SVG Version: 6.00 Build 0)  -->
<svg version="1.1" id="Layer_1" xmlns="http://www.w3.org/2000/svg" xmlns:xlink="http://www.w3.org/1999/xlink" x="0px" y="0px"
	 viewBox="0 0 300 300" style="enable-background:new 0 0 300 300;" xml:space="preserve">
<path d="M78.66,270.87c-4.76-2.24-5.98-6.13-5.88-11.15c0.23-11.79,0.07-23.59,0.08-35.39c0-0.71-0.02-1.42,0.03-2.12
	c0.16-2.2,1.58-3.67,3.51-3.68c2.03-0.02,3.57,1.53,3.63,3.84c0.07,2.83,0.02,5.66,0.02,8.49c0,5.72,0,11.44,0,17.27
	c46.45,0,92.65,0,139.16,0c0-1.01,0-1.93,0-2.85c0-25.25,0-50.49,0-75.74c0-3.87,1.04-5.58,3.44-5.67c2.49-0.09,3.72,1.78,3.72,5.66
	c0,30.28-0.07,60.56,0.07,90.84c0.02,4.97-1.54,8.51-6.17,10.49C173.06,270.87,125.86,270.87,78.66,270.87z M80.04,255.53
	c0,1.8,0,3.37,0,4.93c0,3.3,0,3.3,3.39,3.3c44.11,0,88.22,0,132.33,0c0.63,0,1.31,0.15,1.87-0.05c0.57-0.21,1.42-0.73,1.44-1.16
	c0.14-2.31,0.07-4.63,0.07-7.02C172.65,255.53,126.52,255.53,80.04,255.53z M228.42,64.02c-3.59-1.34-7.06-2.75-10.6-3.94
	c-7.66-2.57-15.37-4.97-23.02-7.56c-1.57-0.53-2.38-0.11-3.33,1.1c-7.23,9.11-14.54,18.17-21.82,27.25
	c-0.3,0.37-0.59,0.73-0.91,1.09c-2.14,2.42-4.54,2.34-6.44-0.31c-3.49-4.85-6.92-9.73-10.39-14.6c-0.44-0.62-0.92-1.21-1.5-1.97
	c-0.59,0.77-1.07,1.36-1.51,1.98c-3.19,4.48-6.38,8.97-9.57,13.45c-3.05,4.29-4.99,4.31-8.32,0.16
	c-7.37-9.21-14.78-18.38-22.11-27.61c-1.05-1.33-1.98-1.75-3.74-1.32c-11.16,2.72-21.86,6.73-32.41,11.2
	c-1.64,0.69-1.92,1.58-1.49,3.24c2.8,10.62,5.51,21.25,8.2,31.89c0.36,1.43,0.55,2.94,0.56,4.42c0.03,34.68,0.02,69.37,0.02,104.05
	c0,0.63,0.07,1.28-0.07,1.88c-0.46,1.88-1.58,3.07-3.65,2.99c-2.04-0.08-3.17-1.21-3.39-3.21c-0.1-0.86-0.07-1.73-0.07-2.59
	c0-23.75-0.03-47.5,0.04-71.26c0.01-1.87-0.55-2.74-2.29-3.45c-9.02-3.65-17.97-7.45-26.95-11.2c-6.47-2.7-8.62-7.21-6.58-13.97
	c2.75-9.07,4.86-18.38,9.9-26.59c7.54-12.29,17.27-21.9,31.51-26.16c6.46-1.93,12.72-4.64,19.26-6.14
	c6.49-1.5,10.7-4.85,14.09-10.58c5.16-8.71,2.72-6.98,12.68-7.02c18.8-0.08,37.59,0.03,56.39-0.08c2.72-0.02,4.38,0.92,5.74,3.17
	c2.19,3.63,4.49,7.21,6.96,10.65c0.83,1.16,2.19,2.22,3.53,2.68c8.23,2.83,16.47,5.62,24.79,8.16c14.05,4.3,23.68,13.76,31.04,25.99
	c5.42,9.01,7.59,19.21,10.52,29.12c0.31,1.06,0.11,2.36-0.12,3.49c-0.74,3.59-2.96,5.98-6.3,7.38c-9.55,3.99-19.09,8.02-28.66,11.95
	c-1.49,0.61-2.14,1.33-2.1,3.06c0.13,5.58,0.05,11.17,0.05,16.75c0,0.63,0.04,1.26-0.03,1.89c-0.21,1.99-1.71,3.39-3.57,3.39
	c-1.93,0-3.37-1.31-3.5-3.39c-0.12-1.88-0.06-3.77-0.06-5.66c0-10.62,0.32-21.25-0.09-31.85c-0.42-10.97,1.03-21.55,4.17-32.03
	C225.21,77.47,226.67,70.88,228.42,64.02z M226.36,124.52c0.51-0.03,0.76,0.02,0.96-0.06c9.04-3.77,18.08-7.54,27.1-11.35
	c1.69-0.71,2.31-2.03,1.78-3.83c-0.67-2.25-1.35-4.5-1.97-6.76c-2.62-9.52-5.97-18.69-12.47-26.36c-2.15-2.54-4.52-4.9-7.07-7.62
	c-1.62,6.3-2.83,12.06-4.59,17.65c-3.19,10.15-4.38,20.49-3.77,31.08C226.48,119.66,226.36,122.07,226.36,124.52z M64.63,69.23
	c-3.12,2.08-7.71,7.57-10.74,12.37c-5.34,8.44-7.42,18.08-10.26,27.44c-0.6,1.99,0.5,3.06,2.24,3.78c5.8,2.4,11.58,4.83,17.36,7.25
	c3.08,1.29,6.17,2.57,9.62,4.01c0-6.66,0.08-12.93-0.04-19.18c-0.05-2.41-0.36-4.85-0.89-7.2c-1.11-4.89-2.44-9.73-3.69-14.59
	C67.05,78.51,65.85,73.91,64.63,69.23z M119.08,38.05c-1.72,2.62-3.18,5.04-4.84,7.32c-0.91,1.26-0.75,2.09,0.2,3.24
	c4.19,5.09,8.28,10.26,12.42,15.4c2.69,3.35,5.38,6.69,8.18,10.16c3.57-5.04,6.99-9.88,10.47-14.79
	C136.6,52.19,127.94,45.2,119.08,38.05z M165.8,74.16c7.34-9.14,14.55-18.12,21.79-27.14c-1.97-3.03-3.85-5.91-5.85-8.97
	c-8.85,7.14-17.61,14.2-26.44,21.33C158.89,64.43,162.28,69.21,165.8,74.16z M130.2,36.35c-0.14,0.26-0.27,0.52-0.41,0.78
	c1.96,1.04,3.88,2.9,5.87,2.97c9.87,0.38,19.77,0.1,29.65,0.48c3.66,0.14,5.23-2.19,8.01-4.24
	C157.47,36.35,143.34,36.35,130.2,36.35z M142,47.27c2.72,2.21,5.06,4.15,7.46,6.01c0.38,0.29,1.28,0.44,1.6,0.19
	c2.46-1.86,4.84-3.84,7.76-6.2C152.93,47.27,147.73,47.27,142,47.27z M169.7,115.83c0-3.06-0.06-6.13,0.01-9.19
	c0.1-4.23,2.96-7.05,7.17-7.08c5.97-0.04,11.94-0.03,17.91,0c4,0.02,7.2,2.54,7.31,6.48c0.18,6.9,0.37,13.86-0.36,20.7
	c-0.89,8.41-8.53,13.53-17.89,12.89c-7.52-0.52-13.85-7.13-14.11-14.83c-0.1-2.98-0.02-5.97-0.02-8.96
	C169.72,115.83,169.71,115.83,169.7,115.83z M176.86,106.73c0,6.22-0.23,12.26,0.07,18.29c0.23,4.64,4.53,7.77,9.5,7.53
	c4.78-0.23,8.26-3.51,8.45-8.13c0.12-2.98,0.05-5.98,0.05-8.96c0.01-2.88,0-5.75,0-8.72C188.79,106.73,182.99,106.73,176.86,106.73z
	 M154.22,106.6c-0.01-1.95-1.45-3.46-3.37-3.55c-1.93-0.09-3.66,1.55-3.71,3.5c-0.04,1.93,1.63,3.68,3.54,3.7
	C152.63,110.28,154.23,108.62,154.22,106.6z M147.14,79.49c-0.04,1.88,1.44,3.47,3.33,3.58c2.08,0.12,3.66-1.29,3.75-3.33
	c0.08-2.03-1.41-3.69-3.39-3.75C148.87,75.92,147.18,77.52,147.14,79.49z M150.67,89.59c-1.91,0.01-3.46,1.49-3.53,3.37
	c-0.08,1.96,1.51,3.65,3.47,3.71c1.97,0.06,3.6-1.53,3.61-3.53C154.24,91.09,152.73,89.57,150.67,89.59z"/>
</svg>
