<?xml version="1.0" encoding="utf-8"?>
<!-- Generator: Adobe Illustrator 27.6.1, SVG Export Plug-In . SVG Version: 6.00 Build 0)  -->
<svg version="1.1" id="Layer_1" xmlns="http://www.w3.org/2000/svg" xmlns:xlink="http://www.w3.org/1999/xlink" x="0px" y="0px"
	 viewBox="0 0 300 300" style="enable-background:new 0 0 300 300;" xml:space="preserve">
<style type="text/css">
	.st0{fill:#15244C;}
</style>
<g>
	<path class="st0" d="M201.94,201.68l-4.42,0.01c-3.43,0.03-6.86,0.04-10.3-0.04c-5.93-0.1-10.31,2.15-13.79,6.93
		c-4.59,6.31-9.28,12.55-13.96,18.8l-4.72,6.3c-1.15,1.53-2.9,3.36-4.75,3.36c-1.84,0.01-3.58-1.8-4.71-3.31l-4.88-6.48
		c-4.56-6.04-9.12-12.09-13.53-18.23c-3.6-5.02-8.47-7.53-14.68-7.38c-14.09,0.13-28.18,0.08-42.28,0.03l-4.71-0.01
		c-1.68,0-3.63-0.05-5.38-0.44c-9.21-2.06-14.93-9.47-14.94-19.33l-0.01-59.35l0-22.83l-0.01-5.41c-0.02-4.07-0.04-8.15,0.04-12.23
		c0.19-10.83,8.19-18.76,19.01-18.86c2.57-0.02,5.14-0.01,7.7-0.02h5.94c5.44-0.02,7.42-3.37,7.46-6.22
		c0.02-1.66-0.55-3.15-1.66-4.28c-0.93-0.94-2.67-2.07-5.72-2.08c-4.57-0.03-9.12-0.02-13.69,0c-17.62,0.1-31.44,13.97-31.45,31.59
		l0,33.44l0,16.72l0,12.34c-0.01,12.76-0.01,25.52,0.03,38.27c0.01,2.49,0.28,4.87,0.81,7.07c3.47,14.43,15.83,24.15,30.74,24.16
		h2.71c15.37,0.02,30.74,0.03,46.11-0.03c0.01,0,0.03,0,0.04,0c1.65,0,2.54,0.45,3.51,1.77c6.46,8.79,12.98,17.53,19.6,26.2
		c3.67,4.81,8.36,7.29,13.68,7.29c1.09,0,2.21-0.11,3.35-0.31c4.36-0.8,8.13-3.28,11.2-7.4l5.7-7.61
		c4.58-6.12,9.17-12.25,13.72-18.4c0.85-1.15,1.68-1.48,2.96-1.53c5.18,0.08,10.35,0.04,15.52,0.01c2.47-0.02,4.58-1.05,5.81-2.84
		c1.11-1.63,1.33-3.68,0.6-5.63C207.59,203.04,205.35,201.68,201.94,201.68z"/>
	<path class="st0" d="M99.81,155.72c0.02,0,0.05,0,0.07,0c11.19-0.04,20.26-9.2,20.23-20.41c-0.01-5.42-2.18-10.53-6.1-14.41
		c-3.89-3.84-8.89-6.06-14.36-5.87c-11.16,0.12-20.17,9.36-20.1,20.6C79.62,146.72,88.7,155.72,99.81,155.72z M91.98,135.39
		c0.02-4.3,3.54-7.79,7.85-7.79c0.01,0,0.02,0,0.03,0c2.11,0.01,4.09,0.84,5.58,2.34c1.47,1.48,2.27,3.43,2.26,5.49
		c-0.02,4.3-3.56,7.79-7.88,7.79c0,0-0.01,0-0.01,0c-2.08-0.01-4.05-0.83-5.54-2.34C92.78,139.4,91.97,137.45,91.98,135.39z"/>
	<path class="st0" d="M267.05,76.6c-3.18-15.8-15.58-26-31.6-26L94.84,50.6c-0.99,0-2.14,0.02-3.31,0.31
		c-3.21,0.76-5.18,3.58-4.57,6.57c0.53,2.57,2.86,4.35,3.57,4.85c1.36,0.94,2.96,0.88,4.65,0.84l139.85,0.03
		c1.66-0.01,3.23-0.01,4.64,0.28c9.5,1.91,15.41,9.32,15.42,19.34c0.02,19.09,0.02,38.17,0.01,57.26l0,19.09l0.02,7.23
		c0.02,5.41,0.04,10.83-0.04,16.25c-0.15,10.53-7.52,18.29-17.92,18.89c-3.86,0.22-7.75,0.19-11.64,0.16
		c-2.05-0.03-4.09-0.04-6.13-0.02c-4.96,0.05-7.19,3.16-7.2,6.23c-0.01,3.68,2.95,6.27,7.2,6.28l4.78,0.03
		c1.87,0.01,3.73,0.03,5.6,0.03c2.24,0,4.48-0.02,6.72-0.08c11.47-0.32,20.56-5.51,26.3-15.02c1.53-2.54,2.45-5.31,3.34-7.98
		c0.38-1.13,0.75-2.27,1.18-3.37l0.19-109.88L267.05,76.6z"/>
	<path class="st0" d="M202.29,155.72c0.01,0,0.02,0,0.02,0c5.44-0.01,10.55-2.14,14.41-6.01c3.84-3.86,5.94-8.96,5.92-14.36
		c-0.02-5.4-2.19-10.52-6.12-14.4c-3.86-3.82-8.89-5.91-14.19-5.91c-0.05,0-0.1,0-0.15,0c-11.06,0.08-20.08,9.19-20.11,20.31
		c-0.02,5.49,2.09,10.63,5.92,14.47C191.8,153.62,196.88,155.72,202.29,155.72z M194.48,135.35c0.01-2.09,0.84-4.04,2.33-5.51
		c1.49-1.46,3.62-1.95,5.55-2.24c2.11,0.02,4.07,0.84,5.53,2.32c1.45,1.48,2.24,3.44,2.22,5.54c-0.04,4.36-3.48,7.76-7.84,7.76
		c-0.01,0-0.02,0-0.03,0c-2.07-0.01-4.02-0.83-5.49-2.31C195.27,139.42,194.47,137.45,194.48,135.35z"/>
	<path class="st0" d="M151.12,155.72c5.35,0,10.39-2.07,14.19-5.86c3.87-3.84,6.01-8.98,6.01-14.45c0-11.1-8.99-20.24-20.04-20.39
		c-0.09,0-0.17,0-0.25,0c-11.06,0-20.14,9.01-20.29,20.21c-0.07,5.35,1.98,10.43,5.79,14.32c3.86,3.94,8.99,6.12,14.45,6.16
		C151.03,155.72,151.08,155.72,151.12,155.72z M151.08,127.59C151.09,127.59,151.09,127.59,151.08,127.59c2.1,0,4.06,0.81,5.51,2.27
		c1.46,1.47,2.26,3.45,2.25,5.57c-0.01,4.37-3.42,7.79-7.78,7.79c0,0-0.01,0-0.01,0c-4.41-0.01-7.74-3.37-7.73-7.83
		c0-2.13,0.8-4.1,2.25-5.56C147.02,128.39,148.98,127.59,151.08,127.59z"/>
</g>
</svg>
