<?xml version="1.0" encoding="utf-8"?>
<!-- Generator: Adobe Illustrator 27.6.1, SVG Export Plug-In . SVG Version: 6.00 Build 0)  -->
<svg version="1.1" id="Layer_1" xmlns="http://www.w3.org/2000/svg" xmlns:xlink="http://www.w3.org/1999/xlink" x="0px" y="0px"
	 viewBox="0 0 300 300" style="enable-background:new 0 0 300 300;" xml:space="preserve">
<style type="text/css">
	.st0{fill:#15244C;}
</style>
<path class="st0" d="M260.76,99.8c-6.15,4.82-11.74,9.17-17.31,13.55c-19.65,15.44-39.29,30.91-58.95,46.34
	c-9.47,7.44-18.19,7.4-27.7-0.07c-17.89-14.05-35.77-28.12-53.68-42.14c-1.49-1.17-3.23-2.03-5.56-3.47
	c-2.06,1.23-6.06,3.13-9.5,5.75c-4.74,3.62-4.7,9.05-3.9,14.33c0.32,2.16,1.25,4.33,2.34,6.24c8.26,14.42,16.66,28.76,24.96,43.15
	c2.25,3.9,5.51,6.59,9.55,8.39c4.02,1.79,7.94,1.84,11.81-0.64c2.87-1.84,5.9-3.43,8.86-5.12c8.83-5.03,18.15-4.4,26.21,1.78
	c0.78,0.6,1.61,1.17,2.29,1.89c11.47,12.19,20.62,25.81,25.1,42.12c2.14,7.81-0.04,14.83-8.11,19.28
	c-29.49,16.23-57.57,13.11-84.52-5.72c-11.86-8.29-21.58-18.86-29.04-31.2c-11.28-18.68-22.28-37.54-32.85-56.62
	c-8.01-14.46-12.56-30.16-13.18-46.76c-1.01-27.06,9.09-49.05,30.9-65.34c3.14-2.35,6.69-4.26,10.25-5.92
	c6.06-2.83,11.44-0.69,16.21,3.22c6.15,5.04,10.56,11.49,14.26,18.44c2.66,4.99,5.1,10.09,7.78,15.07c0.4,0.74,1.51,1.23,2.39,1.53
	c0.72,0.25,1.6,0.05,2.41,0.05c47.04,0,94.09-0.01,141.13,0.03c2.58,0,5.25,0.17,7.73,0.83c7.59,2.01,11.75,7.53,11.81,15.32
	c0.05,6.48,0.01,12.95,0.01,19.43c0,28.15,0,56.31,0,84.46c0,10.69-6.56,17.29-17.26,17.31c-17.36,0.03-34.72,0.01-52.08,0
	c-4.34,0-6.89-2.17-6.9-5.79c-0.01-3.64,2.53-5.91,6.85-5.92c16.82-0.03,33.64-0.01,50.46-0.02c1.08,0,2.17,0.04,3.23-0.09
	c2.43-0.3,4.01-1.51,3.98-4.19c0-0.45,0.01-0.9,0.01-1.35c0-31.57,0-63.15,0-94.72C260.76,102.37,260.76,101.49,260.76,99.8z
	 M149.69,250.01c10.65-0.32,21.11-2.69,30.68-8.47c4.4-2.65,4.46-2.6,3.43-7.64c-0.09-0.44-0.26-0.86-0.38-1.29
	c-2.94-9.9-8.74-18.27-14.58-26.56c-2.4-3.41-5.47-6.44-8.63-9.19c-3.75-3.27-8-3.63-12.41-0.82c-3.25,2.07-6.6,4.04-10.06,5.73
	c-2.46,1.2-5.14,2.42-7.81,2.67c-12.41,1.12-21.9-4.12-28.22-14.61c-8.53-14.15-16.56-28.6-24.98-42.82
	c-3.52-5.94-5.2-12.2-4.59-19.04c0.76-8.44,4.18-15.34,11.87-19.65c2.82-1.58,5.6-3.23,8.4-4.85c6.81-3.93,8.39-7.09,6.25-14.67
	c-3.61-12.78-10-24.17-18.45-34.39c-1.23-1.49-2.92-2.67-4.57-3.72c-0.66-0.42-1.96-0.46-2.66-0.09c-2.78,1.45-5.6,2.91-8.11,4.77
	c-16.63,12.32-25.14,28.98-25.64,49.58c-0.43,17.86,4.63,34.47,13.27,49.91c9.51,17.01,19.42,33.8,29.34,50.57
	c5.43,9.19,12.23,17.34,20.19,24.46C115.49,241.97,130.81,249.72,149.69,250.01z M107.13,105.96c1.09,0.76,2,1.33,2.85,2
	c17.88,14.04,35.76,28.08,53.63,42.15c5.55,4.37,8.5,4.41,14.12,0c22.27-17.48,44.54-34.96,66.8-52.44c3.2-2.51,6.38-5.05,9.96-7.89
	c-48.21,0-95.79,0-143.68,0C111.49,95.64,110.53,101.03,107.13,105.96z"/>
</svg>
