<?xml version="1.0" encoding="utf-8"?>
<!-- Generator: Adobe Illustrator 27.6.1, SVG Export Plug-In . SVG Version: 6.00 Build 0)  -->
<svg version="1.1" id="Layer_1" xmlns="http://www.w3.org/2000/svg" xmlns:xlink="http://www.w3.org/1999/xlink" x="0px" y="0px"
	 viewBox="0 0 300 300" style="enable-background:new 0 0 300 300;" xml:space="preserve">
<style type="text/css">
	.st0{fill:url(#SVGID_1_);}
</style>
<linearGradient id="SVGID_1_" gradientUnits="userSpaceOnUse" x1="42.5757" y1="251.2097" x2="260.6625" y2="33.1229">
	<stop  offset="0" style="stop-color:#D33027"/>
	<stop  offset="0.0429" style="stop-color:#D53A27"/>
	<stop  offset="0.1132" style="stop-color:#D95228"/>
	<stop  offset="0.2022" style="stop-color:#E17A29"/>
	<stop  offset="0.3053" style="stop-color:#EBB12A"/>
	<stop  offset="0.4022" style="stop-color:#F6EC2C"/>
	<stop  offset="0.4804" style="stop-color:#F6EC2C"/>
	<stop  offset="0.5232" style="stop-color:#D9D230"/>
	<stop  offset="0.6185" style="stop-color:#9E9E39"/>
	<stop  offset="0.7106" style="stop-color:#6D7240"/>
	<stop  offset="0.7971" style="stop-color:#475045"/>
	<stop  offset="0.8766" style="stop-color:#2C3849"/>
	<stop  offset="0.9467" style="stop-color:#1B294C"/>
	<stop  offset="1" style="stop-color:#15244C"/>
</linearGradient>
<path class="st0" d="M175.43,187.2c-5.02,5.09-10.14,10.08-14.99,15.33c-1.03,1.12-1.47,3.17-1.48,4.79
	c-0.1,20.91-0.06,41.83-0.07,62.74c0,8.96-2.96,11.96-11.76,11.96c-1.51,0-3.03,0.01-4.54,0c-6.92-0.05-10.06-3.13-10.07-10.04
	c-0.03-13.46-0.01-26.92-0.01-41.65c-3.78,3.75-6.56,7.1-9.91,9.71c-6.38,4.98-9.24,11.01-8.07,19.2c0.61,4.32,0.16,8.79,0.09,13.19
	c-0.11,6.28-3.44,9.5-9.82,9.58c-1.51,0.02-3.04-0.1-4.54,0.02c-5.58,0.44-10.06-1.03-12.12-7.31c-1.84,1.73-3.27,3.15-4.78,4.49
	c-3.94,3.49-8.54,3.8-12.23,0.24c-9.79-9.47-19.46-19.06-28.98-28.79c-3.51-3.58-2.79-8.69,1.35-12.84
	c12.54-12.56,24.84-25.36,37.8-37.47c5.31-4.96,7.32-9.98,7.07-17.15c-0.53-15.67-0.16-31.37-0.16-47.05c0-1.5,0-2.99,0-5.6
	c-10.63,11.53-22.93,16.88-37.69,14.2c-10.22-1.86-18.6-7.34-24.77-15.81c-12.14-16.67-9.95-38.19,5.38-52.13
	c14.31-13.01,37.85-16.02,56.75,3.82c0.13-1.51,0.32-2.64,0.32-3.77c0.02-10.04,0.07-20.09-0.01-30.13
	c-0.04-5.29,1.36-9.43,7.03-11.17c0.84-0.26,1.72-1.95,1.77-3.02c0.73-13.84,1.61-14.71,15.55-14.71c23.39,0,46.79,0,70.18,0
	c8.3,0,11.07,2.78,11.1,11.15c0.01,1.92,0,3.84,0,6.04c7.93,1.42,9.3,6.83,9.05,13.79c-0.35,9.75-0.09,19.52-0.09,29.98
	c5.1-3.42,9.52-1.78,13.74,0.87c2.23,1.4,3.64,0.67,5.31-1.03c11.48-11.67,23.04-23.26,34.59-34.86c5.2-5.22,9.77-5.23,14.9-0.02
	c2.51,2.55,5.04,5.08,7.46,7.71c4.44,4.83,4.36,9.4-0.3,14.09c-11.45,11.51-22.91,23.01-34.44,34.43c-1.95,1.93-2.8,3.34-1.25,6.25
	c4.4,8.22,3.95,9.84-2.69,16.48c-11.49,11.47-22.93,22.99-34.5,34.37c-2.02,1.99-2.87,3.96-2.86,6.82
	c0.09,35.64,0.06,71.27,0.06,106.91c0,8.16-3.03,10.91-11.17,11.24c-12.49,0.5-15.56-2.03-15.35-15.42
	c0.39-24.9,0.11-49.81,0.11-74.71c0-1.46,0-2.93,0-4.39C176.06,187.44,175.75,187.32,175.43,187.2z M76.69,272.95
	c13.68-13.45,27-26.36,40.11-39.49c38.95-39.01,77.79-78.12,116.75-117.11c2.15-2.16,2.67-3.71,1.25-6.63
	c-4.06-8.32-11.07-14.02-17.77-19.72c-6.65-5.66-7.67-5.02-13.74,1.04c-50.24,50.07-100.47,100.15-150.76,150.17
	c-1.23,1.23-3.02,1.9-4.1,2.56C58.64,254.32,67.71,263.68,76.69,272.95z M132.51,48.6c-4.73,0-8.98,0.26-13.17-0.08
	c-3.9-0.32-4.79,1.13-4.77,4.85c0.13,36.28,0.08,72.56,0.09,108.85c0,1.16,0.15,2.32,0.23,3.48c0.35,0.22,0.69,0.45,1.04,0.67
	c4.6-4.85,9.11-9.79,13.85-14.5c2-1.99,2.81-4.01,2.8-6.86c-0.1-29.82-0.06-59.65-0.06-89.47C132.51,53.5,132.51,51.45,132.51,48.6z
	 M97.43,44.46c0,46.55,0,92.76,0,138.93c6.8-4.12,8.9-9.73,8.81-17.61c-0.45-38.78-0.2-77.57-0.2-116.36c0-1.6,0-3.2,0-4.96
	C102.88,44.46,100.3,44.46,97.43,44.46z M159.19,48.8c0,24.57,0,48.68,0,74.08c5.44-5.57,10.24-10.23,14.7-15.19
	c1.31-1.45,2.37-3.74,2.39-5.66c0.19-16.51,0.11-33.01,0.1-49.52c0-1.19-0.16-2.37-0.26-3.71C170.37,48.8,164.93,48.8,159.19,48.8z
	 M141.18,139.8c6.45-4.37,9.19-9.31,8.99-17.08c-0.62-24.58-0.23-49.18-0.23-73.78c0-1.46,0-2.92,0-4.39c-3.22,0-5.89,0-8.76,0
	C141.18,76.33,141.18,107.85,141.18,139.8z M193.63,169.83c-6.43,4.18-8.75,9.26-8.6,16.77c0.54,27.08,0.21,54.18,0.21,81.27
	c0,1.6,0,3.21,0,4.84c3.16,0,5.79,0,8.39,0C193.63,238.3,193.63,204.25,193.63,169.83z M264.38,49.99
	c-12.55,12.24-25.03,24.4-37.18,36.24c2.94,3.09,5.84,6.14,8.35,8.77c12.42-12.34,24.76-24.6,37.29-37.05
	C269.9,55.19,266.83,52.3,264.38,49.99z M140.97,272.8c3.31,0,5.99,0,8.68,0c0-19.81,0-39.35,0-58.89
	c-0.39-0.29-0.77-0.58-1.16-0.87c-1.03,1.44-1.8,3.22-3.14,4.26c-3.59,2.8-4.76,6.24-4.47,10.73c0.36,5.61,0.09,11.27,0.09,16.9
	C140.97,254.12,140.97,263.3,140.97,272.8z M150.03,34.26c3.19,2.18,5.82,5.48,8.29,5.36c7.45-0.34,15.32,3.11,22.42-2.7
	c4.51-3.7,5.4-4.16,3.82-9.79c-11.49,0-22.96,0-34.54,0C150.03,29.89,150.03,32.35,150.03,34.26z M70.3,78.06
	c-13.76,13.74-27.13,27.1-40.71,40.67c1,1.58,2.15,3.38,3.04,4.79c14.19-14.15,28.23-28.15,42.54-42.42
	C73.61,80.12,71.91,79.06,70.3,78.06z M105.59,27.02c0.51,3.16,0.04,7.17,1.5,8.08c4.16,2.57,8.17,6.27,14.01,5.02
	c3.01-0.65,6.47,0.55,9.39-0.28c3.6-1.03,6.87-3.27,10.22-5.09c0.28-0.15,0.23-1.03,0.23-1.57c0.02-2,0.01-4.01,0.01-6.15
	C130.13,27.02,117.82,27.02,105.59,27.02z M185.44,95.34c0.36,0.2,0.73,0.41,1.09,0.61c1.33-1.56,2.49-3.34,4.04-4.64
	c2.52-2.12,3.39-4.56,3.33-7.88c-0.2-11.53-0.07-23.07-0.09-34.6c0-1.45-0.12-2.89-0.18-4.25c-3.02,0-5.56,0-8.19,0
	C185.44,61.69,185.44,78.52,185.44,95.34z M82.22,88.19c-14.24,14.24-28.3,28.29-42.35,42.33c4.77,3.86,4.77,3.86,8.98-0.34
	c5.25-5.25,10.5-10.5,15.77-15.73c7-6.95,14.03-13.89,21.06-20.84C84.32,91.49,83.23,89.77,82.22,88.19z M26.87,106.37
	c10.42-10.32,21.03-20.83,31.4-31.11C38.84,73.85,24.87,93.08,26.87,106.37z M88.06,105.53c-10.36,10.23-20.98,20.72-31.4,31
	C73.32,138.08,89.45,121.95,88.06,105.53z M105.86,257.76c-8.34,5.5-9.91,8.5-8.17,15c2.69,0,5.35,0,8.17,0
	C105.86,267.69,105.86,262.94,105.86,257.76z"/>
</svg>
