<?xml version="1.0" encoding="utf-8"?>
<!-- Generator: Adobe Illustrator 27.6.1, SVG Export Plug-In . SVG Version: 6.00 Build 0)  -->
<svg version="1.1" id="Layer_1" xmlns="http://www.w3.org/2000/svg" xmlns:xlink="http://www.w3.org/1999/xlink" x="0px" y="0px"
	 viewBox="0 0 300 300" style="enable-background:new 0 0 300 300;" xml:space="preserve">
<style type="text/css">
	.st0{fill:url(#SVGID_1_);}
</style>
<linearGradient id="SVGID_1_" gradientUnits="userSpaceOnUse" x1="95.8258" y1="233.8531" x2="262.1331" y2="67.5457">
	<stop  offset="0" style="stop-color:#D33027"/>
	<stop  offset="0.0429" style="stop-color:#D53A27"/>
	<stop  offset="0.1132" style="stop-color:#D95228"/>
	<stop  offset="0.2022" style="stop-color:#E17A29"/>
	<stop  offset="0.3053" style="stop-color:#EBB12A"/>
	<stop  offset="0.4022" style="stop-color:#F6EC2C"/>
	<stop  offset="0.4804" style="stop-color:#F6EC2C"/>
	<stop  offset="0.5232" style="stop-color:#D9D230"/>
	<stop  offset="0.6185" style="stop-color:#9E9E39"/>
	<stop  offset="0.7106" style="stop-color:#6D7240"/>
	<stop  offset="0.7971" style="stop-color:#475045"/>
	<stop  offset="0.8766" style="stop-color:#2C3849"/>
	<stop  offset="0.9467" style="stop-color:#1B294C"/>
	<stop  offset="1" style="stop-color:#15244C"/>
</linearGradient>
<path class="st0" d="M237.6,261.13c-4.84,0-9.68-0.08-14.51,0.03c-3.49,0.07-5.2-2.02-5.13-5.16c0.08-3.42-0.11-6.84,0.06-10.26
	c0.16-3.35-0.54-6.48-1.54-9.62c-3.51-11-6.94-22.02-10.39-33.04c-0.75-2.4-1.5-4.8-2.24-7.21c-0.3-0.97-0.81-1.64-1.83-2.05
	c-6.43-2.59-12.83-5.24-19.24-7.88c-5.42-2.23-10.85-4.45-16.25-6.71c-0.91-0.38-1.27-0.16-1.71,0.7
	c-2.81,5.57-5.57,11.18-8.59,16.64c-3.59,6.48-9.18,10.49-16.3,12.51c-5.41,1.53-10.66,0.91-15.87-0.8
	c-5.37-1.76-10.74-3.54-16.1-5.32c-5.76-1.91-11.53-3.79-17.26-5.78c-1.03-0.36-1.53-0.13-2.14,0.65c-2.92,3.78-6.81,6.02-11.5,6.73
	c-1.54,0.23-3.18,0.15-4.74-0.09c-2.98-0.45-5.83-1.42-8.49-2.84c-1.48-0.79-2.16-2.57-1.65-4.41c0.5-1.79,1.15-3.54,1.77-5.29
	c2.76-7.72,5.53-15.44,8.32-23.15c0.24-0.68,0.58-1.33,0.96-1.94c1.11-1.78,2.85-2.4,4.83-1.72c11.22,3.83,22.44,7.68,33.66,11.52
	c5.84,1.99,11.68,3.98,17.54,5.93c1.33,0.44,1.33,0.32,1.91-0.93c2.69-5.86,5.41-11.7,8.14-17.55
	c5.74-12.31,11.48-24.63,17.22-36.94c2.98-6.37,5.95-12.75,8.95-19.11c1.48-3.13,0.57-5.97-2.55-7.42c-3.03-1.41-6.1-2.73-9.15-4.12
	c-0.69-0.31-1.16-0.2-1.75,0.31c-7.85,6.77-15.73,13.49-23.59,20.25c-3.55,3.05-7.64,4.23-12.15,3.08
	c-6.66-1.69-11.51-8.77-9.11-16.19c0.8-2.48,2.11-4.66,4.1-6.36c8.36-7.17,16.71-14.36,25.14-21.46c3.69-3.11,7.99-5.06,12.82-5.6
	c5.41-0.6,10.63,0.04,15.64,2.41c6.42,3.04,12.92,5.92,19.44,8.74c3.34,1.44,5.37,3.86,6.04,7.33c0.25,1.3,0.04,2.76-0.26,4.08
	c-0.69,2.96-0.31,5.78,0.85,8.5c1.74,4.07,6.48,5.42,10.59,2.9c1.67-1.02,3.18-2.44,4.47-3.94c1.79-2.09,3.61-3.94,6.46-4.51
	c2.13-0.42,4.03,0.14,5.91,0.99c5.41,2.44,10.79,4.93,16.22,7.33c3.17,1.4,2.21,1.63,4.91-0.84c7.03-6.44,14.03-12.91,21.06-19.35
	c2.55-2.34,5.53-3.83,9.05-3.77c4.84,0.09,8.64,2.27,11.17,6.39c2.99,4.88,2.28,11.06-1.8,15.51c-2.02,2.21-4.32,4.17-6.52,6.22
	c-5.45,5.05-10.91,10.08-16.36,15.12c-2.71,2.51-5.68,4.65-9.12,5.99c-4.34,1.7-8.89,2.51-13.5,1.57c-2.88-0.58-5.69-1.62-8.44-2.68
	c-2.76-1.06-5.41-2.43-8.12-3.62c-0.65-0.29-1.36-0.51-2.06-0.59c-3.19-0.39-4.61,0.35-5.96,3.24
	c-4.68,10.03-9.34,20.07-13.99,30.12c-0.73,1.58-0.71,1.61,0.94,2.29c5.66,2.36,11.37,4.63,16.99,7.1
	c6.09,2.67,10.62,7.09,13.3,13.18c1.34,3.05,2.22,6.3,3.23,9.48c2.23,7.03,4.42,14.07,6.61,21.11c2.1,6.78,4.18,13.57,6.26,20.35
	c0.35,1.15,0.64,2.33,1.06,3.45c0.14,0.38,0.58,0.77,0.97,0.92c2.39,0.92,4.77,1.84,6.73,3.56c3.76,3.29,6.05,7.31,6.19,12.39
	c0.06,1.93,0.11,3.87,0,5.79c-0.12,2.19-1.91,3.79-4.14,3.8c-5.15,0.02-10.3,0.01-15.44,0.01C237.6,261.1,237.6,261.12,237.6,261.13
	z M186.49,156.05c0.31-0.59,0.64-1.15,0.91-1.73c1.97-4.22,3.94-8.44,5.91-12.65c2.83-6.06,5.66-12.12,8.5-18.18
	c0.88-1.87,2.08-3.49,3.7-4.8c3.6-2.92,7.7-3.31,12.04-2.37c0.73,0.16,1.04-0.03,1.35-0.68c1.08-2.31,2.2-4.6,3.36-6.87
	c0.3-0.59,0.16-0.87-0.39-1.12c-1.66-0.76-3.31-1.55-4.98-2.3c-1-0.45-2.13-1.34-3-1.14c-0.87,0.2-1.49,1.51-2.22,2.33
	c-2.95,3.33-6.42,5.86-10.83,6.88c-7.3,1.68-13.78-1.29-17.09-8.01c-2.27-4.62-2.99-9.52-1.57-14.58c0.15-0.53,0.2-0.93-0.38-1.19
	c-3.08-1.39-6.15-2.79-9.23-4.19c-0.54-0.24-0.81-0.02-1.04,0.47c-0.93,2.04-1.91,4.06-2.84,6.1c-0.82,1.8-0.8,1.8,0.72,3.05
	c4.79,3.92,6.3,9.8,3.82,15.46c-1.94,4.42-4.03,8.77-6.07,13.15c-6.79,14.57-13.58,29.13-20.37,43.69c-1.55,3.31-3.1,6.62-4.66,9.93
	c-0.25,0.52-0.38,0.93,0.34,1.22c3.48,1.41,6.97,2.82,10.42,4.31c0.96,0.42,1.33,0.1,1.72-0.72c0.88-1.84,1.82-3.64,2.76-5.44
	c0.92-1.77,1.86-3.54,2.83-5.29c0.58-1.04,1.54-1.74,2.69-1.66c1.34,0.09,2.73,0.36,3.97,0.86c8.24,3.35,16.45,6.79,24.67,10.19
	c1.07,0.44,2.17,0.83,3.36,1.29c1.57-3.91,3.11-7.73,4.65-11.56c-0.23-0.14-0.34-0.23-0.46-0.28c-4.45-1.88-8.88-3.78-13.34-5.63
	c-5.92-2.46-11.87-4.86-17.79-7.33c-0.72-0.3-1.4-0.75-2.02-1.24c-1.3-1.02-1.8-2.64-1.26-4.18c0.55-1.55,1.63-2.66,3.34-2.64
	c1.21,0.01,2.48,0.24,3.6,0.69C176.54,151.84,181.42,153.93,186.49,156.05z M234.79,234.97c-0.06-0.34-0.07-0.58-0.14-0.8
	c-1.68-5.32-3.39-10.63-5.05-15.96c-2.11-6.74-4.16-13.5-6.27-20.23c-1.46-4.63-2.88-9.28-4.51-13.84
	c-1.77-4.95-5.54-8.03-10.26-10.06c-1.25-0.54-1.46-0.48-1.97,0.77c-1.31,3.22-2.53,6.48-3.81,9.72c-0.2,0.51-0.08,0.74,0.41,0.94
	c0.86,0.35,1.69,0.78,2.56,1.12c3.06,1.2,4.89,3.44,5.82,6.55c1.05,3.53,2.2,7.03,3.3,10.55c1.68,5.36,3.35,10.72,5.02,16.07
	c1.47,4.7,2.96,9.4,4.4,14.1c0.25,0.82,0.64,1.15,1.53,1.11c2-0.08,4.01-0.04,6.01-0.04C232.79,234.96,233.75,234.97,234.79,234.97z
	 M95.88,180.14c-1.12,3.04-2.19,5.97-3.29,8.97c0.21,0.09,0.46,0.21,0.71,0.29c10.43,3.49,20.85,6.99,31.28,10.44
	c2.91,0.96,5.79,1.95,8.96,1.86c7.4-0.21,12.65-3.72,16.16-10.1c0.4-0.72,0.25-1.16-0.48-1.46c-1.34-0.55-2.67-1.11-4.01-1.66
	c-2.29-0.94-4.57-1.88-6.9-2.84c-0.2,0.35-0.39,0.68-0.57,1c-1.91,3.33-5.22,4.96-8.99,4.26c-1.58-0.3-3.1-0.89-4.64-1.39
	c-4.85-1.59-9.69-3.18-14.53-4.79C105.03,183.2,100.49,181.68,95.88,180.14z M164.56,81.85c-3.36-1.58-6.59-3.08-10.41-3.25
	c-5.15-0.22-9.58,1.12-13.47,4.47c-7.64,6.58-15.33,13.1-22.97,19.68c-0.88,0.76-1.7,1.65-2.3,2.63c-1.71,2.82,0.07,6.35,3.33,6.79
	c1.55,0.21,2.93-0.12,4.14-1.16c5.38-4.61,10.75-9.21,16.15-13.79c3.05-2.59,6.08-5.21,9.23-7.69c1.78-1.41,3.96-1.89,6.18-1.3
	c1.94,0.52,3.81,1.31,5.97,2.08C161.72,87.61,163.12,84.77,164.56,81.85z M225.93,119.97c0.92,0.42,1.68,0.74,2.42,1.1
	c3.83,1.85,7.87,2.58,12.07,1.94c3.95-0.6,7.22-2.65,10.11-5.32c6.77-6.25,13.54-12.52,20.29-18.79c0.91-0.84,1.81-1.72,2.56-2.7
	c1.33-1.74,1.25-4.49-0.06-5.86c-1.86-1.96-4.1-2.38-6.22-0.86c-1.76,1.26-3.33,2.78-4.93,4.25c-6.22,5.73-12.39,11.52-18.66,17.19
	c-1.12,1.01-2.53,1.88-3.95,2.33c-2.19,0.68-4.43,0.35-6.54-0.67c-1-0.49-2.06-0.85-3.06-1.25
	C228.55,114.33,227.25,117.13,225.93,119.97z M79.11,174.2c-0.03,0.05-0.11,0.17-0.15,0.29c-1.77,4.89-3.54,9.77-5.31,14.66
	c-0.69,1.91-1.38,3.82-2.04,5.74c-0.19,0.54-0.31,1.09,0.52,1.26c5.05,1.02,9.13-0.85,11.16-5.42c0.74-1.66,1.28-3.41,1.9-5.13
	c0.98-2.71,1.95-5.43,2.93-8.15C85.07,176.35,82.11,175.28,79.11,174.2z M226.33,252.8c7.26,0,14.4-0.02,21.55,0.02
	c1.03,0.01,1.23-0.35,1.14-1.26c-0.41-4.58-4.18-8.2-8.79-8.29c-3.73-0.07-7.46-0.03-11.18-0.04c-0.89,0-1.78,0-2.72,0
	C226.33,246.45,226.33,249.57,226.33,252.8z M234.99,55.18c0,3.76,0.12,7.53-0.03,11.29c-0.22,5.63-2.54,10.41-6.49,14.37
	c-3.44,3.44-7.63,5.65-12.46,6.21c-13.54,1.59-24.3-8.58-24.76-21c-0.15-4.02-0.29-8.12,0.25-12.09c0.95-6.93,5.04-11.6,11.66-14.02
	c2.31-0.84,4.68-1.11,7.12-1.1c6.32,0.03,12.65,0.01,18.97,0.02c0.45,0,0.9,0.01,1.35,0.03c2.54,0.11,4.31,1.67,4.38,4.18
	C235.08,47.1,235,51.14,234.99,55.18C235,55.18,234.99,55.18,234.99,55.18z M226.71,47.2c-0.49,0-0.86,0-1.23,0
	c-5.59,0-11.19,0-16.78,0c-4.75,0-8.79,3.4-9.15,8.12c-0.29,3.77-0.32,7.6,0.01,11.37c0.81,9.28,10.08,14.63,18.52,11.36
	c5.47-2.12,8.46-6.33,8.62-12.23c0.15-5.59,0.02-11.18,0.02-16.77C226.71,48.47,226.71,47.9,226.71,47.2z M79.53,132.59
	c-18.52,0-37.04,0-55.55,0c-0.93,0-1.87-0.04-2.8,0.01c-2.73,0.15-4.39,2.59-3.58,5.2c0.6,1.93,2.33,3.08,4.65,3.08
	c38.11,0,76.21,0,114.32,0c0.17,0,0.35,0.01,0.52,0c2.82-0.13,4.69-2.5,4.16-5.26c-0.37-1.89-1.83-3.03-3.98-3.03
	C118.02,132.58,98.78,132.59,79.53,132.59C79.53,132.59,79.53,132.59,79.53,132.59z M92.92,158.69c11.47,0,22.94,0,34.4-0.01
	c0.58,0,1.18-0.04,1.75-0.16c1.99-0.42,3.53-2.3,3.49-4.2c-0.04-1.85-1.63-3.55-3.67-3.87c-0.75-0.12-1.51-0.18-2.27-0.18
	c-22.69-0.01-45.39-0.01-68.08,0c-0.76,0-1.52,0.06-2.27,0.2c-1.64,0.31-3.01,1.83-3.29,3.58c-0.2,1.25,0.79,3.27,2.16,3.83
	c1.12,0.46,2.38,0.76,3.58,0.77C70.12,158.7,81.52,158.68,92.92,158.69C92.92,158.68,92.92,158.68,92.92,158.69z M75.1,123.03
	c5.6,0,11.19,0,16.79,0c0.48,0,0.97-0.03,1.44-0.11c2.18-0.34,3.62-2.04,3.56-4.14c-0.07-2.07-1.66-3.8-3.74-4.02
	c-0.72-0.08-1.45-0.13-2.17-0.13c-10.85-0.01-21.69-0.01-32.54,0c-0.69,0-1.38,0.05-2.06,0.15c-2.49,0.39-4.05,3.39-2.94,5.63
	c0.98,1.98,2.69,2.63,4.78,2.63C63.84,123.02,69.47,123.02,75.1,123.03C75.1,123.03,75.1,123.03,75.1,123.03z M86.25,96.92
	c-2.45,0-4.91-0.13-7.35,0.04c-2.02,0.14-3.61,2.12-3.58,4.06c0.02,1.93,1.56,3.72,3.52,4.02c0.82,0.12,1.65,0.17,2.47,0.18
	c3.35,0.02,6.7,0.02,10.05,0c0.79-0.01,1.59-0.06,2.37-0.21c1.69-0.33,3.1-2.06,3.15-3.78c0.07-2.51-1.63-4.31-4.31-4.41
	c-2.1-0.08-4.21-0.02-6.32-0.02C86.25,96.84,86.25,96.88,86.25,96.92z M34.78,114.55c-1.62,0.07-3.25,0.06-4.85,0.23
	c-2.06,0.22-3.64,2.02-3.64,3.99c0,2,1.62,3.98,3.67,4.06c3.23,0.13,6.48,0.13,9.71,0c2.08-0.08,3.56-1.92,3.56-4
	c0-2.19-1.44-3.9-3.59-4.07c-1.61-0.12-3.24-0.02-4.86-0.02C34.78,114.68,34.78,114.62,34.78,114.55z"/>
</svg>
