<?xml version="1.0" encoding="utf-8"?>
<!-- Generator: Adobe Illustrator 27.6.1, SVG Export Plug-In . SVG Version: 6.00 Build 0)  -->
<svg version="1.1" id="Layer_1" xmlns="http://www.w3.org/2000/svg" xmlns:xlink="http://www.w3.org/1999/xlink" x="0px" y="0px"
	 viewBox="0 0 300 300" style="enable-background:new 0 0 300 300;" xml:space="preserve">
<style type="text/css">
	.st0{fill:url(#SVGID_1_);}
</style>
<linearGradient id="SVGID_1_" gradientUnits="userSpaceOnUse" x1="61.1981" y1="227.839" x2="243.5773" y2="45.4597">
	<stop  offset="0" style="stop-color:#D33027"/>
	<stop  offset="0.0429" style="stop-color:#D53A27"/>
	<stop  offset="0.1132" style="stop-color:#D95228"/>
	<stop  offset="0.2022" style="stop-color:#E17A29"/>
	<stop  offset="0.3053" style="stop-color:#EBB12A"/>
	<stop  offset="0.4022" style="stop-color:#F6EC2C"/>
	<stop  offset="0.4804" style="stop-color:#F6EC2C"/>
	<stop  offset="0.5232" style="stop-color:#D9D230"/>
	<stop  offset="0.6185" style="stop-color:#9E9E39"/>
	<stop  offset="0.7106" style="stop-color:#6D7240"/>
	<stop  offset="0.7971" style="stop-color:#475045"/>
	<stop  offset="0.8766" style="stop-color:#2C3849"/>
	<stop  offset="0.9467" style="stop-color:#1B294C"/>
	<stop  offset="1" style="stop-color:#15244C"/>
</linearGradient>
<path class="st0" d="M31.88,156.94c5.01-4.12,9.65-8.82,15.08-12.26c19.3-12.2,40.44-19.8,62.91-23.69
	c6.34-1.1,12.75-1.76,19.39-2.65c-0.16-1.82-0.32-3.78-0.51-5.73c-1.26-12.82-1.11-25.63-0.07-38.46
	c0.95-11.74,2.89-23.29,5.66-34.73c0.73-3.02,2.1-4.99,5.36-5.41c3.8-0.49,7.58-1.13,11.36-1.72c0.59-0.09,1.16-0.29,1.74-0.44
	c5.23,0,10.46,0,15.69,0c3.96,0.44,7.93,0.87,11.89,1.31c13.79,1.53,27.21,4.66,40.23,9.42c14.99,5.48,29.34,12.22,41.85,22.35
	c6.54,5.3,6.61,5.42,4.16,13.38c-8.13,26.4-20.36,50.69-37.77,72.2c-8.12,10.03-17.3,19-28.82,25.19
	c-8.2,4.41-16.86,6.98-26.32,5.76c-0.38-0.05-0.76-0.01-1.54-0.01c0,1.01,0.01,1.97,0,2.92c-0.18,12.64-1.51,25.14-4.64,37.41
	c-3,11.79-7.5,22.86-15.52,32.28c-10.8,12.69-27.32,17.26-43.19,11.92c-10.14-3.41-18.6-9.44-26.2-16.73
	c-18.62-17.87-31.47-39.61-41.43-63.16c-3.22-7.61-5.6-15.57-8.37-23.37c-0.3-0.85-0.64-1.69-0.96-2.54
	C31.88,159.09,31.88,158.02,31.88,156.94z M139.49,58.59c-0.76,9.31-1.74,18.33-2.17,27.37c-0.71,14.72,0.23,29.36,3.5,43.76
	c2.39,10.54,5.87,20.66,12.39,29.5c9.38,12.72,24.01,16.54,38.45,10.09c11.6-5.18,20.67-13.53,28.64-23.1
	c17.43-20.95,29.47-44.81,37.51-70.77c0.46-1.47,0.14-2.29-1.01-3.1c-3.19-2.26-6.23-4.78-9.56-6.83
	c-17.39-10.68-36.24-17.59-56.27-21.36c-13.05-2.46-26.17-3.48-39.44-2.67c-8.16,0.5-8.5,0.63-9.7,7.06
	c-0.01,0.06,0.04,0.13,0.12,0.35c3.23-0.3,6.49-0.69,9.77-0.87c3.2-0.18,5.35,1.62,5.45,4.3c0.11,2.73-1.79,4.57-5,4.9
	C148.14,57.64,144.1,58.09,139.49,58.59z M147.9,168.03c-2.23-3.36-4.6-6.57-6.58-10.01c-5.12-8.86-8.07-18.54-10.1-28.51
	c-0.28-1.4-0.8-1.77-2.13-1.61c-4.35,0.53-8.72,0.85-13.05,1.49c-17.27,2.54-33.81,7.56-49.56,15.09
	c-8.2,3.92-16.08,8.38-23.06,14.27c-0.65,0.55-1.4,1.64-1.28,2.33c0.37,2,1.16,3.93,1.83,6.06c2.86-2.05,5.5-4.04,8.25-5.87
	c2.86-1.91,6.17-0.97,7.25,1.94c0.78,2.11,0.08,4.14-2.14,5.8c-2.83,2.12-5.66,4.24-8.59,6.22c-1.3,0.88-1.41,1.68-0.77,3.03
	c3.37,7.15,6.46,14.44,10.03,21.48c7.3,14.41,16.31,27.68,27.57,39.32c7,7.23,14.74,13.5,24.22,17.28
	c10.92,4.35,21.19,3.4,30.6-3.94c6.57-5.12,10.65-12.06,13.74-19.6c6.91-16.86,8.54-34.64,8.83-52.62c0.01-0.53-0.17-1.33-0.54-1.56
	c-2.41-1.46-4.9-2.8-7.62-4.33c-0.28,0.39-0.49,0.82-0.82,1.14c-6.19,6.11-13.58,8.55-22.12,6.82c-6.72-1.36-11.95-5.08-15.59-10.93
	c-1.52-2.43-1.09-5.09,0.97-6.58c2.13-1.55,4.79-1.02,6.65,1.33c0.33,0.42,0.6,0.89,0.92,1.32
	C130.54,175.23,141.91,175.48,147.9,168.03z M191.72,148.2c2.82-1.22,5.49-3.1,7.77-5.18c2.44-2.24,1.59-5.9-1.29-7.3
	c-2.31-1.12-4.15-0.13-5.85,1.37c-2.49,2.21-5.4,3.51-8.72,3.7c-7.1,0.4-12.51-3.32-15.15-10.3c-1.22-3.23-3.53-4.63-6.1-3.69
	c-2.78,1.01-3.73,3.47-2.63,6.82c3.21,9.82,12.37,16.5,22.7,16.91C185.55,149.79,188.83,149.45,191.72,148.2z M147.24,76.87
	c-3.88,1.5-5.1,4.09-3.85,6.86c1.24,2.75,3.85,3.28,7.71,1.55c8.5-3.79,17.98,0.69,20.38,9.68c0.33,1.25,0.38,2.57,0.61,3.86
	c0.5,2.89,2.49,4.67,4.91,4.43c2.71-0.27,4.47-2.53,4.32-5.56c-0.65-12.99-11.18-23.07-24.2-23.56
	C153.81,75.02,150.4,75.65,147.24,76.87z M198.8,110.05c2.17,0.73,4.07,0.06,5.64-2.39c6.02-9.42,19.41-9.18,25.2,0.16
	c1.69,2.72,4.48,3.28,6.71,1.71c2.24-1.58,2.6-4.24,0.92-6.93c-9.3-14.95-31.49-14.88-40.65,0.14c-0.5,0.83-0.79,1.79-0.98,2.24
	C195.64,107.76,196.63,109.32,198.8,110.05z M170.45,52.82c0.04-2.77-1.95-4.79-4.74-4.79c-2.66,0-4.63,1.99-4.59,4.66
	c0.03,2.66,1.99,4.54,4.73,4.55C168.42,57.25,170.41,55.34,170.45,52.82z M141.23,222.99c-5.7-5.13-12.4-7.12-20.01-6.01
	c-8.91,1.3-16.97,8.46-19.23,17.1c-0.72,2.75,0.41,5.06,2.89,5.94c2.4,0.85,4.77-0.36,5.87-3.02c0.21-0.49,0.34-1.02,0.54-1.52
	c3.6-9.37,15.27-12.51,23.09-6.21c0.72,0.58,1.4,1.23,2.19,1.67c3.1,1.72,6.99-0.61,6.85-4.82
	C142.95,225.41,142.31,223.96,141.23,222.99z M98.01,176.39c0.1-2.65-0.89-4.37-2.97-5.16c-3.34-1.26-6.06,1.02-6.35,5.32
	c-0.44,6.46-4.92,11.71-11.23,13.26c-3.86,0.95-7.4,0.12-10.92-1.5c-2.63-1.21-5.19-0.31-6.32,1.96c-1.18,2.37-0.23,4.92,2.4,6.36
	c3.57,1.96,7.4,2.91,11.47,2.87C87.07,199.48,97.51,189.38,98.01,176.39z M71.43,158.3c0.01-2.44-2.06-4.55-4.52-4.6
	c-2.76-0.05-4.98,2.01-4.99,4.63c-0.02,2.5,1.99,4.56,4.48,4.6C69.09,162.98,71.42,160.83,71.43,158.3z"/>
</svg>
