<?xml version="1.0" encoding="utf-8"?>
<!-- Generator: Adobe Illustrator 27.6.1, SVG Export Plug-In . SVG Version: 6.00 Build 0)  -->
<svg version="1.1" id="Layer_1" xmlns="http://www.w3.org/2000/svg" xmlns:xlink="http://www.w3.org/1999/xlink" x="0px" y="0px"
	 viewBox="0 0 300 300" style="enable-background:new 0 0 300 300;" xml:space="preserve">
<style type="text/css">
	.st0{fill:url(#SVGID_1_);}
</style>
<linearGradient id="SVGID_1_" gradientUnits="userSpaceOnUse" x1="58.2256" y1="265.832" x2="249.717" y2="74.3406">
	<stop  offset="0" style="stop-color:#D33027"/>
	<stop  offset="0.0429" style="stop-color:#D53A27"/>
	<stop  offset="0.1132" style="stop-color:#D95228"/>
	<stop  offset="0.2022" style="stop-color:#E17A29"/>
	<stop  offset="0.3053" style="stop-color:#EBB12A"/>
	<stop  offset="0.4022" style="stop-color:#F6EC2C"/>
	<stop  offset="0.4804" style="stop-color:#F6EC2C"/>
	<stop  offset="0.5232" style="stop-color:#D9D230"/>
	<stop  offset="0.6185" style="stop-color:#9E9E39"/>
	<stop  offset="0.7106" style="stop-color:#6D7240"/>
	<stop  offset="0.7971" style="stop-color:#475045"/>
	<stop  offset="0.8766" style="stop-color:#2C3849"/>
	<stop  offset="0.9467" style="stop-color:#1B294C"/>
	<stop  offset="1" style="stop-color:#15244C"/>
</linearGradient>
<path class="st0" d="M154.04,38.33c-0.92-0.37-1.51-0.37-2.46,0.02c-32.06,13.87-64.15,27.7-96.25,41.49
	c-0.91,0.39-1.03,0.59-1.03,1.65c0.04,8.95,0.04,17.9,0.04,26.85c0.01,6.97,0.01,13.92,0.02,20.89c0.01,1.62-0.32,3.29-2.69,4.44
	c-6.84,3.33-10.39,8.79-10.58,16.22c-0.19,7.74-0.14,15.62-0.1,23.25c0.01,2.93,0.04,5.87,0.04,8.8h12.95l0.23,2.12
	c0.06,0.49,0.11,0.91,0.11,1.33c0.01,25.53,0.01,51.04,0.01,76.55H251.3c-0.01-0.42-0.02-0.85-0.02-1.27l-0.01-128.7h-39.74
	l-0.16-2.37c-0.04-0.55-0.08-1.05-0.08-1.55l0.01-6.59c0-4.75,0.01-9.5-0.06-14.25c-0.04-2.72,1.47-3.73,2.96-4.36
	c13.05-5.53,26.07-11.13,39.09-16.73l5.73-2.47L232.01,72C206.02,60.79,180.02,49.57,154.04,38.33z M64.83,91.83l2.69,0.91
	c0.41,0.12,0.79,0.25,1.16,0.4l4.44,1.89c6.21,2.64,12.4,5.29,18.58,8c1.02,0.45,2.54,1.82,2.56,3.33
	c0.09,6.27,0.09,12.55,0.07,18.95v6.46h-29.5V91.83z M51.64,171.78l-0.19-1.94c-0.05-0.4-0.09-0.79-0.09-1.17l-0.01-2.76
	c-0.01-5.07-0.02-10.15,0.01-15.23c0.01-2.52,0.92-4.8,2.57-6.41c1.5-1.47,3.54-2.09,5.68-2.24c4.62,0.07,8.01,3.69,8.05,8.59
	c0.03,4.53,0.02,9.06,0.02,13.68l-0.01,7.49H51.64z M240.8,142.17V251.7H64.78v-69.67h13.25c-0.11-4.65-0.06-9.31-0.01-13.82
	c0.08-7.99,0.16-16.27-0.63-24.31l-0.17-1.76H95l-0.65,2.07c-0.59,1.89-0.14,2.26,2.44,3.32l0.67,0.27
	c17.94,7.65,35.86,15.33,53.77,23.05c1.21,0.52,2.03,0.54,3.11,0.07c18.09-7.83,36.21-15.62,54.35-23.32
	c2.84-1.2,3.17-1.47,2.49-3.25l-0.83-2.17H240.8z M104.66,108.56l2.22,0.95c6.45,2.74,12.48,5.31,18.51,7.89l1.66,0.71
	c8.13,3.48,16.27,6.97,24.39,10.51c1.03,0.45,1.71,0.44,2.69,0.04c9.92-4.3,19.86-8.55,29.79-12.8l12.33-5.29
	c0.55-0.24,1.11-0.46,1.8-0.74l2.9-1.16l-0.01,15.03c-0.01,4.38-0.02,8.74,0.04,13.11c0.02,2.04-0.8,3.32-2.69,4.13
	c-6.71,2.84-13.41,5.71-20.12,8.58c-7.69,3.28-15.38,6.57-23.09,9.82c-0.64,0.27-1.48,0.45-2.36,0.45c-0.66,0-1.35-0.1-1.96-0.36
	c-7.9-3.34-15.82-6.72-23.72-10.1c-6.48-2.77-12.96-5.53-19.45-8.28c-2.12-0.9-3.01-2.27-2.99-4.6c0.07-5.61,0.06-11.21,0.05-16.8
	L104.66,108.56z M228.9,85.36c-0.52,0.27-0.94,0.5-1.38,0.7l-7.97,3.42c-21.44,9.19-42.87,18.39-64.34,27.53
	c-0.72,0.31-1.58,0.46-2.42,0.46c-0.77,0-1.51-0.12-2.13-0.39c-18.92-8.04-37.81-16.13-56.7-24.22l-16.19-6.93
	c-0.35-0.16-0.66-0.32-1.09-0.56l-3.65-1.96L98.27,72.5c17.41-7.52,34.81-15.02,52.25-22.49c1.38-0.59,3.24-0.6,4.53-0.04
	c21.49,9.2,42.97,18.47,64.44,27.75l7.98,3.44c0.4,0.17,0.8,0.36,1.28,0.6l3.68,1.75L228.9,85.36z"/>
</svg>
