<?xml version="1.0" encoding="utf-8"?>
<!-- Generator: Adobe Illustrator 27.6.1, SVG Export Plug-In . SVG Version: 6.00 Build 0)  -->
<svg version="1.1" id="Layer_1" xmlns="http://www.w3.org/2000/svg" xmlns:xlink="http://www.w3.org/1999/xlink" x="0px" y="0px"
	 viewBox="0 0 300 300" style="enable-background:new 0 0 300 300;" xml:space="preserve">
<style type="text/css">
	.st0{fill:#D33027;}
</style>
<g>
	<path class="st0" d="M78.89,246.52c4.86,14.57,17.81,23.98,33,23.99c0.01,0,0.01,0,0.01,0c15.2,0,28.16-9.39,33.01-23.93
		c1.37-4.06,4.14-4.63,6.68-4.63c0.02,0,0.04,0,0.05,0c14.24,0.05,28.5,0.05,42.71,0.03l26.14,0.01
		c14.27,0.02,28.56,0.02,42.84-0.08c1.54-0.01,3.4-0.56,4.72-1.4c2.18-1.39,3.07-4.22,2.16-6.89c-1.03-2.96-3.26-4.46-6.64-4.47
		h-9.33c-34.25-0.02-68.46-0.01-102.68,0.04c-0.02,0-0.03,0-0.05,0c-2.35,0-5.23-0.55-6.62-4.7c-4.88-14.5-17.85-23.86-33.04-23.86
		c-0.01,0-0.02,0-0.04,0c-14.93,0.02-28.19,9.68-32.97,24.05c-1.05,3.15-3.22,4.48-6.21,4.51c-11.35-0.08-22.68-0.05-34.04-0.03
		l-1.9,0.01c-1,0-1.95,0.02-2.68,0.22c-3.1,0.88-4.98,3.83-4.58,7.18c0.36,3.03,3.19,5.41,6.45,5.42
		c12.17,0.04,24.34,0.06,36.52-0.02c0.04,0,0.09,0,0.13,0C74.81,241.95,77.55,242.51,78.89,246.52z M96.33,220.06
		c4.22-4.24,9.76-6.58,15.59-6.58c0.02,0,0.03,0,0.05,0c12.06,0.03,21.95,9.87,22.04,21.94c0.05,5.83-2.26,11.38-6.49,15.63
		c-4.22,4.25-9.76,6.59-15.59,6.59c-0.02,0-0.03,0-0.05,0c-11.86-0.04-21.95-10.09-22.04-21.95
		C89.8,229.86,92.11,224.3,96.33,220.06z"/>
	<path class="st0" d="M144.85,53.25c-4.9-14.44-17.87-23.76-33.06-23.76c-0.03,0-0.05,0-0.08,0c-14.85,0.03-28.02,9.62-32.77,23.88
		c-1.39,4.17-4.17,4.46-6.71,4.68c-10.19-0.08-20.36-0.07-30.54-0.04l-5.09,0.01c-4.36,0.01-7.17,2.52-7.18,6.41
		c0,3.9,2.81,6.42,7.17,6.43l2.09,0.01c11.19,0.02,22.36,0.03,33.54-0.04c0.03,0,0.06,0,0.09,0c2.39,0,5.26,0.56,6.62,4.67
		c4.75,14.25,17.92,23.85,32.77,23.88c0.03,0,0.05,0,0.08,0c15.2,0,28.17-9.32,33.06-23.76c1.43-4.22,4.26-4.81,6.86-4.81
		c0.02,0,0.04,0,0.05,0c14.33,0.07,28.65,0.06,42.96,0.05l27.59-0.01c13.73,0.01,27.44-0.01,41.16,0.03c0.01,0,0.03,0,0.04,0
		c3.21,0,5.21-1.2,6.47-3.88c0.93-1.98,0.83-4.04-0.29-5.8c-1.26-1.99-3.59-3.18-6.23-3.18c-37.23-0.02-74.48-0.02-111.71,0.04
		C148.9,58.24,146.29,57.5,144.85,53.25z M111.95,86.52c-0.07,0-0.13,0-0.2,0c-5.78-0.05-11.47-2.53-15.6-6.78
		c-4.18-4.29-6.41-9.85-6.31-15.65c0.22-11.89,10.55-21.74,22.25-21.73c5.79,0.05,11.48,2.52,15.62,6.78
		c4.17,4.28,6.4,9.84,6.29,15.64C133.78,76.6,123.7,86.52,111.95,86.52z"/>
	<path class="st0" d="M36.45,156.42c37.34,0.01,74.67,0.01,112.01-0.02c0.02,0,0.04,0,0.05,0c2.31,0,5.12,0.53,6.45,4.54
		c4.78,14.35,18.03,24,32.97,24.02c0.01,0,0.02,0,0.03,0c15.2,0,28.16-9.38,33.02-23.9c1.39-4.15,4.19-4.43,6.71-4.66
		c10.69,0.07,21.38,0.04,32.07,0.04l3.56-0.01c4.36-0.01,7.17-2.53,7.17-6.43c-0.01-3.83-2.89-6.4-7.19-6.41l-7.25-0.01
		c-9.36-0.03-18.71-0.04-28.07,0.07c-3.65,0.13-5.93-1.49-7.12-4.96c-4.9-14.35-17.82-23.62-32.91-23.62c-0.01,0-0.02,0-0.04,0
		c-14.88,0.01-28.08,9.56-32.85,23.76c-1.42,4.21-4.24,4.8-6.83,4.8c-0.03,0-0.06,0-0.1,0c-14.56-0.07-29.12-0.07-43.7-0.05
		l-68.29,0.01c-2.05,0-3.77,0.67-5,1.93c-1.18,1.22-1.78,2.89-1.72,4.84C29.54,153.92,32.42,156.42,36.45,156.42z M172.57,134.32
		c4.27-4.2,10.15-6.67,15.65-6.4c11.88,0.14,21.89,10.28,21.86,22.12c-0.03,11.86-10.08,21.95-21.95,22.04c-0.05,0-0.1,0-0.15,0
		c-5.78,0-11.27-2.31-15.49-6.51c-4.26-4.24-6.59-9.79-6.58-15.62C165.92,144.09,168.29,138.54,172.57,134.32z"/>
</g>
</svg>
