<?xml version="1.0" encoding="utf-8"?>
<!-- Generator: Adobe Illustrator 27.6.1, SVG Export Plug-In . SVG Version: 6.00 Build 0)  -->
<svg version="1.1" id="Layer_1" xmlns="http://www.w3.org/2000/svg" xmlns:xlink="http://www.w3.org/1999/xlink" x="0px" y="0px"
	 viewBox="0 0 300 300" style="enable-background:new 0 0 300 300;" xml:space="preserve">
<style type="text/css">
	.st0{fill:url(#SVGID_1_);}
</style>
<linearGradient id="SVGID_1_" gradientUnits="userSpaceOnUse" x1="55.382" y1="257.8971" x2="244.6146" y2="68.6645">
	<stop  offset="0" style="stop-color:#D33027"/>
	<stop  offset="0.0429" style="stop-color:#D53A27"/>
	<stop  offset="0.1132" style="stop-color:#D95228"/>
	<stop  offset="0.2022" style="stop-color:#E17A29"/>
	<stop  offset="0.3053" style="stop-color:#EBB12A"/>
	<stop  offset="0.4022" style="stop-color:#F6EC2C"/>
	<stop  offset="0.4804" style="stop-color:#F6EC2C"/>
	<stop  offset="0.5232" style="stop-color:#D9D230"/>
	<stop  offset="0.6185" style="stop-color:#9E9E39"/>
	<stop  offset="0.7106" style="stop-color:#6D7240"/>
	<stop  offset="0.7971" style="stop-color:#475045"/>
	<stop  offset="0.8766" style="stop-color:#2C3849"/>
	<stop  offset="0.9467" style="stop-color:#1B294C"/>
	<stop  offset="1" style="stop-color:#15244C"/>
</linearGradient>
<path class="st0" d="M203.32,32.37c0.81,0.37,1.64,0.71,2.43,1.11c4.57,2.31,7.04,6.04,7.16,11.16c0.11,4.66,0.02,9.32,0.02,14.29
	c3.06,0,5.94,0,8.83,0c2.83,0,5.67-0.06,8.5,0.04c6.61,0.25,11.64,5.44,11.64,12.06c0.02,47.48,0.01,94.95,0.01,142.43
	c0,2.7-1.24,4.25-3.38,4.29c-2.22,0.04-3.49-1.55-3.49-4.4c0-46.86,0.01-93.73-0.07-140.59c0-1.78-0.72-3.71-1.62-5.27
	c-0.49-0.85-2.05-1.49-3.15-1.52c-5.65-0.15-11.31-0.07-17.26-0.07c0,1.11-0.06,2.08,0.01,3.04c0.75,9.61-5.95,14.74-12.44,14.7
	c-6.67-0.04-13.05-5.39-12.33-14.59c0.08-0.97,0.01-1.95,0.01-3.04c-8.62,0-17.02,0-25.81,0c0,1.52,0.01,3.08,0,4.65
	c-0.04,7.35-5.35,12.96-12.31,13.02c-6.98,0.07-12.41-5.65-12.44-13.12c-0.01-1.45,0-2.89,0-4.51c-8.58,0-17.04,0-25.81,0
	c0,1.7,0.03,3.44,0,5.17c-0.12,6.95-5.65,12.49-12.41,12.46c-6.78-0.03-12.24-5.58-12.33-12.54c-0.02-1.67,0-3.34,0-5.22
	c-6,0-11.8-0.13-17.59,0.06c-2.73,0.09-4.48,2.55-4.5,5.72c-0.04,5.28,0,10.57-0.02,15.85c-0.01,2.71-1.25,4.21-3.43,4.21
	c-2.18,0.01-3.44-1.5-3.44-4.19c-0.01-5.51-0.03-11.03,0-16.54c0.04-6.61,5.05-11.87,11.65-12.04c5.65-0.14,11.31-0.03,17.32-0.03
	c0-2.07,0-3.95,0-5.83c0-2.91-0.11-5.83,0.03-8.73c0.26-5.2,2.82-8.93,7.58-11.11c0.67-0.31,1.34-0.62,2.01-0.93
	c1.84,0,3.68,0,5.52,0c0.53,0.26,1.04,0.55,1.58,0.77c4.88,1.94,7.92,6.26,8.03,11.49c0.04,2.29,0.01,4.59,0.01,6.88
	c0,2.41,0,4.83,0,7.25c8.78,0,17.22,0,25.81,0c0-4.83-0.09-9.49,0.02-14.14c0.13-5.11,2.6-8.83,7.16-11.14
	c0.79-0.4,1.62-0.74,2.43-1.11c1.84,0,3.68,0,5.52,0c2.25,1.48,4.76,2.69,6.68,4.52c2.23,2.11,2.95,5.09,2.94,8.19
	c-0.02,4.56,0,9.11,0,13.68c8.77,0,17.22,0,25.81,0c0-4.83-0.09-9.49,0.03-14.14c0.13-5.1,2.6-8.83,7.16-11.14
	c0.79-0.4,1.62-0.74,2.43-1.11C199.64,32.37,201.48,32.37,203.32,32.37z M104.87,57.93c0-4.2,0.06-8.41-0.02-12.61
	c-0.06-3.64-2.4-6.12-5.5-6.05c-3.04,0.07-5.29,2.49-5.31,6.01c-0.06,8.48-0.12,16.97,0.07,25.44c0.04,1.57,0.94,3.39,2.01,4.61
	c1.41,1.62,3.55,1.64,5.52,0.79c2.32-1,3.19-2.98,3.21-5.36C104.9,66.49,104.86,62.21,104.87,57.93z M155.43,58.1
	c0-4.2,0.04-8.41-0.01-12.61c-0.05-3.69-2.22-6.16-5.34-6.22c-3.18-0.06-5.41,2.5-5.49,6.3c-0.02,0.84,0,1.68,0,2.52
	c0,7.41-0.02,14.82,0.01,22.24c0.02,3.66,1.83,5.94,4.77,6.21c3.55,0.32,5.96-1.93,6.05-5.84C155.5,66.51,155.43,62.3,155.43,58.1z
	 M195.16,57.94c0,4.36-0.09,8.71,0.03,13.07c0.1,3.46,2.29,5.58,5.41,5.56c3.03-0.01,5.29-2.06,5.34-5.39
	c0.12-8.79,0.08-17.57,0.02-26.36c-0.01-2.21-1.03-3.99-3.1-4.98c-3.7-1.78-7.55,0.8-7.68,5.27
	C195.06,49.38,195.15,53.67,195.16,57.94z M229.56,267.62c7.09,0,12.33-5.25,12.35-12.31c0.03-8.04,0.01-16.08,0-24.12
	c0-2.67-1.27-4.28-3.37-4.33c-2.17-0.05-3.5,1.61-3.5,4.43c-0.01,7.35,0,14.7,0,22.05c0,5.72-1.68,7.41-7.37,7.41
	c-51.78,0-103.55,0-155.33,0c-5.69,0-7.37-1.69-7.37-7.41c0-49.01,0-98.02,0-147.03c0-0.84,0.1-1.71-0.06-2.52
	c-0.35-1.81-1.6-2.85-3.38-2.84c-1.78,0-3.02,1.03-3.38,2.85c-0.13,0.67-0.05,1.37-0.05,2.06c0,49.55,0,99.09,0,148.64
	c0,8.15,4.98,13.12,13.15,13.13c26.19,0,52.39,0,78.58,0C176.41,267.63,202.98,267.64,229.56,267.62z M170.45,159.74
	c11.94,0,23.89-0.04,35.83,0.01c8.06,0.04,13.45,7.31,10.76,14.53c-1.47,3.96-4.36,6.38-8.61,7c-0.98,0.14-1.98,0.21-2.97,0.21
	c-23.27,0.01-46.55,0.02-69.82,0c-6.02,0-10.26-2.8-11.75-7.67c-2.2-7.19,3.09-14.05,10.96-14.09
	C146.72,159.7,158.59,159.74,170.45,159.74z M170.57,174.44c11.56,0,23.13,0,34.69,0c0.77,0,1.55,0.07,2.29-0.08
	c1.98-0.38,3.09-1.66,3.12-3.67c0.03-2.01-1.01-3.35-3.01-3.74c-0.89-0.18-1.83-0.14-2.75-0.14c-22.9-0.01-45.8-0.01-68.7,0
	c-0.92,0-1.85-0.02-2.75,0.13c-2.1,0.36-3.37,2.33-2.95,4.42c0.41,2.05,1.82,3.06,4.43,3.07
	C146.83,174.45,158.7,174.44,170.57,174.44z M170.65,227.12c-11.94,0-23.89,0.04-35.83-0.01c-7.77-0.04-13.08-6.76-10.94-13.88
	c1.3-4.33,4.29-6.96,8.82-7.64c1.2-0.18,2.44-0.22,3.66-0.22c22.89-0.01,45.78-0.02,68.67,0.02c1.74,0,3.55,0.12,5.2,0.63
	c5.23,1.6,8.19,6.73,7.29,12.25c-0.82,5.06-5.41,8.82-11.04,8.85C194.54,227.15,182.59,227.12,170.65,227.12z M170.46,212.41
	c-11.49,0-22.98,0-34.46,0c-3.79,0-5.62,1.28-5.58,3.87c0.04,2.58,1.83,3.77,5.7,3.77c22.98,0,45.95,0,68.93,0
	c0.92,0,1.86,0.04,2.74-0.16c1.88-0.42,2.88-1.71,2.9-3.61c0.02-2.02-1.05-3.32-3.01-3.76c-0.81-0.18-1.68-0.1-2.52-0.1
	C193.59,212.41,182.02,212.41,170.46,212.41z M170.47,135.84c-11.87,0-23.73,0.03-35.6-0.01c-5.6-0.02-9.7-3.02-11.04-7.89
	c-1.93-7,3.23-13.72,10.65-13.73c17.3-0.04,34.6-0.01,51.9-0.01c6.89,0,13.78-0.05,20.67,0.02c5.3,0.06,9.88,4.12,10.5,9.14
	c0.71,5.72-2.45,10.68-7.86,12.1c-1.38,0.36-2.88,0.38-4.32,0.38C193.74,135.86,182.1,135.85,170.47,135.84z M170.46,128.9
	c9.72,0,19.43,0,29.15,0c2.29,0,4.59,0.03,6.88-0.01c2.59-0.05,4.21-1.56,4.21-3.85c0-2.15-1.55-3.67-3.99-3.88
	c-0.53-0.05-1.07-0.02-1.61-0.02c-23.03,0-46.05,0-69.08,0.01c-0.91,0-1.85,0.03-2.72,0.24c-2,0.48-2.95,1.92-2.84,3.88
	c0.11,1.98,1.31,3.21,3.28,3.57c0.67,0.12,1.37,0.05,2.06,0.05C147.36,128.9,158.91,128.9,170.46,128.9z M92.23,210.14
	c-1.4-2.16-3.22-2.74-5-1.66c-1.85,1.12-2.21,3.15-0.86,5.4c1.81,3.01,3.66,6,5.52,8.98c2.15,3.45,4.43,3.65,7.04,0.54
	c5.02-5.97,9.99-11.98,14.98-17.98c1.91-2.29,3.86-4.55,5.69-6.91c1.36-1.75,1.15-3.62-0.36-4.91c-1.49-1.26-3.41-1.12-4.91,0.45
	c-0.79,0.83-1.49,1.74-2.22,2.63c-5.33,6.4-10.65,12.81-16.15,19.41C94.64,213.98,93.47,212.04,92.23,210.14z M92.18,118.76
	c-1.36-2.07-3.31-2.62-5.07-1.51c-1.72,1.09-2.06,3.12-0.79,5.25c1.85,3.08,3.75,6.13,5.65,9.18c2.07,3.31,4.42,3.49,6.89,0.53
	c3.83-4.58,7.63-9.18,11.45-13.78c3.08-3.71,6.21-7.38,9.23-11.15c1.47-1.84,1.21-3.77-0.44-5.06c-1.58-1.23-3.32-1.02-4.89,0.64
	c-0.47,0.5-0.89,1.05-1.33,1.58c-5.58,6.71-11.15,13.42-16.93,20.37C94.6,122.64,93.43,120.67,92.18,118.76z M92.15,164.2
	c-1.35-2.05-3.33-2.57-5.08-1.43c-1.64,1.07-2.02,3.08-0.83,5.07c2,3.35,4.03,6.68,6.14,9.96c1.63,2.54,4.12,2.71,6.08,0.38
	c6.99-8.33,13.93-16.7,20.85-25.08c1.66-2.01,1.57-3.87-0.06-5.28c-1.68-1.45-3.56-1.13-5.37,0.92c-0.35,0.4-0.68,0.82-1.03,1.24
	c-5.58,6.71-11.15,13.42-16.9,20.32C94.57,168.09,93.4,166.12,92.15,164.2z"/>
</svg>
