<?xml version="1.0" encoding="utf-8"?>
<!-- Generator: Adobe Illustrator 27.6.1, SVG Export Plug-In . SVG Version: 6.00 Build 0)  -->
<svg version="1.1" id="Layer_1" xmlns="http://www.w3.org/2000/svg" xmlns:xlink="http://www.w3.org/1999/xlink" x="0px" y="0px"
	 viewBox="0 0 300 300" style="enable-background:new 0 0 300 300;" xml:space="preserve">
<style type="text/css">
	.st0{fill:#FFFFFF;}
</style>
<path class="st0" d="M48.87,212.79c1.03-2.18,1.77-4.56,3.15-6.49c2.72-3.8,6.64-5.71,11.35-5.73c8.42-0.05,16.85-0.01,25.27-0.01
	c0.71,0,1.41,0,2.34,0c0-0.97,0-1.74,0-2.52c0.04-11.32-0.29-22.65,0.19-33.95c0.8-18.75,9.06-33.89,24.18-44.9
	c34.91-25.4,83.87-6.2,92.51,36.18c0.86,4.22,1.05,8.61,1.12,12.93c0.16,9.93,0.05,19.87,0.05,29.81c0,0.71,0,1.43,0,2.34
	c0.84,0.04,1.53,0.1,2.22,0.1c8.29,0.01,16.58-0.01,24.88,0.01c8.58,0.02,14.97,6.38,15,14.93c0.02,6.78,0.01,13.55,0,20.33
	c-0.01,7.56-4.19,12.95-11.54,14.93c-0.24,0.07-0.46,0.23-0.7,0.34c-59.26,0-118.51,0-177.77,0c-2.02-0.91-4.16-1.6-6.02-2.77
	c-3.47-2.17-5.14-5.67-6.22-9.48C48.87,230.17,48.87,221.48,48.87,212.79z M103.8,200.43c30.92,0,61.63,0,92.4,0
	c0.03-0.57,0.07-1.03,0.07-1.48c0-11.32,0.01-22.64-0.04-33.96c-0.01-1.83-0.18-3.69-0.49-5.49c-4.45-25.37-27.13-41.95-52.52-38.42
	c-22.09,3.07-39.26,22.47-39.46,44.7c-0.1,11.06-0.03,22.11-0.03,33.17C103.73,199.4,103.77,199.86,103.8,200.43z M150.15,213.18
	c-28.43,0-56.86,0-85.29,0c-2.73,0-3.35,0.62-3.35,3.37c-0.01,6.18-0.01,12.37,0,18.55c0,2.74,0.62,3.37,3.35,3.37
	c56.79,0,113.58,0,170.37,0c2.59,0,3.25-0.67,3.26-3.27c0.01-6.12,0-12.24,0-18.36c0-3.14-0.52-3.66-3.65-3.66
	C206.61,213.18,178.38,213.18,150.15,213.18z M48.87,151.58c1.48,3.53,4.09,4.99,7.93,4.78c3.6-0.2,7.23-0.03,10.85-0.05
	c3.71-0.02,6.46-2.67,6.49-6.21c0.04-3.65-2.72-6.38-6.5-6.4c-3.62-0.02-7.24,0.16-10.85-0.05c-3.84-0.22-6.47,1.21-7.92,4.78
	C48.87,149.47,48.87,150.52,48.87,151.58z M143.69,84.18c0.01,3.98,2.66,6.88,6.28,6.9c3.63,0.02,6.33-2.88,6.34-6.84
	c0.01-9.54,0.01-19.08,0-28.62c0-3.98-2.66-6.75-6.39-6.72c-3.64,0.03-6.22,2.77-6.23,6.67c-0.01,4.8,0,9.61,0,14.41
	C143.69,74.71,143.68,79.45,143.69,84.18z M105.74,96.86c-2.93-3.2-6.09-6.19-9.16-9.25c-3.81-3.81-7.59-7.66-11.46-11.42
	c-2.6-2.52-6.39-2.46-8.86-0.02c-2.53,2.49-2.55,6.32-0.03,9.02c0.54,0.58,1.11,1.12,1.67,1.68c6.37,6.37,12.74,12.75,19.12,19.11
	c2.04,2.03,4.5,2.41,7.09,1.33c2.48-1.03,3.68-3.06,4.2-6.01C107.47,99.8,106.87,98.09,105.74,96.86z M202.82,106.06
	c1.31-0.96,2.37-2.27,3.53-3.43c5.82-5.81,11.66-11.59,17.43-17.46c2.55-2.59,2.51-6.38,0.11-8.87c-2.37-2.45-6.26-2.76-8.71-0.36
	c-7.23,7.09-14.39,14.26-21.49,21.49c-1.89,1.92-2,4.41-0.94,6.8c1.05,2.37,3.03,3.55,5.84,4.01
	C200,107.53,201.55,106.98,202.82,106.06z M244.91,156.3c3.54-0.06,6.21-2.81,6.21-6.31c0-3.49-2.69-6.26-6.22-6.3
	c-4.28-0.04-8.56-0.04-12.84,0c-3.55,0.04-6.21,2.78-6.21,6.3c0,3.5,2.68,6.24,6.21,6.31c2.11,0.04,4.21,0.01,6.32,0.01
	C240.56,156.31,242.73,156.34,244.91,156.3z M117.55,170.52c1.41,2.39,4.32,3.18,6.92,2.38c2.82-0.87,4.4-3.25,4.56-6.64
	c0.42-8.49,4.42-14.8,12.13-18.32c2.9-1.32,6.29-1.61,9.5-2.17c3.47-0.6,5.78-3.19,5.64-6.67c-0.15-3.84-3.36-6.26-7.94-5.99
	c-17.45,1.03-30.98,14.54-32.48,32.14C116.42,167.02,116.64,168.97,117.55,170.52z"/>
</svg>
