<?xml version="1.0" encoding="utf-8"?>
<!-- Generator: Adobe Illustrator 27.6.1, SVG Export Plug-In . SVG Version: 6.00 Build 0)  -->
<svg version="1.1" id="Layer_1" xmlns="http://www.w3.org/2000/svg" xmlns:xlink="http://www.w3.org/1999/xlink" x="0px" y="0px"
	 viewBox="0 0 300 300" style="enable-background:new 0 0 300 300;" xml:space="preserve">
<style type="text/css">
	.st0{fill:#D33027;}
</style>
<path class="st0" d="M249.74,192.23c4.89-8.3,7.33-18.02,7.47-29.7c0.21-17-2.97-34.31-9.43-51.45
	c-7.59-20.12-16.55-35.29-28.19-47.75c-8.01-8.58-15.69-13.92-24.15-16.79c-11.69-3.96-23.01-0.9-30.28,8.22
	c-0.58,0.73-1.1,1.49-1.61,2.25c-0.8,1.17-1.6,2.33-2.54,3.38c-14.59,16.35-31.6,30.81-52.03,44.19
	c-18.34,12.03-35.42,21.01-52.2,27.45c-5.94,2.28-9.68,5.97-11.42,11.3c-1.54,4.73-2.4,9.12-2.54,13.03
	c-0.46,12.98,3.03,25.89,10.67,39.44c4.47,7.94,9.67,13.73,15.89,17.69c5.26,3.35,9.99,4.46,14.89,3.5l23.28-4.5
	c0.49-0.1,0.95-0.14,1.39-0.14c2.11,0,3.68,1.09,4.69,3.25c2.57,5.51,5.18,11.02,7.8,16.51l5.38,11.34c0.86,1.82,2.04,2.87,3.95,3.5
	c5.81,1.92,11.59,3.92,17.37,5.92l5.77,1.99c1.19,0.41,2.36,0.36,3.3-0.12c0.84-0.44,1.44-1.22,1.72-2.25
	c0.35-1.24,0.43-2.85,0.24-4.54c-1.16-9.8-2.39-19.59-3.63-29.47l-1.58-12.62l2.92-0.24c18.57-1.58,35.37-1.96,51.36-1.2
	c3.13,0.15,6.25,0.53,9.36,0.9c1.83,0.22,3.67,0.44,5.5,0.62c2.08,0.19,3.94,0.31,5.7,0.23
	C237.71,205.58,244.57,201.02,249.74,192.23z M143.2,241.1c-2.34-0.71-4.55-1.4-6.74-2.12c-1.18-0.38-2.26-1.36-2.77-2.49
	c-3.29-7.23-6.54-14.48-9.78-21.73l-0.88-1.97l0.54-3.04l2.07-0.51l19.18-2.52l4.55,36.26L143.2,241.1z M186.5,195.93
	c-3.69-0.04-7.21-0.05-10.73,0.04c-31.4,0.9-62.26,4.9-91.71,11.91c-1.12,0.27-2.22,0.41-3.28,0.41c-3.09,0-5.88-1.12-8.05-3.28
	c-3.38-3.36-7.22-7.16-10.13-11.49c-7.9-11.74-11.57-24.6-10.9-38.18c0.1-2.04,0.44-4.27,1.05-6.81c0.91-3.82,3.25-6.45,7.17-8.04
	c32.17-13.01,61.75-31.34,87.92-54.48l2.35-1.82l4-1.84l0.32,4.25c-0.12,40.66,12.83,74.9,39.59,104.67l4.21,4.69L186.5,195.93z
	 M164.04,101.53l3.84,0.83c5.04,1.09,8.18,3.89,10.11,5.91c7.72,8.1,12.87,18.36,15.74,31.36c1.94,8.79,2.07,15.6,0.42,22.11
	c-0.3,1.19-0.8,2.34-1.36,3.64l-2.77,6.8l-2.94-4.65c-12.67-20.03-20.06-40.34-22.59-62.1L164.04,101.53z M240.08,189.08
	c-3.72,5.38-8.48,8.1-14.18,8.1c-2.12,0-4.37-0.38-6.75-1.13c-4.66-1.46-9.08-4.05-13.53-7.91c-2.26-1.97-4.41-4.05-6.59-6.18
	l-5-4.81l2.07-2.04c6.33-6.22,8.91-14.03,8.4-25.34c-0.21-4.55-0.94-9.37-2.16-14.31c-3.06-12.34-8.89-23.38-17.32-32.81
	c-5.45-6.11-11.4-9.14-18.72-9.54l-2.97-0.16l0.55-4.99c1.01-9.18,2.06-18.67,8.24-26.78c4.98-6.53,11.51-8.65,19.42-6.25
	c9,2.71,15.48,8.61,20.63,14.02c10.52,11.06,18.72,24.55,25.79,42.45c5.03,12.74,8.04,24.37,9.18,35.55
	c1.39,13.5,0.38,24.5-3.16,34.62C243.1,184.09,241.78,186.63,240.08,189.08z"/>
</svg>
