<?xml version="1.0" encoding="utf-8"?>
<!-- Generator: Adobe Illustrator 27.6.1, SVG Export Plug-In . SVG Version: 6.00 Build 0)  -->
<svg version="1.1" id="Layer_1" xmlns="http://www.w3.org/2000/svg" xmlns:xlink="http://www.w3.org/1999/xlink" x="0px" y="0px"
	 viewBox="0 0 300 300" style="enable-background:new 0 0 300 300;" xml:space="preserve">
<style type="text/css">
	.st0{fill:url(#SVGID_1_);}
</style>
<linearGradient id="SVGID_1_" gradientUnits="userSpaceOnUse" x1="47.9211" y1="252.0626" x2="239.0941" y2="60.8896">
	<stop  offset="0" style="stop-color:#D33027"/>
	<stop  offset="0.0429" style="stop-color:#D53A27"/>
	<stop  offset="0.1132" style="stop-color:#D95228"/>
	<stop  offset="0.2022" style="stop-color:#E17A29"/>
	<stop  offset="0.3053" style="stop-color:#EBB12A"/>
	<stop  offset="0.4022" style="stop-color:#F6EC2C"/>
	<stop  offset="0.4804" style="stop-color:#F6EC2C"/>
	<stop  offset="0.5232" style="stop-color:#D9D230"/>
	<stop  offset="0.6185" style="stop-color:#9E9E39"/>
	<stop  offset="0.7106" style="stop-color:#6D7240"/>
	<stop  offset="0.7971" style="stop-color:#475045"/>
	<stop  offset="0.8766" style="stop-color:#2C3849"/>
	<stop  offset="0.9467" style="stop-color:#1B294C"/>
	<stop  offset="1" style="stop-color:#15244C"/>
</linearGradient>
<path class="st0" d="M148.43,279.88c-2.78-1.48-3.66-3.8-3.6-6.91c0.16-7.52,0.04-15.05,0.06-22.57c0.01-3.69,1.98-6,5.06-6
	c3.07,0,5.05,2.31,5.06,6c0.02,7.52-0.1,15.05,0.06,22.57c0.07,3.11-0.81,5.43-3.6,6.91C150.46,279.88,149.45,279.88,148.43,279.88z
	 M57.6,236.24c0-47.86-0.01-95.72,0.01-143.57c0-5.76,2.99-8.72,8.73-8.81c3.54-0.06,7.11,0.05,10.63-0.28
	c2.83-0.26,4.48-2.38,4.47-4.93c-0.01-2.45-1.62-4.74-4.27-4.81c-5.45-0.14-11.07-0.52-16.34,0.57c-8.42,1.74-13.33,8.88-13.34,17.7
	c-0.02,23.93-0.01,47.86-0.01,71.79c0,28.16,0.01,56.31-0.02,84.47c0,2.04,0.28,3.88,2.03,5.18c2.09,1.55,4.64,1.28,7.15-0.83
	c9.9-8.32,19.81-16.63,29.66-25.01c1.37-1.17,2.73-1.65,4.55-1.65c47.35,0.05,94.7,0.04,142.05,0.04c12.2,0,19.55-7.35,19.55-19.55
	c0-37.71-0.17-75.42,0.11-113.13c0.08-10.7-7.08-20.01-19.92-19.97c-37.88,0.12-75.76,0.04-113.64,0.06c-1,0-2.03,0.09-3,0.32
	c-2.6,0.6-4.15,2.59-4.07,5.05c0.09,2.39,1.66,4.22,4.17,4.69c1.15,0.22,2.35,0.28,3.52,0.28c37.71,0.01,75.42,0.01,113.13,0.01
	c6.77,0,9.56,2.79,9.56,9.53c0,33.15,0,66.29,0,99.44c0,0.9,0,1.79,0,2.86c-1.24,0-2.16,0-3.07,0c-9.39,0-18.77,0-28.16,0
	c-0.59,0-1.18-0.01-1.78,0c-3.51,0.06-5.76,2.02-5.78,5.03c-0.02,3,2.25,5.08,5.71,5.09c10.06,0.03,20.12,0.01,30.19,0.01
	c0.9,0,1.81,0,2.68,0c0.67,6.59-2.6,10.16-9.05,10.16c-48.03,0.01-96.05,0.03-144.08-0.06c-3.29-0.01-5.78,0.96-8.22,3.07
	c-7.47,6.47-15.09,12.78-23.16,19.58C57.6,237.37,57.6,236.8,57.6,236.24z M156.36,170.16c0.01,5.75,1.5,7.28,7.14,7.27
	c3.55,0,7.12,0.14,10.65-0.13c8.42-0.65,14.82-4.71,19.16-11.96c4.02-6.71,3.86-14.12,2.95-21.43
	c-1.34-10.74-7.61-17.82-18.05-20.37c-4.83-1.18-10.06-0.78-15.11-0.9c-4.93-0.12-6.71,1.72-6.73,6.68
	c-0.03,6.85-0.01,13.7-0.01,20.55C156.36,156.63,156.35,163.4,156.36,170.16z M166.71,133.18c11.53-2.12,19.77,3.97,19.73,14.86
	c-0.01,2.36,0.01,4.75-0.31,7.08c-0.96,7.05-6.34,11.85-13.42,12.12c-1.92,0.07-3.85,0.01-6,0.01
	C166.71,155.64,166.71,144.4,166.71,133.18z M130.56,165.1c0.9,2.63,1.77,5.27,2.68,7.9c1.22,3.52,3.76,5.13,6.67,4.24
	c2.99-0.91,4.23-3.85,3.01-7.48c-4.77-14.3-9.58-28.59-14.39-42.89c-0.82-2.44-2.33-4.19-5.07-4.21c-2.72-0.02-4.28,1.61-5.12,4.11
	c-4.85,14.45-9.74,28.89-14.57,43.36c-1.09,3.26,0.21,6.12,2.99,7.06c2.79,0.94,5.46-0.56,6.66-3.84c0.87-2.37,1.56-4.82,2.52-7.15
	c0.27-0.66,1.2-1.45,1.85-1.47c4.13-0.13,8.27-0.07,12.47-0.07C130.47,164.97,130.53,165.03,130.56,165.1z M119.91,154.29
	c1.13-3.39,2.21-6.6,3.49-10.44c1.27,3.74,2.33,6.88,3.53,10.44C124.39,154.29,122.32,154.29,119.91,154.29z M144.9,49.94
	c0.04,3.43,2.16,5.7,5.16,5.64c2.9-0.06,4.93-2.29,4.94-5.6c0.04-8.03,0.03-16.07,0-24.1c-0.01-3.51-2.02-5.74-5.04-5.75
	c-3.03-0.01-5.04,2.22-5.07,5.72c-0.04,3.97-0.01,7.95-0.01,11.92C144.89,41.82,144.86,45.88,144.9,49.94z M207.98,30.25
	c-2.33-1.1-4.32-0.32-6,1.34c-5.71,5.65-11.41,11.31-17.03,17.04c-2.36,2.41-2.4,5.35-0.37,7.45c2.09,2.16,5.14,2.1,7.64-0.35
	c5.66-5.57,11.29-11.18,16.84-16.87c0.99-1.02,1.51-2.51,1.88-3.16C210.93,32.71,209.92,31.17,207.98,30.25z M208.73,260.79
	c-4.82-4.98-9.76-9.84-14.67-14.73c-0.96-0.95-1.89-1.97-2.98-2.73c-3.27-2.27-7.8-0.25-7.82,3.69c0,1.62,1.07,3.56,2.24,4.8
	c5.18,5.45,10.57,10.7,15.91,16.01c0.59,0.59,1.24,1.44,1.95,1.55c1.65,0.25,3.6,0.64,4.97-0.01c1.35-0.64,2.12-2.49,3.34-4.08
	C210.52,263.49,209.84,261.93,208.73,260.79z M89.48,32.78c-1.31,2.19-0.38,4.38,1.39,6.15c5.57,5.55,11.1,11.14,16.69,16.66
	c2.55,2.52,5.48,2.67,7.65,0.57c2.16-2.09,2.13-5.14-0.33-7.64c-5.56-5.67-11.18-11.29-16.87-16.84c-1.03-1-2.49-1.55-4.31-2.64
	C92.16,30.36,90.36,31.3,89.48,32.78z M91.93,269.76c2.31,1.07,4.31,0.32,6-1.35c5.64-5.59,11.28-11.2,16.86-16.86
	c2.5-2.54,2.62-5.49,0.52-7.64c-2.18-2.24-5.17-2.09-7.82,0.54c-5.53,5.47-11.04,10.96-16.48,16.52c-1.01,1.03-1.61,2.45-2.02,3.1
	C88.91,267.16,89.89,268.81,91.93,269.76z M188.53,195.68c-2.69,0.01-4.98,2.25-5.05,4.93c-0.07,2.77,2.29,5.17,5.07,5.16
	c2.72-0.01,4.96-2.21,5.02-4.93C193.63,198,191.35,195.67,188.53,195.68z M96.77,73.58c-2.74-0.06-5.2,2.41-5.14,5.19
	c0.05,2.74,2.34,4.95,5.09,4.93c2.76-0.02,5-2.26,5.02-5C101.74,76.02,99.43,73.64,96.77,73.58z"/>
</svg>
