<?xml version="1.0" encoding="utf-8"?>
<!-- Generator: Adobe Illustrator 27.6.1, SVG Export Plug-In . SVG Version: 6.00 Build 0)  -->
<svg version="1.1" id="Layer_1" xmlns="http://www.w3.org/2000/svg" xmlns:xlink="http://www.w3.org/1999/xlink" x="0px" y="0px"
	 viewBox="0 0 300 300" style="enable-background:new 0 0 300 300;" xml:space="preserve">
<style type="text/css">
	.st0{fill:url(#SVGID_1_);}
</style>
<linearGradient id="SVGID_1_" gradientUnits="userSpaceOnUse" x1="39.6836" y1="246.2904" x2="247.7159" y2="38.2581">
	<stop  offset="0" style="stop-color:#D33027"/>
	<stop  offset="0.0429" style="stop-color:#D53A27"/>
	<stop  offset="0.1132" style="stop-color:#D95228"/>
	<stop  offset="0.2022" style="stop-color:#E17A29"/>
	<stop  offset="0.3053" style="stop-color:#EBB12A"/>
	<stop  offset="0.4022" style="stop-color:#F6EC2C"/>
	<stop  offset="0.4804" style="stop-color:#F6EC2C"/>
	<stop  offset="0.5232" style="stop-color:#D9D230"/>
	<stop  offset="0.6185" style="stop-color:#9E9E39"/>
	<stop  offset="0.7106" style="stop-color:#6D7240"/>
	<stop  offset="0.7971" style="stop-color:#475045"/>
	<stop  offset="0.8766" style="stop-color:#2C3849"/>
	<stop  offset="0.9467" style="stop-color:#1B294C"/>
	<stop  offset="1" style="stop-color:#15244C"/>
</linearGradient>
<path class="st0" d="M207.39,229.34c1.21,0,2.14,0,3.07,0c7.74,0,15.47,0,23.21,0c4.42,0,5.5,1.05,5.43,5.57
	c-0.05,3.12,0.07,6.29-0.48,9.33c-1.67,9.23-9.6,15.78-18.99,15.78c-52.67,0.03-105.35,0.03-158.02,0
	c-10.88-0.01-19.57-8.63-19.57-19.55c-0.05-65.27-0.03-130.54-0.02-195.8c0-3.28,1.34-4.65,4.55-4.65
	c52.15-0.01,104.31-0.01,156.46,0c3.01,0,4.27,1.28,4.36,4.25c0.03,0.87,0.01,1.74,0.01,2.61c0,59.62,0,119.24,0,178.86
	C207.39,226.85,207.39,227.96,207.39,229.34z M199.9,229.34c0-60.81,0-121.25,0-181.79c-50.17,0-100.18,0-150.5,0
	c0,1.1,0,2.03,0,2.96c0,62.75,0,125.49,0.01,188.24c0,1.3,0.09,2.61,0.3,3.89c0.92,5.66,5.82,9.86,11.63,10.03
	c5.55,0.16,10.9-3.86,11.92-9.34c0.52-2.79,0.43-5.7,0.48-8.55c0.08-4.48,0.99-5.43,5.55-5.43c39.11,0,78.23,0,117.34,0
	C197.65,229.34,198.68,229.34,199.9,229.34z M231.59,236.87c-50.23,0-100.3,0-150.57,0c0.46,5.68-0.49,10.87-4.14,15.82
	c1.5,0,2.42,0,3.34,0c45.78,0,91.57,0,137.35,0C227.5,252.68,232.57,247.06,231.59,236.87z M221.37,117.44
	c0-20.6,0.25-41.21-0.11-61.8c-0.17-10.12,7.4-16.37,15.7-15.63c1.55,0.14,3.14,0.13,4.69,0c10.06-0.82,16.43,6.58,16.34,16.12
	c-0.3,29.29-0.11,58.58-0.11,87.88c0,12.34,0.04,24.69-0.05,37.03c-0.01,1.59-0.36,3.3-1.02,4.74c-4.33,9.56-8.78,19.06-13.2,28.58
	c-0.82,1.77-1.64,3.49-4.02,3.5c-2.38,0.01-3.22-1.69-4.04-3.47c-4.3-9.28-8.68-18.53-12.87-27.86c-0.79-1.75-1.25-3.81-1.26-5.72
	C221.34,159.68,221.37,138.56,221.37,117.44z M235.75,179.12c0-35.96,0-71.69,0-107.52c-2.41,0-4.62,0-6.88,0
	c0,35.92,0,71.67,0,107.52C231.19,179.12,233.34,179.12,235.75,179.12z M243.5,71.56c0,36.05,0,71.79,0,107.45c2.41,0,4.62,0,6.78,0
	c0-35.93,0-71.66,0-107.45C247.9,71.56,245.76,71.56,243.5,71.56z M250.51,63.94c0-1.17,0.01-2.1,0-3.04
	c-0.03-2.51,0.1-5.05-0.16-7.54c-0.38-3.58-2.76-5.74-6.44-5.92c-2.86-0.14-5.73-0.13-8.59,0c-3.48,0.16-6.14,2.16-6.43,5.33
	c-0.34,3.67-0.08,7.39-0.08,11.17C236.04,63.94,243.05,63.94,250.51,63.94z M230.85,186.64c2.93,6.31,5.71,12.28,8.74,18.81
	c3.05-6.58,5.82-12.57,8.71-18.81C242.34,186.64,236.82,186.64,230.85,186.64z M181.57,71.33c0,5.97-0.03,11.94,0.01,17.91
	c0.02,3.06,1.36,4.64,3.72,4.61c2.34-0.03,3.69-1.69,3.69-4.69c0.02-9.38-0.01-18.76,0.02-28.14c0.01-2.09-0.48-3.86-2.6-4.61
	c-2.18-0.77-3.56,0.51-4.83,2.11c-3,3.78-6.08,7.5-9.25,11.4c-3.27-4.02-6.35-7.76-9.37-11.55c-1.22-1.53-2.6-2.7-4.65-1.98
	c-2.12,0.74-2.63,2.47-2.61,4.59c0.06,7.21,0.02,14.42,0.02,21.63c0,2.61-0.09,5.22,0.05,7.81c0.11,2.15,1.78,3.58,3.81,3.43
	c2.12-0.16,3.34-1.34,3.44-3.51c0.06-1.21,0.04-2.43,0.04-3.65c0-5.17,0-10.33,0-15.5c2.28,1.91,3.98,4.05,5.74,6.13
	c2.44,2.89,4.67,2.89,7.08,0.01c1.72-2.05,3.37-4.15,5.06-6.23C181.15,71.17,181.36,71.25,181.57,71.33z M143.54,78.81
	c-3.74,0-7.1,0-10.83,0c0,3.5,0.01,6.94,0,10.37c-0.02,3.05-1.29,4.64-3.67,4.66c-2.38,0.01-3.64-1.55-3.65-4.64
	c-0.02-9.47-0.02-18.93,0-28.4c0.01-3.44,1.23-4.61,4.75-4.62c5.38-0.01,10.77-0.02,16.15,0c3.26,0.01,4.62,1.33,4.63,4.55
	c0.03,9.55,0.03,19.1,0,28.66c-0.01,2.8-1.39,4.41-3.66,4.45c-2.31,0.04-3.67-1.48-3.71-4.33C143.5,86.05,143.54,82.59,143.54,78.81
	z M143.36,71.22c0-2.69,0-5.07,0-7.54c-3.6,0-7.01,0-10.45,0c0,2.62,0,5.07,0,7.54C136.47,71.22,139.82,71.22,143.36,71.22z
	 M178.89,165.55c0.87,0,1.76,0.05,2.59-0.15c1.9-0.46,3.03-1.66,2.98-3.7c-0.05-1.91-1.1-3.07-2.93-3.46
	c-0.84-0.18-1.72-0.19-2.59-0.19c-24.86-0.01-49.72-0.01-74.58,0c-0.95,0-2.15-0.18-2.79,0.31c-1.11,0.86-2.32,2.05-2.67,3.32
	c-0.49,1.8,0.76,3.14,2.57,3.62c0.9,0.24,1.89,0.25,2.83,0.25c12.34,0.02,24.69,0.01,37.03,0.01
	C153.86,165.56,166.37,165.56,178.89,165.55z M82.18,63.48c2.35-0.03,3.94-1.59,3.93-3.63c-0.01-2.05-1.59-3.63-3.94-3.65
	c-5.91-0.06-11.81-0.04-17.72-0.01c-2.38,0.01-3.83,1.32-3.85,3.68c-0.07,10.07-0.07,20.15-0.02,30.22
	c0.01,2.37,1.41,3.74,3.77,3.77c5.99,0.07,11.99,0.05,17.98,0c2.26-0.02,3.54-1.38,3.76-3.56c0.2-1.99-1.52-3.7-3.82-3.79
	c-2.78-0.11-5.56-0.03-8.34-0.04c-1.95,0-3.91,0-5.76,0c0-2.83,0-5.21,0-7.8c4.62,0,9.04,0.14,13.44-0.09
	c1.36-0.07,3.14-0.82,3.9-1.86c1.74-2.37-0.3-5.33-3.57-5.39c-4.58-0.08-9.15-0.02-13.85-0.02c0-2.69,0-5.08,0-7.82
	C73,63.5,77.59,63.55,82.18,63.48z M103.06,194.39c-2.87,0-4.32,1.32-4.26,3.73c0.06,2.25,1.52,3.54,4.22,3.54
	c25.73,0.01,51.45,0.03,77.18-0.05c1.17,0,2.78-0.52,3.38-1.37c0.67-0.95,0.99-2.92,0.43-3.76c-0.71-1.06-2.45-1.99-3.76-2.01
	c-12.86-0.14-25.73-0.09-38.59-0.09C128.79,194.38,115.92,194.37,103.06,194.39z M104.07,121.9c-0.78,0-1.6-0.1-2.34,0.09
	c-1.89,0.48-3.01,1.69-2.92,3.74c0.09,2.03,1.2,3.2,3.21,3.44c0.77,0.09,1.56,0.06,2.34,0.06c24.86,0,49.71,0,74.57,0
	c0.78,0,1.57,0.03,2.34-0.06c2.03-0.24,3.11-1.46,3.18-3.47c0.07-2.03-1.04-3.26-2.96-3.71c-0.74-0.18-1.56-0.08-2.34-0.08
	c-12.43,0-24.86,0-37.28,0C130.27,121.9,116.67,121.9,104.07,121.9z M119.22,62.81c1.72-2.39,1.58-4.61-0.28-5.94
	c-1.9-1.36-3.92-0.78-5.71,1.65c-2.45,3.32-4.88,6.66-7.49,10.22c-2.67-3.64-5.14-7.08-7.69-10.47c-1.72-2.29-3.73-2.73-5.57-1.35
	c-1.81,1.36-1.97,3.47-0.35,5.74c2.63,3.66,5.26,7.33,8,10.92c0.84,1.1,0.83,1.86,0,2.94c-2.47,3.24-4.84,6.56-7.25,9.85
	c-0.31,0.42-0.62,0.84-0.91,1.27c-1.44,2.16-1.24,4.27,0.49,5.52c1.71,1.24,3.95,0.8,5.44-1.18c2.59-3.45,5.12-6.94,7.84-10.64
	c2.6,3.56,4.98,6.85,7.39,10.11c1.86,2.51,4.08,3.1,5.93,1.65c1.81-1.42,1.85-3.51,0.07-5.97c-2.89-4-5.81-7.98-8.8-12.08
	C113.31,70.94,116.28,66.89,119.22,62.81z M89.57,198.22c0,2.69,0.06,5.39-0.02,8.08c-0.08,2.66-1.37,4.04-4.04,4.08
	c-5.47,0.09-10.94,0.09-16.41,0c-2.8-0.04-4.12-1.47-4.15-4.25c-0.04-5.38-0.04-10.77,0-16.15c0.02-2.82,1.32-4.3,4.05-4.34
	c5.56-0.09,11.12-0.09,16.67,0.01c2.47,0.04,3.79,1.48,3.87,3.98C89.63,192.48,89.57,195.35,89.57,198.22z M72.38,202.74
	c3.36,0,6.44,0,9.66,0c0-3.21,0-6.28,0-9.44c-3.28,0-6.42,0-9.66,0C72.38,196.5,72.38,199.5,72.38,202.74z M77.45,149.52
	c2.6,0,5.21-0.02,7.81,0.01c3.02,0.03,4.26,1.19,4.3,4.25c0.06,5.38,0.06,10.76,0,16.14c-0.04,2.91-1.27,4.12-4.14,4.15
	c-5.38,0.05-10.76,0.05-16.14,0c-3-0.02-4.3-1.32-4.32-4.26c-0.04-5.38-0.04-10.76,0-16.14c0.02-2.79,1.37-4.1,4.16-4.14
	C71.89,149.5,74.67,149.52,77.45,149.52z M82.06,156.99c-3.32,0-6.47,0-9.59,0c0,3.34,0,6.49,0,9.62c3.29,0,6.38,0,9.59,0
	C82.06,163.39,82.06,160.3,82.06,156.99z M72.72,122.38c-1.92-1.9-3.9-2-5.51-0.47c-1.7,1.61-1.63,3.66,0.33,5.7
	c2.17,2.25,4.39,4.45,6.63,6.64c2.5,2.44,4.2,2.45,6.69,0c4.08-4.03,8.12-8.08,12.15-12.16c2.06-2.08,2.25-4.32,0.59-5.92
	c-1.68-1.62-3.72-1.38-5.89,0.79c-3.32,3.31-6.59,6.66-10.41,10.53C75.62,125.59,74.26,123.9,72.72,122.38z"/>
</svg>
