<?xml version="1.0" encoding="utf-8"?>
<!-- Generator: Adobe Illustrator 27.6.1, SVG Export Plug-In . SVG Version: 6.00 Build 0)  -->
<svg version="1.1" id="Layer_1" xmlns="http://www.w3.org/2000/svg" xmlns:xlink="http://www.w3.org/1999/xlink" x="0px" y="0px"
	 viewBox="0 0 300 300" style="enable-background:new 0 0 300 300;" xml:space="preserve">
<style type="text/css">
	.st0{fill:url(#SVGID_1_);}
</style>
<linearGradient id="SVGID_1_" gradientUnits="userSpaceOnUse" x1="44.6071" y1="250.8502" x2="242.1565" y2="53.3008">
	<stop  offset="0" style="stop-color:#D33027"/>
	<stop  offset="0.0429" style="stop-color:#D53A27"/>
	<stop  offset="0.1132" style="stop-color:#D95228"/>
	<stop  offset="0.2022" style="stop-color:#E17A29"/>
	<stop  offset="0.3053" style="stop-color:#EBB12A"/>
	<stop  offset="0.4022" style="stop-color:#F6EC2C"/>
	<stop  offset="0.4804" style="stop-color:#F6EC2C"/>
	<stop  offset="0.5232" style="stop-color:#D9D230"/>
	<stop  offset="0.6185" style="stop-color:#9E9E39"/>
	<stop  offset="0.7106" style="stop-color:#6D7240"/>
	<stop  offset="0.7971" style="stop-color:#475045"/>
	<stop  offset="0.8766" style="stop-color:#2C3849"/>
	<stop  offset="0.9467" style="stop-color:#1B294C"/>
	<stop  offset="1" style="stop-color:#15244C"/>
</linearGradient>
<path class="st0" d="M32.21,231.01c0-58.9,0-117.79,0-176.69c2.39-6.32,7.07-8.36,13.65-8.34c60.73,0.14,121.47,0.08,182.2,0.08
	c0.92,0,1.84-0.02,2.76,0.02c5.7,0.25,10.13,4.65,10.27,10.33c0.1,3.76,0.04,7.51,0.04,11.27c0,1.65,0,3.3,0,5.05
	c5.43,0,10.48-0.03,15.54,0.01c6.6,0.04,11.1,4.53,11.1,11.14c0.01,47.85,0.03,95.7-0.01,143.55
	c-0.01,14.64-11.79,26.53-26.42,26.54c-60.89,0.05-121.77,0.09-182.66-0.04c-10.91-0.02-18.94-5.43-23.84-15.18
	C33.64,236.34,33.07,233.6,32.21,231.01z M42.85,56.89c0,0.94,0,1.63,0,2.31c0,55.52-0.01,111.03,0.03,166.55
	c0,1.89,0.19,3.85,0.69,5.67c2.15,7.74,8.1,11.87,16.98,11.87c59.66,0.01,119.32,0.01,178.97-0.02c1.82,0,3.7-0.12,5.45-0.59
	c7.87-2.1,12.17-8.16,12.17-17.01c0.01-46.55,0-93.09,0-139.64c0-0.81-0.07-1.62-0.11-2.44c-5.41,0-10.58,0-15.9,0
	c0,1.09,0,2,0,2.91c0,43.48,0,86.96,0,130.43c0,4.18,0.02,4.21,4.02,5.31c2.46,0.68,4.03,2.76,3.95,5.24
	c-0.08,2.41-1.65,4.68-4.06,4.82c-2.27,0.13-4.82-0.07-6.85-1.01c-5.6-2.58-7.75-7.33-7.74-13.43
	c0.06-52.68,0.03-105.36,0.03-158.04c0-0.96,0-1.91,0-2.94C167.81,56.89,105.5,56.89,42.85,56.89z M96.29,169.3
	c-8.35,0-16.71,0.01-25.06,0c-5.07-0.01-7.13-2.02-7.13-7.07c-0.01-16.86-0.01-33.72,0-50.58c0-4.91,2.08-7.01,6.96-7.01
	c16.94-0.02,33.88-0.02,50.81,0c4.8,0.01,6.89,2.1,6.89,6.84c0.01,17.01,0.02,34.03,0,51.04c0,4.63-2.12,6.76-6.72,6.77
	C113.45,169.31,104.87,169.3,96.29,169.3z M75.04,158.31c14.37,0,28.51,0,42.69,0c0-14.33,0-28.52,0-42.71c-14.32,0-28.45,0-42.69,0
	C75.04,130.87,75.04,144,75.04,158.31z M201.75,88.79c0.92,0,1.85,0.03,2.75-0.14c3.45-0.65,5.27-3.51,4.38-6.74
	c-0.74-2.69-2.87-3.89-6.97-3.89c-43.48,0-86.95,0-130.43,0.01c-0.99,0-1.99,0.08-2.97,0.25c-2.84,0.5-4.6,3-4.19,5.85
	c0.45,3.1,2.62,4.68,6.54,4.68c21.85,0.01,43.71,0,65.56,0C158.2,88.79,179.98,88.8,201.75,88.79z M202.74,115.46
	c4.65-0.02,7.39-3.3,6.1-7.17c-0.81-2.43-3.02-3.66-6.72-3.66c-16.78-0.01-33.55-0.01-50.33,0.01c-0.99,0-1.98,0.13-2.95,0.32
	c-2.07,0.4-3.36,1.7-3.89,3.72c-1,3.8,1.61,6.76,6.09,6.78c8.58,0.04,17.16,0.01,25.74,0.01
	C185.42,115.47,194.08,115.5,202.74,115.46z M170.93,184.59c-6.66,0-13.33-0.04-19.99,0.02c-4.51,0.04-7.16,3.27-5.96,7.1
	c0.78,2.46,2.99,3.72,6.67,3.73c16.85,0.01,33.7,0.01,50.56-0.01c0.99,0,1.99-0.12,2.95-0.33c2.71-0.61,4.39-3.35,3.81-6.09
	c-0.62-2.92-2.68-4.39-6.32-4.4c-8.5-0.02-17.01-0.01-25.51-0.01C175.07,184.59,173,184.59,170.93,184.59z M70.64,184.6
	c-4.64,0.02-7.4,3.28-6.14,7.16c0.78,2.4,3.06,3.67,6.72,3.67c16.77,0.01,33.55,0.01,50.32-0.01c1.06,0,2.15-0.11,3.18-0.34
	c2.7-0.62,4.37-3.43,3.75-6.13c-0.68-2.93-2.69-4.34-6.36-4.35c-8.58-0.02-17.16-0.01-25.74-0.01
	C87.79,184.59,79.22,184.56,70.64,184.6z M71.18,211.28c-1.06,0-2.15,0.1-3.16,0.38c-2.46,0.67-3.97,2.88-3.78,5.32
	c0.2,2.55,1.86,4.41,4.41,4.83c0.9,0.15,1.82,0.23,2.74,0.23c16.69,0.01,33.39,0.01,50.08,0.01c2.09,0,4.2-0.05,5.73-1.74
	c1.5-1.66,1.91-3.67,1.02-5.74c-1.03-2.38-3.09-3.29-5.57-3.29c-8.73-0.02-17.46-0.01-26.19-0.01
	C88.03,211.26,79.6,211.25,71.18,211.28z M169.63,211.26c-6.28,0-12.56-0.04-18.84,0.02c-4.44,0.04-7.09,3.43-5.78,7.22
	c0.79,2.28,2.93,3.54,6.33,3.54c17.08,0.02,34.16,0.01,51.24,0c0.84,0,1.69-0.1,2.5-0.27c2.72-0.57,4.46-3.3,3.9-6.04
	c-0.6-2.96-2.64-4.44-6.27-4.45c-8.58-0.02-17.16-0.01-25.73-0.01C174.53,211.26,172.08,211.26,169.63,211.26z M151.2,131.29
	c-3.45,0.01-5.56,1.39-6.26,3.93c-1.1,3.98,1.59,6.9,6.43,6.9c17.01,0.02,34.01,0.01,51.02-0.01c1.06,0,2.15-0.13,3.16-0.43
	c2.47-0.73,3.94-3.4,3.41-5.96c-0.62-3-2.67-4.43-6.52-4.44c-8.5-0.02-17.01-0.01-25.51-0.01
	C168.36,131.28,159.78,131.26,151.2,131.29z M202.61,168.77c3.46-0.01,5.56-1.38,6.27-3.91c1.11-3.95-1.6-6.92-6.41-6.92
	c-17.01-0.02-34.01-0.02-51.02,0.01c-1.06,0-2.15,0.13-3.16,0.43c-2.48,0.72-3.96,3.38-3.43,5.94c0.61,2.99,2.67,4.45,6.51,4.46
	c8.5,0.03,17.01,0.01,25.51,0.01C185.45,168.78,194.03,168.8,202.61,168.77z"/>
</svg>
