<?xml version="1.0" encoding="utf-8"?>
<!-- Generator: Adobe Illustrator 27.6.1, SVG Export Plug-In . SVG Version: 6.00 Build 0)  -->
<svg version="1.1" id="Layer_1" xmlns="http://www.w3.org/2000/svg" xmlns:xlink="http://www.w3.org/1999/xlink" x="0px" y="0px"
	 viewBox="0 0 300 300" style="enable-background:new 0 0 300 300;" xml:space="preserve">
<style type="text/css">
	.st0{fill:url(#SVGID_1_);}
</style>
<linearGradient id="SVGID_1_" gradientUnits="userSpaceOnUse" x1="38.468" y1="286.6371" x2="295.953" y2="29.152">
	<stop  offset="0" style="stop-color:#D33027"/>
	<stop  offset="0.0429" style="stop-color:#D53A27"/>
	<stop  offset="0.1132" style="stop-color:#D95228"/>
	<stop  offset="0.2022" style="stop-color:#E17A29"/>
	<stop  offset="0.3053" style="stop-color:#EBB12A"/>
	<stop  offset="0.4022" style="stop-color:#F6EC2C"/>
	<stop  offset="0.4804" style="stop-color:#F6EC2C"/>
	<stop  offset="0.5232" style="stop-color:#D9D230"/>
	<stop  offset="0.6185" style="stop-color:#9E9E39"/>
	<stop  offset="0.7106" style="stop-color:#6D7240"/>
	<stop  offset="0.7971" style="stop-color:#475045"/>
	<stop  offset="0.8766" style="stop-color:#2C3849"/>
	<stop  offset="0.9467" style="stop-color:#1B294C"/>
	<stop  offset="1" style="stop-color:#15244C"/>
</linearGradient>
<path class="st0" d="M234.62,83.65c-16.87,36.36-33.68,72.58-50.53,108.9c4.64,2.91,9.28,5.82,13.95,8.75
	c1.26-2.96,2.53-5.93,3.79-8.91c1.03-2.43,1.98-4.89,3.08-7.28c0.42-0.92,1.01-1.89,1.79-2.5c1.48-1.17,3.46-1.01,4.83,0.1
	c1.43,1.17,1.76,3.07,0.88,5.15c-1.81,4.25-3.63,8.5-5.43,12.76c-4.9,11.61-9.78,23.23-14.7,34.83c-2.49,5.88-4.84,11.85-7.61,17.59
	c-5.88,12.18-14.89,21.48-26.73,28.03c-6.13,3.39-12.69,5.59-19.53,6.86c-3.36,0.62-6.83,0.92-10.25,0.93
	c-18.23,0.09-36.46,0.04-54.69,0.04c-2.12,0-3.83-0.71-4.74-2.77c-0.96-2.17,0.75-5.19,3.11-5.23c3.86-0.07,7.73,0.06,11.6,0.11
	c0.1,0,0.2-0.04,0.47-0.1c-5.81-12.79-11.56-25.55-17.44-38.25c-0.11,0.05-0.22,0.1-0.33,0.15c-5.67,12.46-11.33,24.91-17.12,37.64
	c1.76,0.15,3.26,0.31,4.75,0.39c1.39,0.08,2.38,0.75,3.09,1.9c0.85,1.4,0.88,2.77,0.01,4.18c-0.93,1.5-2.4,2-4,1.93
	c-6.39-0.28-12.29-2.11-17.5-5.9c-6.18-4.49-10.01-10.57-12.13-17.86c-1.59-5.44-3.34-10.83-5.12-16.21
	c-2.46-7.43,0.4-13.99,5.8-17.66c2.28-1.55,4.8-2.47,7.61-2.47c20.69,0,41.38-0.03,62.07-0.03c18.85,0,37.69,0.03,56.54,0.02
	c5.63,0,9.64-2.65,12.01-7.74c5.45-11.72,10.87-23.46,16.31-35.19c4.72-10.19,9.46-20.37,14.19-30.56
	c9.33-20.12,18.64-40.24,27.97-60.35c8.24-17.76,16.49-35.5,24.74-53.25c3.41-7.34,6.82-14.67,10.18-22.03
	c1.41-3.09,3.35-5.73,6.51-7.11c1.65-0.72,3.5-1.21,5.3-1.35c2.65-0.2,5.34-0.09,8.01,0.05c4.59,0.24,9.05,5.24,6.9,11.14
	c-0.88,2.41-1.94,4.74-2.94,7.1c-6.08,14.37-12.18,28.72-18.25,43.09c-5.57,13.17-11.1,26.36-16.66,39.53
	c-5.94,14.07-11.9,28.14-17.85,42.2c-2.17,5.12-4.33,10.25-6.5,15.36c-1.19,2.8-4.23,3.56-6.38,1.57c-1.23-1.14-1.58-2.65-1-4.18
	c1.2-3.17,2.52-6.3,3.83-9.42c5.68-13.48,11.37-26.94,17.06-40.42c3.45-8.18,6.9-16.37,10.36-24.55c0.07-0.17,0.15-0.33,0.22-0.49
	c0.93-1.91,0.95-1.94-0.8-3.07C240.53,87.32,237.71,85.58,234.62,83.65z M145.13,278.14c1.05-0.45,1.86-0.81,2.68-1.14
	c13.04-5.18,22.85-14,29.19-26.47c2.69-5.3,4.82-10.89,7.14-16.37c3.44-8.11,6.81-16.24,10.27-24.34c0.4-0.94,0.13-1.34-0.62-1.81
	c-4.14-2.58-8.26-5.19-12.37-7.8c-0.62-0.39-0.82-0.18-1.1,0.42c-3.55,7.7-7.18,15.37-10.7,23.09
	c-8.12,17.8-16.19,35.62-24.28,53.43C145.24,277.38,145.23,277.65,145.13,278.14z M41.61,277.52c6.18-13.57,12.31-27.05,18.53-40.71
	c-0.64,0-0.96,0-1.28,0c-8.93,0-17.87-0.01-26.8,0c-4.77,0-7.91,4.28-6.51,8.83c1.77,5.76,3.54,11.52,5.32,17.28
	c1.15,3.72,2.68,7.25,5.34,10.18C37.77,274.82,39.5,276.32,41.61,277.52z M248.13,82.76c8.97-21.24,17.88-42.36,26.9-63.72
	c-2.14,0-3.91,0.04-5.68-0.01c-3.82-0.1-5.11,0.72-6.72,4.2c-5.97,12.91-11.97,25.82-17.95,38.73c-2.21,4.78-4.43,9.55-6.68,14.42
	C241.36,78.49,244.65,80.56,248.13,82.76z M130.83,280.76c0.02-1.23-16.42-37.56-17.16-38.12c-5.76,12.67-11.53,25.35-17.33,38.12
	C108.03,280.76,119.43,280.76,130.83,280.76z M72.6,236.86c5.81,12.75,11.56,25.36,17.31,37.97c0.13-0.02,0.26-0.03,0.39-0.05
	c5.74-12.61,11.49-25.22,17.28-37.92C95.79,236.86,84.23,236.86,72.6,236.86z M120.06,236.88c5.78,12.69,11.5,25.25,17.22,37.83
	c0.79-0.6,17.27-36.21,17.75-38.27C143.43,237.26,131.79,236.54,120.06,236.88z M89.02,220.52c-6.36-0.25-14.03-0.35-21.66-0.92
	c-5.49-0.41-11.03-0.83-16.41-2.21c-3.7-0.95-7.45-1.76-11.05-2.98c-1.85-0.63-3.54-1.91-5.12-3.12c-1.45-1.11-1.96-2.85-1.97-4.64
	c-0.02-9.73-0.02-19.46,0-29.19c0.01-2.33,1.06-4.15,2.9-5.55c2.62-2,5.67-3,8.78-3.81c6.97-1.81,14.11-2.59,21.26-3.41
	c13.21-1.51,26.43-1.03,39.65-0.79c3.67,0.07,7.34,0.59,11.01,0.95c2.98,0.29,5.98,0.52,8.93,1.01c3.52,0.59,7.02,1.34,10.49,2.19
	c3.19,0.78,6.32,1.81,9,3.83c1.95,1.47,2.96,3.35,2.96,5.84c-0.03,9.62-0.03,19.24,0,28.86c0.01,2.96-1.57,4.92-3.93,6.29
	c-1.71,0.98-3.54,1.84-5.42,2.42c-5.63,1.76-11.41,2.82-17.27,3.45c-3.7,0.4-7.39,0.96-11.1,1.15
	C103.49,220.2,96.91,220.29,89.02,220.52z M139.58,185.19c-0.44,0.09-0.73,0.12-1,0.2c-4.86,1.55-9.85,2.54-14.91,3.15
	c-3.44,0.42-6.88,0.89-10.33,1.2c-3.78,0.33-7.57,0.62-11.36,0.71c-6.54,0.15-13.08,0.23-19.62,0.16
	c-3.97-0.05-7.95-0.35-11.91-0.71c-5.86-0.54-11.73-1.05-17.54-1.92c-3.66-0.54-7.22-1.7-10.82-2.6c-1.21-0.3-1.34-0.23-1.34,0.97
	c0.01,5.97,0.02,11.94,0.04,17.9c0,2.12,0.01,2.12,2,2.84c6.34,2.3,13.01,2.97,19.61,3.86c3.61,0.49,7.28,0.51,10.92,0.81
	c7.61,0.62,15.24,1.04,22.86,0.64c9.02-0.48,18.06-0.68,27.01-2.05c5.14-0.79,10.26-1.62,15.16-3.46c0.91-0.34,1.26-0.8,1.25-1.81
	c-0.05-6.22-0.03-12.44-0.03-18.66C139.58,186.04,139.58,185.68,139.58,185.19z M138.06,177.11c-0.55-0.22-0.76-0.33-0.99-0.39
	c-2.45-0.61-4.89-1.25-7.35-1.81c-5.79-1.31-11.67-1.99-17.58-2.37c-10.54-0.68-21.09-1.2-31.65-0.65
	c-7.9,0.41-15.82,0.65-23.65,1.92c-3.28,0.53-6.53,1.18-9.78,1.86c-1.38,0.29-2.7,0.81-4.05,1.23c0,0.11-0.01,0.22-0.01,0.33
	c0.58,0.25,1.13,0.61,1.73,0.73c4.88,0.97,9.74,2.17,14.67,2.77c7.6,0.92,15.24,1.56,22.91,1.72c12.92,0.27,25.82,0,38.64-1.65
	c4.93-0.64,9.79-1.82,14.67-2.8C136.35,177.85,137.06,177.48,138.06,177.11z"/>
</svg>
