<?xml version="1.0" encoding="utf-8"?>
<!-- Generator: Adobe Illustrator 27.6.1, SVG Export Plug-In . SVG Version: 6.00 Build 0)  -->
<svg version="1.1" id="Layer_1" xmlns="http://www.w3.org/2000/svg" xmlns:xlink="http://www.w3.org/1999/xlink" x="0px" y="0px"
	 viewBox="0 0 300 300" style="enable-background:new 0 0 300 300;" xml:space="preserve">
<style type="text/css">
	.st0{fill:#FFFFFF;}
</style>
<g>
	<path class="st0" d="M68.46,245.09c0.52,0,0.92,0,1.32,0c15.51-0.01,31.02-0.03,46.52-0.05c0.38,0,0.77-0.08,1.13-0.01
		c1.1,0.2,1.2-0.38,1.2-1.27c-0.02-17.23-0.03-34.47-0.01-51.7c0.01-5.24,0.79-10.32,3.19-15.07c4.09-8.09,10.39-13.57,19.05-16.35
		c14.88-4.77,31.19,2.81,37.65,17.01c1.8,3.96,2.67,8.1,2.8,12.41c0.07,2.11,0.05,4.21,0.05,6.32c0.01,15.91,0.02,31.83,0,47.74
		c0,0.79,0.25,0.93,0.97,0.93c14.85-0.01,29.69-0.01,44.54,0c1.51,0,3.01,0,4.66,0c0-0.4,0-0.8,0-1.19c0-32.61,0-65.23-0.01-97.84
		c0-1.63,0.46-3.11,1.37-4.43c1.53-2.2,4.02-3.02,6.86-2.36c2.02,0.47,3.9,2.7,4.24,5.06c0.09,0.59,0.14,1.19,0.14,1.78
		c0,34.15,0.01,68.31-0.01,102.46c0,1.47-0.05,2.97-0.33,4.4c-0.47,2.41-2.82,4.38-5.26,4.59c-0.91,0.08-1.82,0.1-2.73,0.1
		c-19.69,0-39.38,0.01-59.07-0.03c-1.39,0-2.89-0.11-4.14-0.64c-2.56-1.09-3.71-3.3-3.72-6.05c-0.03-5.41-0.01-10.82-0.01-16.23
		c0-14.15,0-28.3,0-42.46c0-3.54-0.24-7.06-2.02-10.24c-3.59-6.41-8.88-10-16.42-10.17c-7.46-0.16-12.92,3.09-16.78,9.26
		c-2.05,3.27-2.52,6.99-2.52,10.78c0,19.66,0,39.31,0,58.97c0,2.85-1.19,5.05-3.81,6.18c-1.16,0.5-2.57,0.6-3.86,0.6
		c-13.78,0.04-27.56,0.03-41.33,0.02c-6.73-0.01-13.46-0.01-20.19-0.1c-3.06-0.04-5.54-2.4-5.92-5.43
		c-0.11-0.87-0.16-1.75-0.16-2.63c-0.01-33.78-0.01-67.55,0-101.33c0-1.44,0.05-2.9,0.29-4.32c0.41-2.46,2.57-4.38,5.09-4.76
		c2.53-0.38,4.99,0.82,6.2,3.04c0.69,1.26,1.04,2.6,1.04,4.06c-0.01,32.52-0.01,65.04-0.01,97.56
		C68.46,244.14,68.46,244.55,68.46,245.09z"/>
	<path class="st0" d="M150.04,56.23c-7.28,5.34-14.49,10.64-21.72,15.93c-13.72,10.05-27.45,20.09-41.18,30.13
		c-10,7.31-20,14.62-29.99,21.93c-5.99,4.38-11.96,8.78-17.97,13.14c-3.76,2.73-7.93,0.63-9.27-2.28c-1.1-2.4-0.78-5.05,1.17-6.85
		c1.56-1.44,3.33-2.67,5.05-3.94c12.09-8.87,24.2-17.72,36.3-26.57c16.52-12.08,33.03-24.16,49.55-36.25
		c8.12-5.94,16.22-11.9,24.36-17.81c2.44-1.77,4.94-1.75,7.42,0.03c3.63,2.6,7.21,5.26,10.81,7.9c10.88,7.97,21.76,15.93,32.64,23.9
		c8.63,6.31,17.26,12.61,25.88,18.93c11.16,8.17,22.31,16.35,33.47,24.53c3.58,2.62,7.15,5.23,10.74,7.84
		c1.59,1.16,2.9,2.5,3.3,4.53c0.46,2.36-0.56,4.9-2.62,6.23c-2.28,1.48-4.65,1.52-6.89-0.02c-2.62-1.79-5.15-3.71-7.71-5.59
		c-17.63-12.91-35.25-25.82-52.88-38.73c-16.36-11.98-32.72-23.95-49.09-35.93C150.96,56.95,150.52,56.6,150.04,56.23z"/>
</g>
</svg>
