<?xml version="1.0" encoding="utf-8"?>
<!-- Generator: Adobe Illustrator 27.6.1, SVG Export Plug-In . SVG Version: 6.00 Build 0)  -->
<svg version="1.1" id="Layer_1" xmlns="http://www.w3.org/2000/svg" xmlns:xlink="http://www.w3.org/1999/xlink" x="0px" y="0px"
	 viewBox="0 0 300 300" style="enable-background:new 0 0 300 300;" xml:space="preserve">
<style type="text/css">
	.st0{fill:#FFFFFF;}
</style>
<path class="st0" d="M270.38,72.87v-0.01c-1.2-0.99-2.65-1.19-4.61-1.19H91.33c-2.96,0-3.59-0.49-4.21-3.3
	c-1.42-6.43-2.83-12.78-4.27-19.14c-0.27-1.14-0.59-2.23-0.97-3.21c-0.48-1.25-1.34-2.16-2.63-2.8c-1.43-0.71-3.05-0.8-4.43-0.8
	L33.98,42.4c-0.71,0-1.26,0.05-1.71,0.14c-2.32,0.49-3.8,1.77-4.51,3.92c-0.72,2.16-0.29,4.05,1.32,5.77
	c1.09,1.17,2.55,1.69,4.72,1.7h35.59c2.28,0,2.92,0.5,3.42,2.72c0.89,3.85,1.75,7.71,2.6,11.57l5.39,24.51
	c0.57,2.65,1.14,5.31,1.73,7.95c1.73,7.84,3.47,15.68,5.22,23.51l9.33,41.72c0.44,2.06,0.88,4.13,1.42,6.17
	c0.45,1.69-0.02,2.78-1.54,3.53c-8.5,4.29-12.84,13.36-10.77,22.56c1.49,6.6,5.52,11.38,11.99,14.22c1.61,0.7,3.79,1.49,6.02,1.47
	c3.16-0.06,6.33-0.03,9.49,0.01l3.63,0.02c0.37,0,0.75,0.03,1.12,0.07l3.98,0.36l0.03-0.4h98.88l0.25,2.96
	c-13.22,2.25-19.28,12.82-18.44,22.1c0.95,10.6,9.56,18.57,20.03,18.57c0.02,0,0.04,0,0.06,0c10.32-0.02,18.77-7.43,20.09-17.61
	c1.27-9.69-4.6-20.74-18.24-23.11l0.26-2.96l5.24,0.01c2.5,0,4.99,0,7.48,0.06c1.22-0.09,2.59-0.57,3.69-1.64
	c1.13-1.11,1.8-2.57,1.8-3.9c-0.02-3.11-2.48-5.72-5.49-5.82c-1.15-0.04-2.3-0.05-3.45-0.05l-113.2,0.01c-5.11,0-10.22,0.01-15.34,0
	c-3.9-0.01-6.88-1.92-8.18-5.25c-1.35-3.48-0.89-6.8,1.31-9.37c1.66-1.94,3.88-2.92,6.61-2.92c43.23,0.02,86.47,0.02,130.71,0.02
	l1.22-0.01c3.51-0.09,5.83-1.77,6.73-4.88l1.17-3.98l25.42-89.04c0.75-2.58,1.48-5.14,2.2-7.72
	C273.02,76.65,272.43,74.56,270.38,72.87z M223.39,228.56c5.17,0.14,8.67,3.67,8.71,8.79c0.05,5.02-3.64,8.74-8.78,8.84
	c-0.06,0-0.12,0-0.18,0c-2.26,0-4.47-0.9-6.08-2.48c-1.67-1.64-2.58-3.9-2.57-6.33c0.12-5.16,3.76-8.82,8.67-8.82
	C223.24,228.56,223.31,228.56,223.39,228.56z M258.44,86.03c-0.19,0.84-0.37,1.64-0.59,2.43c-2.04,7.2-4.09,14.39-6.16,21.59
	l-7.23,25.1c-1.45,5.07-2.89,10.15-4.33,15.22l-2.88,10.12c-0.96,3.37-1.92,6.74-2.91,10.11c-0.69,2.36-1.43,2.71-3.62,2.71h-23.58
	c-31.42-0.01-62.81-0.01-94.22,0.02c-1.71,0-2.68-0.77-3.04-2.44c-1.48-6.89-3.01-13.78-4.54-20.66l-1.92-8.51
	c-0.63-2.73-1.25-5.47-1.86-8.21l-4.4-20.03c-0.65-2.94-1.31-5.86-1.98-8.78l-1.39-6.14c-0.76-3.34-1.5-6.67-2.24-10.02l-0.5-2.25
	c-0.06-0.3-0.1-0.59-0.15-0.93l-0.31-2.15H259.1L258.44,86.03z M119.16,257.55c9.75,0.7,18.81-6.1,20.96-15.72
	c1.17-5.27,0.39-10.22-2.32-14.7c-3.38-5.58-8.49-8.92-15.62-10.22l0.05-0.48l-3.48,0.54c-11.52,1.69-19.29,10.95-18.48,22
	C100.9,247.39,107.73,256.76,119.16,257.55z M120.5,228.54c0.01,0,0.02,0,0.02,0c2.42,0,4.73,1,6.34,2.74
	c1.54,1.67,2.29,3.87,2.13,6.24c0.18,2.15-0.54,4.22-2.05,5.86c-1.64,1.78-4.03,2.83-6.4,2.83c-0.06,0-0.1,0-0.16,0
	c-5.5-0.09-8.8-4.56-8.81-8.83C111.59,233.05,114.92,228.56,120.5,228.54z"/>
</svg>
