<?xml version="1.0" encoding="utf-8"?>
<!-- Generator: Adobe Illustrator 27.6.1, SVG Export Plug-In . SVG Version: 6.00 Build 0)  -->
<svg version="1.1" id="Layer_1" xmlns="http://www.w3.org/2000/svg" xmlns:xlink="http://www.w3.org/1999/xlink" x="0px" y="0px"
	 viewBox="0 0 300 300" style="enable-background:new 0 0 300 300;" xml:space="preserve">
<style type="text/css">
	.st0{fill:#FFFFFF;}
</style>
<path class="st0" d="M205.8,241.09v-57.92h22.16c3.99,0,7.53,0.7,10.61,2.1c3.08,1.4,5.51,3.47,7.27,6.22
	c1.76,2.75,2.64,6.14,2.64,10.18c0,3.94-0.91,7.3-2.72,10.07c-1.81,2.77-4.25,4.86-7.31,6.26l13.22,23.09h-13.53l-14.3-25.58
	l7.77,4.59h-13.76v20.99H205.8z M217.85,209.61h10.18c1.71,0,3.19-0.34,4.43-1.01c1.24-0.67,2.22-1.61,2.92-2.8
	c0.7-1.19,1.05-2.57,1.05-4.12c0-1.61-0.35-3.01-1.05-4.2c-0.7-1.19-1.67-2.12-2.92-2.8c-1.24-0.67-2.72-1.01-4.43-1.01h-10.18
	V209.61z M285.37,219.8c-1.01,4.06-1.74,8.22-3.07,12.17c-8.44,25.23-32.84,41.44-59.37,39.54c-2.1-0.15-4.28-0.28-6.24-0.96
	c-5.8-2.02-11.46-0.32-17.18,0.23c-19.39,1.87-38.55,1.09-56.93-6.06c-4.85-1.88-9.28-4.83-14.18-7.43
	c-12.01,9.56-26.95,12.38-42.33,13.79c-15.84,1.45-31.47,0.22-46.77-4.29c-6.02-1.77-11.78-4.16-16.82-8.02
	c-5.1-3.91-7.88-8.77-7.85-15.54c0.16-40.97,0.16-81.93,0-122.9c-0.03-6.88,2.77-11.82,8.01-15.73c7.06-5.27,15.25-7.96,23.72-9.75
	c21.74-4.59,43.35-4.28,64.68,2.34c4.23,1.31,8.25,3.31,12.58,5.08c0-0.96,0-1.89,0-2.83c0-14.18,0.19-28.37-0.08-42.55
	c-0.13-6.89,2.78-11.82,8.01-15.73c7.21-5.39,15.59-8.11,24.23-9.89c21.02-4.33,41.96-4.04,62.68,1.97
	c5.94,1.72,11.61,4.1,16.6,7.85c5.31,3.98,8.14,8.97,8.1,15.95c-0.19,32.51-0.07,65.02-0.12,97.52c0,1.99,0.38,2.96,2.51,3.75
	c22.35,8.2,35.52,24.08,39.34,47.63c0.07,0.41,0.32,0.78,0.49,1.17C285.37,211.34,285.37,215.57,285.37,219.8z M227.21,165.87
	c-26.14,0-47.57,21.44-47.57,47.58c0,26.15,21.42,47.58,47.56,47.59c26.08,0.01,47.6-21.49,47.6-47.58
	C274.8,187.37,253.3,165.87,227.21,165.87z M25.27,198.1c0,4.31,0.11,8.88-0.04,13.45c-0.09,2.55,0.69,4.68,2.76,5.91
	c3.98,2.36,8,4.82,12.3,6.44c4.65,1.76,9.66,2.54,14.49,3.86c2.9,0.79,4.39,3.47,3.75,6.36c-0.56,2.56-3.33,4.5-6.02,3.99
	c-8.4-1.58-16.62-3.76-24.28-7.7c-0.89-0.46-1.81-0.87-2.95-1.41c0,4.75,0.2,9.16-0.06,13.55c-0.21,3.52,1.11,6.2,3.98,7.74
	c4.46,2.4,8.99,4.93,13.81,6.35c18.06,5.3,36.43,5.59,54.86,2.07c7.27-1.39,14.35-3.47,20.7-7.5c3.43-2.18,5.51-4.92,5.13-9.32
	c-0.32-3.58-0.05-7.22-0.07-10.83c0-0.63-0.13-1.27-0.23-2.09c-8.48,4.77-17.4,7.32-26.59,9.06c-2.91,0.55-5.72-1.11-6.4-3.76
	c-0.75-2.95,0.81-5.65,3.82-6.55c0.59-0.18,1.19-0.3,1.79-0.45c3.66-0.9,7.47-1.44,10.96-2.79c4.48-1.73,8.84-3.87,12.96-6.32
	c1.62-0.96,3.34-3.14,3.5-4.9c0.47-5.12,0.17-10.32,0.17-15.18C90.79,211.79,58.21,211.78,25.27,198.1z M183.72,38.97
	c-12.13,0.27-23.85,1.38-35.06,5.43c-3.6,1.3-7.15,3.02-10.33,5.14c-5.46,3.66-5.36,6.92,0.05,10.75c1.99,1.41,4.2,2.59,6.44,3.55
	c9.9,4.24,20.36,5.88,31.04,6.56c13.65,0.86,27.08-0.29,40.15-4.41c3.82-1.2,7.59-2.86,11.03-4.9c7.13-4.23,7.03-8.1-0.06-12.55
	c-1.63-1.02-3.36-1.92-5.13-2.67C209.58,40.62,196.58,39.36,183.72,38.97z M74.59,102.4c-12.16,0.32-24.26,1.34-35.71,5.81
	c-3.95,1.54-7.76,3.73-11.17,6.25c-3.32,2.45-3.25,5-0.07,7.63c2.47,2.04,5.29,3.84,8.22,5.12c10.03,4.4,20.7,6,31.55,6.65
	c13.74,0.83,27.25-0.48,40.4-4.58c4.96-1.55,9.79-3.52,13.62-7.25c2.78-2.71,2.95-4.9,0.01-7.35c-2.53-2.11-5.4-3.99-8.41-5.31
	C100.8,104.01,87.77,102.8,74.59,102.4z M134.17,71.2c0,4.22,0.14,8.71-0.05,13.17c-0.13,2.95,0.84,5.35,3.22,6.79
	c3.66,2.21,7.38,4.58,11.4,5.89c20.85,6.81,41.99,6.97,63.23,1.87c5.92-1.42,11.73-3.34,16.57-7.16c1.68-1.32,3.58-3.44,3.77-5.36
	c0.52-5.11,0.18-10.31,0.18-15.2C199.7,84.94,167.14,84.91,134.17,71.2z M123.61,134.65c-32.93,13.72-65.57,13.76-98.34-0.04
	c0,3.5,0.38,7.24-0.09,10.88c-0.76,5.94,2.27,9.25,6.98,11.73c1.24,0.65,2.5,1.29,3.79,1.83c10.01,4.23,20.56,5.87,31.32,6.54
	c13.38,0.83,26.59-0.24,39.37-4.33c4.78-1.53,9.32-4.04,13.63-6.65c1.6-0.97,3.01-3.44,3.18-5.34
	C123.91,144.36,123.61,139.41,123.61,134.65z M123.57,166.38c-32.86,13.73-65.51,13.7-98.3,0c0,4.14,0.18,8.54-0.06,12.92
	c-0.19,3.3,0.99,5.9,3.68,7.35c4.61,2.48,9.27,5.16,14.25,6.61c19.59,5.68,39.41,5.68,59.21,1.03c6.34-1.49,12.59-3.49,17.74-7.72
	c1.47-1.21,3.19-3.09,3.33-4.78C123.85,176.58,123.57,171.31,123.57,166.38z M134.17,102.92c0,4.32,0.1,8.95-0.04,13.57
	c-0.07,2.53,0.7,4.67,2.73,5.95c3.47,2.18,6.97,4.56,10.79,5.89c21.12,7.32,42.63,7.59,64.18,2.25c5.46-1.35,10.7-3.9,15.74-6.48
	c2.04-1.05,4.41-3.52,4.67-5.59c0.67-5.23,0.22-10.6,0.22-15.52C199.59,116.62,167.03,116.64,134.17,102.92z M134.17,134.66
	c0,4.33,0.09,8.97-0.04,13.6c-0.07,2.33,0.65,4.27,2.49,5.5c2.83,1.9,5.68,3.91,8.81,5.17c14.7,5.91,30.11,7.45,45.8,6.64
	c1.98-0.1,4.08-0.92,5.82-1.94c9.15-5.35,18.94-8.3,29.57-8.32c2.93-0.01,5.7-2.25,5.81-5.21c0.19-5.24,0.05-10.5,0.05-15.47
	C199.72,148.39,167.17,148.32,134.17,134.66z M192.87,260.98c-0.7-0.91-0.81-1.14-1-1.29c-6.61-5.15-11.92-11.38-16-18.71
	c-0.46-0.83-1.88-1.39-2.94-1.59c-7.49-1.42-15.09-2.33-22.47-4.17c-5.54-1.38-10.8-3.89-16.29-5.94c0,3.71,0.37,7.68-0.09,11.56
	c-0.65,5.55,2.02,8.81,6.48,11.2c1.39,0.75,2.78,1.5,4.23,2.12c11.34,4.82,23.33,6.31,35.49,6.79
	C184.27,261.12,188.27,260.98,192.87,260.98z M134.17,165.42c0,4.8,0.19,9.27-0.06,13.71c-0.19,3.33,1.03,5.84,3.77,7.25
	c4.81,2.47,9.66,5.05,14.79,6.65c6.04,1.89,12.4,2.78,17.82,3.94c3.94-7.4,7.43-13.97,10.88-20.45
	C165.26,175.74,149.19,173.51,134.17,165.42z M168.71,207.55c-5.83-1.23-11.84-2.13-17.63-3.81c-5.74-1.66-11.26-4.09-16.91-6.2
	c0,3.91,0.32,7.99-0.08,12c-0.49,4.89,1.84,7.73,5.7,10c6.23,3.65,13.02,5.68,20,7.14c3.56,0.74,7.18,1.24,10.52,1.8
	C169.76,221.22,169.23,214.41,168.71,207.55z M74.56,240.12c2.88-0.05,5.13-2.3,5.17-5.18c0.05-3-2.25-5.35-5.25-5.36
	c-3.01-0.01-5.32,2.3-5.3,5.31C69.2,237.88,71.55,240.18,74.56,240.12z"/>
</svg>
