<?xml version="1.0" encoding="utf-8"?>
<!-- Generator: Adobe Illustrator 27.6.1, SVG Export Plug-In . SVG Version: 6.00 Build 0)  -->
<svg version="1.1" id="Layer_1" xmlns="http://www.w3.org/2000/svg" xmlns:xlink="http://www.w3.org/1999/xlink" x="0px" y="0px"
	 viewBox="0 0 300 300" style="enable-background:new 0 0 300 300;" xml:space="preserve">
<style type="text/css">
	.st0{fill:url(#SVGID_1_);}
</style>
<linearGradient id="SVGID_1_" gradientUnits="userSpaceOnUse" x1="42.8699" y1="260.793" x2="257.1306" y2="46.5323">
	<stop  offset="0" style="stop-color:#D33027"/>
	<stop  offset="0.0429" style="stop-color:#D53A27"/>
	<stop  offset="0.1132" style="stop-color:#D95228"/>
	<stop  offset="0.2022" style="stop-color:#E17A29"/>
	<stop  offset="0.3053" style="stop-color:#EBB12A"/>
	<stop  offset="0.4022" style="stop-color:#F6EC2C"/>
	<stop  offset="0.4804" style="stop-color:#F6EC2C"/>
	<stop  offset="0.5232" style="stop-color:#D9D230"/>
	<stop  offset="0.6185" style="stop-color:#9E9E39"/>
	<stop  offset="0.7106" style="stop-color:#6D7240"/>
	<stop  offset="0.7971" style="stop-color:#475045"/>
	<stop  offset="0.8766" style="stop-color:#2C3849"/>
	<stop  offset="0.9467" style="stop-color:#1B294C"/>
	<stop  offset="1" style="stop-color:#15244C"/>
</linearGradient>
<path class="st0" d="M52.34,127.81c0-1.41,0-2.51,0-3.6c0-27.74,0-55.47,0-83.21c0-5.23,1.15-6.41,6.26-6.41
	c60.94,0,121.88,0,182.82,0c5.02,0,6.24,1.21,6.24,6.15c0,17.57,0,35.13,0,52.7c0,1,0,1.99,0,3.29c4.27,0,8.31-0.01,12.35,0
	c3.88,0.02,5.4,1.49,5.4,5.32c0.01,47.15,0.03,94.3-0.01,141.46c-0.01,12.05-9.84,21.85-21.92,21.86
	c-62.33,0.03-124.65,0.03-186.98,0c-12.07-0.01-21.88-9.83-21.9-21.88c-0.04-36.8-0.02-73.59-0.01-110.39
	c0-3.81,1.53-5.27,5.43-5.28C43.99,127.8,47.96,127.81,52.34,127.81z M224.42,256.53c-1-3.12-2.28-5.82-2.67-8.65
	c-0.57-4.1-0.67-8.29-0.67-12.45c-0.05-37.63-0.03-75.27-0.04-112.9c0-1.16,0-2.32,0-3.61c-15.56,0-30.72-0.02-45.87,0.06
	c-0.84,0-1.82,0.76-2.48,1.42c-4.68,4.6-9.33,9.24-13.93,13.92c-1.65,1.68-3.46,2.4-5.89,2.4c-35.33-0.07-70.66-0.05-105.99-0.05
	c-1.08,0-2.15,0-3.43,0c0,1.34,0,2.34,0,3.34c0,33.66,0,67.32,0,100.98c0,10.32,5.21,15.55,15.49,15.55c54.29,0,108.58,0,162.87,0
	C222.78,256.53,223.76,256.53,224.42,256.53z M238.69,43.65c-59.26,0-118.29,0-177.27,0c0,28.14,0,56.09,0,84
	c0.39,0.07,0.57,0.14,0.75,0.14c29.59,0.01,59.18,0.03,88.77-0.04c1.02,0,2.26-0.68,3.03-1.43c4.64-4.51,9.25-9.06,13.71-13.74
	c1.74-1.83,3.62-2.56,6.11-2.55c16.64,0.06,33.29,0.03,49.93,0.03c4.98,0,6.2,1.22,6.2,6.19c0,36.8,0,73.59,0,110.39
	c0,1.06,0,2.12,0,3.11c3.2,0,5.94,0,8.78,0C238.69,167.68,238.69,105.77,238.69,43.65z M247.66,105.73c0,1.31,0,2.4,0,3.49
	c0,41.23,0,82.47,0,123.7c0,4.44-1.37,5.83-5.73,5.84c-3.94,0.01-7.89,0-11.99,0c0,1.98-0.12,3.63,0.02,5.27
	c0.71,8.42,8.37,13.97,16.48,12.01c6.28-1.52,10.11-6.82,10.11-14.08c0.01-44.56,0-89.12,0-133.68c0-0.8,0-1.61,0-2.54
	C253.54,105.73,250.8,105.73,247.66,105.73z M158.73,180.83c9.27,1.34,13.45,6.19,13.46,15.21c0,11.1,0.01,22.19,0,33.29
	c-0.01,8.31-5.58,13.86-13.94,13.86c-17.39,0.01-34.77,0.02-52.16,0c-8.15-0.01-13.77-5.62-13.79-13.74
	c-0.02-11.37-0.01-22.75,0-34.12c0-8.28,4.69-13.46,13.32-14.41c0-2.79-0.01-5.62,0-8.46c0.05-14.05,10.64-25.86,24.07-26.86
	c14.62-1.09,27.02,8.67,28.97,23.14C159.19,172.74,158.73,176.85,158.73,180.83z M131.96,234.34c8.5,0,17,0.01,25.49-0.01
	c4.26-0.01,5.87-1.6,5.87-5.85c0.02-10.9,0.02-21.79,0-32.69c-0.01-4.26-1.6-5.85-5.86-5.86c-16.81-0.01-33.62-0.01-50.43,0
	c-4.27,0-5.86,1.59-5.87,5.84c-0.02,10.9-0.02,21.79,0,32.69c0.01,4.26,1.6,5.85,5.86,5.86
	C115.33,234.35,123.64,234.34,131.96,234.34z M149.97,180.97c0-3.36,0.16-6.49-0.03-9.6c-0.55-9.01-7.08-15.76-16.14-16.86
	c-7.89-0.95-16.26,4.39-18.32,12.48c-1.13,4.44-0.95,9.21-1.37,13.98C126.41,180.97,138.01,180.97,149.97,180.97z M118.88,86.82
	c5.12,3.34,9.22,7.72,11.37,13.48c1.13,3.03,1.67,6.4,1.85,9.65c0.17,2.99-1.73,4.51-4.73,4.52c-14.51,0.02-29.01,0.02-43.52,0
	c-3.2-0.01-4.84-1.65-4.85-5.05c-0.04-8.26,3.98-14.58,9.85-19.95c1.07-0.98,2.3-1.8,3.64-2.83c-3.74-4.45-5.39-9.51-4.44-15.18
	c0.72-4.33,2.85-7.96,6.28-10.77c6.58-5.38,16.22-5.31,22.72,0.15C124.56,67.13,125.2,75.83,118.88,86.82z M88.8,105.48
	c11.33,0,22.45,0,33.6,0c-1.33-7.31-8.84-13.12-16.79-13.13C97.66,92.35,90.17,98.15,88.8,105.48z M105.62,83.4
	c4.77-0.04,8.86-4.15,8.84-8.89c-0.01-4.73-4.17-8.87-8.88-8.84c-4.76,0.03-8.83,4.12-8.85,8.88
	C96.73,79.26,100.93,83.44,105.62,83.4z M168.62,65.68c-3.36,0.01-5.22,1.55-5.28,4.3c-0.07,2.89,1.83,4.54,5.32,4.55
	c15.69,0.01,31.38,0.01,47.07,0c3.35,0,5.22-1.56,5.29-4.31c0.07-2.88-1.85-4.53-5.33-4.54c-7.84-0.01-15.69,0-23.53,0
	C184.31,65.67,176.46,65.66,168.62,65.68z M215.6,96.72c3.52-0.01,5.43-1.6,5.41-4.46c-0.02-2.85-1.91-4.39-5.48-4.39
	c-15.6-0.01-31.19-0.01-46.79,0c-3.52,0-5.43,1.59-5.41,4.46c0.02,2.85,1.91,4.39,5.48,4.39c7.75,0.01,15.5,0,23.26,0
	C199.91,96.72,207.76,96.73,215.6,96.72z M124.76,211.63c-0.89-0.94-1.78-1.89-2.76-2.72c-1.99-1.7-4.53-1.64-6.24,0.08
	c-1.64,1.64-1.88,4.21-0.23,6.01c2.87,3.12,5.9,6.11,8.94,9.07c1.96,1.91,4.31,1.99,6.22,0.16c6.25-6.02,12.43-12.11,18.43-18.36
	c1.62-1.69,1.3-4.03-0.44-5.75c-1.74-1.72-3.8-1.75-5.8-0.41c-0.75,0.51-1.35,1.25-2.01,1.9c-4.3,4.29-8.6,8.58-13.24,13.21
	C126.49,213.54,125.65,212.56,124.76,211.63z"/>
</svg>
