<?xml version="1.0" encoding="utf-8"?>
<!-- Generator: Adobe Illustrator 27.6.1, SVG Export Plug-In . SVG Version: 6.00 Build 0)  -->
<svg version="1.1" id="Layer_1" xmlns="http://www.w3.org/2000/svg" xmlns:xlink="http://www.w3.org/1999/xlink" x="0px" y="0px"
	 viewBox="0 0 300 300" style="enable-background:new 0 0 300 300;" xml:space="preserve">
<style type="text/css">
	.st0{fill:url(#SVGID_1_);}
</style>
<linearGradient id="SVGID_1_" gradientUnits="userSpaceOnUse" x1="58.9086" y1="286.4253" x2="294.9048" y2="50.429">
	<stop  offset="0" style="stop-color:#D33027"/>
	<stop  offset="0.0429" style="stop-color:#D53A27"/>
	<stop  offset="0.1132" style="stop-color:#D95228"/>
	<stop  offset="0.2022" style="stop-color:#E17A29"/>
	<stop  offset="0.3053" style="stop-color:#EBB12A"/>
	<stop  offset="0.4022" style="stop-color:#F6EC2C"/>
	<stop  offset="0.4804" style="stop-color:#F6EC2C"/>
	<stop  offset="0.5232" style="stop-color:#D9D230"/>
	<stop  offset="0.6185" style="stop-color:#9E9E39"/>
	<stop  offset="0.7106" style="stop-color:#6D7240"/>
	<stop  offset="0.7971" style="stop-color:#475045"/>
	<stop  offset="0.8766" style="stop-color:#2C3849"/>
	<stop  offset="0.9467" style="stop-color:#1B294C"/>
	<stop  offset="1" style="stop-color:#15244C"/>
</linearGradient>
<path class="st0" d="M254.4,50.93c4.46,0,8.84,0,13.44,0c0.41-1.14,0.81-2.38,1.29-3.57c2.04-5.1,7.22-8.22,12.22-7.36
	c5.5,0.94,9.33,5.25,9.69,10.93c0.07,1.02,0.02,2.06,0.02,3.09c0,75.83,0,151.66,0,227.49c0,6.17-0.01,6.17-5.95,6.18
	c-4.11,0-8.24-0.18-12.34,0.05c-3.55,0.2-4.83-1.32-4.54-4.67c0.1-1.17,0.01-2.35,0.01-3.53c0-72.45,0-144.9,0-217.35
	c0-1.89,0-3.78,0-5.99c-4.8,0-9.27,0-13.85,0c-2.16,10.23-9.08,16.52-17.47,21.61c-13.91,8.44-29.31,12.52-45.19,14.74
	c-29.25,4.09-58.31,3.19-86.5-6.35c-8.48-2.87-16.81-7.1-24.17-12.22C64.95,62.74,65.03,45.32,80.6,33.29
	c11.26-8.71,24.41-13.19,38.06-16.31c23.88-5.46,48.02-6,72.19-2.6c17.48,2.46,34.49,6.84,49.37,17.04
	C247.18,36.18,252.64,42.14,254.4,50.93z M161.5,89.9c18.83-0.42,37.31-2.13,55.11-8.26c10.61-3.65,20.86-8.05,28.32-16.9
	c6.14-7.28,6.63-14.9,0.14-21.83c-4.7-5.01-10.57-9.36-16.69-12.51c-14.34-7.38-30.01-10.32-46-11.98
	c-26.15-2.71-51.81-0.85-76.82,7.45c-9.78,3.24-19.07,7.62-26.22,15.45c-7.28,7.98-7.51,17.14,0.35,24.57
	c4.71,4.45,10.29,8.36,16.11,11.19C116.55,87.14,138.99,89.35,161.5,89.9z M285.95,282.85c0-1.94,0-3.53,0-5.11
	c0-74.34,0-148.68,0-223.03c0-1.47,0.1-2.96-0.12-4.4c-0.52-3.35-2.54-5.17-5.97-5.24c-4.53-0.1-6.46,2.58-6.46,8.95
	c0,74.78,0,149.57,0.01,224.35c0,1.43,0.13,2.85,0.21,4.49C277.67,282.85,281.43,282.85,285.95,282.85z M159.68,205.43
	c0.03,41.32-33.65,75.13-74.89,75.16c-41.96,0.03-75.9-33.58-75.88-75.14c0.02-41.73,33.62-75.62,74.96-75.63
	C126.1,130.82,159.65,163.29,159.68,205.43z M106.79,235.37c-3.84-11.91-9.6-21.85-17.53-30.47c-1-1.08-3.36-1.64-4.9-1.37
	c-15.66,2.67-31.03,1.72-45.81-4.12c-7.69-3.04-14.97-7.12-22.39-10.71c-2.01,6.15-2.49,20.18-1.73,26.46
	c0.57,4.71,2.97,7.08,6.81,9.17C48.2,239.02,76.85,239.9,106.79,235.37z M108.12,240.09c-31.35,5.2-61.33,3.65-90.21-11.81
	c0.65,1.94,0.93,2.9,1.3,3.83c4.41,10.99,11.26,20.3,20.48,27.59c20.36,16.1,43.09,19.97,67.78,12c1.12-0.36,2.58-1.64,2.74-2.66
	C111.67,259.36,110.65,249.82,108.12,240.09z M128.42,150.29c-8.42-7.13-18.5-11.66-29.5-14c-2.05-0.43-5.28,0.38-6.66,1.85
	c-8.39,8.96-16.97,17.84-24.38,27.59c-7.21,9.47-11.42,20.6-13.12,33.07c10.93,1.38,21.5,1.71,31.96-1.08
	c0.95-0.25,1.87-1.7,2.28-2.78c3.66-9.77,9.22-18.4,16.74-25.48C112.83,162.76,120.62,156.82,128.42,150.29z M109.86,172.23
	c-7,6.99-11.98,14.61-15.84,23.1c-1.68,3.69-1.18,6.27,1.48,9.39c9.68,11.35,16.06,24.44,18.4,39.21
	c1.25,7.86,1.61,15.85,2.39,24.01c10.45-5.21,19.04-12.7,25.75-22.36c0.59-0.86,0.83-2.2,0.72-3.27c-0.4-3.93-0.86-7.87-1.58-11.75
	C137,208,126.16,188.98,109.86,172.23z M49.76,197.69c4.36-25.71,19.05-45.13,37.95-62.51c-31.1-2.63-62.06,19.7-69.69,47.48
	C27.37,189.84,37.75,194.91,49.76,197.69z M114.32,167.39c7.56,11.25,15.08,21.35,21.39,32.16c6.39,10.94,9.59,23.24,11.44,36.61
	c13.44-24.52,8.85-61.07-14.57-81.83C126.33,158.8,119.95,163.36,114.32,167.39z M156.86,82.18c-14.15-0.15-33.09-1.82-51.04-9.12
	c-4.55-1.85-9-4.38-12.88-7.39c-9.25-7.15-9.08-17.12,0.02-24.44c7.97-6.41,17.4-9.74,27.15-11.84c30.74-6.63,61.46-6.82,91.7,2.61
	c6.7,2.09,13.34,5.55,18.91,9.81c9.29,7.1,8.94,16.08,0.06,23.69c-7.2,6.17-15.96,9.11-24.92,11.5
	C191.45,80.85,176.74,82.2,156.86,82.18z M161.91,29.15c-11.64,1.25-23.35,2.03-34.89,3.88c-10.86,1.74-21.46,4.87-30.48,11.63
	c-7.35,5.51-7.54,12.3-0.07,17.57c4.48,3.16,9.55,5.88,14.76,7.55c30.79,9.9,62.03,9.74,93.23,2.4c7.39-1.74,14.7-5.11,21.2-9.1
	c9.2-5.64,8.98-12.9,0.23-19.08c-2.84-2.01-6.01-3.68-9.22-5.02C199.17,31.66,180.7,30.01,161.91,29.15z M126.13,208.71
	c-5.72-8.64-11.4-17.31-17.32-25.82c-0.57-0.82-2.7-0.54-4.11-0.77c0.16,1.3-0.1,2.9,0.56,3.86c4.2,6.16,8.68,12.14,12.91,18.29
	c1.48,2.16,2.38,4.72,3.83,6.89c0.52,0.77,1.91,1.31,2.9,1.31c0.86,0.01,1.72-0.89,2.26-1.2
	C126.58,209.79,126.45,209.18,126.13,208.71z M55.3,157.94c-1.21,0.35-2.84,1.08-3.26,2.08c-3.74,9.03-7.36,18.11-10.73,27.28
	c-0.48,1.3,0.63,3.17,1.01,4.78c1.21-1.17,2.95-2.12,3.53-3.54c3.5-8.5,6.73-17.11,10.06-25.68c0.37-0.94,0.81-1.86,1.37-3.15
	C56.63,159.1,55.76,157.81,55.3,157.94z"/>
</svg>
