<?xml version="1.0" encoding="utf-8"?>
<!-- Generator: Adobe Illustrator 27.6.1, SVG Export Plug-In . SVG Version: 6.00 Build 0)  -->
<svg version="1.1" id="Layer_1" xmlns="http://www.w3.org/2000/svg" xmlns:xlink="http://www.w3.org/1999/xlink" x="0px" y="0px"
	 viewBox="0 0 300 300" style="enable-background:new 0 0 300 300;" xml:space="preserve">
<style type="text/css">
	.st0{fill:#D33027;}
</style>
<path class="st0" d="M257.91,222.06c2.88-7.26,1.19-15.06-4.31-19.86c-9.19-8.02-16.17-17.01-21.34-27.48
	c-1.69-3.41-5.45-4.66-8.92-2.97c-3.47,1.7-4.73,5.52-3.01,9.1c1.51,3.13,3.22,6.26,5.07,9.3c4.57,7.52,10.45,14.4,17.97,21.03
	c1.58,1.39,2.4,3.1,2.28,4.71c-0.11,1.28-0.78,2.38-1.93,3.1c-1.37,0.88-3.12,1.07-4.34,1.07c-49.86,0.02-99.72,0.03-149.59,0.03
	l-37.39,0.01c-0.01,0-0.02,0-0.04,0c-1.84,0-4.79-0.02-6.07-3.15c-1.27-3.12,0.89-4.91,2.05-5.86l0.54-0.47
	c20.62-18.75,31.23-42.18,31.56-69.64c0.07-6.04,0.05-12.07,0.03-18.1c-0.02-4.68-0.02-9.36,0-14.04
	c0.06-9.99,2.08-19.22,5.98-27.48c8.8-18.59,23.41-30.68,43.41-35.95c4.36-1.14,6.68-4.67,5.65-8.58c-0.91-3.49-4.64-5.57-8.56-4.69
	c-33.33,7.37-59.64,39.87-59.89,74c-0.03,4.27-0.01,8.54,0.01,12.81c0.03,6.79,0.07,13.81-0.12,20.72
	c-0.18,6.87-0.83,12.85-1.97,18.26c-3.6,16.98-12.4,31.61-26.18,43.49c-5.28,4.56-7.33,10.32-6.06,17.11
	c1.7,9.08,8.95,14.95,18.46,14.97h52.09h1.45l1.14,3.95c4.95,18.33,21.08,30.64,40.15,30.64c0.01,0,0.02,0,0.04,0
	c18.63-0.02,34.97-12.71,39.72-30.85c0.7-2.68,2.13-3.78,4.91-3.78c0.02,0,0.03,0,0.05,0c16.75,0.08,33.49,0.07,50.24,0.03
	C248.52,233.49,255.16,229,257.91,222.06z M171.73,236.04c-2.46,10.3-14.12,18.63-25.79,18.63c-0.35,0-0.71-0.01-1.07-0.02
	c-11.59-0.52-23.45-9.46-24.9-18.77l-0.34-2.22h52.67L171.73,236.04z"/>
<path class="st0" d="M50.82,233.51c16.75,0.04,33.49,0.05,50.24-0.03c0.02,0,0.03,0,0.05,0c2.77,0,4.21,1.1,4.91,3.78
	c4.76,18.14,21.09,30.82,39.72,30.85c0.02,0,0.03,0,0.04,0c19.07,0,35.2-12.31,40.15-30.64l1.14-3.95h1.45h52.09
	c9.52-0.02,16.76-5.89,18.46-14.97c1.27-6.79-0.78-12.55-6.06-17.11c-13.78-11.88-22.58-26.51-26.18-43.49
	c-1.15-5.41-1.79-11.39-1.97-18.26c-0.19-6.92-0.15-13.93-0.12-20.72c0.02-4.27,0.04-8.54,0.01-12.81
	c-0.25-34.12-26.56-66.63-59.89-74c-3.92-0.88-7.65,1.2-8.56,4.69c-1.02,3.91,1.3,7.45,5.65,8.58c20,5.27,34.61,17.36,43.41,35.95
	c3.9,8.25,5.92,17.49,5.98,27.48c0.02,4.68,0.02,9.36,0,14.04c-0.02,6.04-0.04,12.07,0.03,18.1c0.33,27.45,10.94,50.88,31.56,69.64
	l0.54,0.47c1.16,0.96,3.32,2.74,2.05,5.86c-1.28,3.13-4.24,3.15-6.07,3.15c-0.02,0-0.03,0-0.04,0L202,220.1
	c-49.87,0-99.73-0.01-149.59-0.03c-1.22,0-2.97-0.19-4.34-1.07c-1.15-0.72-1.82-1.82-1.93-3.1c-0.13-1.61,0.7-3.32,2.28-4.71
	c7.51-6.63,13.39-13.51,17.97-21.03c1.85-3.04,3.56-6.17,5.07-9.3c1.73-3.58,0.47-7.41-3.01-9.1c-3.47-1.7-7.23-0.44-8.92,2.97
	c-5.17,10.48-12.15,19.47-21.34,27.48c-5.5,4.8-7.19,12.6-4.31,19.86C36.65,229,43.29,233.49,50.82,233.51z M119.51,233.66h52.67
	l-0.34,2.22c-1.45,9.31-13.31,18.25-24.9,18.77c-0.36,0.02-0.72,0.02-1.07,0.02c-11.67,0-23.32-8.33-25.79-18.63L119.51,233.66z"/>
</svg>
