<?xml version="1.0" encoding="utf-8"?>
<!-- Generator: Adobe Illustrator 27.8.1, SVG Export Plug-In . SVG Version: 6.00 Build 0)  -->
<svg version="1.1" id="Layer_1" xmlns="http://www.w3.org/2000/svg" xmlns:xlink="http://www.w3.org/1999/xlink" x="0px" y="0px"
	 viewBox="0 0 300 300" style="enable-background:new 0 0 300 300;" xml:space="preserve">
<style type="text/css">
	.st0{fill:#FFFFFF;}
</style>
<path class="st0" d="M145.7,165.6c25.9-0.9,48.9,6.7,68.4,22.7c23.9,19.6,36.7,45.3,38.1,76.6H265v-5l-0.5-3.6
	c-0.4-2.9-0.8-5.8-1.3-8.6c-3.1-18.6-10.7-35.6-22.5-50.6c-13.5-17.2-30.5-29.7-50.7-37.2c-0.4-0.2-0.9-0.4-1.4-0.6l-4.9-2.1l3.4-3
	c0.8-0.7,1.3-1.1,1.7-1.5c20-15.7,28.7-36.1,25.9-60.7c-3.2-28-24.9-51.1-52.9-56.1l-6.3-1.1l-11.1,0c-0.8,0.2-1.3,0.4-1.8,0.4
	c-7.2,0.8-14.4,2.9-21.2,6.2C97,53.3,82.1,80.2,85.1,107c2.1,18.8,10.9,34.2,26.3,45.8c0.4,0.3,0.7,0.6,1.1,1l4,3.6l-4.4,1.6
	c-23.1,8.4-41.9,22.6-55.9,42.2c-13.3,18.7-20.4,40-21.1,63.5h12.7C49.5,211.7,92.9,167.6,145.7,165.6z M97.6,101.9
	c-1.1-28.7,21.6-53,50.6-54.1c13.6-0.5,27.4,4.5,37.5,13.9c10.3,9.5,16.2,22.6,16.7,36.8c1.1,28.6-21.6,52.9-50.6,54.2h0
	c-0.6,0-1.2,0-1.8,0C122,152.7,98.6,130.3,97.6,101.9z"/>
</svg>
