<?xml version="1.0" encoding="utf-8"?>
<!-- Generator: Adobe Illustrator 27.6.1, SVG Export Plug-In . SVG Version: 6.00 Build 0)  -->
<svg version="1.1" id="Layer_1" xmlns="http://www.w3.org/2000/svg" xmlns:xlink="http://www.w3.org/1999/xlink" x="0px" y="0px"
	 viewBox="0 0 300 300" style="enable-background:new 0 0 300 300;" xml:space="preserve">
<style type="text/css">
	.st0{fill:#15244C;}
</style>
<path class="st0" d="M258.27,258.26c-5.55,0-11.11,0-16.85,0c-0.7-28.86-11.9-52.68-34.12-70.92c-17.68-14.52-38.26-21.12-61.1-20.3
	c-46.45,1.68-87.3,40.35-87.65,91.06c-5.52,0-11.03,0-16.83,0c0.19-22.92,6.65-43.78,19.94-62.44c13.29-18.65,30.83-31.8,52.61-39.7
	c-0.55-0.51-0.9-0.9-1.31-1.21c-14.59-11.08-23.13-25.64-25.17-43.9c-2.89-25.88,11.34-51.48,34.77-62.74
	c6.46-3.11,13.21-5.13,20.33-5.95c0.55-0.06,1.08-0.27,1.61-0.41c3.66,0,7.33,0,10.99,0c1.93,0.33,3.86,0.65,5.79,1
	c26.5,4.72,47.72,26.89,50.75,53.76c2.69,23.89-5.91,43.27-24.8,58.11c-0.46,0.36-0.9,0.76-1.5,1.27c0.81,0.35,1.37,0.63,1.95,0.84
	c19.21,7.16,35.09,18.9,47.72,35c11.06,14.09,18.18,29.98,21.17,47.67c0.66,3.87,1.12,7.77,1.67,11.66
	C258.27,253.46,258.27,255.86,258.27,258.26z M151.58,149.92c26.36-1.17,44.89-23.02,44-47.06c-0.99-26.51-23.08-45.05-47.14-44.1
	c-26.36,1.04-44.89,22.99-44,47.03C105.43,132.3,127.52,150.73,151.58,149.92z"/>
</svg>
