<?xml version="1.0" encoding="utf-8"?>
<!-- Generator: Adobe Illustrator 27.6.1, SVG Export Plug-In . SVG Version: 6.00 Build 0)  -->
<svg version="1.1" id="Layer_1" xmlns="http://www.w3.org/2000/svg" xmlns:xlink="http://www.w3.org/1999/xlink" x="0px" y="0px"
	 viewBox="0 0 300 300" style="enable-background:new 0 0 300 300;" xml:space="preserve">
<style type="text/css">
	.st0{fill:#15244C;}
</style>
<path class="st0" d="M97.07,267.81c-0.8-1.15-1.92-2.2-2.35-3.47c-2.8-8.41-5.44-16.88-8.14-25.32c-0.21-0.64-0.43-1.28-0.68-2.02
	c-9.44,2.07-18.77,4.09-28.08,6.17c-1.69,0.38-3.19,0.41-4.37-1.08c-1.24-1.57-0.88-3.07,0.05-4.67
	c5.11-8.81,10.17-17.64,15.26-26.46c1.43-2.47,3.34-3.25,5.24-2.19c1.97,1.1,2.26,3.17,0.76,5.78c-3.43,5.98-6.88,11.94-10.31,17.92
	c-0.37,0.64-0.69,1.31-1.23,2.32c6.94-1.52,13.5-2.92,20.05-4.39c7.42-1.67,7.4-1.7,9.65,5.43c2.04,6.45,4.1,12.89,6.33,19.9
	c10.03-17.41,19.78-34.35,29.69-51.56c-13.92-3.63-26.1-10.08-36.88-19.64c-2.39,4.14-4.71,8.17-7.04,12.2
	c-0.54,0.93-1.04,1.88-1.63,2.77c-1.16,1.78-3.03,2.23-4.76,1.21c-1.77-1.05-2.31-2.82-1.23-4.74c2.78-4.94,5.58-9.86,8.51-14.71
	c0.84-1.39,0.64-2.21-0.39-3.35c-12.29-13.58-19.86-29.48-21.83-47.65c-3.33-30.79,6.78-56.63,29.95-77.27
	c1.71-1.52,3.78-1.45,5.13,0.03c1.51,1.65,1.31,3.65-0.73,5.4c-7.28,6.27-13.33,13.55-17.95,21.96
	c-7.71,14.05-10.99,29.05-9.88,45.09c2.34,33.87,26.69,62.87,59.37,71.61c43.18,11.54,88.35-15.6,98.24-59.26
	c9.75-43.01-15.74-85.24-58.17-96.1c-19.74-5.05-38.73-2.63-56.85,6.65c-3.33,1.7-5.24,1.57-6.37-0.55
	c-1.12-2.1-0.12-3.91,3.09-5.61c50.1-26.56,112.77,2.12,125.09,57.45c6.52,29.28-0.4,55.37-20.02,78.05
	c-1.18,1.37-1.15,2.28-0.3,3.76c10.7,18.49,21.34,37.02,32.01,55.52c0.84,1.46,1.54,2.88,0.47,4.48c-0.94,1.4-2.16,2-3.93,1.61
	c-8.88-1.99-17.79-3.84-26.66-5.89c-1.78-0.41-2.37-0.03-2.89,1.67c-2.52,8.26-5.21,16.47-7.77,24.73
	c-0.56,1.81-1.35,3.34-3.11,4.22c-0.46,0-0.92,0-1.38,0c-0.9-0.78-2.04-1.41-2.65-2.38c-1.88-2.97-3.59-6.06-5.3-9.14
	c-1.18-2.12-0.7-4.15,1.11-5.15c1.76-0.97,3.62-0.37,4.88,1.6c0.47,0.74,0.9,1.51,1.6,2.68c0.4-1.19,0.64-1.87,0.86-2.56
	c2.15-6.77,4.29-13.55,6.45-20.32c0.98-3.06,2.26-3.79,5.33-3.11c3.58,0.8,7.16,1.61,10.75,2.38c4.08,0.88,8.16,1.74,12.75,2.71
	c-9.76-16.95-19.24-33.42-28.83-50.07c-10.8,9.56-22.96,16.02-36.79,19.67c0.49,0.9,0.83,1.57,1.21,2.22
	c5.8,10.09,11.61,20.17,17.41,30.26c0.42,0.73,0.85,1.46,1.19,2.23c0.81,1.86,0.15,3.36-1.46,4.33c-1.56,0.94-3.13,0.61-4.34-0.77
	c-0.5-0.57-0.84-1.28-1.22-1.94c-6.39-11.07-12.79-22.14-19.12-33.24c-0.73-1.28-1.45-1.61-2.91-1.38
	c-7.77,1.2-15.59,1.18-23.36,0.09c-2.02-0.28-2.83,0.31-3.73,1.88c-10.84,18.93-21.73,37.84-32.64,56.73
	c-0.67,1.17-1.59,2.19-2.4,3.28C98.91,267.81,97.99,267.81,97.07,267.81z M137.12,57.31c-34.51,7.5-56.54,40.76-49.03,75.08
	c5.45,24.91,20.95,41.63,45.63,48.25c24.59,6.6,46.04-0.26,63.41-18.9c3.46-3.71,6-8.29,8.79-12.58c1.37-2.11,0.8-4.14-1-5.19
	c-1.87-1.09-3.78-0.39-5.13,1.9c-0.16,0.26-0.31,0.53-0.46,0.8c-12.26,21.76-35.09,32.55-59.79,28.27
	c-30.69-5.32-51.67-37.11-44.58-67.55c6.73-28.9,32.52-47.19,61.95-43.94c21.67,2.39,40.72,18.45,46.98,39.57
	c2.62,8.82,3.09,17.74,1.45,26.79c-0.52,2.86,0.41,4.65,2.54,5.09c2.3,0.48,3.73-0.76,4.32-3.82c1.32-6.83,1.43-13.67,0.45-20.57
	c-4.45-31.3-31.29-54.66-62.78-54.81C145.61,56.22,141.28,56.4,137.12,57.31z M185.05,104.09c-6.66-0.97-13.33-1.92-20-2.8
	c-1.35-0.18-2.15-0.69-2.75-1.97c-2.85-6.01-5.83-11.97-8.74-17.95c-0.75-1.54-1.67-2.7-3.6-2.7c-1.94,0.01-2.83,1.2-3.57,2.73
	c-2.9,5.99-5.8,11.98-8.82,17.91c-0.41,0.81-1.41,1.71-2.25,1.84c-6.57,1.06-13.16,1.98-19.76,2.85c-1.8,0.24-3.28,0.71-3.96,2.57
	c-0.71,1.94,0.38,3.17,1.65,4.4c4.57,4.42,9.06,8.93,13.7,13.29c1.33,1.25,1.73,2.44,1.41,4.19c-1.17,6.32-2.15,12.67-3.35,18.97
	c-0.33,1.75-0.27,3.19,1.17,4.34c1.57,1.25,3.1,0.76,4.69-0.09c5.8-3.11,11.65-6.13,17.43-9.27c1.22-0.66,2.15-0.68,3.38-0.02
	c5.85,3.18,11.76,6.25,17.63,9.4c1.54,0.83,3.02,1.14,4.48-0.03c1.34-1.07,1.53-2.42,1.21-4.12c-1.23-6.62-2.36-13.25-3.37-19.9
	c-0.14-0.92,0.32-2.25,0.98-2.91c4.63-4.69,9.41-9.23,14.09-13.88c0.88-0.87,1.48-2.02,1.88-2.57
	C188.6,105.83,187.25,104.41,185.05,104.09z M135.78,126.14c0.34-1.87-0.25-3.2-1.52-4.52c-3.7-3.87-7.29-7.83-10.81-11.63
	c4.63-0.68,9.87-1.53,15.14-2.18c2.18-0.27,3.41-1.35,4.3-3.25c2.22-4.69,4.54-9.32,7.05-14.45c0.93,1.84,1.68,3.29,2.4,4.75
	c1.66,3.36,3.34,6.71,4.95,10.1c0.79,1.68,1.96,2.54,3.85,2.79c5.31,0.69,10.6,1.54,16.18,2.37c-0.47,0.56-0.79,1.02-1.19,1.41
	c-3.45,3.38-6.9,6.77-10.39,10.1c-1.33,1.27-1.9,2.62-1.55,4.5c0.99,5.33,1.83,10.68,2.8,16.44c-3.41-1.79-6.54-3.45-9.69-5.08
	c-8.94-4.61-5.77-4.52-14.66,0.04c-3.13,1.61-6.23,3.27-9.67,5.07C133.95,136.83,134.8,131.48,135.78,126.14z"/>
</svg>
