<?xml version="1.0" encoding="utf-8"?>
<!-- Generator: Adobe Illustrator 27.6.1, SVG Export Plug-In . SVG Version: 6.00 Build 0)  -->
<svg version="1.1" id="Layer_1" xmlns="http://www.w3.org/2000/svg" xmlns:xlink="http://www.w3.org/1999/xlink" x="0px" y="0px"
	 viewBox="0 0 300 300" style="enable-background:new 0 0 300 300;" xml:space="preserve">
<style type="text/css">
	.st0{fill:url(#SVGID_1_);}
</style>
<linearGradient id="SVGID_1_" gradientUnits="userSpaceOnUse" x1="44.8675" y1="254.8682" x2="254.9394" y2="44.7963">
	<stop  offset="0" style="stop-color:#D33027"/>
	<stop  offset="0.0429" style="stop-color:#D53A27"/>
	<stop  offset="0.1132" style="stop-color:#D95228"/>
	<stop  offset="0.2022" style="stop-color:#E17A29"/>
	<stop  offset="0.3053" style="stop-color:#EBB12A"/>
	<stop  offset="0.4022" style="stop-color:#F6EC2C"/>
	<stop  offset="0.4804" style="stop-color:#F6EC2C"/>
	<stop  offset="0.5232" style="stop-color:#D9D230"/>
	<stop  offset="0.6185" style="stop-color:#9E9E39"/>
	<stop  offset="0.7106" style="stop-color:#6D7240"/>
	<stop  offset="0.7971" style="stop-color:#475045"/>
	<stop  offset="0.8766" style="stop-color:#2C3849"/>
	<stop  offset="0.9467" style="stop-color:#1B294C"/>
	<stop  offset="1" style="stop-color:#15244C"/>
</linearGradient>
<path class="st0" d="M36.11,216.76c2.51-42.99,13.6-78.9,36.89-110.57c19.45-26.45,45.24-44.59,75.59-56.43
	c23.84-9.3,48.58-14.32,74.23-13.48c7.61,0.25,15.25,1.8,22.72,3.44c7.51,1.65,12.2,6.71,14.57,14.11
	c3.22,10.08,4.07,20.44,3.7,30.87c-1.39,39.85-13.23,76.25-36.83,108.54c-19.59,26.81-45.76,45.02-76.41,57.07
	c-22.57,8.87-46,13.71-70.31,13.51c-6.59-0.06-13.21-1.01-19.76-1.92c-12.95-1.81-20.8-8.98-22.25-22.29
	C37.27,230.67,36.57,221.71,36.11,216.76z M48.64,194.87c0.52,0.76,0.96,1.7,1.65,2.39c17.47,17.44,34.95,34.86,52.5,52.22
	c0.74,0.73,2.27,1.19,3.29,1.01c5.92-1.08,11.86-2.19,17.69-3.66c37.03-9.37,68.72-27.39,92.43-57.92
	c18.69-24.06,29.71-51.45,34.36-81.46c0.17-1.07-0.18-2.64-0.9-3.37c-17.89-18.02-35.86-35.97-53.88-53.87
	c-0.78-0.77-2.4-1.42-3.38-1.16c-13.13,3.4-26.55,6.07-39.25,10.69c-27.62,10.05-50.96,26.52-69.11,49.89
	c-15.56,20.04-25.71,42.64-31.56,67.24C51.1,182.72,49.97,188.64,48.64,194.87z M208.72,47.14c15.16,14.88,29.62,29.07,43.98,43.17
	c0.11-10.24,0.87-20.89-2.2-31.29c-1.09-3.69-2.46-7.19-6.59-8.6C232.72,46.59,221.21,46.58,208.72,47.14z M88.08,252.56
	c-13.32-13.62-26.97-27.59-40.91-41.85c-0.6,10.31-0.34,20.26,2.07,30.13c1.35,5.52,4.92,8.18,10.17,9.57
	C69.19,252.98,79.11,252.72,88.08,252.56z M165,172.4c2.46,2.44,6.05,2.58,8.26,0.48c2.21-2.09,2.04-5.56-0.43-8.25
	c-0.8-0.87-1.66-1.69-2.51-2.52c-4.21-4.1-8.42-8.2-12.14-11.82c5.8-5.8,11.13-11.13,16.75-16.75c4.36,4.44,8.99,9.18,13.66,13.88
	c3.06,3.07,6.57,3.45,9.05,1.06c2.54-2.44,2.12-5.53-1.28-8.92c-4.7-4.68-9.45-9.32-14.75-14.55c3.24-3.01,6.34-5.76,9.29-8.66
	c3.11-3.07,3.45-6.35,1.12-8.75c-2.47-2.54-5.75-2.12-9,1.11c-2.92,2.9-5.86,5.77-8.88,8.74c-0.9-0.86-1.68-1.57-2.43-2.32
	c-4.29-4.26-8.56-8.55-12.87-12.8c-2.02-1.99-4.46-2.15-6.87-0.96c-2.53,1.24-3,3.66-2.37,6.1c0.33,1.27,1.35,2.47,2.32,3.45
	c4.75,4.8,9.58,9.51,14.23,14.1c-5.65,5.71-11.04,11.16-16.83,17.01c-0.65-0.83-1.31-1.85-2.14-2.69c-4.26-4.3-8.5-8.61-12.87-12.8
	c-2.24-2.14-5.75-2.07-7.73-0.14c-1.97,1.92-2.04,5.42-0.07,7.76c0.91,1.09,1.96,2.06,2.99,3.05c4.25,4.06,8.51,8.11,12.54,11.95
	c-5.92,6.04-11.21,11.44-17.02,17.38c-0.96-1.22-1.81-2.53-2.89-3.63c-3.99-4.07-8-8.1-12.09-12.07c-2.02-1.96-4.44-2.17-6.86-0.78
	c-2.62,1.51-2.79,4.07-2.05,6.55c0.37,1.26,1.51,2.37,2.49,3.36c4.67,4.67,9.41,9.27,13.99,13.76c-0.38,0.75-0.45,1-0.6,1.16
	c-2.59,2.61-5.2,5.2-7.79,7.81c-3.05,3.08-3.58,6.73-1.33,9.06c2.39,2.48,5.78,2.12,9.03-1.13c2.84-2.85,5.54-5.83,8.53-8.98
	c5.22,5.28,9.94,10.29,14.96,14.98c1.39,1.3,3.78,2.36,5.55,2.15c1.55-0.18,3.78-2.13,4.06-3.61c0.35-1.84-0.42-4.51-1.69-5.94
	c-4.7-5.27-9.82-10.18-14.4-14.84c5.64-5.65,10.97-10.99,16.62-16.65C155.19,162.47,160.06,167.47,165,172.4z M84.29,144.3
	c6.48-15.08,16.42-27.62,28.66-38.39c13.48-11.86,28.75-20.74,45.61-26.87c2.87-1.04,4.79-2.61,4.66-5.82
	c-0.16-4.11-3.64-6.37-7.95-4.55c-8.58,3.62-17.28,7.17-25.38,11.72c-21.58,12.12-39.2,28.51-51.3,50.37
	c-1.88,3.4-3.59,6.94-5.01,10.56c-1.7,4.32,0.47,7.86,5.09,7.97C81.5,149.25,83.09,147.07,84.29,144.3z"/>
</svg>
