<?xml version="1.0" encoding="utf-8"?>
<!-- Generator: Adobe Illustrator 27.6.1, SVG Export Plug-In . SVG Version: 6.00 Build 0)  -->
<svg version="1.1" id="Layer_1" xmlns="http://www.w3.org/2000/svg" xmlns:xlink="http://www.w3.org/1999/xlink" x="0px" y="0px"
	 viewBox="0 0 300 300" style="enable-background:new 0 0 300 300;" xml:space="preserve">
<style type="text/css">
	.st0{fill:url(#SVGID_1_);}
</style>
<linearGradient id="SVGID_1_" gradientUnits="userSpaceOnUse" x1="59.7821" y1="231.3898" x2="205.8438" y2="85.3281">
	<stop  offset="0" style="stop-color:#D33027"/>
	<stop  offset="0.0429" style="stop-color:#D53A27"/>
	<stop  offset="0.1132" style="stop-color:#D95228"/>
	<stop  offset="0.2022" style="stop-color:#E17A29"/>
	<stop  offset="0.3053" style="stop-color:#EBB12A"/>
	<stop  offset="0.4022" style="stop-color:#F6EC2C"/>
	<stop  offset="0.4804" style="stop-color:#F6EC2C"/>
	<stop  offset="0.5232" style="stop-color:#D9D230"/>
	<stop  offset="0.6185" style="stop-color:#9E9E39"/>
	<stop  offset="0.7106" style="stop-color:#6D7240"/>
	<stop  offset="0.7971" style="stop-color:#475045"/>
	<stop  offset="0.8766" style="stop-color:#2C3849"/>
	<stop  offset="0.9467" style="stop-color:#1B294C"/>
	<stop  offset="1" style="stop-color:#15244C"/>
</linearGradient>
<path class="st0" d="M41.51,114.06c0.31-2.15,0.55-4.32,0.94-6.45c5.05-27.53,20.09-47.7,46-58.21
	c29.01-11.77,56.01-6.73,79.84,13.71c10.07,8.64,16.92,19.58,21.07,32.17c0.57,1.72,1.36,2.41,3.22,2.49
	c11.1,0.47,21.55,3.33,31.15,8.97c18.04,10.59,29.23,26.16,33.42,46.65c6.13,29.98-9.24,60.97-36.76,74.45
	c-6.12,3-12.5,5.08-19.22,6.22c-1.25,0.21-2.56,0.81-3.58,1.59c-11.42,8.68-23.96,15.03-37.95,18.42
	c-11.85,2.87-23.89,3.05-35.97,2.62c-11.45-0.4-22.49-2.73-33.12-7.01c-8.03-3.23-15.44-7.54-22.4-12.66
	c-3.41-2.51-6.79-5.06-10.16-7.62c-6.65-5.06-7.02-12.43-0.9-18.06c7.32-6.74,14.43-13.73,22.96-19.01c1.91-1.18,3.84-2.32,6-3.62
	c-0.71-0.41-1.22-0.72-1.75-0.99c-19.58-9.86-32.85-25.17-39.38-46.11c-1.42-4.54-1.99-9.35-2.96-14.03
	c-0.14-0.68-0.3-1.36-0.46-2.04C41.51,121.69,41.51,117.88,41.51,114.06z M131.92,249.66c4.93-0.26,9.87-0.36,14.78-0.83
	c11.64-1.12,22.77-4.33,32.82-10.28c7.62-4.51,14.7-9.95,21.96-15.06c2.95-2.08,3.01-4.35,0.38-6.79c-2.64-2.45-5.32-4.85-7.97-7.3
	c-19.21-17.72-41.75-26.23-67.96-24.64c-13.61,0.83-26.21,4.88-38.11,11.46c-10.01,5.54-18.14,13.37-26.4,21.06
	c-1.96,1.83-1.74,4.1,0.42,5.81c2.38,1.88,4.87,3.62,7.27,5.48c7.45,5.77,15.34,10.76,24.11,14.3
	C105.64,247.9,118.57,249.88,131.92,249.66z M128.83,102.62c-13.12-14.58-19.3-31.88-19.86-51.32C94.6,53.29,82.31,58.84,72.04,68
	c15.35,15.34,30.55,30.54,45.7,45.7C121.24,110.2,124.94,106.51,128.83,102.62z M49.43,110.88c19.65,0.53,36.83,6.79,51.21,19.66
	c3.87-3.86,7.61-7.59,10.96-10.94c-15.08-15.08-30.32-30.32-45.59-45.59C56.95,84.32,51.36,96.52,49.43,110.88z M95.39,135.67
	c-13.2-11.59-28.72-17.12-46.27-17.43c-0.95,15.98,6.15,35.14,17.16,46.5C75.95,155.08,85.61,145.43,95.39,135.67z M163.14,68.2
	c-13.51-11.66-28.98-17.56-46.81-17.35c0.39,17.88,5.96,33.41,17.62,46.52C143.71,87.63,153.34,78,163.14,68.2z M141.19,130.21
	c4.64,0.71,5.48,4.4,6.78,7.76c1.38,3.55,2.75,7.1,4.28,10.57c0.37,0.85,1.23,1.71,2.08,2.07c3.88,1.68,7.8,3.27,11.77,4.69
	c0.87,0.31,2.24,0.16,3.02-0.34c5.29-3.38,10.5-6.88,15.67-10.45c0.65-0.45,1.21-1.52,1.24-2.33c0.13-3.67,0-7.34,0.09-11.01
	c0.03-1.28-0.41-2.05-1.45-2.77c-5.52-3.8-10.99-7.68-16.49-11.51c-1.9-1.32-3.96-2.47-3.82-5.28
	C156.03,114.05,145.9,122.13,141.19,130.21z M117.78,178.14c-1.92-14.13-7.49-26.37-16.6-36.66c-9.82,9.83-19.47,19.49-29.17,29.21
	c6.5,5.85,14.1,10.3,22.57,13.29c0.64,0.23,1.5,0.04,2.2-0.17c4.65-1.38,9.26-2.89,13.93-4.21
	C112.98,178.95,115.35,178.63,117.78,178.14z M250.98,168.54c-2.97,2.4-5.09,1.11-7.31-0.41c-5.53-3.79-11.15-7.44-16.69-11.2
	c-0.99-0.67-1.78-0.75-2.86-0.2c-2.64,1.32-5.4,2.43-8.03,3.77c-0.71,0.36-1.46,1.15-1.68,1.89c-1.96,6.54-3.83,13.11-5.62,19.69
	c-0.17,0.64,0.09,1.67,0.54,2.16c1.96,2.13,3.99,4.21,6.14,6.13c0.74,0.67,1.92,1.18,2.9,1.2c6.63,0.1,13.27,0.12,19.91,0.02
	c2.53-0.04,4.79,0.15,5.95,3.03C248.37,186.44,250.64,178.11,250.98,168.54z M215.15,110.56c0.12,2.57-1.47,3.78-3.2,4.97
	c-5.69,3.92-11.31,7.92-17,11.84c-1.02,0.7-1.54,1.43-1.51,2.73c0.09,3.67-0.06,7.34,0.09,11c0.04,0.86,0.66,2,1.37,2.49
	c4.92,3.42,9.96,6.65,14.89,10.05c1.17,0.8,2.09,0.77,3.28,0.19c2.72-1.33,5.53-2.46,8.2-3.88c0.86-0.46,1.74-1.44,2.02-2.36
	c2.08-6.86,4.04-13.76,5.95-20.67c0.56-2.01,1.43-3.6,3.76-4.12C227.73,117.65,221.97,113.59,215.15,110.56z M189.63,180.71
	c3.46,0,6.92,0.06,10.38-0.05c0.62-0.02,1.59-0.62,1.76-1.15c1.76-5.79,3.43-11.61,5.01-17.45c0.16-0.6-0.19-1.73-0.68-2.07
	c-5.05-3.49-10.15-6.89-15.3-10.23c-0.49-0.32-1.53-0.32-2.01-0.01c-5.15,3.34-10.26,6.73-15.31,10.21c-0.48,0.33-0.84,1.42-0.69,2
	c1.54,5.78,3.22,11.52,4.8,17.29c0.32,1.18,0.92,1.51,2.09,1.48C182.99,180.67,186.31,180.71,189.63,180.71z M168.56,73.76
	c-9.89,9.63-19.67,19.15-29.71,28.93c3.46,2.51,6.46,4.61,9.37,6.82c1.14,0.87,1.98,0.82,3.16,0c5.51-3.88,11.52-6.83,17.98-8.71
	c4.31-1.25,8.74-2.1,13.1-3.13C180.36,90.12,174,79.17,168.56,73.76z M171.6,185.67c0-0.54,0.05-0.75-0.01-0.94
	c-2.07-7.23-4.11-14.47-6.26-21.68c-0.21-0.72-1.02-1.47-1.74-1.78c-3.62-1.55-7.32-2.9-10.94-4.45c-1.31-0.56-2.12-0.39-3.12,0.63
	c-4.43,4.54-9.02,8.93-13.4,13.52c-2.11,2.21-4.2,3.56-7.43,1.37c0.28,1.89,0.49,3.31,0.72,4.88
	C144.13,176.84,158.08,179.71,171.6,185.67z M210.14,224.25c11.88-4.31,21.32-11.28,28.76-21.02c0.74-0.97,0.62-1.72,0.1-2.66
	c-0.52-0.93-0.86-1.76-2.27-1.74c-5.93,0.1-11.86-0.01-17.79,0.1c-0.76,0.01-1.85,0.67-2.2,1.34c-2.28,4.29-4.42,8.66-6.54,13.04
	c-0.3,0.62-0.48,1.57-0.22,2.15C211.22,218.24,211.33,221.02,210.14,224.25z M250.8,158.94c-0.45-2.23-0.93-5.15-1.65-8.01
	c-1.78-7.1-4.89-13.6-9.01-19.65c-0.96-1.41-2.14-1.14-3.33-1.05c-0.43,0.03-1.05,0.65-1.19,1.12c-1.75,5.93-3.45,11.88-5.08,17.84
	c-0.13,0.49,0.17,1.42,0.58,1.7c5.29,3.61,10.62,7.17,15.99,10.68C248.41,162.43,250.87,161.06,250.8,158.94z M106.2,136.11
	c6.34,7.11,11.29,15.25,14.79,24.52c0.33-0.51,0.46-0.62,0.47-0.74c0.74-8.23,3-16.02,6.49-23.49c0.19-0.41,0.06-1.27-0.25-1.59
	c-3.33-3.44-6.74-6.81-9.99-10.07C113.86,128.55,110.11,132.26,106.2,136.11z M189.77,122.1c5.32-3.72,10.59-7.36,15.81-11.08
	c0.57-0.41,1.18-1.23,1.18-1.86c0.01-1.13-0.52-2.14-1.94-2.32c-4.95-0.61-9.9-1.79-14.84-1.77c-5.16,0.02-10.33,1.09-15.46,1.92
	c-0.71,0.11-1.31,1.39-1.78,2.23c-0.14,0.26,0.21,1.05,0.55,1.29C178.74,114.38,184.22,118.21,189.77,122.1z M210.68,195.96
	c-2.29-2.25-4.43-4.5-6.74-6.57c-0.75-0.67-1.92-1.2-2.9-1.21c-7.34-0.1-14.67-0.06-22.01-0.05c-0.5,0-1.01,0.1-2.13,0.22
	c10.59,5.43,19,12.74,27.24,20.62C206.39,204.51,208.48,200.36,210.68,195.96z M137.12,135.23c-0.11,0.09-0.25,0.16-0.32,0.27
	c-5.09,8.5-7.69,17.76-8.26,27.6c-0.03,0.59,0.88,1.49,1.56,1.78c0.55,0.23,1.63,0.01,2.07-0.42c4.19-4.07,8.28-8.26,12.45-12.36
	c0.83-0.82,0.97-1.49,0.51-2.57c-1.53-3.62-3.05-7.26-4.37-10.96C140.11,136.69,138.99,135.64,137.12,135.23z M132.07,128.4
	c3.75-4.33,7.55-8.72,11.35-13.11c-3.09-2.39-6.23-4.82-9.12-7.05c-3.85,3.84-7.57,7.56-11.21,11.2
	C125.98,122.33,130.02,125.36,132.07,128.4z M99.44,227.68c4.44-0.03,3.29-4.03,3.65-6.88c2.37,0,4.64,0,7.02,0
	c0.27,2.85-0.74,6.66,3.47,6.86c4.79,0.22,3.61-3.99,3.98-6.86c2.43,0,4.65,0,6.96,0c0.31,2.84-0.68,6.65,3.52,6.86
	c4.79,0.24,3.59-4.01,4.09-6.84c2.35,0,4.57,0,6.83,0c0.32,2.88-0.59,6.68,3.6,6.84c4.69,0.18,3.59-4.03,4.09-6.82
	c2.35,0,4.56,0,6.91,0c0,1.18-0.08,2.17,0.02,3.14c0.24,2.41,1.68,3.83,3.73,3.79c2.03-0.04,3.44-1.53,3.61-3.93
	c0.07-1.02,0.01-2.05,0.01-3.13c3.12-0.21,6.92,0.54,7.04-3.58c0.14-4.61-4.04-3.64-6.87-3.99c-0.58-5.58-1.39-7.24-3.81-7.03
	c-4.45,0.39-3.54,4.1-3.89,7.01c-2.32,0-4.54,0-6.82,0c-0.28-2.94,0.54-6.86-3.73-6.92c-4.44-0.06-3.6,3.96-3.9,6.94
	c-2.31,0-4.53,0-6.86,0c-0.36-2.84,0.63-6.84-3.65-6.94c-4.58-0.1-3.58,4.09-3.94,6.9c-2.41,0-4.63,0-6.94,0
	c-0.26-2.94,0.66-6.89-3.67-6.91c-4.45-0.02-3.53,4.02-3.78,6.91c-2.42,0-4.7,0-6.96,0c-0.58-5.55-1.39-7.22-3.72-7
	c-4.48,0.43-3.49,4.12-3.72,7.04c-2.95,0.35-7-0.73-7.01,3.8c-0.01,4.58,4.13,3.34,7.02,3.84
	C95.95,223.67,94.87,227.71,99.44,227.68z"/>
</svg>
