<?xml version="1.0" encoding="utf-8"?>
<!-- Generator: Adobe Illustrator 27.6.1, SVG Export Plug-In . SVG Version: 6.00 Build 0)  -->
<svg version="1.1" id="Layer_1" xmlns="http://www.w3.org/2000/svg" xmlns:xlink="http://www.w3.org/1999/xlink" x="0px" y="0px"
	 viewBox="0 0 300 300" style="enable-background:new 0 0 300 300;" xml:space="preserve">
<style type="text/css">
	.st0{fill:url(#SVGID_1_);}
</style>
<linearGradient id="SVGID_1_" gradientUnits="userSpaceOnUse" x1="54.3127" y1="272.6257" x2="241.3502" y2="85.5882">
	<stop  offset="0" style="stop-color:#D33027"/>
	<stop  offset="0.0429" style="stop-color:#D53A27"/>
	<stop  offset="0.1132" style="stop-color:#D95228"/>
	<stop  offset="0.2022" style="stop-color:#E17A29"/>
	<stop  offset="0.3053" style="stop-color:#EBB12A"/>
	<stop  offset="0.4022" style="stop-color:#F6EC2C"/>
	<stop  offset="0.4804" style="stop-color:#F6EC2C"/>
	<stop  offset="0.5232" style="stop-color:#D9D230"/>
	<stop  offset="0.6185" style="stop-color:#9E9E39"/>
	<stop  offset="0.7106" style="stop-color:#6D7240"/>
	<stop  offset="0.7971" style="stop-color:#475045"/>
	<stop  offset="0.8766" style="stop-color:#2C3849"/>
	<stop  offset="0.9467" style="stop-color:#1B294C"/>
	<stop  offset="1" style="stop-color:#15244C"/>
</linearGradient>
<path class="st0" d="M284.79,233.73c-1.37,1.67-2.8,3.22-5.29,2.25c-2.43-0.95-2.62-2.97-2.61-5.19
	c0.03-13.16,0.02-26.31,0.01-39.47c0-1.09-0.16-2.19-0.28-3.66c-5.17,4.38-9.31,8.41-8.83,15.78c0.61,9.34,0.17,18.76,0.13,28.14
	c-0.02,3.64-2.89,5.84-5.59,4.17c-1.07-0.66-2.17-2.3-2.18-3.5c-0.14-11.49-0.17-22.98,0.02-34.47c0.07-4.2,2.33-7.65,5.27-10.57
	c1.86-1.85,3.81-3.61,6.05-5.72c-8.05-4.05-15.65-7.88-23.79-11.98c-2.76,2.87-5.79,5.89-8.63,9.08c-0.58,0.65-0.61,1.94-0.61,2.93
	c-0.03,16.23-0.02,32.45-0.03,48.68c0,0.96,0.06,1.96-0.17,2.88c-0.49,2.02-1.88,3.27-3.97,3.14c-2.15-0.12-3.56-1.38-3.74-3.67
	c-0.08-1.05-0.07-2.1-0.07-3.15c0-15.88-0.04-31.75,0.04-47.63c0.01-1.93-0.55-3.27-1.93-4.57c-2.61-2.46-5.04-5.11-7.44-7.57
	c-0.46,0.12-0.63,0.14-0.78,0.21c-3.25,1.71-5.11,1.58-6.51-0.48c-1.34-1.97-0.71-3.91,1.99-6.17c2.3-1.91,2.97-8.05,0.96-10.09
	c-5.36-5.44-7.7-11.99-7.43-19.54c0.06-1.57,0.03-2.83-2-3.33c-0.84-0.21-1.92-1.59-1.98-2.49c-0.44-6.82-0.98-13.71,2.24-20.11
	c4.69-9.32,12.48-14.04,22.76-14.29c5.04-0.12,10.28-0.08,15.1,1.16c10.74,2.75,17.61,11.95,18.16,23.1c0.15,2.98,0.3,6-0.07,8.93
	c-0.18,1.4-1.3,3.13-2.5,3.81c-1.22,0.69-1.66,1.22-1.6,2.5c0.4,7.93-2.01,14.78-7.68,20.49c-2.27,2.29-0.66,8.97,2.35,10.51
	c5.77,2.95,11.48,6.04,17.4,8.67c6.39,2.84,11.35,6.81,13.22,13.84C284.79,202.15,284.79,217.94,284.79,233.73z M235.22,152.27
	c0.56-0.07,1.9-0.11,3.15-0.44c8.79-2.32,13.35-9.08,13.27-19.23c-0.02-1.84-0.75-2.25-2.36-2.62c-5.94-1.37-12-2.52-17.7-4.59
	c-3.58-1.31-5.89-1.04-9.38,0.71c-4.7,2.36-5.11,5.43-4.87,9.75C217.85,145.08,225.23,152.3,235.22,152.27z M255.55,122.66
	c1.14-9.48-2.98-17.21-10.66-20.09c-5.23-1.96-10.7-1.48-16.09-1.05c-10.24,0.83-17.1,9.83-15.25,20.8c3.03-2.06,5.89-3.8,8.51-5.85
	c3.19-2.5,3.69-2.64,7.25-0.79C237.49,119.96,246.23,122.11,255.55,122.66z M242.83,158.89c-5.57,1.79-11.13,1.9-17.24-0.19
	c0.17,1.82-0.22,3.72,0.55,4.63c2.51,2.98,5.45,5.61,8.35,8.5c2.35-2.38,4.43-4.75,6.79-6.82
	C243.16,163.37,243.8,161.61,242.83,158.89z M200.92,179.05c-4.01,3.9-7.75,7.13-10.92,10.83c-1.33,1.55-2.03,4.11-2.06,6.23
	c-0.2,11.14-0.09,22.28-0.09,33.42c0,0.61,0.02,1.23-0.01,1.84c-0.12,3.03-1.66,4.9-4.03,4.92c-2.34,0.01-4-1.84-4.02-4.88
	c-0.06-10.44-0.05-20.88-0.02-31.32c0.01-2.45,0.03-4.92,0.33-7.35c0.47-3.89,2.47-7.05,5.21-9.78c3.91-3.89,7.81-7.77,12.09-12.02
	c-1.71-1.09-3.06-2.19-4.58-2.89c-6.77-3.09-13.6-6.03-20.37-9.12c-1.37-0.63-2.17-0.36-3.18,0.66c-4.48,4.58-9.1,9.02-13.51,13.65
	c-0.9,0.95-1.59,2.54-1.59,3.84c-0.1,17.63-0.06,35.27-0.09,52.9c0,1.21,0.14,2.69-0.47,3.57c-0.8,1.16-2.32,2.58-3.47,2.53
	c-1.3-0.06-2.82-1.41-3.69-2.61c-0.62-0.85-0.46-2.36-0.46-3.57c-0.02-17.28-0.07-34.56,0.04-51.85c0.01-2.41-0.7-4.07-2.42-5.7
	c-4.39-4.16-8.55-8.57-12.93-12.75c-0.62-0.59-2.09-0.97-2.83-0.65c-7.01,2.97-13.96,6.08-20.89,9.24c-1.4,0.64-2.63,1.64-4.31,2.71
	c4.11,4.09,8.16,7.72,11.7,11.79c2.18,2.51,3.84,5.57,5.24,8.61c0.76,1.65,0.67,3.77,0.68,5.68c0.06,11.14,0.03,22.28,0.03,33.42
	c0,0.44,0.01,0.88-0.02,1.32c-0.22,2.83-1.82,4.61-4.08,4.56c-2.3-0.06-3.84-1.85-3.96-4.71c-0.07-1.66-0.02-3.33-0.02-5
	c0-10.18,0.09-20.35-0.08-30.53c-0.03-1.98-0.54-4.43-1.77-5.82c-3.35-3.78-7.22-7.11-11.1-10.83c-0.04,0.93-0.12,1.82-0.12,2.71
	c-0.01,15.79,0,31.58-0.01,47.37c0,0.96,0.02,1.93-0.08,2.89c-0.23,2.31-1.8,3.88-3.83,3.91c-1.98,0.03-3.71-1.57-4.03-3.79
	c-0.11-0.78-0.06-1.58-0.06-2.36c0-16.14,0.02-32.28-0.01-48.42c-0.02-10.2,4.52-17.37,13.91-21.46c6.82-2.97,13.57-6.1,20.41-9.03
	c2.6-1.12,3.65-2.83,3.72-5.66c0.07-3.28-0.49-5.77-3.13-8.28c-6.46-6.12-9.19-14.09-9.63-22.92c-0.05-0.98-0.76-1.95-1.25-2.88
	c-0.87-1.68-2.42-3.26-2.59-4.99c-0.92-9.19-0.55-18.26,4.56-26.42c6.54-10.44,16.06-15.91,28.35-16.27
	c6.72-0.2,13.47-0.46,20.01,1.92c13.25,4.83,22.25,17.32,22.36,31.37c0.02,2.73-0.79,5.1-2.74,7.16c-0.78,0.83-1.28,2.16-1.41,3.32
	c-0.6,5.29-0.6,10.68-1.63,15.87c-1.22,6.17-4.86,11.18-9.47,15.43c-3.25,2.99-2.16,10.4,1.87,12.22c7.02,3.17,14.06,6.28,21.1,9.42
	c8.97,4,13.34,10.99,13.37,20.72c0.04,16.4,0.01,32.81,0,49.21c0,0.87,0.01,1.77-0.19,2.61c-0.5,2.02-1.87,3.27-3.95,3.18
	c-2.17-0.1-3.56-1.37-3.75-3.65c-0.08-0.96-0.1-1.93-0.1-2.89c-0.01-15.79,0-31.58,0-47.37
	C200.92,181.39,200.92,180.46,200.92,179.05z M120.57,105.66c2.3-1.52,4.15-2.79,6.05-3.98c1.95-1.22,4.2-0.87,5.42,0.76
	c1.24,1.65,1.07,3.97-0.64,5.43c-1.52,1.3-3.15,2.55-4.93,3.44c-1.62,0.81-2.01,1.8-1.93,3.51c0.6,12.02,8.14,21.48,20.06,24.18
	c17,3.85,34.08-10.25,30.63-31.31c-5.96-0.29-11.92-0.23-17.79-0.93c-8.35-1-15.82-4.35-22.06-10.12c-2.29-2.12-2.57-4.38-0.91-6.2
	c1.69-1.86,3.76-1.72,6.28,0.29c1.64,1.31,3.27,2.67,5.08,3.71c10.64,6.11,22.01,5.96,33.6,3.92c0.12-0.37,0.26-0.61,0.27-0.86
	c0.42-10.29-7.1-20.98-16.92-24.2c-6.67-2.19-13.49-1.83-20.3-1.2c-4.35,0.4-8.27,2.13-11.77,4.75
	C121.14,83.98,119.43,93.97,120.57,105.66z M150,167.69c4.74-4.75,9.24-9.25,13.71-13.79c0.36-0.37,0.68-1.09,0.58-1.55
	c-0.53-2.34-1.21-4.64-1.86-7.03c-8.33,3.21-16.68,3.06-24.83,0.05c-0.63,2.37-1.29,4.44-1.69,6.56c-0.13,0.68,0.22,1.69,0.71,2.2
	C140.93,158.6,145.33,162.98,150,167.69z M43.79,182.24c-3.23,1.64-6.11,3.11-9,4.57c-2.8,1.42-5.6,2.84-8.89,4.5
	c2.83,2.77,5.33,5.31,7.93,7.75c4.34,4.07,6.47,8.95,6.24,14.99c-0.22,5.78-0.03,11.58-0.06,17.36c-0.01,3.05-1.55,4.9-3.95,4.88
	c-2.4-0.02-3.92-1.87-3.93-4.92c-0.02-5.79-0.11-11.58,0.03-17.37c0.09-3.68-1.07-6.64-3.79-9.11c-1.62-1.47-3.04-3.16-5.22-4.59
	c0,0.87,0,1.75,0,2.62c0,9.56,0.02,19.12-0.01,28.68c-0.01,3.64-2.87,5.83-5.58,4.14c-1.07-0.67-2.16-2.3-2.18-3.51
	c-0.15-12.01-0.33-24.04,0.05-36.04c0.19-6.13,3.9-10.55,9.36-13.34c4.05-2.07,8.12-4.12,12.23-6.08c2.51-1.19,3.43-3.02,3.61-5.8
	c0.31-4.69-0.71-8.2-4.57-11.56c-5.55-4.83-7.98-11.65-8.09-19.05c-0.07-4.81-0.1-9.67,0.52-14.41c0.98-7.56,5-13.54,11-18.17
	c1.14-0.88,1.77-1.6,1.43-3.22c-1.35-6.49,1.54-13.22,7.06-16.91c5.47-3.65,12.86-3.76,18.34,0c5.92,4.06,8.22,9.86,7.15,16.89
	c-0.22,1.44-0.03,2.17,1.11,3.04c7.5,5.69,11.56,13.25,11.78,22.7c0.18,7.43,1.01,15.08-2.91,21.84c-2.11,3.64-5.26,6.68-7.82,10.07
	c-0.82,1.08-1.36,2.41-1.82,3.7c-0.25,0.7,0.05,1.58-0.06,2.35c-0.64,4.69,0.96,7.87,5.62,9.61c2.7,1.01,3.44,3.37,2.43,5.54
	c-0.97,2.09-3.22,2.73-5.84,1.55c-1.75-0.79-3.43-1.74-5.35-2.72c-2.89,2.91-5.91,5.84-8.75,8.93c-0.59,0.65-0.71,1.91-0.72,2.89
	c-0.05,11.93-0.03,23.86-0.03,35.79c0,0.96,0.02,1.93-0.08,2.89c-0.23,2.16-1.62,3.33-3.64,3.5c-1.96,0.16-3.38-0.93-3.95-2.81
	c-0.28-0.9-0.25-1.9-0.25-2.86c-0.01-12.19,0.03-24.38-0.07-36.57c-0.01-1.22-0.63-2.69-1.45-3.61
	C49.13,187.51,46.35,184.85,43.79,182.24z M36.01,138.89c-0.34,11.89,8.82,21.49,20.76,21.81c11.3,0.3,21.06-8.62,21.41-18.94
	c-5.29-0.44-10.76-0.11-15.72-1.54c-5.06-1.45-9.62-4.63-14.66-7.19c-1.43,0.87-3.3,2.17-5.32,3.18
	C40.47,137.22,38.31,137.95,36.01,138.89z M36.26,130.19c0.79-0.29,1.59-0.42,2.2-0.83c2.38-1.61,4.75-3.24,7.03-4.99
	c2.58-1.98,4.39-1.97,6.68,0.29c0.5,0.49,0.95,1.03,1.44,1.53c6.61,6.74,17.08,9.28,24.74,6.02c0.91-11.8-8.42-21.89-20.69-22.36
	C46.27,109.4,36.03,119.01,36.26,130.19z M48.3,168.27c0,1.81-0.05,4.16,0.04,6.5c0.02,0.53,0.39,1.14,0.78,1.55
	c2.57,2.73,5.2,5.42,8.04,8.36c2.99-3.04,5.74-5.83,8.46-8.66c0.32-0.34,0.59-0.91,0.56-1.36c-0.12-2.32-0.34-4.63-0.48-6.39
	C59.92,168.27,54.31,168.27,48.3,168.27z M65.74,102.24c0.2-3.86-1.48-7.02-4.88-8.52c-3.33-1.47-6.53-1.1-9.3,1.3
	c-2.29,1.99-3.3,4.52-2.91,7.21C54.52,102.24,60.04,102.24,65.74,102.24z"/>
</svg>
