<?xml version="1.0" encoding="utf-8"?>
<!-- Generator: Adobe Illustrator 27.6.1, SVG Export Plug-In . SVG Version: 6.00 Build 0)  -->
<svg version="1.1" id="Layer_1" xmlns="http://www.w3.org/2000/svg" xmlns:xlink="http://www.w3.org/1999/xlink" x="0px" y="0px"
	 viewBox="0 0 300 300" style="enable-background:new 0 0 300 300;" xml:space="preserve">
<style type="text/css">
	.st0{fill:url(#SVGID_1_);}
</style>
<linearGradient id="SVGID_1_" gradientUnits="userSpaceOnUse" x1="65.93" y1="293.8307" x2="265.8635" y2="93.8972">
	<stop  offset="0" style="stop-color:#D33027"/>
	<stop  offset="0.0429" style="stop-color:#D53A27"/>
	<stop  offset="0.1132" style="stop-color:#D95228"/>
	<stop  offset="0.2022" style="stop-color:#E17A29"/>
	<stop  offset="0.3053" style="stop-color:#EBB12A"/>
	<stop  offset="0.4022" style="stop-color:#F6EC2C"/>
	<stop  offset="0.4804" style="stop-color:#F6EC2C"/>
	<stop  offset="0.5232" style="stop-color:#D9D230"/>
	<stop  offset="0.6185" style="stop-color:#9E9E39"/>
	<stop  offset="0.7106" style="stop-color:#6D7240"/>
	<stop  offset="0.7971" style="stop-color:#475045"/>
	<stop  offset="0.8766" style="stop-color:#2C3849"/>
	<stop  offset="0.9467" style="stop-color:#1B294C"/>
	<stop  offset="1" style="stop-color:#15244C"/>
</linearGradient>
<path class="st0" d="M149.78,118.08c0.24,0.46,0.4,0.85,0.64,1.19c10.7,15.62,21.4,31.23,32.11,46.84
	c5.99,8.74,11.99,17.48,17.95,26.24c0.57,0.84,1.26,1.34,2.24,1.51c6.38,1.13,12.07,3.86,17.51,7.3c4.72,2.98,9.93,4.47,15.56,4.48
	c4.55,0.01,9.11,0.18,13.39-1.7c2.42-1.06,4.86-2.19,7.09-3.59c5.89-3.69,12.26-6.03,19.1-7.06c2.15-0.32,4.38-0.37,6.55-0.25
	c3.31,0.18,5.8,3.05,5.72,6.29c-0.08,3.28-2.77,6.07-6.11,6.05c-6.86-0.05-13.09,1.86-18.85,5.51c-5.2,3.29-10.77,5.79-16.87,6.75
	c-9.9,1.55-19.5,0.54-28.53-4.09c-2.01-1.03-3.91-2.29-5.89-3.38c-11.75-6.45-23.55-6.76-35.23,0.08c-4.78,2.8-9.61,5.31-15.02,6.69
	c-5.79,1.47-11.62,1.67-17.47,0.96c-6.32-0.76-12.24-2.86-17.6-6.34c-4.51-2.93-9.29-5.13-14.68-5.83
	c-8.21-1.06-16.01,0.02-23.07,4.6c-4.97,3.22-10.25,5.67-16.04,6.96c-5.29,1.18-10.64,1.25-15.99,0.62
	c-6.33-0.74-12.25-2.78-17.65-6.19c-4.54-2.86-9.29-5.19-14.65-5.99c-1.88-0.28-3.82-0.23-5.73-0.33c-3.16-0.15-5.83-2.89-5.9-6.04
	c-0.08-3.38,2.61-6.3,6.02-6.39c1.91-0.05,3.83,0.19,5.75,0.15c0.89-0.02,1.9-0.2,2.65-0.64c18.75-11,37.46-22.05,56.19-33.09
	c7.31-4.31,14.61-8.62,21.94-12.89c0.97-0.56,1.2-1.03,0.6-2.09c-3.91-6.86-7.79-13.73-11.59-20.65
	c-6.97-12.68-2.21-28.89,11.55-35.37c7.92-3.73,15.82-7.49,23.73-11.24c12.96-6.14,25.92-12.28,38.88-18.42
	c9.53-4.52,19.07-9.03,28.6-13.54c11.45-5.41,24.26,0.51,29.02,9.97c4.88,9.7,2.24,23.35-9.34,29.46
	c-7.29,3.85-14.71,7.46-22.08,11.15c-8.8,4.41-17.61,8.8-26.42,13.21c-5.7,2.85-11.39,5.71-17.08,8.56
	C150.5,117.68,150.23,117.84,149.78,118.08z M186.24,193.45c-0.51-0.77-0.86-1.32-1.24-1.87c-11.41-16.6-22.81-33.21-34.22-49.81
	c-3.74-5.45-7.53-10.87-11.23-16.35c-1.65-2.45-2.65-5.18-2.29-8.18c0.58-4.82,3.12-8.31,7.49-10.49
	c14.3-7.14,28.59-14.3,42.89-21.45c7.48-3.74,14.97-7.47,22.43-11.24c4.15-2.1,5.77-5.22,5.61-9.24c-0.17-4.49-2.75-7.68-6.84-8.98
	c-2.97-0.95-5.71-0.15-8.38,1.13c-4.55,2.17-9.1,4.34-13.65,6.5c-15.53,7.37-31.06,14.74-46.6,22.1
	c-9.78,4.63-19.57,9.25-29.37,13.85c-7.65,3.6-9.81,12.29-5.87,19.03c3.59,6.14,7.08,12.34,10.64,18.51
	c1.37,2.38,2.74,4.78,2.89,7.6c0.29,5.4-2.04,9.43-6.66,12.16c-8.79,5.18-17.58,10.36-26.38,15.53c-14.7,8.63-29.4,17.25-44.1,25.87
	c-0.23,0.13-0.41,0.34-0.7,0.59c0.52,0.29,0.97,0.52,1.4,0.78c0.47,0.27,0.96,0.54,1.4,0.85c7.62,5.34,16.22,6.05,25.06,5.04
	c4.87-0.56,9.23-2.79,13.33-5.5c5.2-3.44,10.97-5.55,17.09-6.45c11.32-1.66,22.06,0.23,31.64,6.62c7.76,5.18,16.22,6.32,25.13,5.4
	c4.63-0.48,8.87-2.39,12.79-4.96c4.58-3,9.51-5.22,14.91-6.31C184.29,194,185.14,193.74,186.24,193.45z M17.79,231.68
	c-3.77,0.36-6.22,3.99-5.19,7.63c0.8,2.81,3.04,4.51,6.22,4.57c6.81,0.13,13.03,1.99,18.81,5.68c9.46,6.05,19.79,8.44,31.01,6.79
	c6.39-0.94,12.36-2.94,17.84-6.4c1.59-1,3.2-1.97,4.86-2.83c4.96-2.6,10.33-3.26,15.82-3.12c3.84,0.1,7.7,0.37,11.23,2.06
	c2.74,1.31,5.42,2.76,8.04,4.3c8.23,4.82,17.09,7.03,26.59,6.4c2.68-0.18,5.35-0.71,7.98-1.29c5.01-1.1,9.59-3.28,13.92-6
	c4.53-2.84,9.36-4.73,14.76-5.23c8.22-0.76,15.85,0.7,22.89,5.12c4.94,3.09,10.24,5.29,16,6.42c5.43,1.07,10.77,1.37,16.28,0.36
	c6.52-1.2,12.54-3.43,18.17-6.9c1.99-1.22,4.12-2.22,6.25-3.19c3.85-1.77,8.02-1.94,12.16-2.16c4.66-0.24,7.37-4.41,5.65-8.71
	c-0.95-2.38-3.08-3.57-6.29-3.6c-8.35-0.07-16.03,2.21-23.18,6.49c-2.47,1.48-5.03,2.87-7.69,3.95c-5.51,2.24-11.26,2.73-17.16,1.93
	c-5.39-0.73-10.19-2.85-14.77-5.65c-10.67-6.52-22.22-8.07-34.33-5.67c-5.55,1.1-10.71,3.42-15.46,6.54
	c-7.12,4.67-15.02,5.75-23.28,4.85c-5.23-0.57-9.91-2.69-14.3-5.54c-5.32-3.45-11.1-5.72-17.42-6.49
	c-5.98-0.73-11.96-0.76-17.85,0.62c-5.37,1.26-10.31,3.58-14.94,6.59c-7.23,4.7-15.2,5.84-23.62,4.71
	c-4.99-0.67-9.43-2.65-13.63-5.35c-6.9-4.43-14.42-6.9-22.66-6.93C19.59,231.67,18.68,231.59,17.79,231.68z M281.3,141.45
	c-0.11,23.61-18.43,44.67-44.64,44.67c-25.78,0.01-45-20.46-44.7-45.3c0.29-24.32,19.76-44.24,45.03-44.03
	C262.66,97,281.2,117.8,281.3,141.45z M204.41,141.1c-0.51,17.4,13.61,32.03,31.13,32.64c16.78,0.58,33.1-12.46,33.26-32.18
	c0.15-17.91-14.35-31.81-30.96-32.32C218.86,108.64,204.33,123.81,204.41,141.1z"/>
</svg>
