<?xml version="1.0" encoding="utf-8"?>
<!-- Generator: Adobe Illustrator 27.6.1, SVG Export Plug-In . SVG Version: 6.00 Build 0)  -->
<svg version="1.1" id="Layer_1" xmlns="http://www.w3.org/2000/svg" xmlns:xlink="http://www.w3.org/1999/xlink" x="0px" y="0px"
	 viewBox="0 0 300 300" style="enable-background:new 0 0 300 300;" xml:space="preserve">
<style type="text/css">
	.st0{fill:url(#SVGID_1_);}
</style>
<linearGradient id="SVGID_1_" gradientUnits="userSpaceOnUse" x1="55.6764" y1="300.6562" x2="286.7358" y2="69.5968">
	<stop  offset="0" style="stop-color:#D33027"/>
	<stop  offset="0.0429" style="stop-color:#D53A27"/>
	<stop  offset="0.1132" style="stop-color:#D95228"/>
	<stop  offset="0.2022" style="stop-color:#E17A29"/>
	<stop  offset="0.3053" style="stop-color:#EBB12A"/>
	<stop  offset="0.4022" style="stop-color:#F6EC2C"/>
	<stop  offset="0.4804" style="stop-color:#F6EC2C"/>
	<stop  offset="0.5232" style="stop-color:#D9D230"/>
	<stop  offset="0.6185" style="stop-color:#9E9E39"/>
	<stop  offset="0.7106" style="stop-color:#6D7240"/>
	<stop  offset="0.7971" style="stop-color:#475045"/>
	<stop  offset="0.8766" style="stop-color:#2C3849"/>
	<stop  offset="0.9467" style="stop-color:#1B294C"/>
	<stop  offset="1" style="stop-color:#15244C"/>
</linearGradient>
<path class="st0" d="M280.36,93.47c-0.53,23.37-7.03,42.53-19.01,59.86c-9.58,13.85-21.61,25.11-36.05,33.77
	c-7.33,4.4-15.09,7.84-23.29,10.34c-7.93,2.42-16.02,3.84-24.29,4.34c-2.69,0.16-5.44-0.03-8.06,0.49c-5.63,1.1-11.2,2.5-16.77,3.88
	c-5.12,1.27-10.22,2.58-15.29,4.05c-8.71,2.52-17.27,5.48-25.56,9.19c-6.47,2.9-12.86,6.01-18.26,10.68
	c-3.57,3.09-6.8,6.59-10.15,9.93c-12.3,12.28-24.59,24.56-36.88,36.85c-2.72,2.72-5.91,4.21-9.76,3.04
	c-1.56-0.47-3.15-1.33-4.33-2.43c-3.5-3.25-6.87-6.64-10.16-10.1c-3.89-4.09-3.82-9.74,0.18-13.8c7.4-7.49,14.87-14.91,22.32-22.35
	c7.36-7.36,14.72-14.73,22.1-22.07c5.16-5.13,8.66-11.35,11.78-17.82c3.91-8.11,6.92-16.57,9.61-25.15
	c3.14-10.03,5.67-20.22,7.98-30.48c0.84-3.76,1.3-7.5,1.48-11.35c0.28-6.16,1-12.3,2.35-18.35c3.35-15.04,9.73-28.66,18.93-40.98
	c10.51-14.07,23.47-25.32,39.02-33.53c8.23-4.35,16.92-7.47,26-9.54c7.75-1.77,15.63-2.51,23.54-2.12
	c25.04,1.21,45.2,11.6,59.65,32.35c5.77,8.29,9.4,17.57,11.22,27.48C279.63,84.92,279.99,90.32,280.36,93.47z M88.66,225.38
	c4.84-4.08,11.37-8.03,18.12-11.16c12.49-5.79,25.56-9.9,38.82-13.42c6.53-1.73,13.14-3.15,19.72-4.67
	c3.74-0.86,7.52-1.38,11.38-1.47c3.48-0.08,6.99-0.23,10.41-0.79c8.16-1.33,16.14-3.45,23.64-6.98
	c30.72-14.44,51.14-37.7,60.02-70.66c1.37-5.09,2-10.33,2.22-15.64c0.37-9.13-0.18-18.11-2.87-26.91c-2.69-8.8-6.9-16.77-12.9-23.73
	c-11.96-13.88-27.31-21.19-45.4-22.95c-8.27-0.8-16.51-0.3-24.64,1.32c-9.36,1.87-18.26,5.13-26.67,9.68
	c-15.61,8.45-28.38,20.05-38.38,34.68c-6.43,9.4-11.21,19.58-14.08,30.63c-1.48,5.69-2.7,11.42-2.71,17.32
	c-0.01,5.67-0.8,11.22-2.14,16.7c-1.79,7.36-3.65,14.7-5.57,22.03c-2.67,10.18-6.03,20.13-10.19,29.79
	c-3.23,7.49-7.04,14.66-12.07,21.12c-0.69,0.88-0.58,1.44,0.2,2.15c1.32,1.22,2.56,2.53,3.84,3.79c0.2,0.2,0.46,0.35,0.5,0.38
	c0.68-1.26,1.25-2.48,1.96-3.61c2.1-3.39,4.45-6.63,6.36-10.12c7.06-12.98,11.69-26.91,15.75-41.05c0.44-1.54,0.86-3.09,1.41-4.59
	c0.47-1.29,1.36-2.18,2.85-2.25c1.46-0.07,2.6,0.39,3.26,1.79c0.34,0.7,0.76,1.37,1.12,2.06c6.69,13.1,16.73,22.79,29.94,29.2
	c1.55,0.75,2.37,1.88,2.31,3.59c-0.06,1.68-1.07,2.63-2.59,3.08c-2.81,0.83-5.64,1.57-8.43,2.46c-4.8,1.53-9.59,3.07-14.35,4.73
	c-9.09,3.17-17.87,7.04-26.24,11.85c-3.44,1.97-6.13,5.28-10.39,5.89C84.79,221.56,86.7,223.44,88.66,225.38z M69.41,216.63
	c0.07-0.12,0.13-0.24,0.2-0.36c-0.11,0.1-0.24,0.2-0.34,0.3c-7.86,7.86-15.71,15.73-23.57,23.59c-6,6.01-12.01,12.01-18.01,18.02
	c-1.31,1.31-1.51,3.2-0.32,4.42c3.17,3.25,6.37,6.47,9.63,9.63c1.41,1.37,2.88,1.35,4.45,0.18c0.44-0.33,0.84-0.7,1.23-1.09
	c11.63-11.62,23.25-23.25,34.87-34.87c2.01-2.01,4.02-4.02,6.06-6.06C78.83,225.77,74.12,221.2,69.41,216.63z M95.22,204.68
	c11.88-5.99,24.32-10.4,37.33-14.33c-9.43-5.96-16.9-13.5-22.95-22.59C105.59,180.41,101.19,192.81,95.22,204.68z M279.33,232.95
	c1.01,19.63-13.67,39.13-36.79,40.74c-21.64,1.51-40.69-14.82-41.92-37.44c-1.16-21.36,15.17-39.89,36.87-41.28
	C261.01,193.44,279.15,212.42,279.33,232.95z M246.64,202.51c-0.03,0.37-0.04,0.75-0.09,1.12c-0.39,2.7-0.53,5.47-1.21,8.09
	c-4.25,16.2-18.71,28.26-36.02,29.21c-0.9,0.05-1.11,0.4-0.86,1.17c0.48,1.48,0.88,3,1.47,4.44c3.46,8.58,9.63,14.48,18.1,18.02
	c1.05,0.44,2.18,0.72,3.48,1.13c0.13-11.14,3.91-20.62,11.64-28.38c7.75-7.77,17.3-11.37,28.16-11.68
	C270.75,216.5,256.5,203.13,246.64,202.51z M272.7,232.86c-0.43-0.05-0.59-0.08-0.74-0.09c-8.09-0.21-15.4,2.04-21.63,7.25
	c-7.98,6.67-11.86,15.32-11.92,25.71c0,0.75,0.26,1.1,1.03,1.03c2.76-0.28,5.6-0.23,8.27-0.88c12.97-3.15,22.82-13.46,24.69-27.95
	C272.61,236.28,272.6,234.6,272.7,232.86z M207.66,233.94c9.46-0.07,17.35-3.57,23.66-10.43c5.58-6.06,8.32-13.3,8.47-21.57
	C222.3,201.57,207.38,216.44,207.66,233.94z M176.55,184.87c-16.34-0.32-28.84-3.91-39.67-12.36c-9.89-7.72-16.35-17.78-19.47-29.92
	c-1.74-6.76-2.69-13.65-2.14-20.66c1.77-22.49,11.22-41.42,26.86-57.4c9.25-9.45,20.02-16.72,32.31-21.68
	c9.87-3.98,20.11-6.09,30.77-5.94c12.04,0.17,23.29,3.14,33.31,10c10.96,7.51,18.3,17.7,21.93,30.5c1.92,6.76,3.16,13.65,2.75,20.7
	c-0.19,3.31-0.73,6.6-1.26,9.87c-2.09,13.13-7.31,24.98-14.86,35.86c-8.45,12.18-19.13,21.97-31.96,29.39
	c-7.6,4.39-15.67,7.67-24.24,9.51C185.28,183.95,179.61,185.1,176.55,184.87z M198.05,160.46c3.75-3.74,7.31-7.29,10.95-10.91
	c-0.35-0.37-0.65-0.71-0.98-1.04c-3.04-3.05-6.11-6.06-9.1-9.15c-0.75-0.77-1.16-0.71-1.86,0.01c-2.82,2.88-5.68,5.72-8.54,8.55
	c-0.54,0.53-1.15,0.99-1.73,1.49c0.22-0.07,0.44-0.15,0.66-0.22C190.96,152.92,194.49,156.67,198.05,160.46z M161.18,101.99
	c-3.63-3.64-7.26-7.27-10.71-10.73c-3.6,3.58-7.24,7.2-10.64,10.59c3.53,3.59,7.14,7.26,10.58,10.77
	C154,109.08,157.63,105.5,161.18,101.99z M177.2,117.86c-3.41-3.46-6.8-6.87-10.17-10.31c-0.61-0.62-1.06-0.55-1.66,0.06
	c-1.99,2.05-4.03,4.04-6.05,6.07c-1.34,1.35-2.66,2.73-3.7,3.78c3.65,3.79,7.21,7.49,10.83,11.24
	C170.04,125.09,173.61,121.48,177.2,117.86z M155.43,86.06c0.04,0.08,0.05,0.17,0.1,0.22c3.39,3.41,6.78,6.81,10.17,10.22
	c0.54,0.55,0.9,0.29,1.34-0.16c3.16-3.19,6.35-6.37,9.53-9.55c0.24-0.24,0.44-0.51,0.71-0.83c-3.68-3.67-7.29-7.28-10.8-10.79
	C162.76,78.85,159.1,82.46,155.43,86.06z M182.17,154.3c-3.74,3.71-7.41,7.35-11.03,10.94c0.64,0.7,1.19,1.35,1.79,1.95
	c2.73,2.75,5.48,5.47,8.19,8.24c0.72,0.73,1.2,0.82,1.99,0c2.85-2.95,5.8-5.82,8.69-8.73c1.35-1.36,1.33-1.37-0.04-2.75
	C188.62,160.79,185.48,157.63,182.17,154.3z M134.27,128.46c3.69-3.61,7.35-7.21,10.98-10.76c-3.55-3.55-7.14-7.13-10.75-10.73
	c-3.59,3.61-7.21,7.26-10.75,10.82C127.32,121.41,130.94,125.08,134.27,128.46z M224.72,70.2c-0.28-0.33-0.5-0.64-0.76-0.9
	c-3.17-3.19-6.37-6.35-9.51-9.56c-0.53-0.54-0.81-0.35-1.23,0.07c-3.14,3.17-6.26,6.35-9.44,9.47c-0.77,0.76-0.75,1.24,0.01,1.97
	c2.89,2.81,5.72,5.68,8.57,8.52c1.46,1.46,1.46,1.47,2.93,0.02c2.84-2.8,5.66-5.62,8.48-8.44C224.09,71.02,224.36,70.64,224.72,70.2
	z M150.38,122.82c-3.59,3.69-7.17,7.38-10.58,10.88c3.41,3.5,6.98,7.16,10.58,10.85c3.62-3.69,7.19-7.34,10.68-10.91
	C157.63,130.17,154.07,126.56,150.38,122.82z M187.11,54.03c3.77,3.77,7.42,7.42,11.15,11.14c3.27-3.29,6.65-6.71,10.05-10.1
	c0.54-0.53,0.54-0.9-0.02-1.44c-2.9-2.85-5.76-5.75-8.65-8.61c-1.55-1.53-1.78-1.55-3.31-0.06C193.21,48,190.1,51.08,187.11,54.03z
	 M245.59,113.03c3.08-3.1,6.1-6.16,9.13-9.21c1.67-1.67,1.67-2.11-0.03-3.82c-2.87-2.88-5.73-5.77-8.61-8.64
	c-0.15-0.15-0.37-0.23-0.65-0.39c-3.34,3.35-6.62,6.7-9.96,9.99c-0.76,0.75-0.76,1.23,0.01,1.98
	C238.82,106.22,242.12,109.56,245.59,113.03z M240.56,86.01c-3.76-3.68-7.4-7.24-10.98-10.75c-0.39,0.36-0.86,0.77-1.3,1.21
	c-2.88,2.87-5.73,5.77-8.64,8.6c-0.77,0.75-0.77,1.3-0.01,2.01c1.03,0.96,2,1.98,2.99,2.98c2.34,2.35,4.67,4.69,7.07,7.11
	C233.35,93.4,236.93,89.73,240.56,86.01z M155.39,149.53c3.32,3.36,6.73,6.8,10.12,10.25c0.52,0.53,0.93,0.51,1.46-0.03
	c3.22-3.24,6.45-6.47,9.72-9.67c0.49-0.48,0.48-0.78,0.02-1.23c-3.23-3.18-6.45-6.36-9.64-9.59c-0.65-0.66-1.07-0.51-1.63,0.05
	c-2.64,2.66-5.32,5.29-7.96,7.95C156.75,148,156.07,148.8,155.39,149.53z M209.02,86.52c-3.88-3.98-7.44-7.63-11.05-11.33
	c-3.62,3.62-7.23,7.22-10.87,10.86c0.24,0.29,0.42,0.54,0.63,0.76c3.22,3.25,6.45,6.48,9.65,9.74c0.52,0.53,0.84,0.31,1.25-0.11
	c1.18-1.19,2.37-2.38,3.59-3.54C204.54,90.7,206.88,88.53,209.02,86.52z M182.12,112.8c3.7-3.69,7.31-7.29,10.94-10.91
	c-0.46-0.46-0.92-0.93-1.39-1.39c-2.93-2.94-5.86-5.87-8.78-8.82c-0.4-0.4-0.72-0.83-1.33-0.22c-3.19,3.23-6.39,6.44-9.63,9.62
	c-0.7,0.69-0.54,1.09,0.07,1.7c2.92,2.89,5.8,5.82,8.7,8.73C181.17,111.97,181.67,112.39,182.12,112.8z M182.12,59.35
	c-3.57,3.63-7.15,7.26-10.8,10.97c0.18,0.2,0.43,0.5,0.7,0.77c3.11,3.14,6.23,6.26,9.32,9.41c0.59,0.6,1,0.52,1.54-0.03
	c3.27-3.3,6.57-6.59,9.85-9.88c0.13-0.13,0.21-0.31,0.15-0.22C189.26,66.66,185.72,63.04,182.12,59.35z M213.72,122.8
	c-3.41,3.38-6.87,6.82-10.33,10.26c-0.5,0.49-0.27,0.87,0.14,1.28c3.2,3.16,6.39,6.33,9.56,9.52c0.6,0.6,1.03,0.64,1.64-0.01
	c1.36-1.45,2.79-2.85,4.2-4.26c1.96-1.94,3.94-3.87,5.93-5.82C221.06,130.02,217.39,126.41,213.72,122.8z M192.97,133.6
	c-3.44-3.47-6.9-6.96-10.37-10.46c-0.54-0.55-0.88-0.13-1.25,0.25c-2.32,2.32-4.66,4.63-6.97,6.96c-1.06,1.08-2.05,2.23-2.75,2.98
	c3.48,3.65,7.05,7.38,10.53,11.02C185.78,140.77,189.35,137.21,192.97,133.6z M187.11,117.53c0.09,0.26,0.09,0.36,0.14,0.41
	c3.41,3.44,6.82,6.89,10.27,10.29c0.17,0.17,0.89,0.07,1.12-0.15c2.52-2.45,4.99-4.96,7.48-7.44c0.93-0.93,1.88-1.85,2.91-2.86
	c-3.58-3.56-7.04-7.01-10.53-10.42c-0.2-0.19-0.87-0.23-1.05-0.06C193.99,110.69,190.56,114.11,187.11,117.53z M229.41,106.92
	c-3.24,3.28-6.55,6.64-9.89,9.99c-0.63,0.63-0.68,1.14,0.01,1.74c0.53,0.46,1,0.99,1.5,1.49c2.85,2.87,5.7,5.75,8.39,8.46
	c3.74-3.68,7.38-7.26,11.02-10.83C236.84,114.22,233.21,110.65,229.41,106.92z M213.79,112.86c0.21-0.16,0.45-0.29,0.63-0.47
	c3.19-3.22,6.37-6.46,9.58-9.67c0.58-0.58,0.57-0.94-0.01-1.52c-3.22-3.24-6.42-6.52-9.6-9.81c-0.47-0.49-0.73-0.31-1.13,0.09
	c-3.06,3.08-6.15,6.13-9.22,9.19c-1.21,1.21-1.23,1.23,0,2.46C207.23,106.35,210.46,109.55,213.79,112.86z M150.62,154.42
	c-0.41,0.24-0.56,0.3-0.67,0.41c-3.39,3.36-6.78,6.71-10.13,10.1c-0.16,0.16-0.1,0.82,0.09,1c0.97,0.91,1.92,1.88,3.04,2.56
	c3.01,1.8,6.09,3.49,9.18,5.15c0.29,0.16,0.99-0.05,1.27-0.32c2.17-2.08,4.3-4.21,6.41-6.35c1.57-1.59,1.52-1.59-0.08-3.22
	C156.69,160.66,153.67,157.55,150.62,154.42z M134.37,160.49c0.36-0.27,0.56-0.38,0.72-0.54c3.33-3.3,6.65-6.61,9.99-9.9
	c0.54-0.53,0.23-0.84-0.18-1.24c-2.99-2.92-5.97-5.85-8.94-8.8c-0.46-0.46-0.8-1.03-1.26-1.62c-2.95,2.96-5.6,5.6-8.21,8.29
	c-0.21,0.22-0.28,0.83-0.13,1.11c1.68,3.12,3.34,6.26,5.16,9.3C132.27,158.32,133.39,159.33,134.37,160.49z M245.87,81.03
	c1.93-1.96,4.04-4.09,6.11-6.26c0.17-0.18,0.21-0.67,0.09-0.92c-2.05-4.53-4.53-8.82-7.72-12.66c-0.13-0.16-0.36-0.24-0.43-0.28
	c-3.16,3.07-6.24,6.06-9.29,9.03C238.42,73.67,242.07,77.28,245.87,81.03z M239.17,55.97c-4.06-3.31-8.15-6.07-12.83-7.88
	c-0.8-0.31-1.3-0.13-1.85,0.45c-1.57,1.63-3.15,3.27-4.8,4.82c-0.81,0.76-0.75,1.28-0.01,2.02c2.81,2.77,5.59,5.58,8.38,8.37
	c0.54,0.54,1.1,1.07,1.48,1.43C232.73,62.11,235.89,59.09,239.17,55.97z M229.48,138.67c-0.3,0.3-0.7,0.72-1.11,1.13
	c-2.93,2.93-5.86,5.86-8.8,8.78c-0.55,0.55-0.9,0.98-0.13,1.71c2.07,1.96,4.08,3.99,6.07,6.03c0.52,0.53,0.9,0.61,1.45,0.06
	c1.89-1.87,3.85-3.66,5.7-5.56c1.51-1.56,2.9-3.23,4.46-4.99C234.54,143.4,232.07,141.08,229.48,138.67z M154.03,62.93
	c-3.99,3.24-7.68,6.79-10.89,10.54c2.54,2.6,4.96,5.07,7.14,7.3c3.63-3.55,7.28-7.11,10.91-10.66
	C158.84,67.75,156.47,65.37,154.03,62.93z M213.63,154.54c0.14-0.05,0.09-0.05,0.07-0.02c-3.48,3.43-6.96,6.86-10.4,10.32
	c-0.17,0.17-0.17,0.78,0,0.96c1.06,1.15,2.15,2.28,3.32,3.3c0.31,0.27,1.06,0.32,1.45,0.14c1.41-0.66,2.8-1.4,4.12-2.22
	c2.58-1.61,5.13-3.29,7.67-4.96c0.44-0.29,1.01-0.67,0.37-1.28C218.08,158.72,215.91,156.69,213.63,154.54z M134.55,97.29
	c3.49-3.55,6.77-6.91,10.08-10.23c0.72-0.72,0.7-1.25-0.01-1.95c-1.73-1.7-3.46-3.4-5.1-5.19c-0.67-0.73-1.07-0.75-1.58,0.08
	c-2.51,4.05-5.03,8.09-7.52,12.15c-0.13,0.21-0.09,0.71,0.08,0.89C131.77,94.42,133.08,95.76,134.55,97.29z M234.64,133.85
	c1.83,1.8,3.69,3.62,5.55,5.45c0.98,0.97,1.11,1.01,1.81-0.14c2.54-4.19,5.03-8.42,7.27-12.19c-1.39-1.61-2.53-2.93-3.62-4.19
	C241.96,126.49,238.36,130.11,234.64,133.85z M166.29,65.26c0.5-0.47,0.91-0.82,1.3-1.21c2.52-2.5,5.04-5.01,7.55-7.53
	c2.17-2.17,2.16-2.17,0-4.31c-1.53-1.51-1.59-1.63-3.47-0.62c-4.08,2.18-8.09,4.49-11.94,6.65C162,60.66,164.09,62.9,166.29,65.26z
	 M122.42,126.49c-0.43,4.12,0.43,11.18,1.36,12.59c1.91-1.78,3.86-3.59,5.59-5.21C127.06,131.42,124.82,130.04,122.42,126.49z
	 M166.13,170.71c-1.64,1.66-3.52,3.57-5.63,5.71c4.33,0.48,8.55,0.94,12.76,1.4c0.04-0.12,0.09-0.24,0.13-0.36
	C170.94,175.19,168.5,172.91,166.13,170.71z M218.05,45.83c-0.1-0.21-0.2-0.42-0.3-0.64c-3.03-0.51-6.07-1.02-9.1-1.53
	c-0.08,0.14-0.15,0.28-0.23,0.42c1.71,1.71,3.42,3.44,5.16,5.13c0.12,0.11,0.56,0.06,0.71-0.07
	C215.56,48.05,216.8,46.93,218.05,45.83z M254.85,82.1c-1.53,1.55-2.84,2.87-3.9,3.94c1.51,1.53,3.18,3.21,5,5.06
	C255.58,88.08,255.22,85.13,254.85,82.1z M193.5,174.66c0.1,0.11,0.2,0.22,0.3,0.33c1.98-1.1,4.41-1.01,6.32-2.38
	c-0.14-0.24-0.18-0.36-0.25-0.44c-2.25-2.37-1.48-2.21-3.69-0.18C195.25,172.85,194.39,173.77,193.5,174.66z M124.93,106.17
	c0.07,0.01,0.14,0.01,0.21,0.02c1.3-1.22,2.62-2.41,3.89-3.67c0.19-0.19,0.28-0.78,0.13-0.98c-0.46-0.64-1.06-1.18-1.6-1.77
	c-0.15,0.01-0.29,0.03-0.44,0.04C126.39,101.92,125.66,104.05,124.93,106.17z M180.85,47.56c0.26,1.22,0.96,1.88,1.57,1.46
	c0.8-0.55,1.46-1.29,2.18-1.96c-0.07-0.11-0.14-0.22-0.21-0.33C183.23,47.01,182.08,47.28,180.85,47.56z M253.17,115.42
	c-0.09-0.02-0.18-0.05-0.27-0.07c-0.67,0.63-1.35,1.24-1.98,1.9c-0.17,0.18-0.3,0.64-0.2,0.77c0.32,0.41,0.75,0.73,1.17,1.04
	c0.03,0.02,0.39-0.25,0.44-0.43C252.63,117.56,252.89,116.49,253.17,115.42z"/>
</svg>
