<?xml version="1.0" encoding="utf-8"?>
<!-- Generator: Adobe Illustrator 27.6.1, SVG Export Plug-In . SVG Version: 6.00 Build 0)  -->
<svg version="1.1" id="Layer_1" xmlns="http://www.w3.org/2000/svg" xmlns:xlink="http://www.w3.org/1999/xlink" x="0px" y="0px"
	 viewBox="0 0 300 300" style="enable-background:new 0 0 300 300;" xml:space="preserve">
<style type="text/css">
	.st0{fill:url(#SVGID_1_);}
</style>
<linearGradient id="SVGID_1_" gradientUnits="userSpaceOnUse" x1="26.319" y1="244.2227" x2="214.6779" y2="55.8638">
	<stop  offset="0" style="stop-color:#D33027"/>
	<stop  offset="0.0429" style="stop-color:#D53A27"/>
	<stop  offset="0.1132" style="stop-color:#D95228"/>
	<stop  offset="0.2022" style="stop-color:#E17A29"/>
	<stop  offset="0.3053" style="stop-color:#EBB12A"/>
	<stop  offset="0.4022" style="stop-color:#F6EC2C"/>
	<stop  offset="0.4804" style="stop-color:#F6EC2C"/>
	<stop  offset="0.5232" style="stop-color:#D9D230"/>
	<stop  offset="0.6185" style="stop-color:#9E9E39"/>
	<stop  offset="0.7106" style="stop-color:#6D7240"/>
	<stop  offset="0.7971" style="stop-color:#475045"/>
	<stop  offset="0.8766" style="stop-color:#2C3849"/>
	<stop  offset="0.9467" style="stop-color:#1B294C"/>
	<stop  offset="1" style="stop-color:#15244C"/>
</linearGradient>
<path class="st0" d="M170.97,79.75c3.77,0,5.7,1.63,5.76,4.85c0.03,1.61-0.38,2.85-1.2,3.68c-0.95,0.97-2.49,1.46-4.57,1.46
	c-14.39,0.02-28.78,0.02-43.17,0.01h-7.19l-13.44,0.01c-12.32,0-24.62,0.01-36.93-0.03c-2.61-0.01-4.6-1.46-4.96-3.63
	c-0.63-3.86,1.16-5.16,2.55-5.81c0.75-0.35,1.81-0.52,3.14-0.52C104.3,79.72,137.64,79.74,170.97,79.75z M149.01,126
	c5.33-0.01,5.96-2.85,5.96-4.99c0-1.55-0.4-2.75-1.2-3.55c-0.97-0.97-2.56-1.46-4.72-1.46c-25.96-0.01-51.93-0.01-77.89,0
	c-5.33,0-5.95,2.85-5.96,4.98c0,1.65,0.46,2.9,1.38,3.71c0.98,0.86,2.51,1.31,4.55,1.31c9.04,0.02,18.09,0.01,27.13,0.01l11.63-0.01
	l11.74,0.01C130.76,126.01,139.89,126.03,149.01,126z M260.33,137.17c-17.05,16.94-34.14,33.84-51.3,50.67
	c-2.35,2.3-3.35,4.63-3.33,7.78c0.05,6.15,0.01,12.3-0.01,18.47c-0.05,9.99-0.11,20.34,0.2,30.51c0.16,5.17-1.78,10.09-5.46,13.86
	c-3.78,3.88-8.91,6.01-14.43,6.01c-0.04,0-0.08,0-0.12,0c-19.6-0.12-39.39-0.14-59.02-0.14c-11.06,0-22.08,0.01-32.95,0.03
	c-12.85,0-25.68,0.03-38.56,0.01c-11.82,0-19.76-7.92-19.77-19.7c-0.01-63.07-0.01-126.14,0-189.21c0-11.86,8.04-19.83,20-19.83
	c12.78-0.03,25.57,0,38.36,0.02c30.11,0.04,61.22,0.06,91.81-0.13c0.04,0,0.09,0,0.13,0c5.51,0,10.63,2.1,14.41,5.94
	c3.73,3.79,5.73,8.83,5.62,14.19c-0.34,16.67-0.27,33.63-0.2,50.02c0.03,6.89,0.06,13.79,0.06,20.69v4.96l2.95,1.23l7.69-7.77
	c4.91-4.95,9.8-9.9,14.72-14.84c3.36-3.38,6.7-5.09,9.93-5.1c0,0,0,0,0.01,0c3.19,0,6.48,1.68,9.79,4.98l2.05,2.05
	c2.48,2.47,4.96,4.94,7.41,7.43C265.8,124.9,265.8,131.75,260.33,137.17z M195.72,217.06l-0.01-14.52l-2.6,1.87
	c-1.02,0.74-1.97,1.48-2.89,2.2c-1.84,1.46-3.43,2.7-5.18,3.56c-8.19,3.98-16.43,7.8-24.68,11.64l-10.29,4.78
	c-3.5,1.66-5.62,1.55-7.5-0.35c-1.85-1.87-1.93-3.98-0.27-7.51l5.77-12.34c3.53-7.56,7.06-15.12,10.64-22.64
	c0.77-1.61,1.87-3.17,3.18-4.52c4.04-4.08,8.11-8.15,12.18-12.21c6.27-6.28,12.54-12.55,18.73-18.9c1.64-1.68,2.79-4.44,2.81-6.7
	c0.13-16.35,0.12-32.7,0.11-49.05l-0.01-13.31l0.01-6.93c0.02-5.55,0.03-11.1-0.03-16.65c-0.07-6.04-3.43-9.38-9.47-9.38
	c-43.74-0.01-87.49-0.02-131.24,0.01c-5.82,0-8.91,3.1-8.93,8.95c-0.03,6.25-0.03,12.5-0.01,18.76v170.46c0,6.47,2.95,9.62,9,9.62
	c21.94,0,43.87,0.01,65.8,0.01c21.94,0,43.87-0.01,65.8-0.01c5.47,0,8.92-3.2,8.99-8.34C195.77,236.09,195.75,226.64,195.72,217.06z
	 M233.56,148.79l-13.01-13.46l-2.1,1.97c-0.61,0.57-1.2,1.12-1.77,1.69c-4.07,4.07-8.12,8.17-12.16,12.27
	c-9.44,9.57-19.2,19.47-29.18,28.78c-6.79,6.33-10.09,14.38-13.28,22.15c-0.71,1.73-1.43,3.47-2.18,5.21l-1.73,3.94l7.74-3.58
	c2.95-1.39,5.9-2.78,8.9-4.03c4.45-1.87,8.44-4.64,12.53-8.76c9.94-9.99,19.97-19.88,29.99-29.78l13.19-13.05
	c0.54-0.53,1.04-1.1,1.48-1.62L233.56,148.79z M253.77,127.93l-12.43-12.8l-12.6,12.5l12.61,13.08L253.77,127.93z M66.41,160.78
	c0.95,0.97,2.49,1.47,4.56,1.47c6.73,0.01,13.44,0,20.17,0.01h8.07h8.07c6.71-0.01,13.45,0,20.17-0.01h0.01
	c2.08,0,3.61-0.5,4.56-1.47c0.82-0.83,1.23-2.07,1.2-3.68c-0.05-3.21-2-4.83-5.77-4.84c-18.83-0.03-37.66-0.03-56.49,0
	c-3.77,0.01-5.71,1.63-5.76,4.84C65.17,158.69,65.58,159.93,66.41,160.78z"/>
</svg>
