<?xml version="1.0" encoding="utf-8"?>
<!-- Generator: Adobe Illustrator 27.6.1, SVG Export Plug-In . SVG Version: 6.00 Build 0)  -->
<svg version="1.1" id="Layer_1" xmlns="http://www.w3.org/2000/svg" xmlns:xlink="http://www.w3.org/1999/xlink" x="0px" y="0px"
	 viewBox="0 0 300 300" style="enable-background:new 0 0 300 300;" xml:space="preserve">
<style type="text/css">
	.st0{fill:url(#SVGID_1_);}
</style>
<linearGradient id="SVGID_1_" gradientUnits="userSpaceOnUse" x1="66.9611" y1="233.0462" x2="233.0543" y2="66.953">
	<stop  offset="0" style="stop-color:#D33027"/>
	<stop  offset="0.0429" style="stop-color:#D53A27"/>
	<stop  offset="0.1132" style="stop-color:#D95228"/>
	<stop  offset="0.2022" style="stop-color:#E17A29"/>
	<stop  offset="0.3053" style="stop-color:#EBB12A"/>
	<stop  offset="0.4022" style="stop-color:#F6EC2C"/>
	<stop  offset="0.4804" style="stop-color:#F6EC2C"/>
	<stop  offset="0.5232" style="stop-color:#D9D230"/>
	<stop  offset="0.6185" style="stop-color:#9E9E39"/>
	<stop  offset="0.7106" style="stop-color:#6D7240"/>
	<stop  offset="0.7971" style="stop-color:#475045"/>
	<stop  offset="0.8766" style="stop-color:#2C3849"/>
	<stop  offset="0.9467" style="stop-color:#1B294C"/>
	<stop  offset="1" style="stop-color:#15244C"/>
</linearGradient>
<path class="st0" d="M142.2,32.48c5.2,0,10.4,0,15.6,0c0.66,0.15,1.31,0.34,1.98,0.44c4.83,0.69,9.72,1.06,14.48,2.08
	c24.61,5.3,45.51,17.25,62.49,35.83c15.96,17.47,25.79,37.97,29.39,61.4c0.51,3.3,0.91,6.63,1.36,9.94c0,5.2,0,10.4,0,15.6
	c-0.35,2.79-0.64,5.59-1.07,8.37c-4.69,30.98-19.1,56.51-43.68,75.94c-26.05,20.59-55.89,28.68-88.72,24.25
	c-31.05-4.19-56.55-18.91-76.02-43.46c-20.68-26.08-28.67-55.96-24.4-88.92c3-23.17,12.46-43.64,27.91-61.18
	C80.41,51.36,104,38.3,132.27,33.84C135.57,33.32,138.89,32.93,142.2,32.48z M150.04,249.17c54.72-0.02,99.11-44.38,99.16-99.11
	c0.06-54.79-44.43-99.3-99.23-99.28c-54.72,0.02-99.11,44.38-99.16,99.11C50.75,204.69,95.24,249.2,150.04,249.17z M140.84,149.88
	c-0.01,3.35,1.1,6.17,3.79,8.19c12.15,9.14,24.31,18.26,36.5,27.35c2.19,1.63,4.71,2.14,7.39,1.44c3.66-0.96,6.05-3.33,6.79-7
	c0.77-3.85-0.59-7.05-3.78-9.43c-10.09-7.56-20.13-15.17-30.28-22.65c-1.61-1.19-2.14-2.39-2.13-4.34
	c0.08-15.59,0.05-31.19,0.03-46.78c-0.01-4.3-2.18-7.62-5.79-9.04c-6.05-2.36-12.41,1.94-12.48,8.59
	c-0.09,9.02-0.02,18.04-0.02,27.06C140.85,132.15,140.88,141.01,140.84,149.88z"/>
</svg>
