<?xml version="1.0" encoding="utf-8"?>
<!-- Generator: Adobe Illustrator 27.6.1, SVG Export Plug-In . SVG Version: 6.00 Build 0)  -->
<svg version="1.1" id="Layer_1" xmlns="http://www.w3.org/2000/svg" xmlns:xlink="http://www.w3.org/1999/xlink" x="0px" y="0px"
	 viewBox="0 0 300 300" style="enable-background:new 0 0 300 300;" xml:space="preserve">
<style type="text/css">
	.st0{fill:#FFFFFF;}
</style>
<path class="st0" d="M180.01,48.89c1.71,0,3.42,0,5.13,0c1,0.28,2,0.52,2.99,0.83c5.03,1.59,8.56,4.92,11.13,9.43
	c7.74,13.57,15.55,27.11,23.24,40.7c1.45,2.56,2.71,5.09,6.19,5.04c0.19,0,0.38,0.1,0.56,0.17c7.99,2.89,12.65,9.44,12.7,18.04
	c0.05,8.09,0.1,16.18-0.04,24.26c-0.04,2.32,0.37,3.75,2.67,4.88c3.7,1.82,5.37,5.4,6.51,9.2c0,10.8,0,21.59,0,32.39
	c-0.15,0.35-0.33,0.69-0.44,1.05c-1.15,3.93-3.5,6.93-7.18,8.7c-1.25,0.6-1.54,1.27-1.53,2.53c0.05,8.62,0.07,17.24,0.01,25.87
	c-0.07,10.95-7.93,19.1-18.61,19.1c-52,0.04-103.99,0.04-155.99-0.06c-2.67-0.01-5.56-0.67-7.96-1.82
	c-7.14-3.43-10.51-9.41-10.51-17.31c0-36.2,0-72.4,0-108.6c0-0.53,0-1.05,0.02-1.58c0.4-9.39,7.65-16.96,17.04-17.49
	c4.99-0.28,10-0.08,14.99-0.26c1.37-0.05,2.88-0.4,4.06-1.08c26.27-15.22,52.49-30.53,78.75-45.77
	C169.02,54.07,174.01,50.47,180.01,48.89z M232.52,150.01c0.04-0.57,0.1-0.95,0.1-1.33c0-8.69,0.01-17.38-0.01-26.06
	c0-0.84-0.08-1.72-0.3-2.53c-1.16-4.29-4.66-6.83-9.44-6.83c-51.67-0.01-103.33-0.01-155,0c-0.39,0-0.79-0.01-1.18,0.04
	c-3.63,0.4-6.39,2.2-7.76,5.56c-0.65,1.58-0.79,3.46-0.79,5.21c-0.04,35.67-0.03,71.34-0.02,107.02c0,0.98,0.06,1.98,0.2,2.95
	c0.51,3.58,2.5,6.07,5.9,7.2c1.58,0.53,3.36,0.64,5.04,0.64c28.56,0.04,57.13,0.03,85.69,0.03c22.44,0,44.89-0.06,67.33,0.03
	c6.93,0.03,10.59-4.69,10.42-10.38c-0.24-8.09-0.06-16.19-0.07-24.28c0-0.63-0.07-1.27-0.11-2.04c-0.87,0-1.59,0-2.3,0
	c-8.23,0-16.45,0.06-24.68-0.01c-16.9-0.16-29.45-14.02-27.84-30.65c1.31-13.47,13.17-24.41,26.75-24.54
	c8.62-0.08,17.24-0.02,25.87-0.02C231.01,150.01,231.71,150.01,232.52,150.01z M220.38,195.88c5.33,0,10.66,0.01,15.99,0
	c3.72-0.01,5.48-1.65,5.5-5.38c0.06-8.62,0.06-17.24,0-25.86c-0.02-3.63-1.71-5.39-5.31-5.39c-11.12,0.01-22.24-0.1-33.35,0.27
	c-10.58,0.35-18.73,12.13-15.83,22.35c2.51,8.84,9.18,13.95,18.4,14.02C210.64,195.91,215.51,195.88,220.38,195.88z M102.33,103.57
	c0.04,0.15,0.08,0.3,0.12,0.44c5.05,0,10.1,0.06,15.14-0.05c1.24-0.03,2.62-0.37,3.69-0.99c22.45-13.01,44.87-26.07,67.29-39.13
	c0.61-0.36,1.2-0.76,1.89-1.19c-0.31-0.49-0.51-0.89-0.79-1.23c-2.93-3.58-7.64-4.25-12.1-1.66
	c-17.66,10.27-35.31,20.55-52.96,30.83C117.18,94.92,109.76,99.24,102.33,103.57z M138.79,103.54c0.06,0.16,0.12,0.32,0.18,0.47
	c5.05,0,10.1,0.06,15.15-0.04c1.18-0.02,2.48-0.37,3.5-0.96c13.43-7.75,26.82-15.57,40.22-23.37c0.55-0.32,1.08-0.68,1.79-1.13
	c-1.51-2.63-2.96-5.14-4.49-7.79C176.23,81.74,157.51,92.64,138.79,103.54z M214.18,103.89c-3.39-5.93-6.61-11.54-9.9-17.29
	c-9.81,5.71-19.46,11.33-29.11,16.96c0.04,0.11,0.08,0.22,0.13,0.34C188.14,103.89,200.97,103.89,214.18,103.89z M214.35,177.7
	c0.05-5.1-4.15-9.36-9.23-9.34c-5,0.02-9.2,4.22-9.22,9.19c-0.01,5,4.14,9.16,9.18,9.18C210.18,186.76,214.3,182.74,214.35,177.7z"
	/>
</svg>
