<?xml version="1.0" encoding="utf-8"?>
<!-- Generator: Adobe Illustrator 28.0.0, SVG Export Plug-In . SVG Version: 6.00 Build 0)  -->
<svg version="1.1" id="Layer_1" xmlns="http://www.w3.org/2000/svg" xmlns:xlink="http://www.w3.org/1999/xlink" x="0px" y="0px"
	 viewBox="0 0 300 300" style="enable-background:new 0 0 300 300;" xml:space="preserve">
<style type="text/css">
	.st0{fill:#FFFFFF;}
</style>
<path class="st0" d="M175.4,187.2c-5,5.1-10.1,10.1-15,15.3c-1,1.1-1.5,3.2-1.5,4.8c-0.1,20.9-0.1,41.8-0.1,62.7c0,9-3,12-11.8,12
	c-1.5,0-3,0-4.5,0c-6.9,0-10.1-3.1-10.1-10c0-13.5,0-26.9,0-41.6c-3.8,3.8-6.6,7.1-9.9,9.7c-6.4,5-9.2,11-8.1,19.2
	c0.6,4.3,0.2,8.8,0.1,13.2c-0.1,6.3-3.4,9.5-9.8,9.6c-1.5,0-3-0.1-4.5,0c-5.6,0.4-10.1-1-12.1-7.3c-1.8,1.7-3.3,3.1-4.8,4.5
	c-3.9,3.5-8.5,3.8-12.2,0.2c-9.8-9.5-19.5-19.1-29-28.8c-3.5-3.6-2.8-8.7,1.3-12.8c12.5-12.6,24.8-25.4,37.8-37.5
	c5.3-5,7.3-10,7.1-17.1c-0.5-15.7-0.2-31.4-0.2-47.1c0-1.5,0-3,0-5.6c-10.6,11.5-22.9,16.9-37.7,14.2c-10.2-1.9-18.6-7.3-24.8-15.8
	c-12.1-16.7-9.9-38.2,5.4-52.1c14.3-13,37.8-16,56.8,3.8c0.1-1.5,0.3-2.6,0.3-3.8c0-10,0.1-20.1,0-30.1c0-5.3,1.4-9.4,7-11.2
	c0.8-0.3,1.7-2,1.8-3c0.7-13.8,1.6-14.7,15.6-14.7c23.4,0,46.8,0,70.2,0c8.3,0,11.1,2.8,11.1,11.1c0,1.9,0,3.8,0,6
	c7.9,1.4,9.3,6.8,9.1,13.8c-0.4,9.8-0.1,19.5-0.1,30c5.1-3.4,9.5-1.8,13.7,0.9c2.2,1.4,3.6,0.7,5.3-1c11.5-11.7,23-23.3,34.6-34.9
	c5.2-5.2,9.8-5.2,14.9,0c2.5,2.5,5,5.1,7.5,7.7c4.4,4.8,4.4,9.4-0.3,14.1C267,77.1,255.6,88.6,244,100c-1.9,1.9-2.8,3.3-1.2,6.2
	c4.4,8.2,3.9,9.8-2.7,16.5c-11.5,11.5-22.9,23-34.5,34.4c-2,2-2.9,4-2.9,6.8c0.1,35.6,0.1,71.3,0.1,106.9c0,8.2-3,10.9-11.2,11.2
	c-12.5,0.5-15.6-2-15.4-15.4c0.4-24.9,0.1-49.8,0.1-74.7c0-1.5,0-2.9,0-4.4C176.1,187.4,175.8,187.3,175.4,187.2z M76.7,273
	c13.7-13.5,27-26.4,40.1-39.5c38.9-39,77.8-78.1,116.8-117.1c2.1-2.2,2.7-3.7,1.2-6.6c-4.1-8.3-11.1-14-17.8-19.7
	c-6.6-5.7-7.7-5-13.7,1C153,141.1,102.8,191.2,52.5,241.2c-1.2,1.2-3,1.9-4.1,2.6C58.6,254.3,67.7,263.7,76.7,273z M132.5,48.6
	c-4.7,0-9,0.3-13.2-0.1c-3.9-0.3-4.8,1.1-4.8,4.8c0.1,36.3,0.1,72.6,0.1,108.9c0,1.2,0.2,2.3,0.2,3.5c0.3,0.2,0.7,0.4,1,0.7
	c4.6-4.9,9.1-9.8,13.8-14.5c2-2,2.8-4,2.8-6.9c-0.1-29.8-0.1-59.7-0.1-89.5C132.5,53.5,132.5,51.5,132.5,48.6z M97.4,44.5
	c0,46.5,0,92.8,0,138.9c6.8-4.1,8.9-9.7,8.8-17.6C105.8,127,106,88.2,106,49.4c0-1.6,0-3.2,0-5C102.9,44.5,100.3,44.5,97.4,44.5z
	 M159.2,48.8c0,24.6,0,48.7,0,74.1c5.4-5.6,10.2-10.2,14.7-15.2c1.3-1.4,2.4-3.7,2.4-5.7c0.2-16.5,0.1-33,0.1-49.5
	c0-1.2-0.2-2.4-0.3-3.7C170.4,48.8,164.9,48.8,159.2,48.8z M141.2,139.8c6.4-4.4,9.2-9.3,9-17.1c-0.6-24.6-0.2-49.2-0.2-73.8
	c0-1.5,0-2.9,0-4.4c-3.2,0-5.9,0-8.8,0C141.2,76.3,141.2,107.8,141.2,139.8z M193.6,169.8c-6.4,4.2-8.8,9.3-8.6,16.8
	c0.5,27.1,0.2,54.2,0.2,81.3c0,1.6,0,3.2,0,4.8c3.2,0,5.8,0,8.4,0C193.6,238.3,193.6,204.2,193.6,169.8z M264.4,50
	c-12.6,12.2-25,24.4-37.2,36.2c2.9,3.1,5.8,6.1,8.4,8.8c12.4-12.3,24.8-24.6,37.3-37C269.9,55.2,266.8,52.3,264.4,50z M141,272.8
	c3.3,0,6,0,8.7,0c0-19.8,0-39.4,0-58.9c-0.4-0.3-0.8-0.6-1.2-0.9c-1,1.4-1.8,3.2-3.1,4.3c-3.6,2.8-4.8,6.2-4.5,10.7
	c0.4,5.6,0.1,11.3,0.1,16.9C141,254.1,141,263.3,141,272.8z M150,34.3c3.2,2.2,5.8,5.5,8.3,5.4c7.4-0.3,15.3,3.1,22.4-2.7
	c4.5-3.7,5.4-4.2,3.8-9.8c-11.5,0-23,0-34.5,0C150,29.9,150,32.3,150,34.3z M70.3,78.1c-13.8,13.7-27.1,27.1-40.7,40.7
	c1,1.6,2.1,3.4,3,4.8c14.2-14.2,28.2-28.2,42.5-42.4C73.6,80.1,71.9,79.1,70.3,78.1z M105.6,27c0.5,3.2,0,7.2,1.5,8.1
	c4.2,2.6,8.2,6.3,14,5c3-0.7,6.5,0.5,9.4-0.3c3.6-1,6.9-3.3,10.2-5.1c0.3-0.2,0.2-1,0.2-1.6c0-2,0-4,0-6.1
	C130.1,27,117.8,27,105.6,27z M185.4,95.3c0.4,0.2,0.7,0.4,1.1,0.6c1.3-1.6,2.5-3.3,4-4.6c2.5-2.1,3.4-4.6,3.3-7.9
	c-0.2-11.5-0.1-23.1-0.1-34.6c0-1.5-0.1-2.9-0.2-4.2c-3,0-5.6,0-8.2,0C185.4,61.7,185.4,78.5,185.4,95.3z M82.2,88.2
	c-14.2,14.2-28.3,28.3-42.3,42.3c4.8,3.9,4.8,3.9,9-0.3c5.2-5.2,10.5-10.5,15.8-15.7c7-6.9,14-13.9,21.1-20.8
	C84.3,91.5,83.2,89.8,82.2,88.2z M26.9,106.4c10.4-10.3,21-20.8,31.4-31.1C38.8,73.8,24.9,93.1,26.9,106.4z M88.1,105.5
	c-10.4,10.2-21,20.7-31.4,31C73.3,138.1,89.4,121.9,88.1,105.5z M105.9,257.8c-8.3,5.5-9.9,8.5-8.2,15c2.7,0,5.3,0,8.2,0
	C105.9,267.7,105.9,262.9,105.9,257.8z"/>
</svg>
