<?xml version="1.0" encoding="utf-8"?>
<!-- Generator: Adobe Illustrator 28.0.0, SVG Export Plug-In . SVG Version: 6.00 Build 0)  -->
<svg version="1.1" id="Layer_1" xmlns="http://www.w3.org/2000/svg" xmlns:xlink="http://www.w3.org/1999/xlink" x="0px" y="0px"
	 viewBox="0 0 300 300" style="enable-background:new 0 0 300 300;" xml:space="preserve">
<style type="text/css">
	.st0{fill:#FFFFFF;}
</style>
<path class="st0" d="M207.4,229.3c1.2,0,2.1,0,3.1,0c7.7,0,15.5,0,23.2,0c4.4,0,5.5,1.1,5.4,5.6c-0.1,3.1,0.1,6.3-0.5,9.3
	c-1.7,9.2-9.6,15.8-19,15.8c-52.7,0-105.3,0-158,0c-10.9,0-19.6-8.6-19.6-19.6c0-65.3,0-130.5,0-195.8c0-3.3,1.3-4.7,4.5-4.7
	c52.2,0,104.3,0,156.5,0c3,0,4.3,1.3,4.4,4.2c0,0.9,0,1.7,0,2.6c0,59.6,0,119.2,0,178.9C207.4,226.9,207.4,228,207.4,229.3z
	 M199.9,229.3c0-60.8,0-121.2,0-181.8c-50.2,0-100.2,0-150.5,0c0,1.1,0,2,0,3c0,62.8,0,125.5,0,188.2c0,1.3,0.1,2.6,0.3,3.9
	c0.9,5.7,5.8,9.9,11.6,10c5.5,0.2,10.9-3.9,11.9-9.3c0.5-2.8,0.4-5.7,0.5-8.6c0.1-4.5,1-5.4,5.6-5.4c39.1,0,78.2,0,117.3,0
	C197.6,229.3,198.7,229.3,199.9,229.3z M231.6,236.9c-50.2,0-100.3,0-150.6,0c0.5,5.7-0.5,10.9-4.1,15.8c1.5,0,2.4,0,3.3,0
	c45.8,0,91.6,0,137.4,0C227.5,252.7,232.6,247.1,231.6,236.9z M221.4,117.4c0-20.6,0.2-41.2-0.1-61.8c-0.2-10.1,7.4-16.4,15.7-15.6
	c1.6,0.1,3.1,0.1,4.7,0c10.1-0.8,16.4,6.6,16.3,16.1c-0.3,29.3-0.1,58.6-0.1,87.9c0,12.3,0,24.7,0,37c0,1.6-0.4,3.3-1,4.7
	c-4.3,9.6-8.8,19.1-13.2,28.6c-0.8,1.8-1.6,3.5-4,3.5s-3.2-1.7-4-3.5c-4.3-9.3-8.7-18.5-12.9-27.9c-0.8-1.8-1.2-3.8-1.3-5.7
	C221.3,159.7,221.4,138.6,221.4,117.4z M235.8,179.1c0-36,0-71.7,0-107.5c-2.4,0-4.6,0-6.9,0c0,35.9,0,71.7,0,107.5
	C231.2,179.1,233.3,179.1,235.8,179.1z M243.5,71.6c0,36.1,0,71.8,0,107.4c2.4,0,4.6,0,6.8,0c0-35.9,0-71.7,0-107.4
	C247.9,71.6,245.8,71.6,243.5,71.6z M250.5,63.9c0-1.2,0-2.1,0-3c0-2.5,0.1-5-0.2-7.5c-0.4-3.6-2.8-5.7-6.4-5.9
	c-2.9-0.1-5.7-0.1-8.6,0c-3.5,0.2-6.1,2.2-6.4,5.3c-0.3,3.7-0.1,7.4-0.1,11.2C236,63.9,243.1,63.9,250.5,63.9z M230.9,186.6
	c2.9,6.3,5.7,12.3,8.7,18.8c3.1-6.6,5.8-12.6,8.7-18.8C242.3,186.6,236.8,186.6,230.9,186.6z M181.6,71.3c0,6,0,11.9,0,17.9
	c0,3.1,1.4,4.6,3.7,4.6c2.3,0,3.7-1.7,3.7-4.7c0-9.4,0-18.8,0-28.1c0-2.1-0.5-3.9-2.6-4.6c-2.2-0.8-3.6,0.5-4.8,2.1
	c-3,3.8-6.1,7.5-9.2,11.4c-3.3-4-6.4-7.8-9.4-11.5c-1.2-1.5-2.6-2.7-4.6-2c-2.1,0.7-2.6,2.5-2.6,4.6c0.1,7.2,0,14.4,0,21.6
	c0,2.6-0.1,5.2,0.1,7.8c0.1,2.2,1.8,3.6,3.8,3.4c2.1-0.2,3.3-1.3,3.4-3.5c0.1-1.2,0-2.4,0-3.7c0-5.2,0-10.3,0-15.5
	c2.3,1.9,4,4.1,5.7,6.1c2.4,2.9,4.7,2.9,7.1,0c1.7-2.1,3.4-4.2,5.1-6.2C181.1,71.2,181.4,71.2,181.6,71.3z M143.5,78.8
	c-3.7,0-7.1,0-10.8,0c0,3.5,0,6.9,0,10.4c0,3.1-1.3,4.6-3.7,4.7c-2.4,0-3.6-1.6-3.7-4.6c0-9.5,0-18.9,0-28.4c0-3.4,1.2-4.6,4.7-4.6
	c5.4,0,10.8,0,16.1,0c3.3,0,4.6,1.3,4.6,4.5c0,9.6,0,19.1,0,28.7c0,2.8-1.4,4.4-3.7,4.4c-2.3,0-3.7-1.5-3.7-4.3
	C143.5,86.1,143.5,82.6,143.5,78.8z M143.4,71.2c0-2.7,0-5.1,0-7.5c-3.6,0-7,0-10.4,0c0,2.6,0,5.1,0,7.5
	C136.5,71.2,139.8,71.2,143.4,71.2z M178.9,165.6c0.9,0,1.8,0.1,2.6-0.1c1.9-0.5,3-1.7,3-3.7c-0.1-1.9-1.1-3.1-2.9-3.5
	c-0.8-0.2-1.7-0.2-2.6-0.2c-24.9,0-49.7,0-74.6,0c-0.9,0-2.2-0.2-2.8,0.3c-1.1,0.9-2.3,2.1-2.7,3.3c-0.5,1.8,0.8,3.1,2.6,3.6
	c0.9,0.2,1.9,0.2,2.8,0.2c12.3,0,24.7,0,37,0C153.9,165.6,166.4,165.6,178.9,165.6z M82.2,63.5c2.3,0,3.9-1.6,3.9-3.6
	c0-2-1.6-3.6-3.9-3.7c-5.9-0.1-11.8,0-17.7,0c-2.4,0-3.8,1.3-3.8,3.7c-0.1,10.1-0.1,20.1,0,30.2c0,2.4,1.4,3.7,3.8,3.8
	c6,0.1,12,0.1,18,0c2.3,0,3.5-1.4,3.8-3.6c0.2-2-1.5-3.7-3.8-3.8c-2.8-0.1-5.6,0-8.3,0c-1.9,0-3.9,0-5.8,0c0-2.8,0-5.2,0-7.8
	c4.6,0,9,0.1,13.4-0.1c1.4-0.1,3.1-0.8,3.9-1.9c1.7-2.4-0.3-5.3-3.6-5.4c-4.6-0.1-9.2,0-13.8,0c0-2.7,0-5.1,0-7.8
	C73,63.5,77.6,63.5,82.2,63.5z M103.1,194.4c-2.9,0-4.3,1.3-4.3,3.7c0.1,2.2,1.5,3.5,4.2,3.5c25.7,0,51.5,0,77.2-0.1
	c1.2,0,2.8-0.5,3.4-1.4c0.7-0.9,1-2.9,0.4-3.8c-0.7-1.1-2.4-2-3.8-2c-12.9-0.1-25.7-0.1-38.6-0.1
	C128.8,194.4,115.9,194.4,103.1,194.4z M104.1,121.9c-0.8,0-1.6-0.1-2.3,0.1c-1.9,0.5-3,1.7-2.9,3.7c0.1,2,1.2,3.2,3.2,3.4
	c0.8,0.1,1.6,0.1,2.3,0.1c24.9,0,49.7,0,74.6,0c0.8,0,1.6,0,2.3-0.1c2-0.2,3.1-1.5,3.2-3.5c0.1-2-1-3.3-3-3.7
	c-0.7-0.2-1.6-0.1-2.3-0.1c-12.4,0-24.9,0-37.3,0C130.3,121.9,116.7,121.9,104.1,121.9z M119.2,62.8c1.7-2.4,1.6-4.6-0.3-5.9
	c-1.9-1.4-3.9-0.8-5.7,1.7c-2.4,3.3-4.9,6.7-7.5,10.2c-2.7-3.6-5.1-7.1-7.7-10.5c-1.7-2.3-3.7-2.7-5.6-1.3c-1.8,1.4-2,3.5-0.3,5.7
	c2.6,3.7,5.3,7.3,8,10.9c0.8,1.1,0.8,1.9,0,2.9c-2.5,3.2-4.8,6.6-7.2,9.8c-0.3,0.4-0.6,0.8-0.9,1.3c-1.4,2.2-1.2,4.3,0.5,5.5
	c1.7,1.2,3.9,0.8,5.4-1.2c2.6-3.4,5.1-6.9,7.8-10.6c2.6,3.6,5,6.8,7.4,10.1c1.9,2.5,4.1,3.1,5.9,1.7c1.8-1.4,1.8-3.5,0.1-6
	c-2.9-4-5.8-8-8.8-12.1C113.3,70.9,116.3,66.9,119.2,62.8z M89.6,198.2c0,2.7,0.1,5.4,0,8.1c-0.1,2.7-1.4,4-4,4.1
	c-5.5,0.1-10.9,0.1-16.4,0c-2.8,0-4.1-1.5-4.2-4.2c0-5.4,0-10.8,0-16.1c0-2.8,1.3-4.3,4.1-4.3c5.6-0.1,11.1-0.1,16.7,0
	c2.5,0,3.8,1.5,3.9,4C89.6,192.5,89.6,195.4,89.6,198.2z M72.4,202.7c3.4,0,6.4,0,9.7,0c0-3.2,0-6.3,0-9.4c-3.3,0-6.4,0-9.7,0
	C72.4,196.5,72.4,199.5,72.4,202.7z M77.4,149.5c2.6,0,5.2,0,7.8,0c3,0,4.3,1.2,4.3,4.2c0.1,5.4,0.1,10.8,0,16.1
	c0,2.9-1.3,4.1-4.1,4.1c-5.4,0.1-10.8,0.1-16.1,0c-3,0-4.3-1.3-4.3-4.3c0-5.4,0-10.8,0-16.1c0-2.8,1.4-4.1,4.2-4.1
	C71.9,149.5,74.7,149.5,77.4,149.5z M82.1,157c-3.3,0-6.5,0-9.6,0c0,3.3,0,6.5,0,9.6c3.3,0,6.4,0,9.6,0
	C82.1,163.4,82.1,160.3,82.1,157z M72.7,122.4c-1.9-1.9-3.9-2-5.5-0.5c-1.7,1.6-1.6,3.7,0.3,5.7c2.2,2.2,4.4,4.5,6.6,6.6
	c2.5,2.4,4.2,2.4,6.7,0c4.1-4,8.1-8.1,12.2-12.2c2.1-2.1,2.2-4.3,0.6-5.9c-1.7-1.6-3.7-1.4-5.9,0.8c-3.3,3.3-6.6,6.7-10.4,10.5
	C75.6,125.6,74.3,123.9,72.7,122.4z"/>
</svg>
