<?xml version="1.0" encoding="utf-8"?>
<!-- Generator: Adobe Illustrator 28.0.0, SVG Export Plug-In . SVG Version: 6.00 Build 0)  -->
<svg version="1.1" id="Layer_1" xmlns="http://www.w3.org/2000/svg" xmlns:xlink="http://www.w3.org/1999/xlink" x="0px" y="0px"
	 viewBox="0 0 300 300" style="enable-background:new 0 0 300 300;" xml:space="preserve">
<style type="text/css">
	.st0{fill:#FFFFFF;}
</style>
<path class="st0" d="M254.4,50.9c4.5,0,8.8,0,13.4,0c0.4-1.1,0.8-2.4,1.3-3.6c2-5.1,7.2-8.2,12.2-7.4c5.5,0.9,9.3,5.2,9.7,10.9
	c0.1,1,0,2.1,0,3.1c0,75.8,0,151.7,0,227.5c0,6.2,0,6.2-6,6.2c-4.1,0-8.2-0.2-12.3,0c-3.5,0.2-4.8-1.3-4.5-4.7c0.1-1.2,0-2.4,0-3.5
	c0-72.4,0-144.9,0-217.4c0-1.9,0-3.8,0-6c-4.8,0-9.3,0-13.9,0c-2.2,10.2-9.1,16.5-17.5,21.6c-13.9,8.4-29.3,12.5-45.2,14.7
	c-29.2,4.1-58.3,3.2-86.5-6.3c-8.5-2.9-16.8-7.1-24.2-12.2c-16.1-11.2-16-28.7-0.5-40.7C91.9,24.6,105,20.1,118.7,17
	c23.9-5.5,48-6,72.2-2.6c17.5,2.5,34.5,6.8,49.4,17C247.2,36.2,252.6,42.1,254.4,50.9z M161.5,89.9c18.8-0.4,37.3-2.1,55.1-8.3
	c10.6-3.7,20.9-8.1,28.3-16.9c6.1-7.3,6.6-14.9,0.1-21.8c-4.7-5-10.6-9.4-16.7-12.5c-14.3-7.4-30-10.3-46-12
	c-26.1-2.7-51.8-0.9-76.8,7.4c-9.8,3.2-19.1,7.6-26.2,15.5c-7.3,8-7.5,17.1,0.3,24.6c4.7,4.4,10.3,8.4,16.1,11.2
	C116.6,87.1,139,89.3,161.5,89.9z M286,282.9c0-1.9,0-3.5,0-5.1c0-74.3,0-148.7,0-223c0-1.5,0.1-3-0.1-4.4c-0.5-3.3-2.5-5.2-6-5.2
	c-4.5-0.1-6.5,2.6-6.5,9c0,74.8,0,149.6,0,224.4c0,1.4,0.1,2.9,0.2,4.5C277.7,282.9,281.4,282.9,286,282.9z M159.7,205.4
	c0,41.3-33.7,75.1-74.9,75.2c-42,0-75.9-33.6-75.9-75.1c0-41.7,33.6-75.6,75-75.6C126.1,130.8,159.6,163.3,159.7,205.4z
	 M106.8,235.4c-3.8-11.9-9.6-21.9-17.5-30.5c-1-1.1-3.4-1.6-4.9-1.4c-15.7,2.7-31,1.7-45.8-4.1c-7.7-3-15-7.1-22.4-10.7
	c-2,6.1-2.5,20.2-1.7,26.5c0.6,4.7,3,7.1,6.8,9.2C48.2,239,76.8,239.9,106.8,235.4z M108.1,240.1c-31.3,5.2-61.3,3.6-90.2-11.8
	c0.6,1.9,0.9,2.9,1.3,3.8c4.4,11,11.3,20.3,20.5,27.6c20.4,16.1,43.1,20,67.8,12c1.1-0.4,2.6-1.6,2.7-2.7
	C111.7,259.4,110.7,249.8,108.1,240.1z M128.4,150.3c-8.4-7.1-18.5-11.7-29.5-14c-2.1-0.4-5.3,0.4-6.7,1.9c-8.4,9-17,17.8-24.4,27.6
	c-7.2,9.5-11.4,20.6-13.1,33.1c10.9,1.4,21.5,1.7,32-1.1c0.9-0.2,1.9-1.7,2.3-2.8c3.7-9.8,9.2-18.4,16.7-25.5
	C112.8,162.8,120.6,156.8,128.4,150.3z M109.9,172.2c-7,7-12,14.6-15.8,23.1c-1.7,3.7-1.2,6.3,1.5,9.4c9.7,11.4,16.1,24.4,18.4,39.2
	c1.2,7.9,1.6,15.9,2.4,24c10.4-5.2,19-12.7,25.8-22.4c0.6-0.9,0.8-2.2,0.7-3.3c-0.4-3.9-0.9-7.9-1.6-11.8
	C137,208,126.2,189,109.9,172.2z M49.8,197.7c4.4-25.7,19-45.1,38-62.5c-31.1-2.6-62.1,19.7-69.7,47.5
	C27.4,189.8,37.8,194.9,49.8,197.7z M114.3,167.4c7.6,11.2,15.1,21.4,21.4,32.2c6.4,10.9,9.6,23.2,11.4,36.6
	c13.4-24.5,8.9-61.1-14.6-81.8C126.3,158.8,119.9,163.4,114.3,167.4z M156.9,82.2c-14.1-0.2-33.1-1.8-51-9.1
	c-4.6-1.8-9-4.4-12.9-7.4c-9.2-7.2-9.1-17.1,0-24.4c8-6.4,17.4-9.7,27.2-11.8c30.7-6.6,61.5-6.8,91.7,2.6c6.7,2.1,13.3,5.5,18.9,9.8
	c9.3,7.1,8.9,16.1,0.1,23.7c-7.2,6.2-16,9.1-24.9,11.5C191.4,80.8,176.7,82.2,156.9,82.2z M161.9,29.1c-11.6,1.2-23.4,2-34.9,3.9
	c-10.9,1.7-21.5,4.9-30.5,11.6C89.2,50.2,89,57,96.5,62.2c4.5,3.2,9.6,5.9,14.8,7.5c30.8,9.9,62,9.7,93.2,2.4
	c7.4-1.7,14.7-5.1,21.2-9.1c9.2-5.6,9-12.9,0.2-19.1c-2.8-2-6-3.7-9.2-5C199.2,31.7,180.7,30,161.9,29.1z M126.1,208.7
	c-5.7-8.6-11.4-17.3-17.3-25.8c-0.6-0.8-2.7-0.5-4.1-0.8c0.2,1.3-0.1,2.9,0.6,3.9c4.2,6.2,8.7,12.1,12.9,18.3
	c1.5,2.2,2.4,4.7,3.8,6.9c0.5,0.8,1.9,1.3,2.9,1.3c0.9,0,1.7-0.9,2.3-1.2C126.6,209.8,126.4,209.2,126.1,208.7z M55.3,157.9
	c-1.2,0.4-2.8,1.1-3.3,2.1c-3.7,9-7.4,18.1-10.7,27.3c-0.5,1.3,0.6,3.2,1,4.8c1.2-1.2,3-2.1,3.5-3.5c3.5-8.5,6.7-17.1,10.1-25.7
	c0.4-0.9,0.8-1.9,1.4-3.1C56.6,159.1,55.8,157.8,55.3,157.9z"/>
</svg>
