<?xml version="1.0" encoding="utf-8"?>
<!-- Generator: Adobe Illustrator 28.0.0, SVG Export Plug-In . SVG Version: 6.00 Build 0)  -->
<svg version="1.1" id="Layer_1" xmlns="http://www.w3.org/2000/svg" xmlns:xlink="http://www.w3.org/1999/xlink" x="0px" y="0px"
	 viewBox="0 0 300 300" style="enable-background:new 0 0 300 300;" xml:space="preserve">
<style type="text/css">
	.st0{fill:#FFFFFF;}
</style>
<path class="st0" d="M102.7,172.8c-17.5,8.4-36.5,12.8-52.6,23.9c-7.3,5-14.7,3.2-19.7-4.1c-2.9-4.3-5.6-8.6-8.5-13
	c-2.8-4.4-3-8.9-0.3-13.3c2.8-4.5,7-6.1,12.1-5.4c0.8,0.1,1.6,0.1,2.2,0.4c8.1,3.7,15.2,1.6,22.7-2.5c10.2-5.6,21-10.2,31.4-15.2
	c-1.2-9.1-0.1-10.4,9.1-11.8c7-1,14-2.1,21.7-3.3c-1.1-2.7-2-5-2.9-7.4c-0.9-2.6-0.6-4.8,2.2-6.1c3-1.4,4.6,0.7,5.8,2.9
	c1.3,2.5,2.3,5.3,3.6,8.3c10.1-4.2,19.9-8.3,30.2-12.7c-3.3-8.5-6.4-16.8-9.7-25c-0.3-0.8-1.8-1.5-2.8-1.6c-3.2-0.4-6.5-0.1-9.5-0.9
	c-1.7-0.5-2.9-2.7-4.3-4.2c1.5-1.3,2.9-3.7,4.6-3.8c4.9-0.5,10-0.2,15.2-0.2c0-3,0-6,0-9.4c-5.9-0.3-11.6-0.6-17.4-1
	c-2.9-0.2-6.2-0.2-6.2-4.3c0-4,3.2-4.2,6.1-4.6c-3.7-4.7-6-5-10.5-1.3c-4.3,3.4-9.1,5.3-14.7,5.3c-4.8,0-6.8,2.7-4.9,7.3
	c3.5,8.6,7.1,17.1,10.7,25.6c0.3,0.8,0.7,1.7,1,2.5c1.1,2.7,1,5.3-2.1,6.5c-3,1.1-4.8-0.6-5.9-3.4c-0.6-1.7-1.5-3.2-2.2-4.9
	c-0.7,0.2-1.2,0.2-1.5,0.4c-7.8,7.4-17.4,7.6-27.3,6.9c-6.5-0.5-13.1-0.6-19.6-0.9c-8.2-0.4-14-5.9-13.9-13.3
	c0.1-7.4,6.1-12.9,14.2-13c8.7-0.1,17.3-0.2,26,0.1c4.7,0.2,7.5-2.9,10.8-5.1c0.6-0.4,0.6-1.9,0.7-2.9c0.4-3,0.8-5.9,1.2-9.2
	c-11-8.8-13.2-21.8-12.8-35.1C85.6,13.4,94.4,5.4,105.1,4c9.9-1.3,20.7,4.7,23.9,14.4c3,8.9,6.2,17.8,4.1,27.8
	c6.1,2,10.3,6.1,13.7,11.4c0.7,1,2.4,1.8,3.7,1.9c6.2,0.5,12.4,0.8,18.7,1.1c5.4,0.2,10,2,13.9,5.8c6.6,6.4,13.3,12.6,19.8,18.9
	c6,5.9,6.2,14.3,0.8,20c-5.5,5.8-13.7,6-19.9,0.2c-5.2-4.9-10.3-9.9-15.2-15.1c-2.5-2.7-5.1-4.1-9.4-2.9c2,5.3,3.9,10.6,6,15.8
	c6.4,15.9,12.8,31.8,19.1,47.7c0.8,2.1,0.9,4.4,1.4,6.6c0.4,1.7,0.9,3.4,1.6,4.9c2.7,5.9,7.3,7.3,13.6,6.8c12.9-1,25.8-1.2,38.7-1.9
	c1.6-0.1,3.2-0.8,4.7-1.4c4-1.8,7.9-3.9,12-5.6c5.9-2.5,11.4-0.5,14.2,5.1c3,5.9,5.9,12,8.5,18.1c2,4.6,1.2,9-2.2,12.7
	c-3.5,3.8-8.2,5.7-12.8,3.2c-13-7.2-26.6-4-40.1-3.4c-12.9,0.6-25.8,1.5-38.7,2.4c-5.9,0.4-10.7-1.5-14.7-5.8
	c-1.7-1.8-3.6-3.3-5.2-5.1c-2-2.3-4.1-3.5-7.4-2.9c-4,0.7-6.4-1.9-8.3-5.2c-5.3-9-5.3-8.9-15.5-6.4c-6.9,1.7-13.8,3.4-20.8,5
	C107.8,179.4,105.9,178.4,102.7,172.8z M133.5,133.9c8.3,14.4,16.2,28.1,24.4,42.4c6.4-6.4,12.4-12.5,18.2-18.6
	c0.6-0.6,0.8-2,0.5-2.8c-4.4-11.1-8.9-22.1-13.5-33.5C153.1,125.7,143.5,130.7,133.5,133.9z M168.5,177.9c3.4,3.4,6.3,7,9.8,9.9
	c1.7,1.4,4.4,2.3,6.6,2.2c14.9-0.7,29.7-1.8,44.6-2.7c5.1-0.3,10.2-0.8,15.6-1.3c-0.9-2.1-1.8-3.5-2.1-5.1c-1.2-4.9-4.3-5.4-8.9-5
	c-10.8,0.9-21.6,0.4-32.3,1.8c-9.9,1.3-16.9-1.6-21.5-10.3c-0.1-0.2-0.5-0.3-0.7-0.4C175.9,170.5,172.3,174.1,168.5,177.9z
	 M140.2,162.9c-3.1-5.4-5.8-10.2-8.6-15.1c-6.6-11.5-6.6-11.5-19.6-9.4c-4.2,0.7-8.4,1.4-13,2.2c3.8,9.3,7.2,18,10.9,26.6
	c0.4,1,2.4,2.1,3.3,1.9C122.2,167.2,131,165,140.2,162.9z M54.3,170.3c5.5,10.7,5.5,10.7,15.9,6.5c0.4-0.2,0.9-0.3,1.3-0.4
	c9.3-3.8,18.7-7.6,28.3-11.5c-1.9-4.7-3.7-9-5.7-13.7C80.7,157.6,67.6,163.9,54.3,170.3z M162.8,78.9c5.6-1.5,8.5,2.1,11.7,5.4
	c4.7,4.8,9.4,9.4,14.2,14.1c3.1,3,6.6,3.4,8.8,1c3-3.3,1.4-6-1.3-8.6c-6.2-5.8-12.4-11.6-18.4-17.6c-4.4-4.3-9.6-4.2-15.1-4.2
	C162.8,72.4,162.8,75.4,162.8,78.9z M125.1,37.5c-4.7-0.8-9.3-0.5-12.5-2.5c-3.5-2.1-5.9-2.2-8.9,0c-1.7,1.3-3.9,2-5.3,3.4
	c-1,1-1.8,3-1.5,4.3c2.1,7.9,9,12.3,16.5,10.8C121.7,51.8,126.1,45.5,125.1,37.5z M94,30.6c1.5-0.8,3-1.4,4.3-2.3
	c6.2-4.4,12.4-6.4,18.9-0.4c0.7,0.6,2.8,0.1,4-0.5c0.7-0.3,1.1-2,0.9-2.9c-1.4-7.9-9.2-13.5-16.5-11.9C96.7,14.5,92,21.5,94,30.6z
	 M249.5,173.3c1.7,9.5,6.9,15.7,16.5,17.7c1.3,0.3,3.4,0.4,4.1-0.4c0.9-1,1.2-3.1,0.8-4.4c-0.8-2.7-2.3-5.3-3.5-7.9
	c-5.8-12.1-5.8-12.1-17.6-5.5C249.7,173,249.6,173.2,249.5,173.3z M52.7,184.2c-2.3-3.5-4.5-6.9-6.8-10.2c-0.5-0.8-1.5-1.6-2.3-1.9
	c-3.3-1-6.6-2-10-2.6c-1.3-0.2-3.4,0.2-4,1.1c-0.7,1.1-0.8,3.2-0.2,4.5c1.2,2.6,3,4.9,4.6,7.3c7,10.7,7.7,10.8,18,3.2
	C52.1,185.3,52.2,184.9,52.7,184.2z M86.6,85.1c-9.7,0-19.3-0.2-28.8,0.2c-1.3,0.1-3.8,2.9-3.6,4c0.4,1.7,2.6,4.2,4.1,4.2
	c9.8,0.4,19.6,0.2,29.8,0.2C87.7,91.3,87.2,88.4,86.6,85.1z M96.7,91.5c7.9-3.2,8.4-5,3.2-12.1C94.7,82.3,94.7,82.3,96.7,91.5z
	 M106.8,287.7c0-23.1,0-45.6,0-68c-8.8-1-10.7-3.3-10.7-12.1c0-3.5-0.1-7,0-10.5c0.1-5.2,3.3-8.7,8.5-8.7c13.1-0.1,26.2-0.1,39.3,0
	c5.3,0,8.4,3.2,8.7,8.6c0.2,3.6,0.1,7.3,0.1,11c0,8.4-2.1,10.8-10.9,11.8c0,7.5,0,15.1,0,22.6c0,1.4,0,2.7,0,4.1
	c0.1,3.2-1.2,5.6-4.6,5.6c-3.1,0-4.3-2.6-4.3-5.4c-0.1-7.3,0-14.6,0-21.9c0-1.6,0-3.3,0-5.1c-5.9,0-11.3,0-16.9,0
	c0,22.7,0,45.1,0,67.8c5.7,0,11.1,0,16.9,0c0-5.7,0-11.1,0-16.6c0-1.4-0.2-3,0.5-4c1.1-1.4,3.4-3.5,4.2-3.1c1.7,0.8,3.8,2.9,4,4.6
	c0.5,6.2,0.2,12.4,0.2,19.3c2.1,0,3.9,0,5.6,0c46.9,0,93.8,0,140.6,0c1.5,0,3.3-0.4,4.5,0.2c1.4,0.7,3.4,2.3,3.4,3.4
	c0,1.5-1.5,3.4-2.9,4.4c-0.9,0.7-2.6,0.3-4,0.3c-92.5,0-185.1,0-277.6,0c-1.4,0-3.1,0.4-4-0.3c-1.4-1-3.1-2.9-3.1-4.3
	c0.1-1.3,2.1-2.9,3.6-3.7c1.1-0.6,2.7-0.1,4.1-0.1c29.7,0,59.4,0,89,0C102.7,287.7,104.5,287.7,106.8,287.7z M143.4,211
	c0-5.2,0-9.6,0-14.1c-13,0-25.5,0-38.7,0c0,4.1-0.1,8,0.1,11.9c0,0.8,1.3,2.1,2.1,2.2C119,211,131.1,211,143.4,211z"/>
</svg>
