<?xml version="1.0" encoding="utf-8"?>
<!-- Generator: Adobe Illustrator 28.0.0, SVG Export Plug-In . SVG Version: 6.00 Build 0)  -->
<svg version="1.1" id="Layer_1" xmlns="http://www.w3.org/2000/svg" xmlns:xlink="http://www.w3.org/1999/xlink" x="0px" y="0px"
	 viewBox="0 0 300 300" style="enable-background:new 0 0 300 300;" xml:space="preserve">
<style type="text/css">
	.st0{fill:#FFFFFF;}
</style>
<path class="st0" d="M230.5,211.4c-0.2-0.3-0.4-0.6-0.6-1c-0.6-0.9-1.3-1.8-1.9-2.8c-0.9-1.6-0.5-3.3,1.1-4.6c1.4-1.1,3-1.1,4.4,0.2
	c0.7,0.6,1.2,1.4,1.8,2.2c1.9,2.6,4.1,4.9,7.1,6.4c1.5,0.8,2.3,1.9,2.3,3.7c-0.1,4.4,0,8.9-0.1,13.3c0,0.8,0.2,1,0.9,1.2
	c4.5,1.4,8.2,3.9,10.6,8.1c1.6,2.7,2.6,5.6,2.6,8.8c0,8.6,0,17.2,0,25.8c0,2.4-1.6,3.9-4,4.1c-0.3,0-0.6,0-0.9,0
	c-69.1,0-138.3,0-207.4,0c-0.4,0-0.8,0-1.2,0c-2.5-0.3-3.7-1.8-3.8-4.5c0-4.6,0-9.2,0-13.8c0-3.1-0.1-6.3,0.1-9.4
	c0.5-6.5,4.5-11.9,10.2-14.1c3.1-1.2,2.4-0.4,2.4-3.6c0-3.4,0-6.8,0-10.2c0-1.6,0.8-2.6,2.2-3.3c3.2-1.4,6-3.3,8.5-5.7
	c5.8-5.4,8.9-12.1,10.7-19.7c0.9-3.9,1.2-7.8,1.5-11.7c0.1-0.6-0.2-0.8-0.7-0.9c-6.7-2.1-11-8.2-10.7-15.1c0.3-6,3.3-10.4,8.7-13.1
	c0.8-0.4,1.7-0.8,2.6-1.2c-0.2-0.4-0.4-0.7-0.6-1c-6.1-8.2-8.6-17.3-7.1-27.4c0.4-2.7,1.3-5.2,2.2-7.8c0.6-1.8,1.9-2.4,3.7-2.3
	c1.5,0.1,2.5,0.9,2.9,2.3c0.2,0.8,0.2,1.7,0,2.5c-0.4,1.9-1.2,3.8-1.5,5.7c-1.5,10.5,1.3,19.5,9.3,26.7c0.8,0.7,1.7,0.9,2.7,0.9
	c10.5,0,21-0.1,31.5,0c1.8,0,3-0.5,4.3-1.7c5.1-5,8.2-11.1,8.8-18.1c1.2-13.3-6.3-25.2-19-29.8c-2.8-1-5.8-1.4-8.8-1.5
	c-7.3-0.2-13.7,2.1-19.3,6.7c-0.9,0.7-1.7,1.3-3,1.3c-1.7,0-2.7-0.8-3.4-2.2c-0.7-1.4-0.3-2.8,0.8-3.7c1.9-1.7,4-3.3,6.2-4.6
	c5.6-3.4,11.8-5,18.4-4.9c16.4,0.3,29.5,11.1,33.8,24.9c3.6,11.7,1.7,22.6-5.4,32.6c-0.3,0.4-0.6,0.8-1,1.3c1,0.4,1.9,0.8,2.8,1.3
	c5.6,2.8,8.6,7.4,8.7,13.6c0.1,6.4-3.2,11-8.9,14c-0.6,0.3-1.3,0.4-1.9,0.7c-0.3,0.1-0.6,0.5-0.6,0.8c0.6,8.6,1.9,17,6.5,24.5
	c0.1,0.2,0.3,0.4,0.4,0.7c0.4,0.7,0.8,0.7,1.3,0c0.7-1,1.5-2,2.1-3.1c2.2-3.7,3.9-7.6,5.3-11.7c2.3-6.4,3.8-13.1,5.1-19.8
	c0.8-4,1.4-8.1,1.9-12.2c0.5-3.7,0.7-7.5,1.2-11.2c0.9-6.4,0.8-12.9,1.2-19.4c0-0.3-0.3-0.7-0.6-0.9c-1.7-0.9-3.5-1.5-5-2.5
	c-8.1-5.7-9.5-16.5-3.3-24.2c0.1-0.1,0.2-0.2,0.4-0.5c-0.4-0.2-0.7-0.4-1.1-0.6c-6.7-3.4-11.3-8.7-13-16.1
	c-0.9-4.2-1.1-8.5-1.5-12.8c-0.4-3.4-0.7-6.9-1.1-10.3c-0.4-3.8-0.7-7.6-1-11.3c-0.4-4.6-0.8-9.1-1.2-13.7c-0.2-2.7-0.6-5.3-0.8-8
	c-0.2-3.1,1.2-4.6,4.4-4.6c2.3,0,4.6,0,6.8,0c3.1,0,6.3,0,9.4,0c3.2,0,4.4,1,4.9,4.1c0.5,3.5,0.9,7.1,1.4,10.6c0.6,4,1.1,8,1.8,12
	c0.4,2.4,2.9,4.3,5,4.1c2.8-0.3,4.7-2.4,4.7-5.2c0-7.1,0.1-14.3,0-21.4c0-2.5,1.6-4.2,4.2-4.2c0.8,0,1.6,0,2.4,0
	c9.9,0,19.8,0,29.6,0c1.9,0,3.4,0.6,4.2,2.4c0.3,0.6,0.4,1.3,0.4,1.9c0,7.1,0,14.2,0,21.3c0,2.7,1.1,4,3.5,5c1.9,0.8,5.7-1.1,6-3.6
	c0.5-4.2,1.2-8.5,1.8-12.7c0.5-3.6,0.9-7.3,1.6-10.9c0.4-2.4,1.6-3.4,4-3.4c5.8,0,11.6-0.1,17.4,0c2.2,0,4.2,1.7,3.9,4.2
	c-0.3,3.2-0.6,6.4-0.9,9.6c-0.6,7.1-1.1,14.2-1.7,21.3c-0.2,2-0.6,4-0.8,6.1c-0.4,3.9-0.6,7.9-1,11.8c-0.3,3.2-0.5,6.5-1.6,9.6
	c-2.2,6.2-6.2,10.8-11.9,13.8c-0.6,0.3-1.1,0.6-1.6,0.8c0.9,1.6,2,3,2.7,4.7c3,6.3,1.1,14.6-4.3,19.1c-1.9,1.6-4,2.7-6.3,3.5
	c-0.7,0.2-0.9,0.5-0.9,1.3c0.4,6.2,0.6,12.3,1.1,18.5c0.4,5,1.2,9.9,1.9,14.9c0.6,4.1,1.1,8.2,2.1,12.3c1.1,5,2.6,10,3.9,15
	c0.2,0.6,0.5,1.2,0.7,1.9c0.6,1.9-0.3,3.8-2.3,4.6c-1.6,0.7-3.6,0-4.4-1.8c-0.9-2.1-1.6-4.3-2.2-6.5c-1.3-5.3-2.8-10.5-3.7-15.9
	c-1.2-7-2.3-14.1-3-21.1c-0.7-6.9-1-14-1.4-20.9c0-0.4-0.1-0.9-0.1-1.4c-15.4,0-30.8,0-46.1,0c0,0.2,0,0.4-0.1,0.6
	c-0.3,4.4-0.6,8.8-0.9,13.2c-0.3,4-0.6,8-1,11.9c-0.8,6.9-1.9,13.8-3.2,20.7c-1.7,8.3-3.8,16.4-7.1,24.2c-1.8,4.2-3.9,8.2-6.8,11.8
	c-0.1,0.1-0.1,0.2-0.2,0.4C174.1,211.4,202.2,211.4,230.5,211.4z M175.4,30.5c0,0.5,0,0.8,0,1.2c0,5,0,9.9,0,14.9
	c0,1-0.1,2.1-0.2,3.2c-0.9,8.1-8.1,12.4-14.2,11.3c-4.9-0.8-9.5-5.4-10.2-10.3c-0.8-6.5-1.8-12.9-2.6-19.4c-0.1-0.6-0.3-0.8-0.9-0.8
	c-3.1,0-6.2,0-9.3,0c-0.1,0-0.3,0-0.5,0.1c0,1-0.1,2,0,2.9c0.4,4.6,0.9,9.1,1.3,13.7c0.5,5.8,1,11.7,1.5,17.6
	c0.4,4.7,0.8,9.4,1.2,14.1c0.4,4.4,1.9,8.2,5.1,11.3c3.5,3.5,7.9,5,12.8,5c19.3,0,38.6,0,57.9,0.1c9.1,0,16.4-6.2,17.6-15.2
	c0.4-2.8,0.4-5.7,0.7-8.6c0.6-6.8,1.3-13.7,1.9-20.5c0.3-3,0.4-6,0.7-9c0.3-3.5,0.7-7,1.1-10.4c0.1-0.7-0.1-1-0.9-1
	c-3,0-6.1,0-9.1,0c-0.6,0-0.8,0.2-0.9,0.8c-0.3,1.9-0.6,3.7-0.9,5.6c-0.5,3.7-0.9,7.5-1.4,11.2c-0.3,1.9-0.6,3.9-1.3,5.7
	c-2.4,6.2-10.1,9.3-16,6.5c-4.8-2.3-7.3-6.1-7.5-11.3c-0.1-5.7-0.1-11.5-0.1-17.2c0-0.8-0.2-1.1-1-1.1c-7.2,0-14.4,0-21.6,0
	C177.5,30.5,176.5,30.5,175.4,30.5z M251.1,269.5c0-0.4,0.1-0.7,0.1-1c0-7.1,0-14.3,0-21.4c0-0.9-0.1-1.7-0.3-2.6
	c-1.1-4.1-5-7.6-10.1-7.6c-35,0-69.9,0-104.9,0c-0.8,0-1.7,0-2.5,0.2c-4.2,0.7-8.5,4.2-8.4,10.8c0.1,6.8,0.1,13.5,0.1,20.3
	c0,1,0.2,1.3,1.2,1.3c40.2,0,80.5,0,120.8,0C248.5,269.5,249.8,269.5,251.1,269.5z M118.7,241.2c-0.4,0-0.8,0-1.2,0
	c-19.7,0-39.5,0-59.2,0c-0.3,0-0.7,0-1,0c-5.1,0.1-8.6,4.5-8.5,9c0.2,6.1,0,12.3,0,18.4c0,0.7,0.2,0.9,0.9,0.9c6.7,0,13.3,0,20,0
	c15.6,0,31.2,0,46.8,0c0.9,0,1.2-0.2,1.2-1.1c-0.1-1.2-0.1-2.4,0-3.7C118.1,256.9,116.9,249.1,118.7,241.2z M131.8,217.7
	c0-0.5,0-1.1,0-1.6c-0.1-1.6,0.4-2.9,1.8-3.8c0.7-0.5,0.6-0.9,0.2-1.5c-3-4.4-5-9.1-6.3-14.2c-1.3-4.7-2.1-9.5-2.2-14.3
	c0-1.1-0.4-1.2-1.4-1.2c-12.8,0-25.7,0-38.5,0c-0.3,0-0.6,0-0.9,0.1c-0.9,13.8-4,26.6-14.7,36.7C90.6,217.7,111.1,217.7,131.8,217.7
	z M188.3,102.4c-8.7,0-17.4,0-26.1,0c-0.8,0-1.6,0.1-2.4,0.2c-4.2,0.6-7.5,4.3-7.7,8.6c-0.2,4.4,2.6,8.5,6.8,9.5
	c1.5,0.3,3.1,0.4,4.7,0.4c15.9,0,31.8,0,47.6,0c1.6,0,3.3,0,4.9-0.1c6.4-0.5,10.8-8.3,6.4-14.6c-1.9-2.8-4.7-3.9-8-3.9
	C205.8,102.4,197,102.4,188.3,102.4z M139,219c0,2.9,0,5.7,0,8.4c0,2.1,0,2.1,2.1,2.1c31.8,0,63.6,0,95.4,0c0.2,0,0.5,0,0.8-0.1
	c0-3.5,0-7,0-10.4C204.4,219,171.8,219,139,219z M104.7,173.4C104.7,173.4,104.7,173.4,104.7,173.4c7.9,0,15.8,0,23.7-0.1
	c1.3,0,2.7-0.2,3.9-0.8c5.4-2.4,5.5-10.1,1.6-13.1c-1.6-1.3-3.4-1.8-5.4-1.8c-15.2,0-30.5,0-45.8,0c-1.1,0-2.1,0-3.2,0.1
	c-4.9,0.5-8.2,6.4-6.1,10.8c1.6,3.4,4.3,4.9,8.1,4.9C89.2,173.4,97,173.4,104.7,173.4z M131.8,225.1c-23.5,0-47,0-70.4,0
	c0,2.9,0,5.8,0,8.7c2.2,0,4.3,0,6.5,0c18.4,0,36.8,0,55.3,0c0.4,0,1,0,1.3-0.3c2.2-1.7,4.7-2.9,7.4-3.6
	C131.8,228.4,131.8,226.8,131.8,225.1z"/>
</svg>
