<?xml version="1.0" encoding="utf-8"?>
<!-- Generator: Adobe Illustrator 28.0.0, SVG Export Plug-In . SVG Version: 6.00 Build 0)  -->
<svg version="1.1" id="Layer_1" xmlns="http://www.w3.org/2000/svg" xmlns:xlink="http://www.w3.org/1999/xlink" x="0px" y="0px"
	 viewBox="0 0 300 300" style="enable-background:new 0 0 300 300;" xml:space="preserve">
<style type="text/css">
	.st0{fill:#FFFFFF;}
</style>
<g>
	<path class="st0" d="M556.7,38.8c7.4,0,14.5,0,21.5,0c5,0,6.5,1.4,6.5,6.4c0,82.8,0,165.5,0,248.3c0,5.1-1.4,6.5-6.6,6.5
		c-60.9,0-121.9,0-182.8,0c-5.1,0-6.5-1.4-6.5-6.6c0-7,0-14,0-21.4c-1.6,0-3,0-4.4,0c-6,0-12,0-18.1,0c-3.8,0-5.4-1.7-5.5-5.5
		c0-0.7,0-1.4,0-2c0-65.2,0-130.4-0.1-195.6c0-2.8,0.8-4.9,2.8-6.9c16.4-16.2,32.6-32.5,48.9-48.8c1.5-1.6,3.1-2.3,5.3-2.3
		c44.2,0,88.4,0,132.6,0c4.8,0,6.3,1.5,6.3,6.3C556.7,24.2,556.7,31.3,556.7,38.8z M547.2,262.6c0-80.9,0-161.6,0-242.2
		c-42,0-83.8,0-125.8,0c0,15.1,0,29.9,0,44.8c0,4.8-1.5,6.3-6.2,6.3c-13.9,0-27.8,0-41.7,0c-1,0-2.1,0-3.2,0c0,63.9,0,127.4,0,191.1
		C429.3,262.6,488.1,262.6,547.2,262.6z M575.2,290.6c0-80.9,0-161.6,0-242.2c-6.3,0-12.3,0-18.5,0c0,1.5,0,2.8,0,4
		c0,70.8,0,141.6,0,212.4c0,6-1.2,7.2-7.1,7.2c-49.3,0-98.5,0-147.8,0c-1.1,0-2.3,0-3.5,0c0,6.3,0,12.4,0,18.5
		C457.3,290.6,516.1,290.6,575.2,290.6z M412,28.4C400.9,39.6,389.4,51,378.4,62c10.6,0,22,0,33.6,0C412,50.4,412,39,412,28.4z"/>
	<path class="st0" d="M458.9,122.8c18.2,0,36.3,0,54.5,0c9.5,0,15.3,5.7,15.3,15.2c0,30.3,0,60.6,0,90.9c0,9.5-5.8,15.2-15.3,15.2
		c-36.4,0-72.9,0-109.3,0c-9.6,0-15.3-5.7-15.3-15.5c0-30.1,0-60.2,0-90.3c0-9.9,5.7-15.5,15.6-15.5
		C422.6,122.8,440.7,122.8,458.9,122.8z M426.2,150.6c21.8,0,43.4,0,64.9,0c0-6.3,0-12.3,0-18.3c-21.8,0-43.3,0-64.9,0
		C426.2,138.4,426.2,144.4,426.2,150.6z M426.3,160.2c0,6.2,0,12.3,0,18.3c21.8,0,43.4,0,65,0c0-6.2,0-12.2,0-18.3
		C469.6,160.2,448.1,160.2,426.3,160.2z M491.3,188.3c-21.8,0-43.4,0-64.9,0c0,6.3,0,12.3,0,18.3c21.8,0,43.3,0,64.9,0
		C491.3,200.5,491.3,194.5,491.3,188.3z M491.3,216.3c-21.9,0-43.5,0-65,0c0,6.2,0,12.2,0,18.3c21.7,0,43.3,0,65,0
		C491.3,228.4,491.3,222.4,491.3,216.3z M398.2,178.5c6.3,0,12.3,0,18.3,0c0-6.3,0-12.3,0-18.3c-6.2,0-12.2,0-18.3,0
		C398.2,166.4,398.2,172.3,398.2,178.5z M500.9,160.2c0,6.3,0,12.3,0,18.3c6.2,0,12.2,0,18.3,0c0-6.2,0-12.3,0-18.3
		C513,160.2,507,160.2,500.9,160.2z M416.6,188.3c-6.2,0-12.3,0-18.3,0c0,6.2,0,12.3,0,18.3c6.2,0,12.2,0,18.3,0
		C416.6,200.5,416.6,194.5,416.6,188.3z M500.9,206.5c6.3,0,12.3,0,18.3,0c0-6.3,0-12.3,0-18.3c-6.2,0-12.2,0-18.3,0
		C500.9,194.3,500.9,200.3,500.9,206.5z M416.7,132.1c-4.9,0-9.4-0.1-14,0c-2.6,0.1-4.4,1.6-4.5,4.1c-0.2,4.7-0.1,9.5-0.1,14.3
		c6.3,0,12.3,0,18.5,0C416.7,144.4,416.7,138.4,416.7,132.1z M500.8,150.6c6.3,0,12.4,0,18.6,0c0-4.7,0.1-9.3,0-13.8
		c0-2.3-1.3-4.2-3.5-4.4c-5-0.3-10-0.1-15-0.1C500.8,138.5,500.8,144.4,500.8,150.6z M398.1,216.1c0,4.9-0.1,9.5,0,14.2
		c0.1,2.3,1.5,4.1,3.7,4.2c4.9,0.3,9.8,0.1,14.7,0.1c0-6.4,0-12.4,0-18.5C410.4,216.1,404.5,216.1,398.1,216.1z M500.8,234.7
		c4.9,0,9.5,0.1,14.2,0c2.3-0.1,4.1-1.5,4.2-3.7c0.3-4.9,0.1-9.8,0.1-14.7c-6.3,0-12.4,0-18.5,0
		C500.8,222.4,500.8,228.3,500.8,234.7z"/>
	<path class="st0" d="M431.1,80.8c12,0,24.1,0,36.1,0c3.3,0,5.3,1.7,5.5,4.4c0.2,2.7-1.9,4.9-4.9,4.9c-3.7,0.1-7.4,0-11.1,0
		c-20.6,0-41.2,0-61.8,0c-1.5,0-3.5-0.2-4.3-1.2c-1-1.2-1.7-3.3-1.5-4.9c0.3-2.2,2.3-3.2,4.6-3.2c7.8,0,15.5,0,23.3,0
		C421.7,80.8,426.4,80.8,431.1,80.8z"/>
	<path class="st0" d="M430.5,108.8c-11.9,0-23.7,0-35.6,0c-1.4,0-3.3-0.1-4.1-1c-1.1-1.2-1.9-3.2-1.8-4.8c0.2-2.2,2.1-3.4,4.4-3.5
		c2.9-0.1,5.8,0,8.7,0c21.1,0,42.2,0,63.3,0c0.8,0,1.6,0,2.3,0c3,0.1,4.9,2,4.9,4.6c0,2.6-2,4.6-4.9,4.6c-5.9,0.1-11.9,0-17.8,0
		C443.5,108.8,437,108.8,430.5,108.8z"/>
	<g>
		<path class="st0" d="M519,105.5l-10-21.9c-0.1-0.2-0.2-0.3-0.5-0.3h-8.9c-0.3,0-0.5,0.2-0.5,0.5v21.4c0,0.8-0.4,1.2-1.2,1.2h-6.4
			c-0.8,0-1.2-0.4-1.2-1.2V54c0-0.8,0.4-1.2,1.2-1.2h20.7c3.1,0,5.9,0.6,8.3,1.9c2.4,1.3,4.3,3.1,5.6,5.5c1.3,2.4,2,5.1,2,8.1
			c0,3.5-0.9,6.5-2.7,9c-1.8,2.5-4.3,4.2-7.5,5.1c-0.2,0.1-0.3,0.1-0.3,0.3c-0.1,0.1,0,0.2,0.1,0.3l10.6,21.9l0.2,0.6
			c0,0.6-0.4,0.8-1.1,0.8h-6.7C519.8,106.4,519.3,106.1,519,105.5z M499.1,60.9v15.1c0,0.3,0.2,0.5,0.5,0.5h11.4
			c2.4,0,4.4-0.7,5.9-2.2c1.5-1.5,2.3-3.4,2.3-5.7c0-2.4-0.8-4.3-2.3-5.8c-1.5-1.5-3.5-2.3-5.9-2.3h-11.4
			C499.2,60.4,499.1,60.6,499.1,60.9z"/>
	</g>
</g>
<path class="st0" d="M242,102.5c5.2-12.2,10.5-24.8,16.4-36.9c3.6-7.5,8.2-14.8,12.7-21.8c2-3.2,4.1-6.5,6.1-9.7
	c1.2-2,2.4-4.5,1.3-6.7c-1.1-2.2-3.9-2.8-5.9-3.1c-6.2-0.8-12.5-1.6-19-2c-1.7-0.1-3.1,1-4.4,2c-0.4,0.3-0.9,0.7-1.3,0.9l-2,1.2
	l1.6,1.6c0.4,0.4,0.7,0.9,1.1,1.3c1,1.3,2.2,2.8,3.9,3.2c3.3,0.8,6.7,1.1,10,1.4c0.4,0,0.8,0.1,1.2,0.1c-1.6,2.9-3.3,5.8-4.9,8.6
	c-4.8,8.4-9.3,16.3-13.5,24.6c-4.2,8.2-8,16.6-11.6,24.8c-0.4,0.8-0.7,1.6-1.1,2.4c0.2-2.1,0.5-4.1,0.8-6c3.8-21,8-43.9,12.9-70.1
	c0.5-2.7,0.2-4.7-1-6c-1.6-1.8-4.2-1.8-5.9-1.6c-2.2,0.2-4.4,0.3-6.6,0.5c-4.1,0.3-8.3,0.5-12.4,1.1c-1.8,0.3-3.2,1.7-4.5,3
	c-0.5,0.5-0.9,0.9-1.4,1.3l-2,1.7l2.3,1.3c0.5,0.3,1.1,0.7,1.6,1.1c1.4,1,3,2.1,4.8,2.2c3.5,0.1,7-0.3,10.4-0.6
	c0.5-0.1,1.1-0.1,1.6-0.2l-10.2,62.3c-0.4-4.8-0.8-9.8-1.4-14.7c-1.8-16.7-4.7-36.4-12.5-55.3c-3.6-8.8-5-9.2-14.1-7.5
	C158.2,13.5,121.4,20,84.6,26.6c-3.4,0.6-5.7,1.4-6.7,3.3c-1,1.9-0.3,4.2,1.1,7.4c1.5,3.4,3.1,6.7,4.6,10.1
	c4.6,10,9.3,20.3,13.3,30.7c3.6,9.5,6.5,19,9.6,29.2c1.1,3.7,2.3,7.5,3.5,11.3c-12,1.5-21.2,5.6-28.8,12.9c-0.3,0.3-1.1,0.7-3.9,0.7
	c-10.4,0.1-20.8,0.1-31.2,0.1l-10.8,0c-0.6,0-1.3,0-1.9-0.1c-1.8-0.1-3.6-0.2-5.3,0.3c-1.6,0.5-2.8,1.8-3.9,2.9
	c-0.4,0.4-0.8,0.8-1.2,1.2l-1.7,1.4l2.8,2.2c1,0.8,2.1,1.7,3.3,2.5c0.8,0.6,1.7,0.5,2.3,0.4c0.1,0,0.2,0,0.4,0c4,0,7.9,0,11.9,0
	c12.6,0,25.7,0,38.5-0.1c3,0,6.1-1.9,7.8-3.4c7.4-6.8,15.2-10,23.9-10c0,0,0,0,0,0c7.1,0,14.1,0,21.2,0c15.6,0,31.7-0.1,47.6,0.1
	c17.2,0.2,31,13.7,31.5,30.8c0.5,16.5,0.3,33.3,0,49.1c-0.1,6.6-3.4,11.5-9.5,14.1c-4.3,1.8-9,1.5-12.8-1c-4.3-2.8-7-7.9-7.1-13.7
	c-0.1-6-0.1-12.1-0.1-18c0-5.5,0-11.1-0.1-16.7c0-1.7-1-3.1-1.8-4.4c-0.3-0.5-0.6-0.9-0.9-1.4l-0.8-1.6l-1.6,0.9
	c-0.5,0.3-1,0.5-1.5,0.7c-1.4,0.6-3,1.2-4,2.6c-17.9,23.8-41.3,36.2-71.6,37.9c-2.3,0.1-6.7,2.2-7,4.8c-0.3,2.2,0.5,3.5,1.3,4.2
	c1.3,1.3,3.4,1.8,6.2,1.4c6.9-0.8,13.7-1.7,20.7-2.5l5.8-0.7c0.1,0.9,0.1,1.9,0.1,2.8c-0.3,11.8-0.6,23.5-0.8,35.3l-0.4,14.4
	c-0.1,4-0.2,6.3,1.4,7.8c1.5,1.5,3.9,1.3,7.5,1.1c9.3-0.6,18.7-1.4,27.8-2.1c3.5-0.3,6.9-0.5,10.4-0.8l2.9,8.4l-8.5,0
	c-8.5,0-17,0-25.4,0c-1.7,0-3.4,0-5,0c-6,0-12.2,0-18.3-0.5c-9.4-0.8-17.4-5.3-25.8-10.1c-1.2-0.7-2.5-1.4-3.7-2.1
	c-1.9-1.1-5.7-2.9-9.7-2.9c-13.5-0.2-27.2-0.2-40.4-0.1l-9.4,0c-0.3,0-0.6,0-0.9,0c-1.9,0-4.3-0.1-5.8,1.6c-0.9,1-1.2,2.4-1,4.2
	c0.4,2.6,5.1,4.6,7.5,4.6c12.5,0.2,27.4,0.4,42.6,0c6-0.2,11,1.2,15.8,4.2c12.5,7.9,22.9,11.5,33.8,11.6
	c33.3,0.4,72.9,0.7,113.5,0.8c0,0,0,0,0,0c10,0,19.7-8.1,22.7-18.7c2.1-7.8,0.7-15.4-4.5-23c9.8-4.1,16.2-11.6,17.8-20.9
	c1.5-9.1-2-18.3-9.3-24.9c7.2-6.9,10.6-15.3,9.5-23.7c-1-8.1-6-15.6-13.7-20.3c7.9-9.3,9.4-19.6,4.1-30
	c-6.2-12.3-17.8-14.3-26.8-14.3c0,0-0.1,0-0.1,0c0.1-0.3,0.1-0.5,0.2-0.7C237.7,112.5,239.8,107.5,242,102.5z M154.5,243.1
	c1.8,0.2,5,3.2,5.5,5.2c1.5,5.7,4.5,7.6,10.3,6.8c1.7-0.3,3.4-0.2,5.3-0.1c0.1,0,0.2,0,0.2,0l-2.6,8.7l-35.3,2.8l0-3.8
	c0-4.1,0-8.1,0-12.1l0-6.6c0-9.9,0.1-20.1,0.3-30.2c0-1,0.9-2.6,1.7-3.2c1.7-1.2,3.7-2,6.1-3c0.3-0.1,0.6-0.3,0.9-0.4
	c0,2.1,0,4.1,0,6.1c0,7,0,13.6-0.1,20.2C146.9,237.4,146.8,242.4,154.5,243.1z M172.3,203.5c0.1,1.5,0.1,3.1,0.1,4.6
	c0.2,7,0.4,14.3,1.5,21.4c0.6,3.8,2.1,7.4,3.7,11.2c0.4,0.9,0.8,1.8,1.1,2.7c-0.6,0-1.3,0.1-1.9,0.2c-4.6,0.8-7,0.5-9.1-3.9
	c-1.2-2.6-3.8-4.3-6.8-6.2c-1.1-0.7-2.3-1.5-3.4-2.3l0-5.2c0-7.6,0-16.2,0.1-24.6c0-0.4,0.5-1.3,1.1-1.8c3.9-3.5,7.8-6.9,12.1-10.5
	l1.5-1.3c0,0.8,0,1.6,0,2.4C172.2,194.7,172.2,199.1,172.3,203.5z M166.9,108.5c6.2-0.4,11.9,3.5,14.4,9.6H154
	C155.7,112.7,160.8,108.9,166.9,108.5z M206.3,118.1c-0.1-2.8-0.2-5.5-0.3-8.3c-0.3-7.5-0.6-15.2-1.3-22.8c-0.8-8.9-2-17.9-3.1-26.6
	c-0.5-3.5-0.9-7-1.4-10.6c-0.5-4.3-3-6.2-7.6-6c-6.9,0.4-11.4-2.6-13.5-9.1c-1.4-4.3-3.9-5.8-8.1-5c-7,1.3-13.9,2.5-20.9,3.7
	c-6.2,1.1-12.4,2.2-18.6,3.3c-1.9,0.3-3.3,1.1-4.1,2.4c-0.9,1.4-1.1,3.2-0.6,5.6c1.8,8.5-1.1,13.9-8.6,16.3c-6.3,2-5.7,5.9-4.5,9.8
	c4.3,13.7,8.5,27.6,12.5,41.1l0.7,2.5c0.3,1.1,0.5,2.2,0.7,3.5c0,0,0,0.1,0,0.1c-0.8,0.1-1.5,0.1-2.2,0.3c-4.2,0.7-5.7-0.5-6.7-5.3
	c-4.9-22.3-13-44.9-26.4-73.1l-1.7-3.6l108.1-19.3c12.7,33.8,14,69.4,15,101H206.3z M138.3,46.5l5.4-1c8.2-1.5,16.8-3,25.1-4.3
	c0.4,0,1.3,0.6,1.5,0.9c4.5,7.7,11.1,11.8,20.8,12.8l5.1,63.7l-0.3,0.2c-0.3-0.2-0.6-0.4-0.9-0.5c-1-0.6-2.2-1.3-2.4-1.8
	c-5.1-12.4-13.3-18.5-25.2-18.5c-0.3,0-0.6,0-0.9,0c-11.4,0.3-20.2,7.5-24.2,19.6l-0.2,0.5h-2.7l-13.9-48.2
	C134.3,64.8,138.6,56.9,138.3,46.5z M184.5,267l0-1.1c0.1-8.3,4.5-12.8,12.7-13c2.2-0.1,4.5-0.1,6.8-0.1c1.8,0,3.7,0,5.5,0
	c1.9,0,3.7,0,5.6,0c1.9,0,3.8,0,5.7,0c3.8,0,7.7-0.1,11.6,0.1c9.7,0.3,16.2,6.6,16.1,15.6c-0.1,8.9-6.8,15.2-16.3,15.2
	c0,0-0.1,0-0.1,0c-12.3-0.1-25.5-0.2-38.9-1c-4.7-0.3-8.2-4.2-8.6-9.6C184.4,271,184.5,269,184.5,267z M246.7,242.3
	c-16.5,0.3-32.6,0.3-47.9,0c-6.3-0.1-11.6-4.3-13.1-10c7.7,3.6,15.8,3.8,22.8,0.4c7.6-3.6,12.9-11,14.6-20.3c2.5,0,4.9-0.1,7.4-0.1
	c6.7-0.2,13.6-0.3,20.2,0.4c2.7,0.3,5.2,1.8,7.2,4.3c2.5,3.2,3.8,7.5,3.4,11.3C260.3,236.4,254.3,242.1,246.7,242.3z M261.3,186.7
	c-0.7,7.8-6.5,13.7-14.2,14.3c-0.9,0.1-1.8,0.1-2.7,0.1l-1,0l-20.1,0v-30c2.4,0,4.8-0.1,7.1-0.1c6.9-0.1,13.4-0.3,19.9,0.3
	C257.1,171.9,261.9,180.2,261.3,186.7z M241.2,159.6c-4.3,0.3-8.7,0.2-13.4,0.2c-1.6,0-3.2-0.1-4.8-0.1
	c-0.7-11.8-5.4-21.6-14.4-30.3h0.8c3.8,0,7.2,0,10.6,0c2,0,4,0,6.1,0c4.8,0,9.7-0.1,14.5,0.1c7.7,0.3,13.8,6.8,14,14.7
	C254.7,152,248.6,159,241.2,159.6z"/>
</svg>
