<?xml version="1.0" encoding="UTF-8"?>
<svg id="Layer_1" data-name="Layer 1" xmlns="http://www.w3.org/2000/svg" version="1.1" viewBox="0 0 300 300">
  <defs>
    <style>
      .cls-1 {
        fill: #fff;
        stroke-width: 0px;
      }
    </style>
  </defs>
  <path class="cls-1" d="M20.7,44.9c0-1.7,0-3.4,0-5.1.2-.6.3-1.3.5-1.9,2.5-12.1,15-19.8,26.6-16.4,16.7,4.9,21.4,24.6,8.8,36.7-1.1,1-1.1,1.8-.5,3,3.4,7,6.7,14,10,20.9.4.7.7,1.5,1,2,27.7-7.9,48.8.5,64.3,24.4,15.6-6.6,31.3-13.2,47.2-20-3.2-10-3.5-19.9-.6-29.9-4.8-1.8-9.3-3.4-13.8-5.1-.4.4-.6.8-.9,1.1-9.1,12-25.3,12.2-34.6.5-5.2-6.6-5.7-16.1-1.2-24,4-7,12.8-11.3,20.7-10.3,11.8,1.6,19.6,10.8,19.1,22.7,0,.7.2,1.9.7,2.1,4.3,1.7,8.6,3.2,12.8,4.8,14.3-27.8,43.6-35.4,66.8-25.8,23.4,9.6,36.3,35.7,30.3,60.3-5.6,22.9-30.8,45.6-63.8,37.5-7,19.3-13.9,38.6-21,58.2,7.7,3.6,14,8.7,19.3,15.2,7.9-5.1,15.6-10.1,23.4-15.2.4-.2.9-.4,1-.7.3-.8.7-1.7.5-2.4-3.9-12.7,5-26,18.2-27.5,8.1-.9,16.8,3.3,20.9,10.5,4.4,7.9,3.8,17.3-1.5,23.9-8,9.9-21,11.3-30.9,3.2-1.1-.9-1.8-1.1-3-.2-2,1.5-4.2,2.8-6.3,4.2-5.8,3.8-11.5,7.5-17.4,11.3.5,1.2,1,2.1,1.4,3.1,12.5,27-.9,59.6-29,69.7-4.1,1.5-8.6,2.3-12.8,3.4h-10.1c-.5-.2-.9-.4-1.4-.4-13.9-1.8-25.4-8.1-34-19.2-3.7-4.7-6.3-10.2-9.6-15.7.4,0,0,0-.3,0-5.8,1.4-11.6,2.7-17.4,4.2-.7.2-1.4,1.5-1.4,2.4-1.2,12.9-11.8,21.4-24.7,19.8-13.8-1.8-22.5-17.4-16.5-30,3.8-7.9,10.1-12.3,18.9-12.6,8.5-.3,14.9,3.4,19.3,10.7.8,1.4,1.5,1.6,3,1.2,3.3-.9,6.7-1.6,10.1-2.4,2.6-.6,5.2-1.3,7.8-1.9-1.1-8-.5-15.6,1.8-23,2.3-7.5,6.3-14,11.5-19.9-5.7-6.3-11.3-12.4-16.9-18.6-16.5,11.7-34,13.7-52.8,6.1-2.4,4.2-4.6,8.3-7,12.4-.8,1.4-.5,2.2.5,3.3,1.2,1.3,2.3,2.7,3.2,4.2,5.7,9.3,2.9,21.5-6.3,28.2-8.5,6.2-21.4,4.6-28.3-3.2-3.1-3.5-4.7-7.7-5.6-12.1,0-1.5,0-3,0-4.5.1-.5.3-1.1.4-1.6,1.4-6.7,5.1-11.8,11.1-15.1,5.2-2.8,10.7-3.2,16.5-1.5,2.6-4.8,5.2-9.4,7.8-14.1-30.4-20.4-31.2-67.9,2.7-87.9-3.9-8.3-7.9-16.6-11.8-24.8-9.4,1.6-17-.8-22.4-8.3-2.1-2.9-3-6.6-4.4-10ZM185,177.7c7.1-19.7,14.1-39,21.1-58.4-10.7-5.1-18.6-12.7-24.2-22.7-.5.1-.7.2-1,.3-14.9,6.3-29.9,12.7-44.8,18.9-1.7.7-1.4,1.6-1.1,2.9,3.8,14,2.2,27.3-5.1,39.9-1.9,3.3-4.3,6.3-6.6,9.5,5.6,6.1,11.1,12.2,16.8,18.4,13.7-10,28.5-13,44.9-8.9ZM204.1,255.7c16-17.8,13.5-46.4-5.2-61.4-19.4-15.7-47.3-12.1-62.1,8-13.7,18.6-8.5,42.8,2,52.5,2.3-3.2,4.4-6.8,7.2-9.6,2.9-2.8,6.5-4.9,9.7-7.3-9.2-10.6-6.2-23.6,1.1-30.3,8.5-7.8,20.7-7.8,29.3-.1,7.1,6.3,10.7,19.4.9,30.8,7.9,3.5,13.6,9.2,17,17.3ZM260.2,100.3c13.9-14.9,15.3-41.6-2.5-58.8-18-17.3-45.8-16.2-62.4,2.6-16.1,18.2-12.3,43.7,0,56.1,3.4-7.9,9.1-13.6,16.9-17-9.5-11.2-6.3-23.7.4-30.4,7.4-7.3,19.4-8.2,27.6-2.2,4.4,3.3,7.4,7.6,8.5,13,1.6,7.4-.6,13.9-5.6,19.6,8.1,3.5,13.7,9.3,17.1,17.1ZM117.8,160.7c13.8-14.7,15.4-41.6-2.3-58.8-18-17.5-46.1-16.3-62.7,2.8-15.8,18.1-12,43.6.2,55.8,3.3-7.9,9-13.5,16.8-16.9-10-12.2-5.6-24.6.6-30.5,7.5-7.1,18.9-8.1,27.2-2.3,4.4,3.1,7.4,7.3,8.7,12.6,1.8,7.6-.2,14.2-5.4,20.2,8.1,3.6,13.7,9.3,17,17.2ZM110.6,167.4c-2.6-9.9-9.2-16.2-18.6-17.1-4.7-.5-9.6-.5-14.3.2-8.8,1.3-14.4,6.7-17.2,15.1-.4,1.3-.3,2.1.9,2.9,14.2,10.1,35.4,9.7,49.2-1.1ZM171.3,245c-1.7,0-3.6,0-5.6,0-8.6.5-16.5,6.8-19,15-.5,1.8-.2,2.7,1.4,3.7,14.3,9.5,33.5,9.3,47.5-.5.6-.4,1-1.7.8-2.4-1.2-4.6-3.8-8.4-7.5-11.3-5.1-4.1-11.1-4.9-17.6-4.4ZM227.9,89.8c-2.2,0-4.4-.1-6.6,0-8.4.5-16.4,7.3-18.6,15.5-.4,1.3,0,2.1,1.1,2.9,13.8,9.6,34.1,9.6,47.8,0,1.1-.8,1.3-1.5,1-2.7-1.3-4.7-4-8.5-7.8-11.5-5-3.9-10.8-4.7-16.9-4.2ZM145.7,55.1c7.1,0,12.9-5.7,12.9-12.8,0-7-5.7-12.9-12.8-13-7.1-.1-13,5.8-13,13,0,7.1,5.8,12.8,12.9,12.8ZM240.5,68c0-7.1-5.8-12.9-12.9-12.9-7,0-12.9,5.8-12.9,12.9,0,7.1,5.9,13,13,12.9,7.1,0,12.8-5.8,12.8-12.9ZM42.3,197.5c-7.1,0-12.9,5.7-13,12.8,0,7.1,5.9,13.1,13,13,7.1,0,12.8-5.8,12.8-12.9,0-7.1-5.7-12.8-12.8-12.9ZM68.1,249.2c0,7,5.8,12.9,12.8,12.9,7,0,12.9-5.8,13-12.8,0-7.2-5.8-13-13-13-7.1,0-12.8,5.8-12.8,12.9ZM55.1,42.2c0-7.1-5.8-12.9-12.8-12.9-7,0-12.9,5.8-13,12.8,0,7.1,5.9,13,13,13,7.1,0,12.8-5.8,12.8-12.9ZM257.8,184.4c7.1,0,12.9-5.7,13-12.8,0-7-5.8-12.9-12.8-13-7.1,0-13,5.8-13,13,0,7.1,5.7,12.8,12.9,12.8ZM171.5,210.4c-7.1,0-12.9,5.8-12.9,12.8,0,7.1,5.7,12.9,12.8,13,7.1.1,13-5.8,13-13,0-7.1-5.8-12.8-12.9-12.8ZM98.1,128.4c0-7.1-5.7-12.8-12.9-12.8-7.1,0-12.9,5.8-13,12.8,0,7,6,13.1,13.1,13,7.1,0,12.8-5.9,12.7-13Z"/>
</svg>