<?xml version="1.0" encoding="utf-8"?>
<!-- Generator: Adobe Illustrator 28.3.0, SVG Export Plug-In . SVG Version: 6.00 Build 0)  -->
<svg version="1.1" id="Layer_1" xmlns="http://www.w3.org/2000/svg" xmlns:xlink="http://www.w3.org/1999/xlink" x="0px" y="0px"
	 viewBox="0 0 300 300" style="enable-background:new 0 0 300 300;" xml:space="preserve">
<style type="text/css">
	.st0{fill:#FFFFFF;}
</style>
<g>
	<path class="st0" d="M239.3,153.6c-7.3,51.7-36.7,80.6-88.3,87.8c0,8.1,0,16.4,0,24.8c0,1.3,0,2.6,0,3.9c0.1,2.7-1.2,4.6-3.9,4.7
		c-2.8,0.1-4.1-1.9-4.1-4.5c0-7.5,0-15,0-22.5c0-2,0-4,0-6c-51.5-7.1-80.7-36.2-88.3-88.1c-5.1,0-10.8,0-16.6,0c-2.6,0-5.2,0-7.8,0
		c-2.9,0.1-5-1.1-5-4.1c-0.1-3,2.2-4.2,5-4.2c4.5-0.1,9,0,13.4,0c3.7,0,7.5,0,11.3,0c7.1-51.5,36.3-80.6,88.2-88c0-6.7,0-14,0-21.3
		c0-2-0.5-4.2,0.2-6c0.6-1.7,2.5-3,3.8-4.5c1.4,1.4,3.8,2.6,4.1,4.2c0.7,3.3,0.3,6.9,0.3,10.4c0,4.8,0.1,9.5,0,14.3
		c-0.1,2.5,0.6,3.5,3.3,3.8c40.9,4.7,67.6,27,80.5,65.9c2.1,6.5,2.8,13.5,4.4,20.9c4.5,0,9.5,0,14.5,0c5.1,0,10.1,0.1,15.2,0
		c3.1-0.1,5.4,1.2,5.3,4.3c-0.1,3-2.4,4.3-5.4,4.3c-8.7,0-17.3,0-26,0C241.7,153.5,240.3,153.6,239.3,153.6z M63.8,148.9
		c-0.3,45.5,36.9,83.2,82.4,83.5c46.2,0.3,84.1-36.7,84.4-82.5c0.3-45.8-36.8-83.7-82.5-84C101.7,65.6,64.1,102.6,63.8,148.9z"/>
	<path class="st0" d="M53.9,54.2c0,9.4,0,18.1,0,26.9c0,6.6-0.7,7.3-7.1,7.3c-5.2,0-10.4,0-15.6,0c-4.5,0-6-1.5-6.1-5.9
		c0-17.2,0-34.4,0-51.6c0-4.1,2-5.8,5.9-5.8c17.2,0,34.4,0,51.6,0c4,0,5.8,2.1,5.8,5.9c0,5.8,0,11.6,0,17.3c0,3.9-1.9,5.8-5.9,5.7
		c-7.8-0.1-15.6,0-23.4,0C57.5,54.2,55.9,54.2,53.9,54.2z M45.7,79.7c0-9,0-17.5,0-26c0-7.1,0.7-7.8,7.6-7.8c2.7,0,5.5,0,8.2,0
		c6,0,12,0,17.9,0c0-4.4,0-8.2,0-11.8c-15.5,0-30.5,0-45.5,0c0,15.4,0,30.5,0,45.6C37.9,79.7,41.5,79.7,45.7,79.7z"/>
	<path class="st0" d="M246.1,54.2c-9.3,0-17.9,0-26.6,0c-7,0-7.8-0.8-7.8-7.7c0-4.9,0-9.8,0-14.7c0-5,1.6-6.6,6.4-6.6
		c16.9,0,33.8,0,50.7,0c4.5,0,6,1.6,6.1,5.9c0,17,0,34.1,0,51.1c0,4.6-1.4,6-5.8,6.1c-5.8,0.1-11.6-0.1-17.3,0
		c-4,0.1-5.7-1.8-5.7-5.8C246.2,73.5,246.1,64.2,246.1,54.2z M220.4,45.9c9.6,0,18.9,0.1,28.1,0c4,0,5.9,1.6,5.8,5.7
		c-0.1,3.5,0,6.9,0,10.4c0,5.9,0,11.8,0,17.7c4.3,0,8,0,11.8,0c0-15.3,0-30.4,0-45.7c-15.3,0-30.4,0-45.7,0
		C220.4,38,220.4,41.7,220.4,45.9z"/>
	<path class="st0" d="M53.9,245.7c9.4,0,18.2,0,27,0c6.6,0,7.4,0.8,7.4,7.5c0,5.2,0,10.4,0,15.6c0,3.9-1.9,5.9-5.8,5.9
		c-17.2,0-34.3,0-51.5,0c-4.3,0-5.8-1.7-5.8-6.1c0-17,0-34,0-51.1c0-4.5,1.5-5.9,5.9-6c5.5,0,11,0,16.4,0c5.5,0,6.4,1,6.4,6.7
		C53.9,227.1,53.9,236.1,53.9,245.7z M33.8,266c15.3,0,30.4,0,45.7,0c0-4,0-7.8,0-11.9c-8.6,0-17,0-25.3,0c-8.1,0-8.5-0.4-8.5-8.6
		c0-8.3,0-16.7,0-25.2c-4.2,0-7.9,0-11.8,0C33.8,235.6,33.8,250.7,33.8,266z"/>
	<path class="st0" d="M246.1,245.7c0-9.9,0-18.9,0-28c0-5.1,1.1-6.1,6.1-6.2c5.5,0,11,0,16.5,0c4.8,0,6.3,1.4,6.3,6.1
		c0,17,0,34.1,0,51.1c0,4.3-1.6,5.9-6.1,5.9c-16.9,0-33.8,0-50.7,0c-4.7,0-6.3-1.6-6.4-6.2c-0.1-5.6-0.1-11.3,0-16.9
		c0.1-4.5,1.4-5.9,6.1-5.9c7.7-0.1,15.3,0,23,0C242.4,245.7,243.9,245.7,246.1,245.7z M266.1,266c0-15.5,0-30.6,0-45.7
		c-4,0-7.6,0-11.8,0c0,7,0,13.8,0,20.5c0,14.2,1.1,13.2-13,13.2c-6.9,0-13.8,0-20.8,0c0,4.2,0,8,0,12C235.8,266,250.7,266,266.1,266
		z"/>
	<path class="st0" d="M112.7,183.7c-2.2,0-3.9-0.1-5.6,0c-15.8,0.9-21.5-2.8-20.2-20.5c0.3-3.7,0.7-7.5,1.6-11.1
		c1.6-6.7,5.4-12.1,10.7-16.4c2-1.7,1.9-3,1.7-5.4c-0.5-6-1.1-12.2,0.1-18c2-9.2,10.6-15.2,20.1-15.5c9.9-0.3,18,5.2,21.3,14.5
		c0.4,1.2,0.9,2.4,1.3,3.7c2.4,0,4.6,0,7.2,0c0.7-2,1.3-4,2.2-6c4.3-9.1,14.2-13.9,24.6-11.9c8.8,1.7,16.1,9.7,16.7,19.1
		c0.3,5-0.6,10-0.7,15c0,1.3,0.5,3.1,1.4,3.9c11.8,10,15.1,23.1,13.7,37.8c-0.6,6.2-5.5,10.4-12.2,10.6c-4.3,0.2-8.6,0-13.5,0
		c0,2.1,0,3.9,0,5.7c-0.1,7.4-4.7,12.4-12.1,12.4c-15.3,0.2-30.6,0.2-45.9,0c-7.6-0.1-12.1-5-12.3-12.7
		C112.6,187.6,112.7,186,112.7,183.7z M162.7,159.1c-9.8,7.2-19.3,8-29.2,1.2c-0.8-0.5-2.8-0.3-3.6,0.4c-1.9,1.5-3.5,3.4-5,5.4
		c-5.1,6.9-4.5,14.9-4.5,22.9c0,3.6,1.6,5,5,5c14.4,0,28.9,0,43.3,0c3.6,0,5.4-1.7,5.5-5.2c0.1-3.5,0.2-7-0.1-10.4
		C173.2,170.3,169.4,163.9,162.7,159.1z M161.1,139.8c-0.1,0-0.2,0-0.3,0c0-1,0-2,0-3c-0.4-7.1-5.1-12.5-11.7-13.4
		c-6.6-0.9-13.2,3.4-14.8,10.4c-0.8,3.4-0.8,7.2-0.5,10.7c0.6,6.5,5.8,11.4,12.2,12.1c6.2,0.7,12.1-3,14.1-9.1
		C160.7,145,160.7,142.4,161.1,139.8z M112.4,175.3c1.8-7.8,5-14.9,11.1-19.8c3.4-2.8,3.7-5.3,1.6-9.1c-7,1.1-13.3-1.1-18.8-5.6
		c-11.2,7.9-12.4,19.2-11.5,31.1c0.1,1.2,2.3,3.2,3.7,3.3C103.1,175.6,107.7,175.3,112.4,175.3z M188.1,140.6
		c-4.8,4.1-9.9,6.1-15.8,6c-1.3,0-3.2,1-3.8,2.1c-1,1.8-1.2,3.7,1.2,5.5c6,4.6,9.8,10.8,11.7,18.2c0.3,1.2,2,2.7,3.2,2.9
		c3.6,0.4,7.2,0.1,10.8,0.1c2.8,0,4.3-1.4,4.2-4.3c0-3.9,0.2-7.8-0.2-11.7C198.6,151.6,194.7,145.5,188.1,140.6z M169.4,137.5
		c7.5,1.9,14.2-1.5,16.1-8.6c1-3.8,1.1-8,0.7-11.9c-0.7-6.7-6.3-11.5-12.8-12c-5.7-0.4-11.6,3.5-13.3,9.1c-0.5,1.6-0.4,4.5,0.6,5.4
		C166.4,124.3,169,130.3,169.4,137.5z M124.7,137.5c0.7-7.1,3.1-13.2,8.7-17.9c1-0.8,1.3-3.1,1.1-4.5c-1.2-5.8-7-10.1-12.9-10.2
		c-5.7-0.1-11.8,4-12.9,9.6c-0.8,4.3-1,8.9-0.2,13.2C109.8,135.5,116.5,139.3,124.7,137.5z"/>
</g>
</svg>
