<?xml version="1.0" encoding="utf-8"?>
<!-- Generator: Adobe Illustrator 28.0.0, SVG Export Plug-In . SVG Version: 6.00 Build 0)  -->
<svg version="1.1" id="Layer_1" xmlns="http://www.w3.org/2000/svg" xmlns:xlink="http://www.w3.org/1999/xlink" x="0px" y="0px"
	 viewBox="0 0 300 300" style="enable-background:new 0 0 300 300;" xml:space="preserve">
<style type="text/css">
	.st0{fill:#FFFFFF;}
</style>
<path class="st0" d="M234.6,83.7c-16.9,36.4-33.7,72.6-50.5,108.9c4.6,2.9,9.3,5.8,13.9,8.8c1.3-3,2.5-5.9,3.8-8.9
	c1-2.4,2-4.9,3.1-7.3c0.4-0.9,1-1.9,1.8-2.5c1.5-1.2,3.5-1,4.8,0.1c1.4,1.2,1.8,3.1,0.9,5.1c-1.8,4.2-3.6,8.5-5.4,12.8
	c-4.9,11.6-9.8,23.2-14.7,34.8c-2.5,5.9-4.8,11.9-7.6,17.6c-5.9,12.2-14.9,21.5-26.7,28c-6.1,3.4-12.7,5.6-19.5,6.9
	c-3.4,0.6-6.8,0.9-10.2,0.9c-18.2,0.1-36.5,0-54.7,0c-2.1,0-3.8-0.7-4.7-2.8c-1-2.2,0.8-5.2,3.1-5.2c3.9-0.1,7.7,0.1,11.6,0.1
	c0.1,0,0.2,0,0.5-0.1c-5.8-12.8-11.6-25.6-17.4-38.2c-0.1,0.1-0.2,0.1-0.3,0.1c-5.7,12.5-11.3,24.9-17.1,37.6
	c1.8,0.1,3.3,0.3,4.8,0.4c1.4,0.1,2.4,0.8,3.1,1.9c0.8,1.4,0.9,2.8,0,4.2c-0.9,1.5-2.4,2-4,1.9c-6.4-0.3-12.3-2.1-17.5-5.9
	c-6.2-4.5-10-10.6-12.1-17.9c-1.6-5.4-3.3-10.8-5.1-16.2c-2.5-7.4,0.4-14,5.8-17.7c2.3-1.6,4.8-2.5,7.6-2.5c20.7,0,41.4,0,62.1,0
	c18.8,0,37.7,0,56.5,0c5.6,0,9.6-2.6,12-7.7c5.4-11.7,10.9-23.5,16.3-35.2c4.7-10.2,9.5-20.4,14.2-30.6c9.3-20.1,18.6-40.2,28-60.3
	c8.2-17.8,16.5-35.5,24.7-53.2c3.4-7.3,6.8-14.7,10.2-22c1.4-3.1,3.4-5.7,6.5-7.1c1.6-0.7,3.5-1.2,5.3-1.4c2.6-0.2,5.3-0.1,8,0.1
	c4.6,0.2,9,5.2,6.9,11.1c-0.9,2.4-1.9,4.7-2.9,7.1c-6.1,14.4-12.2,28.7-18.2,43.1c-5.6,13.2-11.1,26.4-16.7,39.5
	c-5.9,14.1-11.9,28.1-17.9,42.2c-2.2,5.1-4.3,10.2-6.5,15.4c-1.2,2.8-4.2,3.6-6.4,1.6c-1.2-1.1-1.6-2.6-1-4.2
	c1.2-3.2,2.5-6.3,3.8-9.4c5.7-13.5,11.4-26.9,17.1-40.4c3.4-8.2,6.9-16.4,10.4-24.6c0.1-0.2,0.1-0.3,0.2-0.5
	c0.9-1.9,0.9-1.9-0.8-3.1C240.5,87.3,237.7,85.6,234.6,83.7z M145.1,278.1c1.1-0.5,1.9-0.8,2.7-1.1c13-5.2,22.9-14,29.2-26.5
	c2.7-5.3,4.8-10.9,7.1-16.4c3.4-8.1,6.8-16.2,10.3-24.3c0.4-0.9,0.1-1.3-0.6-1.8c-4.1-2.6-8.3-5.2-12.4-7.8
	c-0.6-0.4-0.8-0.2-1.1,0.4c-3.6,7.7-7.2,15.4-10.7,23.1c-8.1,17.8-16.2,35.6-24.3,53.4C145.2,277.4,145.2,277.6,145.1,278.1z
	 M41.6,277.5c6.2-13.6,12.3-27.1,18.5-40.7c-0.6,0-1,0-1.3,0c-8.9,0-17.9,0-26.8,0c-4.8,0-7.9,4.3-6.5,8.8
	c1.8,5.8,3.5,11.5,5.3,17.3c1.1,3.7,2.7,7.2,5.3,10.2C37.8,274.8,39.5,276.3,41.6,277.5z M248.1,82.8c9-21.2,17.9-42.4,26.9-63.7
	c-2.1,0-3.9,0-5.7,0c-3.8-0.1-5.1,0.7-6.7,4.2c-6,12.9-12,25.8-17.9,38.7c-2.2,4.8-4.4,9.6-6.7,14.4
	C241.4,78.5,244.6,80.6,248.1,82.8z M130.8,280.8c0-1.2-16.4-37.6-17.2-38.1c-5.8,12.7-11.5,25.4-17.3,38.1
	C108,280.8,119.4,280.8,130.8,280.8z M72.6,236.9c5.8,12.8,11.6,25.4,17.3,38c0.1,0,0.3,0,0.4,0c5.7-12.6,11.5-25.2,17.3-37.9
	C95.8,236.9,84.2,236.9,72.6,236.9z M120.1,236.9c5.8,12.7,11.5,25.2,17.2,37.8c0.8-0.6,17.3-36.2,17.8-38.3
	C143.4,237.3,131.8,236.5,120.1,236.9z M89,220.5c-6.4-0.2-14-0.4-21.7-0.9c-5.5-0.4-11-0.8-16.4-2.2c-3.7-0.9-7.5-1.8-11-3
	c-1.8-0.6-3.5-1.9-5.1-3.1c-1.5-1.1-2-2.9-2-4.6c0-9.7,0-19.5,0-29.2c0-2.3,1.1-4.1,2.9-5.6c2.6-2,5.7-3,8.8-3.8
	c7-1.8,14.1-2.6,21.3-3.4c13.2-1.5,26.4-1,39.7-0.8c3.7,0.1,7.3,0.6,11,0.9c3,0.3,6,0.5,8.9,1c3.5,0.6,7,1.3,10.5,2.2
	c3.2,0.8,6.3,1.8,9,3.8c1.9,1.5,3,3.4,3,5.8c0,9.6,0,19.2,0,28.9c0,3-1.6,4.9-3.9,6.3c-1.7,1-3.5,1.8-5.4,2.4
	c-5.6,1.8-11.4,2.8-17.3,3.4c-3.7,0.4-7.4,1-11.1,1.1C103.5,220.2,96.9,220.3,89,220.5z M139.6,185.2c-0.4,0.1-0.7,0.1-1,0.2
	c-4.9,1.6-9.9,2.5-14.9,3.1c-3.4,0.4-6.9,0.9-10.3,1.2c-3.8,0.3-7.6,0.6-11.4,0.7c-6.5,0.1-13.1,0.2-19.6,0.2
	c-4-0.1-7.9-0.4-11.9-0.7c-5.9-0.5-11.7-1.1-17.5-1.9c-3.7-0.5-7.2-1.7-10.8-2.6c-1.2-0.3-1.3-0.2-1.3,1c0,6,0,11.9,0,17.9
	c0,2.1,0,2.1,2,2.8c6.3,2.3,13,3,19.6,3.9c3.6,0.5,7.3,0.5,10.9,0.8c7.6,0.6,15.2,1,22.9,0.6c9-0.5,18.1-0.7,27-2.1
	c5.1-0.8,10.3-1.6,15.2-3.5c0.9-0.3,1.3-0.8,1.2-1.8c-0.1-6.2,0-12.4,0-18.7C139.6,186,139.6,185.7,139.6,185.2z M138.1,177.1
	c-0.6-0.2-0.8-0.3-1-0.4c-2.4-0.6-4.9-1.2-7.4-1.8c-5.8-1.3-11.7-2-17.6-2.4c-10.5-0.7-21.1-1.2-31.7-0.6
	c-7.9,0.4-15.8,0.6-23.7,1.9c-3.3,0.5-6.5,1.2-9.8,1.9c-1.4,0.3-2.7,0.8-4,1.2c0,0.1,0,0.2,0,0.3c0.6,0.2,1.1,0.6,1.7,0.7
	c4.9,1,9.7,2.2,14.7,2.8c7.6,0.9,15.2,1.6,22.9,1.7c12.9,0.3,25.8,0,38.6-1.6c4.9-0.6,9.8-1.8,14.7-2.8
	C136.4,177.9,137.1,177.5,138.1,177.1z"/>
</svg>
