<?xml version="1.0" encoding="utf-8"?>
<!-- Generator: Adobe Illustrator 27.6.1, SVG Export Plug-In . SVG Version: 6.00 Build 0)  -->
<svg version="1.1" id="Layer_1" xmlns="http://www.w3.org/2000/svg" xmlns:xlink="http://www.w3.org/1999/xlink" x="0px" y="0px"
	 viewBox="0 0 300 300" style="enable-background:new 0 0 300 300;" xml:space="preserve">
<style type="text/css">
	.st0{fill:#FFFFFF;}
</style>
<path class="st0" d="M156.68,74.37c-2.76-0.93-4.48-3.81-4.1-6.86c0.37-2.97,2.91-5.39,6.05-5.76c0.49-0.06,0.99-0.05,1.76-0.04
	h14.67c24.44,0,48.89-0.01,73.34,0.02c1.27,0,2.38,0.14,3.33,0.43c2.93,0.87,4.97,3.85,4.64,6.77c-0.38,3.35-2.83,5.76-5.96,5.85
	c-5.33,0.16-10.67,0.14-16.01,0.13l-5.09-0.01l-33.74,0.01c-11.51,0-23.01,0.01-34.52-0.03C159.64,74.88,158.01,74.82,156.68,74.37z
	 M205.02,138.45c14.76,0.06,29.5,0.07,44.24-0.04c1.29-0.01,2.82-0.46,4.11-1.18c2.28-1.29,3.48-4.22,2.81-6.82
	c-0.82-3.12-2.91-4.95-5.75-5c-5.42-0.12-10.85-0.08-16.27-0.07l-8.72,0.02v-0.09l-4.8-0.01c-2.23-0.01-4.46-0.01-6.7-0.01
	c-3.03,0-6.07,0.01-9.12,0.06c-2.14,0.03-4.02,0.78-5.31,2.11c-1.15,1.2-1.74,2.74-1.7,4.48
	C197.89,135.68,200.93,138.44,205.02,138.45z M267.11,174.63l-44.5,0.01l13.67,37.32c6.34,17.22,12.67,34.42,18.9,51.67
	c0.75,2.08,0.99,4.44,0.64,6.32c-0.64,3.47-3.79,4.27-5.6,4.44c-2.57,0.22-4.57-0.81-5.92-3.16c-0.61-1.04-1.12-2.14-1.52-3.26
	c-10.94-29.74-21.88-59.49-32.73-89.26c-0.81-2.2-2.12-4.36-5.76-4.17c-3.1,0.05-4.77,1.23-5.79,4.05
	c-9.16,25.44-18.4,50.85-27.63,76.25l-4.68,12.86c-0.34,0.96-0.72,1.94-1.21,2.85c-1.91,3.53-5.1,4.74-8.46,3.32
	c-3.3-1.42-4.75-4.88-3.51-8.4c3.03-8.56,6.14-17.1,9.26-25.64l21.65-59.48c0.25-0.68,0.43-1.38,0.65-2.16l1.02-3.55h-8.16
	c-7.88,0-15.65-0.01-23.4,0.07c-1.83,0.02-3.22,1.77-3.61,2.31c-6.96,9.76-17.59,12.38-28.42,7.08c-5.2-2.55-10.38-5.15-15.55-7.76
	l-7.1-3.56c-0.58-0.29-1.16-0.56-1.88-0.9l-4.21-1.98v95.4c0,7.03-2.14,9.18-9.13,9.18H33.92c-5.9-0.01-8.31-2.39-8.31-8.22
	l-0.01-8.23c-0.01-11.64-0.02-23.29,0.05-34.92c0.01-2.63-0.99-4.22-3.37-5.32c-9.53-4.43-14.46-11.83-14.67-22.46
	c-0.22-11.01-0.45-22.39,0.52-33.43c1.31-15.03,8.82-27.42,22.35-36.79c0.72-0.51,1.46-1,2.22-1.49l2.98-2l-1.71-1.64
	c-10.72-10.33-12.9-21.48-12.84-29.02c0.07-10.42,4.42-20.68,11.64-27.44c7.62-7.14,17.29-10.74,26.9-10.74
	c8.83,0,17.6,3.03,24.67,9.16c7.74,6.68,12.56,16.42,13.24,26.71c0.49,7.35-0.91,18.31-10.31,28.91l-1.66,1.87l30.71,15.26
	l0.01-28.02c0.01-18.19,0.02-36.37-0.05-54.55c-0.03-9.33,3.21-16.39,9.94-21.56c4.26-3.3,9.15-4.96,14.54-4.96
	c42.49-0.04,84.99-0.1,127.49,0.02c11.43,0.03,20.54,7.4,23.78,19.24c0.13,0.48,0.28,0.95,0.46,1.41l0.09,107.32
	c-0.49,1.14-0.93,2.29-1.38,3.44c-1.06,2.75-2.06,5.34-3.59,7.52C282.96,171.23,276.07,174.62,267.11,174.63z M59.26,116.05
	L59.26,116.05c0.09,0,0.17,0,0.26,0c6.53,0,12.69-2.52,17.37-7.12c4.79-4.7,7.46-11,7.52-17.73c0.06-6.75-2.58-13.13-7.42-17.97
	c-4.73-4.74-10.93-7.34-17.47-7.34c-0.07,0-0.13,0-0.2,0c-6.67,0.05-13.2,2.85-17.93,7.69c-4.66,4.77-7.18,10.95-7.09,17.43
	C34.49,105.12,45.22,115.89,59.26,116.05z M140.57,165.82c0.04-4.33-3.71-6.18-4.94-6.78c-4.35-2.16-8.71-4.28-13.08-6.41
	c-11.12-5.42-22.63-11.04-33.69-16.98c-10.6-5.72-22.51-7.56-36.37-5.57c-15.98,2.24-29.98,16.78-31.2,32.41
	c-0.75,9.66-0.67,19.52-0.59,29.04l0.03,4.07c0.04,6.1,4.44,10.57,10.92,11.13c4.89,0.43,7.07,2.77,7.08,7.63
	c0.02,9.09,0.02,18.19,0.02,27.28v14.46c0,0.69,0.03,1.4,0.07,2.14l0.13,2.89h40.97v-24.32c0-24.97-0.01-49.94,0.01-74.92
	c0-1.7,0.11-3.14,0.36-4.39c0.57-2.97,3.2-5.06,6.09-4.92c1.38,0.07,3,0.52,4.57,1.29c4.88,2.4,9.74,4.83,14.6,7.26
	c7.4,3.7,14.79,7.4,22.24,10.98c2.12,1.01,5.11,1.3,7.64,0.73C138.47,172.17,140.54,169.34,140.57,165.82z M265.71,161.54
	c9.27,0,13.77-4.51,13.77-13.79V52.71c0-9.74-4.33-14.08-14.05-14.08H142.75c-0.7-0.02-1.4-0.01-2.1,0.04
	c-6.58,0.5-11.07,5.27-11.16,11.87c-0.03,2.12-0.02,4.25-0.01,6.37v13.29c0,22.41,0,44.82,0.05,67.23c0.01,1.29,0.44,3.74,2.07,4.69
	c2.38,1.4,4.87,2.61,7.4,3.84l4.42,2.19l1.52-2.86c0.39-0.7,0.73-1.35,1.06-2l3.86-7.68c4.01-8.01,8.03-16.01,12-24.05
	c1.58-3.2,3.74-4.52,6.84-4.39c2.25,0.16,4.06,1.23,5.09,3.02c1.18,2.05,1.14,4.69-0.12,7.23c-4.23,8.55-8.5,17.07-12.78,25.6
	l-6.22,12.4c-0.34,0.69-0.65,1.39-1.02,2.22l-1.74,3.9h6.36L265.71,161.54z M249.32,93.47c-13.43-0.1-27.98-0.1-44.5,0
	c-3.24,0.02-5.72,1.72-6.61,4.54c-0.67,2.11-0.4,4.17,0.77,5.79c1.32,1.82,3.63,2.89,6.36,2.94c5.07,0.07,10.15,0.06,15.21,0.04
	l6.46-0.01l6.96,0.01c5.09,0.02,10.18,0.04,15.27-0.06c4.13-0.08,7.14-2.86,7.16-6.61S253.37,93.5,249.32,93.47z"/>
</svg>
