<?xml version="1.0" encoding="utf-8"?>
<!-- Generator: Adobe Illustrator 28.0.0, SVG Export Plug-In . SVG Version: 6.00 Build 0)  -->
<svg version="1.1" id="Layer_1" xmlns="http://www.w3.org/2000/svg" xmlns:xlink="http://www.w3.org/1999/xlink" x="0px" y="0px"
	 viewBox="0 0 300 300" style="enable-background:new 0 0 300 300;" xml:space="preserve">
<style type="text/css">
	.st0{fill:#FFFFFF;}
</style>
<path class="st0" d="M31.9,156.9c5-4.1,9.6-8.8,15.1-12.3c19.3-12.2,40.4-19.8,62.9-23.7c6.3-1.1,12.8-1.8,19.4-2.7
	c-0.2-1.8-0.3-3.8-0.5-5.7c-1.3-12.8-1.1-25.6-0.1-38.5c0.9-11.7,2.9-23.3,5.7-34.7c0.7-3,2.1-5,5.4-5.4c3.8-0.5,7.6-1.1,11.4-1.7
	c0.6-0.1,1.2-0.3,1.7-0.4c5.2,0,10.5,0,15.7,0c4,0.4,7.9,0.9,11.9,1.3c13.8,1.5,27.2,4.7,40.2,9.4c15,5.5,29.3,12.2,41.8,22.3
	c6.5,5.3,6.6,5.4,4.2,13.4c-8.1,26.4-20.4,50.7-37.8,72.2c-8.1,10-17.3,19-28.8,25.2c-8.2,4.4-16.9,7-26.3,5.8c-0.4-0.1-0.8,0-1.5,0
	c0,1,0,2,0,2.9c-0.2,12.6-1.5,25.1-4.6,37.4c-3,11.8-7.5,22.9-15.5,32.3c-10.8,12.7-27.3,17.3-43.2,11.9
	c-10.1-3.4-18.6-9.4-26.2-16.7c-18.6-17.9-31.5-39.6-41.4-63.2c-3.2-7.6-5.6-15.6-8.4-23.4c-0.3-0.9-0.6-1.7-1-2.5
	C31.9,159.1,31.9,158,31.9,156.9z M139.5,58.6c-0.8,9.3-1.7,18.3-2.2,27.4c-0.7,14.7,0.2,29.4,3.5,43.8c2.4,10.5,5.9,20.7,12.4,29.5
	c9.4,12.7,24,16.5,38.4,10.1c11.6-5.2,20.7-13.5,28.6-23.1c17.4-20.9,29.5-44.8,37.5-70.8c0.5-1.5,0.1-2.3-1-3.1
	c-3.2-2.3-6.2-4.8-9.6-6.8C229.8,54.8,211,47.9,191,44.1c-13.1-2.5-26.2-3.5-39.4-2.7c-8.2,0.5-8.5,0.6-9.7,7.1c0,0.1,0,0.1,0.1,0.3
	c3.2-0.3,6.5-0.7,9.8-0.9c3.2-0.2,5.4,1.6,5.4,4.3c0.1,2.7-1.8,4.6-5,4.9C148.1,57.6,144.1,58.1,139.5,58.6z M147.9,168
	c-2.2-3.4-4.6-6.6-6.6-10c-5.1-8.9-8.1-18.5-10.1-28.5c-0.3-1.4-0.8-1.8-2.1-1.6c-4.3,0.5-8.7,0.9-13.1,1.5
	c-17.3,2.5-33.8,7.6-49.6,15.1c-8.2,3.9-16.1,8.4-23.1,14.3c-0.7,0.6-1.4,1.6-1.3,2.3c0.4,2,1.2,3.9,1.8,6.1c2.9-2.1,5.5-4,8.2-5.9
	c2.9-1.9,6.2-1,7.2,1.9c0.8,2.1,0.1,4.1-2.1,5.8c-2.8,2.1-5.7,4.2-8.6,6.2c-1.3,0.9-1.4,1.7-0.8,3c3.4,7.1,6.5,14.4,10,21.5
	c7.3,14.4,16.3,27.7,27.6,39.3c7,7.2,14.7,13.5,24.2,17.3c10.9,4.4,21.2,3.4,30.6-3.9c6.6-5.1,10.6-12.1,13.7-19.6
	c6.9-16.9,8.5-34.6,8.8-52.6c0-0.5-0.2-1.3-0.5-1.6c-2.4-1.5-4.9-2.8-7.6-4.3c-0.3,0.4-0.5,0.8-0.8,1.1c-6.2,6.1-13.6,8.6-22.1,6.8
	c-6.7-1.4-11.9-5.1-15.6-10.9c-1.5-2.4-1.1-5.1,1-6.6c2.1-1.6,4.8-1,6.7,1.3c0.3,0.4,0.6,0.9,0.9,1.3
	C130.5,175.2,141.9,175.5,147.9,168z M191.7,148.2c2.8-1.2,5.5-3.1,7.8-5.2c2.4-2.2,1.6-5.9-1.3-7.3c-2.3-1.1-4.1-0.1-5.9,1.4
	c-2.5,2.2-5.4,3.5-8.7,3.7c-7.1,0.4-12.5-3.3-15.1-10.3c-1.2-3.2-3.5-4.6-6.1-3.7c-2.8,1-3.7,3.5-2.6,6.8
	c3.2,9.8,12.4,16.5,22.7,16.9C185.6,149.8,188.8,149.4,191.7,148.2z M147.2,76.9c-3.9,1.5-5.1,4.1-3.9,6.9c1.2,2.8,3.9,3.3,7.7,1.6
	c8.5-3.8,18,0.7,20.4,9.7c0.3,1.2,0.4,2.6,0.6,3.9c0.5,2.9,2.5,4.7,4.9,4.4c2.7-0.3,4.5-2.5,4.3-5.6c-0.6-13-11.2-23.1-24.2-23.6
	C153.8,75,150.4,75.7,147.2,76.9z M198.8,110.1c2.2,0.7,4.1,0.1,5.6-2.4c6-9.4,19.4-9.2,25.2,0.2c1.7,2.7,4.5,3.3,6.7,1.7
	c2.2-1.6,2.6-4.2,0.9-6.9c-9.3-14.9-31.5-14.9-40.7,0.1c-0.5,0.8-0.8,1.8-1,2.2C195.6,107.8,196.6,109.3,198.8,110.1z M170.4,52.8
	c0-2.8-1.9-4.8-4.7-4.8c-2.7,0-4.6,2-4.6,4.7c0,2.7,2,4.5,4.7,4.5C168.4,57.2,170.4,55.3,170.4,52.8z M141.2,223
	c-5.7-5.1-12.4-7.1-20-6c-8.9,1.3-17,8.5-19.2,17.1c-0.7,2.8,0.4,5.1,2.9,5.9c2.4,0.9,4.8-0.4,5.9-3c0.2-0.5,0.3-1,0.5-1.5
	c3.6-9.4,15.3-12.5,23.1-6.2c0.7,0.6,1.4,1.2,2.2,1.7c3.1,1.7,7-0.6,6.9-4.8C142.9,225.4,142.3,224,141.2,223z M98,176.4
	c0.1-2.6-0.9-4.4-3-5.2c-3.3-1.3-6.1,1-6.3,5.3c-0.4,6.5-4.9,11.7-11.2,13.3c-3.9,0.9-7.4,0.1-10.9-1.5c-2.6-1.2-5.2-0.3-6.3,2
	c-1.2,2.4-0.2,4.9,2.4,6.4c3.6,2,7.4,2.9,11.5,2.9C87.1,199.5,97.5,189.4,98,176.4z M71.4,158.3c0-2.4-2.1-4.6-4.5-4.6
	c-2.8-0.1-5,2-5,4.6c0,2.5,2,4.6,4.5,4.6C69.1,163,71.4,160.8,71.4,158.3z"/>
</svg>
