<?xml version="1.0" encoding="utf-8"?>
<!-- Generator: Adobe Illustrator 28.3.0, SVG Export Plug-In . SVG Version: 6.00 Build 0)  -->
<svg version="1.1" id="Layer_1" xmlns="http://www.w3.org/2000/svg" xmlns:xlink="http://www.w3.org/1999/xlink" x="0px" y="0px"
	 viewBox="0 0 300 300" style="enable-background:new 0 0 300 300;" xml:space="preserve">
<style type="text/css">
	.st0{fill:#FFFFFF;}
</style>
<g>
	<path class="st0" d="M143,99.2c0,1.4-0.1,2.6-0.2,3.6c-0.1,1-0.4,1.9-0.6,2.6c-0.3,0.7-0.6,1.2-1.1,1.5c-0.4,0.3-0.9,0.4-1.4,0.4
		c-0.9,0-2.3-0.7-4.3-2c-2-1.4-4.7-2.9-8.1-4.5c-3.4-1.7-7.4-3.2-12.1-4.5c-4.7-1.4-10.3-2-16.8-2c-7.7,0-14.6,1.4-20.7,4.2
		c-6.1,2.8-11.3,6.7-15.5,11.6c-4.2,5-7.5,10.9-9.8,17.7c-2.3,6.8-3.4,14.2-3.4,22.2c0,8.9,1.2,16.8,3.7,23.7
		c2.5,6.9,5.9,12.7,10.3,17.5c4.4,4.7,9.6,8.3,15.7,10.8c6.1,2.4,12.7,3.7,20,3.7c4.3,0,8.7-0.5,13.1-1.6c4.4-1,8.5-2.6,12.3-4.7
		v-40.7H91.8c-1.2,0-2.1-0.6-2.8-1.8c-0.6-1.2-0.9-3.1-0.9-5.7c0-1.4,0.1-2.5,0.2-3.5c0.1-1,0.4-1.8,0.7-2.4
		c0.3-0.6,0.7-1.1,1.1-1.3c0.4-0.3,1-0.4,1.6-0.4h44.3c0.8,0,1.6,0.1,2.4,0.4c0.8,0.3,1.5,0.7,2.2,1.3c0.6,0.6,1.1,1.4,1.5,2.4
		c0.4,1,0.5,2.2,0.5,3.5v53.2c0,1.9-0.3,3.5-1,4.9c-0.6,1.4-2,2.6-4.1,3.6c-2.1,1-4.8,2.2-8.1,3.4c-3.3,1.2-6.7,2.3-10.2,3.1
		c-3.5,0.9-7.1,1.5-10.7,1.9c-3.6,0.4-7.2,0.6-10.7,0.6c-10.8,0-20.4-1.7-28.9-5c-8.5-3.3-15.7-8.1-21.5-14.3
		c-5.9-6.2-10.3-13.6-13.4-22.2c-3.1-8.6-4.6-18.3-4.6-28.9c0-11.1,1.7-21.1,5-30.1c3.3-9,8.1-16.6,14.1-23
		c6.1-6.3,13.4-11.2,21.9-14.7c8.5-3.5,18-5.2,28.3-5.2c5.3,0,10.3,0.5,15,1.4c4.7,0.9,8.8,2,12.5,3.3c3.6,1.3,6.7,2.6,9.2,4.1
		c2.5,1.5,4.2,2.7,5.1,3.6c0.9,0.9,1.6,2,1.9,3.2C142.8,95.1,143,96.9,143,99.2z"/>
	<path class="st0" d="M270.6,217c0,0.6-0.1,1.1-0.3,1.5c-0.2,0.4-0.7,0.8-1.4,1.1c-0.7,0.3-1.7,0.5-3,0.6c-1.3,0.1-3,0.2-5.2,0.2
		c-1.9,0-3.4-0.1-4.6-0.2c-1.2-0.1-2.1-0.4-2.9-0.7c-0.7-0.3-1.3-0.8-1.7-1.3c-0.4-0.6-0.7-1.3-1-2.2l-12.8-32.9
		c-1.5-3.7-3.1-7.2-4.7-10.3c-1.6-3.1-3.5-5.8-5.8-8.1s-4.9-4-7.9-5.3c-3-1.3-6.7-1.9-10.9-1.9H196V217c0,0.6-0.2,1.1-0.5,1.5
		s-0.8,0.8-1.5,1c-0.7,0.3-1.6,0.5-2.8,0.6c-1.2,0.2-2.7,0.3-4.5,0.3c-1.8,0-3.3-0.1-4.5-0.3c-1.2-0.2-2.1-0.4-2.9-0.6
		c-0.7-0.3-1.2-0.6-1.5-1c-0.3-0.4-0.4-0.9-0.4-1.5V87.8c0-2.8,0.7-4.8,2.2-5.9c1.5-1.1,3-1.7,4.7-1.7h29.7c3.5,0,6.5,0.1,8.8,0.3
		c2.3,0.2,4.4,0.4,6.3,0.6c5.4,0.9,10.2,2.4,14.3,4.4c4.1,2,7.6,4.6,10.4,7.7c2.8,3.1,4.9,6.6,6.3,10.6s2.1,8.4,2.1,13.2
		c0,4.7-0.6,8.9-1.9,12.6c-1.3,3.7-3.1,7-5.4,9.8c-2.4,2.8-5.2,5.3-8.5,7.4c-3.3,2.1-7,3.8-11.1,5.3c2.3,1,4.4,2.3,6.3,3.8
		c1.9,1.5,3.6,3.4,5.2,5.6c1.6,2.2,3.1,4.6,4.6,7.4c1.4,2.8,2.9,6,4.3,9.5l12.5,30.7c1,2.6,1.7,4.4,1.9,5.4
		C270.4,215.6,270.6,216.4,270.6,217z M242.6,118.9c0-5.5-1.2-10.1-3.7-13.9c-2.4-3.8-6.5-6.5-12.3-8.1c-1.8-0.5-3.8-0.9-6.1-1.1
		c-2.3-0.2-5.2-0.3-8.9-0.3H196v47h18.1c4.9,0,9.1-0.6,12.7-1.8c3.6-1.2,6.5-2.8,8.9-5c2.4-2.1,4.1-4.6,5.2-7.5
		C242.1,125.4,242.6,122.3,242.6,118.9z"/>
</g>
</svg>
