<?xml version="1.0" encoding="utf-8"?>
<!-- Generator: Adobe Illustrator 27.6.1, SVG Export Plug-In . SVG Version: 6.00 Build 0)  -->
<svg version="1.1" id="Layer_1" xmlns="http://www.w3.org/2000/svg" xmlns:xlink="http://www.w3.org/1999/xlink" x="0px" y="0px"
	 viewBox="0 0 300 300" style="enable-background:new 0 0 300 300;" xml:space="preserve">
<style type="text/css">
	.st0{fill:#FFFFFF;}
</style>
<path class="st0" d="M21.14,107.31c0.37-2.56,0.66-5.13,1.12-7.66c6-32.69,23.86-56.66,54.64-69.15c34.46-13.98,66.53-8,94.83,16.28
	c11.96,10.26,20.1,23.25,25.02,38.21c0.67,2.04,1.62,2.86,3.82,2.96c13.18,0.56,25.59,3.96,37.01,10.66
	c21.43,12.57,34.72,31.07,39.7,55.41c7.29,35.61-10.97,72.42-43.66,88.43c-7.27,3.56-14.85,6.04-22.83,7.39
	c-1.49,0.25-3.05,0.97-4.25,1.89c-13.57,10.31-28.46,17.85-45.08,21.87c-14.07,3.4-28.37,3.62-42.72,3.11
	c-13.6-0.48-26.71-3.24-39.33-8.32c-9.54-3.84-18.34-8.96-26.6-15.04c-4.05-2.98-8.07-6.01-12.07-9.05
	c-7.89-6.01-8.34-14.76-1.07-21.46c8.7-8,17.14-16.31,27.27-22.58c2.26-1.4,4.56-2.76,7.12-4.3c-0.85-0.48-1.45-0.86-2.07-1.17
	C48.71,183.06,32.95,164.88,25.19,140c-1.68-5.4-2.36-11.1-3.51-16.67c-0.17-0.81-0.36-1.62-0.54-2.43
	C21.14,116.37,21.14,111.84,21.14,107.31z M128.52,268.37c5.85-0.31,11.73-0.43,17.56-0.98c13.83-1.33,27.04-5.15,38.98-12.21
	c9.05-5.36,17.46-11.82,26.08-17.89c3.5-2.46,3.58-5.17,0.45-8.07c-3.14-2.91-6.32-5.77-9.46-8.67
	c-22.82-21.05-49.59-31.16-80.72-29.26c-16.16,0.98-31.14,5.8-45.27,13.61c-11.89,6.57-21.55,15.88-31.36,25.02
	c-2.33,2.17-2.07,4.87,0.5,6.91c2.82,2.24,5.78,4.3,8.63,6.51c8.84,6.85,18.22,12.78,28.64,16.99
	C97.31,266.28,112.66,268.63,128.52,268.37z M124.86,93.72c-15.59-17.32-22.92-37.86-23.6-60.95C84.2,35.13,69.6,41.72,57.4,52.6
	c18.23,18.23,36.28,36.28,54.28,54.28C115.85,102.72,120.23,98.34,124.86,93.72z M30.55,103.54c23.34,0.63,43.75,8.07,60.83,23.35
	c4.6-4.59,9.03-9.02,13.02-12.99C86.48,95.98,68.39,77.89,50.24,59.74C39.48,71.98,32.84,86.47,30.55,103.54z M85.14,132.98
	c-15.68-13.77-34.12-20.34-54.96-20.71c-1.13,18.98,7.3,41.74,20.38,55.23C62.04,156.04,73.52,144.57,85.14,132.98z M165.61,52.84
	c-16.04-13.85-34.42-20.86-55.59-20.6c0.47,21.23,7.08,39.68,20.93,55.26C142.53,75.91,153.97,64.48,165.61,52.84z M139.53,125.3
	c5.51,0.84,6.5,5.23,8.05,9.21c1.63,4.21,3.26,8.43,5.08,12.56c0.44,1,1.47,2.03,2.47,2.46c4.6,1.99,9.26,3.88,13.98,5.57
	c1.04,0.37,2.66,0.19,3.59-0.41c6.28-4.02,12.48-8.18,18.61-12.42c0.78-0.54,1.44-1.81,1.47-2.77c0.16-4.36,0-8.72,0.1-13.08
	c0.04-1.52-0.49-2.43-1.72-3.29c-6.56-4.51-13.05-9.12-19.59-13.67c-2.25-1.57-4.7-2.93-4.53-6.27
	C157.16,107.29,145.13,116.89,139.53,125.3z M111.72,183.42c-2.29-16.79-8.9-31.33-19.72-43.54
	c-11.66,11.67-23.12,23.15-34.64,34.69c7.72,6.94,16.75,12.24,26.81,15.79c0.76,0.27,1.78,0.04,2.61-0.2c5.52-1.64,11-3.44,16.55-5
	C106.03,184.39,108.84,184,111.72,183.42z M269.94,172.02c-3.53,2.85-6.04,1.32-8.68-0.49c-6.56-4.5-13.24-8.84-19.83-13.3
	c-1.17-0.8-2.11-0.89-3.4-0.24c-3.14,1.57-6.41,2.89-9.54,4.48c-0.84,0.43-1.74,1.36-2,2.25c-2.32,7.77-4.54,15.57-6.68,23.39
	c-0.21,0.76,0.11,1.98,0.65,2.56c2.32,2.53,4.73,4.99,7.29,7.29c0.88,0.79,2.28,1.4,3.45,1.42c7.88,0.12,15.77,0.14,23.65,0.03
	c3.01-0.04,5.69,0.17,7.06,3.59C266.84,193.28,269.54,183.38,269.94,172.02z M227.39,103.15c0.14,3.05-1.75,4.49-3.81,5.91
	c-6.75,4.65-13.44,9.41-20.19,14.07c-1.21,0.83-1.83,1.7-1.79,3.25c0.11,4.35-0.07,8.71,0.11,13.06c0.04,1.03,0.78,2.38,1.62,2.96
	c5.84,4.06,11.83,7.9,17.69,11.93c1.39,0.96,2.48,0.92,3.89,0.22c3.22-1.58,6.57-2.92,9.74-4.6c1.03-0.54,2.07-1.71,2.4-2.8
	c2.47-8.15,4.8-16.34,7.07-24.55c0.66-2.39,1.69-4.28,4.47-4.89C242.32,111.58,235.49,106.76,227.39,103.15z M197.07,186.48
	c4.11,0,8.22,0.07,12.32-0.06c0.73-0.02,1.89-0.74,2.09-1.37c2.1-6.87,4.08-13.78,5.96-20.72c0.19-0.72-0.23-2.05-0.81-2.46
	c-5.99-4.14-12.06-8.19-18.17-12.16c-0.58-0.38-1.82-0.38-2.39-0.01c-6.12,3.96-12.18,8-18.18,12.13c-0.57,0.39-1,1.69-0.82,2.38
	c1.83,6.86,3.83,13.68,5.7,20.54c0.38,1.4,1.09,1.79,2.48,1.76C189.19,186.42,193.13,186.48,197.07,186.48z M172.05,59.44
	c-11.74,11.44-23.37,22.75-35.29,34.36c4.11,2.98,7.67,5.48,11.13,8.1c1.36,1.03,2.36,0.98,3.75,0c6.55-4.6,13.68-8.12,21.36-10.35
	c5.12-1.49,10.38-2.5,15.57-3.72C186.06,78.87,178.51,65.87,172.05,59.44z M175.66,192.37c0-0.64,0.06-0.9-0.01-1.12
	c-2.45-8.59-4.88-17.19-7.44-25.75c-0.25-0.85-1.21-1.75-2.07-2.12c-4.3-1.84-8.7-3.44-13-5.28c-1.55-0.66-2.52-0.46-3.71,0.75
	c-5.26,5.4-10.71,10.61-15.92,16.06c-2.51,2.62-4.98,4.23-8.82,1.62c0.33,2.24,0.58,3.93,0.85,5.8
	C143.03,181.88,159.6,185.29,175.66,192.37z M221.43,238.2c14.11-5.12,25.33-13.4,34.15-24.97c0.88-1.16,0.74-2.04,0.12-3.16
	c-0.62-1.11-1.02-2.09-2.7-2.06c-7.04,0.12-14.09-0.01-21.13,0.12c-0.9,0.02-2.19,0.8-2.62,1.6c-2.71,5.1-5.25,10.28-7.76,15.48
	c-0.36,0.74-0.57,1.86-0.26,2.55C222.72,231.06,222.84,234.36,221.43,238.2z M269.73,160.62c-0.54-2.65-1.11-6.12-1.96-9.51
	c-2.11-8.43-5.81-16.15-10.7-23.34c-1.14-1.67-2.54-1.35-3.95-1.25c-0.52,0.04-1.25,0.77-1.42,1.33c-2.08,7.04-4.1,14.11-6.04,21.19
	c-0.16,0.59,0.2,1.69,0.69,2.02c6.29,4.29,12.62,8.52,18.99,12.69C266.9,164.76,269.81,163.14,269.73,160.62z M97.98,133.51
	c7.53,8.44,13.4,18.11,17.57,29.12c0.39-0.61,0.55-0.74,0.56-0.88c0.87-9.77,3.56-19.03,7.71-27.9c0.23-0.49,0.07-1.51-0.3-1.89
	c-3.96-4.08-8-8.09-11.87-11.96C107.07,124.52,102.62,128.92,97.98,133.51z M197.24,116.86c6.32-4.41,12.58-8.75,18.78-13.16
	c0.68-0.48,1.4-1.46,1.41-2.21c0.01-1.34-0.62-2.54-2.31-2.75c-5.88-0.73-11.76-2.13-17.63-2.11c-6.13,0.02-12.27,1.3-18.36,2.28
	c-0.84,0.14-1.56,1.65-2.11,2.65c-0.17,0.31,0.25,1.25,0.65,1.53C184.14,107.7,190.65,112.24,197.24,116.86z M222.08,204.59
	c-2.72-2.68-5.26-5.35-8-7.8c-0.89-0.79-2.28-1.42-3.44-1.44c-8.71-0.12-17.43-0.07-26.15-0.06c-0.6,0-1.2,0.12-2.52,0.26
	c12.58,6.44,22.57,15.14,32.36,24.49C216.99,214.75,219.46,209.82,222.08,204.59z M134.71,132.46c-0.13,0.1-0.3,0.18-0.38,0.32
	c-6.04,10.1-9.14,21.09-9.81,32.78c-0.04,0.7,1.05,1.77,1.85,2.11c0.65,0.28,1.93,0.01,2.46-0.5c4.98-4.84,9.83-9.81,14.79-14.68
	c0.99-0.97,1.15-1.77,0.61-3.05c-1.82-4.3-3.62-8.62-5.19-13.02C138.25,134.2,136.92,132.95,134.71,132.46z M128.7,124.35
	c4.46-5.15,8.97-10.35,13.49-15.57c-3.67-2.83-7.41-5.72-10.84-8.38c-4.57,4.56-8.99,8.98-13.32,13.3
	C121.47,117.14,125.08,120.74,128.7,124.35z M89.95,242.27c5.27-0.04,3.9-4.79,4.33-8.17c2.81,0,5.51,0,8.34,0
	c0.32,3.38-0.88,7.91,4.12,8.15c5.68,0.27,4.28-4.74,4.72-8.15c2.88,0,5.52,0,8.27,0c0.37,3.37-0.81,7.9,4.18,8.15
	c5.69,0.29,4.27-4.76,4.86-8.12c2.8,0,5.42,0,8.11,0c0.38,3.42-0.7,7.94,4.28,8.13c5.57,0.21,4.27-4.79,4.86-8.1
	c2.8,0,5.42,0,8.21,0c0,1.4-0.1,2.58,0.02,3.73c0.29,2.86,2,4.55,4.43,4.51c2.41-0.04,4.08-1.82,4.29-4.66
	c0.09-1.21,0.01-2.44,0.01-3.71c3.71-0.25,8.21,0.65,8.37-4.25c0.17-5.47-4.79-4.32-8.16-4.73c-0.68-6.62-1.65-8.59-4.52-8.35
	c-5.28,0.46-4.2,4.87-4.62,8.33c-2.76,0-5.39,0-8.1,0c-0.34-3.49,0.64-8.15-4.43-8.22c-5.27-0.07-4.27,4.7-4.63,8.24
	c-2.74,0-5.38,0-8.15,0c-0.43-3.38,0.75-8.13-4.34-8.24c-5.45-0.12-4.25,4.86-4.68,8.2c-2.87,0-5.5,0-8.24,0
	c-0.31-3.49,0.78-8.18-4.36-8.2c-5.29-0.02-4.19,4.77-4.49,8.21c-2.88,0-5.58,0-8.27,0c-0.69-6.59-1.65-8.57-4.42-8.31
	c-5.32,0.51-4.15,4.89-4.42,8.37c-3.51,0.42-8.32-0.87-8.33,4.51c-0.01,5.44,4.91,3.96,8.34,4.56
	C85.8,237.51,84.51,242.31,89.95,242.27z"/>
</svg>
