<?xml version="1.0" encoding="utf-8"?>
<!-- Generator: Adobe Illustrator 27.8.1, SVG Export Plug-In . SVG Version: 6.00 Build 0)  -->
<svg version="1.1" id="Layer_1" xmlns="http://www.w3.org/2000/svg" xmlns:xlink="http://www.w3.org/1999/xlink" x="0px" y="0px"
	 viewBox="0 0 300 300" style="enable-background:new 0 0 300 300;" xml:space="preserve">
<style type="text/css">
	.st0{fill:url(#SVGID_1_);}
</style>
<g>
	<linearGradient id="SVGID_1_" gradientUnits="userSpaceOnUse" x1="26.7703" y1="149.8898" x2="274" y2="149.8898">
		<stop  offset="0" style="stop-color:#E6E7E8"/>
		<stop  offset="1" style="stop-color:#F1F1F2"/>
	</linearGradient>
	<path class="st0" d="M231.6,293.8H69.2c-23.4,0-42.4-19-42.4-42.4V48.4C26.8,24.9,45.8,6,69.2,6h162.4C255,6,274,24.9,274,48.4
		v203.1C274,274.8,255,293.8,231.6,293.8z"/>
</g>
<g>
	<defs>
		<path id="SVGID_00000119839969408675164600000000848612038331147944_" d="M225.8,285.3H75c-21.9,0-39.7-17.8-39.7-39.7V54.1
			C35.3,32.2,53,14.4,75,14.4h150.9c21.9,0,39.7,17.8,39.7,39.7v191.5C265.5,267.6,247.7,285.3,225.8,285.3z"/>
	</defs>
	<clipPath id="SVGID_00000099627125789147267130000010127639766471437217_">
		<use xlink:href="#SVGID_00000119839969408675164600000000848612038331147944_"  style="overflow:visible;"/>
	</clipPath>
	<g transform="matrix(1 0 0 1 0 0)" style="clip-path:url(#SVGID_00000099627125789147267130000010127639766471437217_);">
		
			<image style="overflow:visible;" width="340" height="723" xlink:href="C:\Users\miche\OneDrive\Desktop\spur-340-v20200421155249.jpg"  transform="matrix(0.6875 0 0 0.6875 33.885 -10.6648)">
		</image>
	</g>
</g>
</svg>
