<?xml version="1.0" encoding="utf-8"?>
<!-- Generator: Adobe Illustrator 28.0.0, SVG Export Plug-In . SVG Version: 6.00 Build 0)  -->
<svg version="1.1" id="Layer_1" xmlns="http://www.w3.org/2000/svg" xmlns:xlink="http://www.w3.org/1999/xlink" x="0px" y="0px"
	 viewBox="0 0 300 300" style="enable-background:new 0 0 300 300;" xml:space="preserve">
<style type="text/css">
	.st0{fill:#FFFFFF;}
</style>
<path class="st0" d="M284.8,233.7c-1.4,1.7-2.8,3.2-5.3,2.2c-2.4-0.9-2.6-3-2.6-5.2c0-13.2,0-26.3,0-39.5c0-1.1-0.2-2.2-0.3-3.7
	c-5.2,4.4-9.3,8.4-8.8,15.8c0.6,9.3,0.2,18.8,0.1,28.1c0,3.6-2.9,5.8-5.6,4.2c-1.1-0.7-2.2-2.3-2.2-3.5c-0.1-11.5-0.2-23,0-34.5
	c0.1-4.2,2.3-7.6,5.3-10.6c1.9-1.9,3.8-3.6,6-5.7c-8-4.1-15.6-7.9-23.8-12c-2.8,2.9-5.8,5.9-8.6,9.1c-0.6,0.6-0.6,1.9-0.6,2.9
	c0,16.2,0,32.4,0,48.7c0,1,0.1,2-0.2,2.9c-0.5,2-1.9,3.3-4,3.1c-2.1-0.1-3.6-1.4-3.7-3.7c-0.1-1.1-0.1-2.1-0.1-3.1
	c0-15.9,0-31.8,0-47.6c0-1.9-0.6-3.3-1.9-4.6c-2.6-2.5-5-5.1-7.4-7.6c-0.5,0.1-0.6,0.1-0.8,0.2c-3.2,1.7-5.1,1.6-6.5-0.5
	c-1.3-2-0.7-3.9,2-6.2c2.3-1.9,3-8.1,1-10.1c-5.4-5.4-7.7-12-7.4-19.5c0.1-1.6,0-2.8-2-3.3c-0.8-0.2-1.9-1.6-2-2.5
	c-0.4-6.8-1-13.7,2.2-20.1c4.7-9.3,12.5-14,22.8-14.3c5-0.1,10.3-0.1,15.1,1.2c10.7,2.8,17.6,11.9,18.2,23.1c0.1,3,0.3,6-0.1,8.9
	c-0.2,1.4-1.3,3.1-2.5,3.8c-1.2,0.7-1.7,1.2-1.6,2.5c0.4,7.9-2,14.8-7.7,20.5c-2.3,2.3-0.7,9,2.4,10.5c5.8,2.9,11.5,6,17.4,8.7
	c6.4,2.8,11.4,6.8,13.2,13.8C284.8,202.1,284.8,217.9,284.8,233.7z M235.2,152.3c0.6-0.1,1.9-0.1,3.1-0.4
	c8.8-2.3,13.4-9.1,13.3-19.2c0-1.8-0.8-2.2-2.4-2.6c-5.9-1.4-12-2.5-17.7-4.6c-3.6-1.3-5.9-1-9.4,0.7c-4.7,2.4-5.1,5.4-4.9,9.7
	C217.9,145.1,225.2,152.3,235.2,152.3z M255.6,122.7c1.1-9.5-3-17.2-10.7-20.1c-5.2-2-10.7-1.5-16.1-1.1
	c-10.2,0.8-17.1,9.8-15.2,20.8c3-2.1,5.9-3.8,8.5-5.8c3.2-2.5,3.7-2.6,7.2-0.8C237.5,120,246.2,122.1,255.6,122.7z M242.8,158.9
	c-5.6,1.8-11.1,1.9-17.2-0.2c0.2,1.8-0.2,3.7,0.6,4.6c2.5,3,5.4,5.6,8.4,8.5c2.4-2.4,4.4-4.8,6.8-6.8
	C243.2,163.4,243.8,161.6,242.8,158.9z M200.9,179.1c-4,3.9-7.8,7.1-10.9,10.8c-1.3,1.6-2,4.1-2.1,6.2c-0.2,11.1-0.1,22.3-0.1,33.4
	c0,0.6,0,1.2,0,1.8c-0.1,3-1.7,4.9-4,4.9c-2.3,0-4-1.8-4-4.9c-0.1-10.4-0.1-20.9,0-31.3c0-2.4,0-4.9,0.3-7.4
	c0.5-3.9,2.5-7.1,5.2-9.8c3.9-3.9,7.8-7.8,12.1-12c-1.7-1.1-3.1-2.2-4.6-2.9c-6.8-3.1-13.6-6-20.4-9.1c-1.4-0.6-2.2-0.4-3.2,0.7
	c-4.5,4.6-9.1,9-13.5,13.6c-0.9,0.9-1.6,2.5-1.6,3.8c-0.1,17.6-0.1,35.3-0.1,52.9c0,1.2,0.1,2.7-0.5,3.6c-0.8,1.2-2.3,2.6-3.5,2.5
	c-1.3-0.1-2.8-1.4-3.7-2.6c-0.6-0.9-0.5-2.4-0.5-3.6c0-17.3-0.1-34.6,0-51.8c0-2.4-0.7-4.1-2.4-5.7c-4.4-4.2-8.6-8.6-12.9-12.8
	c-0.6-0.6-2.1-1-2.8-0.6c-7,3-14,6.1-20.9,9.2c-1.4,0.6-2.6,1.6-4.3,2.7c4.1,4.1,8.2,7.7,11.7,11.8c2.2,2.5,3.8,5.6,5.2,8.6
	c0.8,1.6,0.7,3.8,0.7,5.7c0.1,11.1,0,22.3,0,33.4c0,0.4,0,0.9,0,1.3c-0.2,2.8-1.8,4.6-4.1,4.6c-2.3-0.1-3.8-1.9-4-4.7
	c-0.1-1.7,0-3.3,0-5c0-10.2,0.1-20.4-0.1-30.5c0-2-0.5-4.4-1.8-5.8c-3.3-3.8-7.2-7.1-11.1-10.8c0,0.9-0.1,1.8-0.1,2.7
	c0,15.8,0,31.6,0,47.4c0,1,0,1.9-0.1,2.9c-0.2,2.3-1.8,3.9-3.8,3.9c-2,0-3.7-1.6-4-3.8c-0.1-0.8-0.1-1.6-0.1-2.4
	c0-16.1,0-32.3,0-48.4c0-10.2,4.5-17.4,13.9-21.5c6.8-3,13.6-6.1,20.4-9c2.6-1.1,3.6-2.8,3.7-5.7c0.1-3.3-0.5-5.8-3.1-8.3
	c-6.5-6.1-9.2-14.1-9.6-22.9c-0.1-1-0.8-1.9-1.2-2.9c-0.9-1.7-2.4-3.3-2.6-5c-0.9-9.2-0.6-18.3,4.6-26.4
	c6.5-10.4,16.1-15.9,28.4-16.3c6.7-0.2,13.5-0.5,20,1.9c13.2,4.8,22.2,17.3,22.4,31.4c0,2.7-0.8,5.1-2.7,7.2
	c-0.8,0.8-1.3,2.2-1.4,3.3c-0.6,5.3-0.6,10.7-1.6,15.9c-1.2,6.2-4.9,11.2-9.5,15.4c-3.2,3-2.2,10.4,1.9,12.2
	c7,3.2,14.1,6.3,21.1,9.4c9,4,13.3,11,13.4,20.7c0,16.4,0,32.8,0,49.2c0,0.9,0,1.8-0.2,2.6c-0.5,2-1.9,3.3-3.9,3.2
	c-2.2-0.1-3.6-1.4-3.8-3.6c-0.1-1-0.1-1.9-0.1-2.9c0-15.8,0-31.6,0-47.4C200.9,181.4,200.9,180.5,200.9,179.1z M120.6,105.7
	c2.3-1.5,4.2-2.8,6.1-4c2-1.2,4.2-0.9,5.4,0.8c1.2,1.7,1.1,4-0.6,5.4c-1.5,1.3-3.1,2.6-4.9,3.4c-1.6,0.8-2,1.8-1.9,3.5
	c0.6,12,8.1,21.5,20.1,24.2c17,3.9,34.1-10.2,30.6-31.3c-6-0.3-11.9-0.2-17.8-0.9c-8.4-1-15.8-4.3-22.1-10.1
	c-2.3-2.1-2.6-4.4-0.9-6.2c1.7-1.9,3.8-1.7,6.3,0.3c1.6,1.3,3.3,2.7,5.1,3.7c10.6,6.1,22,6,33.6,3.9c0.1-0.4,0.3-0.6,0.3-0.9
	c0.4-10.3-7.1-21-16.9-24.2c-6.7-2.2-13.5-1.8-20.3-1.2c-4.4,0.4-8.3,2.1-11.8,4.8C121.1,84,119.4,94,120.6,105.7z M150,167.7
	c4.7-4.8,9.2-9.2,13.7-13.8c0.4-0.4,0.7-1.1,0.6-1.6c-0.5-2.3-1.2-4.6-1.9-7c-8.3,3.2-16.7,3.1-24.8,0.1c-0.6,2.4-1.3,4.4-1.7,6.6
	c-0.1,0.7,0.2,1.7,0.7,2.2C140.9,158.6,145.3,163,150,167.7z M43.8,182.2c-3.2,1.6-6.1,3.1-9,4.6c-2.8,1.4-5.6,2.8-8.9,4.5
	c2.8,2.8,5.3,5.3,7.9,7.8c4.3,4.1,6.5,8.9,6.2,15c-0.2,5.8,0,11.6-0.1,17.4c0,3.1-1.5,4.9-4,4.9c-2.4,0-3.9-1.9-3.9-4.9
	c0-5.8-0.1-11.6,0-17.4c0.1-3.7-1.1-6.6-3.8-9.1c-1.6-1.5-3-3.2-5.2-4.6c0,0.9,0,1.8,0,2.6c0,9.6,0,19.1,0,28.7
	c0,3.6-2.9,5.8-5.6,4.1c-1.1-0.7-2.2-2.3-2.2-3.5c-0.1-12-0.3-24,0.1-36c0.2-6.1,3.9-10.6,9.4-13.3c4.1-2.1,8.1-4.1,12.2-6.1
	c2.5-1.2,3.4-3,3.6-5.8c0.3-4.7-0.7-8.2-4.6-11.6c-5.5-4.8-8-11.6-8.1-19.1c-0.1-4.8-0.1-9.7,0.5-14.4c1-7.6,5-13.5,11-18.2
	c1.1-0.9,1.8-1.6,1.4-3.2c-1.3-6.5,1.5-13.2,7.1-16.9c5.5-3.7,12.9-3.8,18.3,0c5.9,4.1,8.2,9.9,7.2,16.9c-0.2,1.4,0,2.2,1.1,3
	c7.5,5.7,11.6,13.2,11.8,22.7c0.2,7.4,1,15.1-2.9,21.8c-2.1,3.6-5.3,6.7-7.8,10.1c-0.8,1.1-1.4,2.4-1.8,3.7
	c-0.2,0.7,0.1,1.6-0.1,2.4c-0.6,4.7,1,7.9,5.6,9.6c2.7,1,3.4,3.4,2.4,5.5c-1,2.1-3.2,2.7-5.8,1.6c-1.8-0.8-3.4-1.7-5.3-2.7
	c-2.9,2.9-5.9,5.8-8.8,8.9c-0.6,0.6-0.7,1.9-0.7,2.9c0,11.9,0,23.9,0,35.8c0,1,0,1.9-0.1,2.9c-0.2,2.2-1.6,3.3-3.6,3.5
	c-2,0.2-3.4-0.9-4-2.8c-0.3-0.9-0.2-1.9-0.2-2.9c0-12.2,0-24.4-0.1-36.6c0-1.2-0.6-2.7-1.5-3.6C49.1,187.5,46.3,184.9,43.8,182.2z
	 M36,138.9c-0.3,11.9,8.8,21.5,20.8,21.8c11.3,0.3,21.1-8.6,21.4-18.9c-5.3-0.4-10.8-0.1-15.7-1.5c-5.1-1.4-9.6-4.6-14.7-7.2
	c-1.4,0.9-3.3,2.2-5.3,3.2C40.5,137.2,38.3,137.9,36,138.9z M36.3,130.2c0.8-0.3,1.6-0.4,2.2-0.8c2.4-1.6,4.8-3.2,7-5
	c2.6-2,4.4-2,6.7,0.3c0.5,0.5,1,1,1.4,1.5c6.6,6.7,17.1,9.3,24.7,6c0.9-11.8-8.4-21.9-20.7-22.4C46.3,109.4,36,119,36.3,130.2z
	 M48.3,168.3c0,1.8,0,4.2,0,6.5c0,0.5,0.4,1.1,0.8,1.6c2.6,2.7,5.2,5.4,8,8.4c3-3,5.7-5.8,8.5-8.7c0.3-0.3,0.6-0.9,0.6-1.4
	c-0.1-2.3-0.3-4.6-0.5-6.4C59.9,168.3,54.3,168.3,48.3,168.3z M65.7,102.2c0.2-3.9-1.5-7-4.9-8.5c-3.3-1.5-6.5-1.1-9.3,1.3
	c-2.3,2-3.3,4.5-2.9,7.2C54.5,102.2,60,102.2,65.7,102.2z"/>
</svg>
