<?xml version="1.0" encoding="utf-8"?>
<!-- Generator: Adobe Illustrator 28.0.0, SVG Export Plug-In . SVG Version: 6.00 Build 0)  -->
<svg version="1.1" id="Layer_1" xmlns="http://www.w3.org/2000/svg" xmlns:xlink="http://www.w3.org/1999/xlink" x="0px" y="0px"
	 viewBox="0 0 300 300" style="enable-background:new 0 0 300 300;" xml:space="preserve">
<style type="text/css">
	.st0{fill:#FFFFFF;}
</style>
<path class="st0" d="M149.8,118.1c0.2,0.5,0.4,0.8,0.6,1.2c10.7,15.6,21.4,31.2,32.1,46.8c6,8.7,12,17.5,17.9,26.2
	c0.6,0.8,1.3,1.3,2.2,1.5c6.4,1.1,12.1,3.9,17.5,7.3c4.7,3,9.9,4.5,15.6,4.5c4.6,0,9.1,0.2,13.4-1.7c2.4-1.1,4.9-2.2,7.1-3.6
	c5.9-3.7,12.3-6,19.1-7.1c2.1-0.3,4.4-0.4,6.5-0.2c3.3,0.2,5.8,3.1,5.7,6.3c-0.1,3.3-2.8,6.1-6.1,6.1c-6.9-0.1-13.1,1.9-18.9,5.5
	c-5.2,3.3-10.8,5.8-16.9,6.8c-9.9,1.6-19.5,0.5-28.5-4.1c-2-1-3.9-2.3-5.9-3.4c-11.8-6.4-23.6-6.8-35.2,0.1c-4.8,2.8-9.6,5.3-15,6.7
	c-5.8,1.5-11.6,1.7-17.5,1c-6.3-0.8-12.2-2.9-17.6-6.3c-4.5-2.9-9.3-5.1-14.7-5.8c-8.2-1.1-16,0-23.1,4.6c-5,3.2-10.2,5.7-16,7
	c-5.3,1.2-10.6,1.2-16,0.6c-6.3-0.7-12.2-2.8-17.7-6.2c-4.5-2.9-9.3-5.2-14.6-6c-1.9-0.3-3.8-0.2-5.7-0.3c-3.2-0.1-5.8-2.9-5.9-6
	c-0.1-3.4,2.6-6.3,6-6.4c1.9-0.1,3.8,0.2,5.8,0.1c0.9,0,1.9-0.2,2.6-0.6c18.7-11,37.5-22.1,56.2-33.1c7.3-4.3,14.6-8.6,21.9-12.9
	c1-0.6,1.2-1,0.6-2.1c-3.9-6.9-7.8-13.7-11.6-20.7c-7-12.7-2.2-28.9,11.6-35.4c7.9-3.7,15.8-7.5,23.7-11.2
	c13-6.1,25.9-12.3,38.9-18.4c9.5-4.5,19.1-9,28.6-13.5c11.4-5.4,24.3,0.5,29,10c4.9,9.7,2.2,23.3-9.3,29.5
	c-7.3,3.8-14.7,7.5-22.1,11.2c-8.8,4.4-17.6,8.8-26.4,13.2c-5.7,2.8-11.4,5.7-17.1,8.6C150.5,117.7,150.2,117.8,149.8,118.1z
	 M186.2,193.4c-0.5-0.8-0.9-1.3-1.2-1.9c-11.4-16.6-22.8-33.2-34.2-49.8c-3.7-5.4-7.5-10.9-11.2-16.3c-1.6-2.4-2.6-5.2-2.3-8.2
	c0.6-4.8,3.1-8.3,7.5-10.5c14.3-7.1,28.6-14.3,42.9-21.5c7.5-3.7,15-7.5,22.4-11.2c4.1-2.1,5.8-5.2,5.6-9.2c-0.2-4.5-2.8-7.7-6.8-9
	c-3-1-5.7-0.2-8.4,1.1c-4.6,2.2-9.1,4.3-13.6,6.5c-15.5,7.4-31.1,14.7-46.6,22.1c-9.8,4.6-19.6,9.2-29.4,13.8
	c-7.7,3.6-9.8,12.3-5.9,19c3.6,6.1,7.1,12.3,10.6,18.5c1.4,2.4,2.7,4.8,2.9,7.6c0.3,5.4-2,9.4-6.7,12.2
	c-8.8,5.2-17.6,10.4-26.4,15.5c-14.7,8.6-29.4,17.2-44.1,25.9c-0.2,0.1-0.4,0.3-0.7,0.6c0.5,0.3,1,0.5,1.4,0.8
	c0.5,0.3,1,0.5,1.4,0.9c7.6,5.3,16.2,6.1,25.1,5c4.9-0.6,9.2-2.8,13.3-5.5c5.2-3.4,11-5.6,17.1-6.4c11.3-1.7,22.1,0.2,31.6,6.6
	c7.8,5.2,16.2,6.3,25.1,5.4c4.6-0.5,8.9-2.4,12.8-5c4.6-3,9.5-5.2,14.9-6.3C184.3,194,185.1,193.7,186.2,193.4z M17.8,231.7
	c-3.8,0.4-6.2,4-5.2,7.6c0.8,2.8,3,4.5,6.2,4.6c6.8,0.1,13,2,18.8,5.7c9.5,6.1,19.8,8.4,31,6.8c6.4-0.9,12.4-2.9,17.8-6.4
	c1.6-1,3.2-2,4.9-2.8c5-2.6,10.3-3.3,15.8-3.1c3.8,0.1,7.7,0.4,11.2,2.1c2.7,1.3,5.4,2.8,8,4.3c8.2,4.8,17.1,7,26.6,6.4
	c2.7-0.2,5.4-0.7,8-1.3c5-1.1,9.6-3.3,13.9-6c4.5-2.8,9.4-4.7,14.8-5.2c8.2-0.8,15.9,0.7,22.9,5.1c4.9,3.1,10.2,5.3,16,6.4
	c5.4,1.1,10.8,1.4,16.3,0.4c6.5-1.2,12.5-3.4,18.2-6.9c2-1.2,4.1-2.2,6.2-3.2c3.9-1.8,8-1.9,12.2-2.2c4.7-0.2,7.4-4.4,5.6-8.7
	c-1-2.4-3.1-3.6-6.3-3.6c-8.4-0.1-16,2.2-23.2,6.5c-2.5,1.5-5,2.9-7.7,3.9c-5.5,2.2-11.3,2.7-17.2,1.9c-5.4-0.7-10.2-2.9-14.8-5.6
	c-10.7-6.5-22.2-8.1-34.3-5.7c-5.6,1.1-10.7,3.4-15.5,6.5c-7.1,4.7-15,5.8-23.3,4.9c-5.2-0.6-9.9-2.7-14.3-5.5
	c-5.3-3.4-11.1-5.7-17.4-6.5c-6-0.7-12-0.8-17.8,0.6c-5.4,1.3-10.3,3.6-14.9,6.6c-7.2,4.7-15.2,5.8-23.6,4.7
	c-5-0.7-9.4-2.6-13.6-5.4c-6.9-4.4-14.4-6.9-22.7-6.9C19.6,231.7,18.7,231.6,17.8,231.7z M281.3,141.4
	c-0.1,23.6-18.4,44.7-44.6,44.7c-25.8,0-45-20.5-44.7-45.3c0.3-24.3,19.8-44.2,45-44C262.7,97,281.2,117.8,281.3,141.4z
	 M204.4,141.1c-0.5,17.4,13.6,32,31.1,32.6c16.8,0.6,33.1-12.5,33.3-32.2c0.1-17.9-14.4-31.8-31-32.3
	C218.9,108.6,204.3,123.8,204.4,141.1z"/>
</svg>
