<?xml version="1.0" encoding="UTF-8"?>
<svg id="Layer_1" data-name="Layer 1" xmlns="http://www.w3.org/2000/svg" version="1.1" viewBox="0 0 300 300">
  <defs>
    <style>
      .cls-1 {
        fill: #fff;
        stroke-width: 0px;
      }
    </style>
  </defs>
  <path class="cls-1" d="M22.4,245.7c.7-4.2,1.2-8.4,2-12.5,3.2-14.9,10-27.8,23.3-36,16.6-10.2,34-12.4,51.9-3.3,9.6,4.9,16.1,13.1,21.4,22.4.4.8.9,1.6,1.4,2.6.8-.3,1.5-.5,2.3-.9,4.5-2,9-4,13.4-6.1,4.4-2.2,8.9-3.2,13.6-1.1,11.8-15.9,27.7-23.3,47.1-22.3,20.3,1,32.9,13.3,41.9,30.4,5.6-2.5,11.1-5,16.6-7.5,3.3-1.5,6.6-2.3,10.1-1.4,5.6,1.4,9.6,5.9,10.2,11.6.7,5.5-2.2,11.1-7.4,13.5-7.6,3.6-15.4,7-23.1,10.5-1.5.7-3,1.4-4.5,2-5.6,2.6-10.8,1.8-15.5-2.3-.3-.3-.6-.5-1.3-1,0,3.6,0,6.7,0,9.8,0,4.2,0,8.3,0,12.5,0,3-1.7,5-4.1,4.9-2.4,0-3.9-1.8-3.9-4.8,0-10.6,0-21.3,0-31.9,0-2,.6-3.6,2.6-4.4,2-.8,3.5,0,4.9,1.5,2.2,2.3,4.5,4.7,6.8,7,2.5,2.5,4.2,2.9,7.4,1.5,8.8-3.9,17.5-7.9,26.3-11.9,3.6-1.6,4.9-4.6,3.5-7.6-1.3-2.9-4.4-3.8-7.9-2.3-6.6,2.9-13.1,6-19.7,8.9-3.8,1.7-5.5,1-7.2-2.8-5.2-11.2-12.3-20.7-24.2-25.5-17.5-7.1-41.1.3-51.3,16-.4.7-.5,1.9-.3,2.7,2.5,7.4,0,13.8-6.7,17.5-.8.5-1.7,1.6-1.8,2.5-.6,5.1-1,10.2-1.3,15.4-.1,2.9,1.7,4.8,4.3,5.2,2.5.3,4.6-1,5.4-3.7,2.9-9,5.7-18,8.5-27,.2-.6.4-1.3.6-1.9.8-1.8,2.2-2.7,4.2-2.5,2.1.3,3.5,1.6,3.5,3.6,0,13.6,0,27.2,0,40.9,0,2.3-2.1,3.9-4.2,3.8-2.2-.1-3.7-1.7-3.8-4.2,0-4.1,0-8.2-.5-12.4-.3.9-.6,1.8-.9,2.7-2.1,6.1-8.1,9.8-14.2,8.8-6.6-1.1-11.1-6.2-11.2-12.9,0-4.3,0-8.6,0-13.1-1.4.6-3.2,1.4-5,2.2-3.1,1.4-6.3,2.7-9.3,4.2-6.6,3.4-12.7,3.2-18.5-2.4,0,1-.2,1.7-.2,2.4,0,6.6,0,13.1,0,19.7,0,2.2-.6,4-2.8,4.8-2.5.9-5.2-.8-5.2-3.7,0-11.2-.1-22.4,0-33.6,0-1.2,1.4-3,2.6-3.4,1.2-.4,3.2.1,4.2,1,2.7,2.3,5.1,5,7.6,7.6,1.8,1.8,3.9,2.6,6.3,1.5,9.3-4.2,18.6-8.4,27.9-12.6,2.9-1.4,4-4.4,2.7-7.1-1.3-2.7-4.2-3.8-7.1-2.7-.6.2-1.2.5-1.8.8-6,2.7-12.1,5.5-18.1,8.2-4.5,2-5.9,1.5-7.9-3-3.6-8-8.5-15.1-15.6-20.3-12.3-9.1-25.7-9.4-39.5-4.4-16,5.9-24.8,18.2-28.3,34.3-1.3,6.1-1.6,12.5-2,18.8-.3,3.4,1.4,5.3,4.2,5.8,2.7.4,4.7-1,5.7-4.3,2.8-8.9,5.6-17.7,8.4-26.6.3-1,.6-2.3,1.4-2.8,1.1-.8,2.9-1.6,3.9-1.1,1.3.5,2.5,2.1,2.9,3.5.5,1.6.1,3.5.1,5.2,0,11.1,0,22.3,0,33.4,0,.8,0,1.7-.1,2.5-.5,2.1-1.8,3.3-4,3.4-2.1,0-3.8-1.6-3.8-3.8-.1-4.2,0-8.4-.5-12.8-.3.7-.6,1.4-.8,2.1-2,6-6.8,9.5-12.6,9.5-6,0-10.6-3.6-12.5-9.6,0-.3-.3-.6-.5-.8,0-3.5,0-7,0-10.5Z"/>
  <path class="cls-1" d="M164.5,58.3c0,16.4-13.4,29.8-29.8,29.8-16.3,0-29.9-13.5-29.9-29.8,0-16.4,13.5-30,30-29.9,16.4,0,29.7,13.5,29.7,29.9ZM156.4,58.3c0-12-10-21.9-21.9-21.8-11.9,0-21.6,9.9-21.6,21.8,0,12,9.9,21.9,21.9,21.8,11.9-.1,21.7-9.9,21.7-21.8Z"/>
  <path class="cls-1" d="M105.2,151.3c0,16.5-13.3,29.7-29.8,29.7-16.5,0-29.8-13.3-29.8-29.8,0-16.5,13.5-30,30-29.9,16.5.1,29.7,13.4,29.7,29.9ZM53.7,151.2c0,12,9.6,21.7,21.6,21.8,12.1,0,21.9-9.6,21.9-21.7,0-12-9.6-21.7-21.6-21.8-12.2,0-21.9,9.5-21.9,21.7Z"/>
  <path class="cls-1" d="M193.6,181c-16.5,0-29.8-13.3-29.8-29.8,0-16.4,13.2-29.8,29.7-29.9,16.6,0,30,13.3,29.9,29.9,0,16.5-13.3,29.7-29.8,29.7ZM171.8,151.2c0,12,9.6,21.7,21.6,21.8,12.1,0,21.9-9.6,21.9-21.7,0-12-9.6-21.7-21.6-21.8-12.2,0-21.9,9.6-21.9,21.7Z"/>
  <path class="cls-1" d="M221.6,44.3c0,.9,0,1.8,0,2.7,0,10.5,0,21.1,0,31.6,0,11-6.1,17.1-17.1,17.1-.7,0-1.5,0-2.2,0-7.1,0-10.7-3.6-10.7-10.7,0-1.9,0-3.8.1-5.7.6-7.5,6.8-13.3,14.4-13.5,2.3,0,4.6,0,7.2,0,0-1.1.2-1.9.2-2.8,0-7.4,0-14.8,0-22.2,0-5,3.9-8.1,8.4-6.9,1.2.3,2.4,1.1,3.4,2,3.8,3.7,7.6,7.5,11.3,11.2,2.1,2.1,2.2,4.4.6,6.2-1.7,1.8-4.1,1.6-6.3-.5-2.9-2.9-5.7-5.8-8.6-8.7l-.7.2ZM213.4,73.7c-2.4,0-4.5,0-6.5,0-4.2.1-7,2.8-7.1,7,0,2.2.4,4.3.6,6.5,3,0,6.1.2,9-.4,2.3-.5,3.8-2.6,4-5.2.2-2.5,0-5.1,0-8Z"/>
  <path class="cls-1" d="M131.1,164.5c0-8.5,0-16.6,0-24.7,0-4.6,3.1-7.7,7.3-7.2,1.5.2,3.1.9,4.2,1.9,4.1,3.8,8,7.8,11.8,11.8,1.9,2,2,4.3.3,6-1.7,1.7-4,1.7-6-.3-2.5-2.4-4.9-4.9-7.4-7.4-.6-.6-1.2-1.1-2.2-2,0,1.4,0,2.3,0,3.2,0,10.8.2,21.6.2,32.4,0,8.2-4.4,14.4-11.7,15.8-3.6.7-7.5.6-11.1.2-3.9-.4-6.9-4-7.2-8.1-.2-2.8-.2-5.7.1-8.4,1-7.7,7.1-12.9,14.9-13.1,2.1,0,4.3,0,6.8,0ZM131,172.6c-2.3,0-4.2,0-6.1,0-4.9.1-7.5,2.7-7.7,7.6,0,1.5-.1,3,0,4.5,0,.6.8,1.7,1.3,1.7,2.5.1,5,.2,7.4-.2,2.7-.5,4.8-3,4.9-5.6.1-2.5,0-5.1,0-8Z"/>
  <path class="cls-1" d="M67.3,65.7c0-1.8,0-3.4,0-4.9,0-6.6,0-13.3,0-19.9,0-3.1,1.2-5.5,4.2-6.7,2.9-1.2,5.5-.5,7.7,1.8,3.7,3.8,7.5,7.5,11.3,11.3,2.1,2.1,2.2,4.4.5,6.1-1.7,1.7-4.1,1.5-6.2-.5-2.4-2.4-4.8-4.8-7.2-7.2-.6-.6-1.2-1.1-2.2-2,0,1.4,0,2.3,0,3.2,0,10.8.1,21.6.1,32.4,0,8.8-4.8,15-12.8,16.2-3,.5-6.1.4-9.2.1-4.2-.4-7.6-3.8-8-8-.3-3.3-.3-6.7.3-9.9,1.1-6.8,7.1-11.7,14-11.9,2.4,0,4.8,0,7.4,0ZM67.2,73.9c-11.3-1.2-14.3,1.3-13.8,11.2,0,.2,0,.6,0,.7.5.6,1.1,1.6,1.7,1.7,2.1.2,4.2.2,6.2,0,3.3-.4,5.7-3,5.8-6.2.1-2.4,0-4.8,0-7.3Z"/>
  <path class="cls-1" d="M134.6,94.2c16.7,0,30.6,13.3,31.3,29.9.1,3.2-1.4,5.2-3.9,5.3-2.4,0-3.9-1.6-4.2-4.8,0-.6-.1-1.2-.2-1.7-.9-7.6-4.6-13.4-11.2-17.3-14.9-8.9-34,1.3-34.9,18.7,0,.4,0,.8,0,1.2-.3,2.5-2.1,4.1-4.3,4-2.2-.1-3.8-1.9-3.7-4.4,0-7.3,2.5-13.8,7.1-19.5,5.8-7.2,14.8-11.3,24-11.3Z"/>
  <path class="cls-1" d="M135.3,51.7c1.2,0,2.5,0,3.7,0,4.1.2,7.3,2.6,8.6,6.5,1.2,3.7.2,7.6-2.8,10.2-5.5,4.9-13.8,5-19.4.2-3.1-2.7-4.2-6.6-3-10.3,1.3-3.9,4.6-6.3,8.8-6.5,1.3,0,2.7,0,4,0,0,0,0,0,0,0ZM135.1,64.4c1.5-.7,2.9-1.2,4.3-2,.4-.2.6-1.2.5-1.7,0-.4-.8-.9-1.3-.9-2.3,0-4.6-.1-7,0-.5,0-1.3.6-1.4,1-.1.5.3,1.4.7,1.6,1.3.7,2.6,1.2,4.2,1.9Z"/>
  <path class="cls-1" d="M76.1,144.4c1.8.2,3.7.1,5.4.5,3.7.8,6,3.1,7,6.7,1,3.6,0,6.9-2.7,9.5-5.6,5.2-14.7,5.2-20.1-.2-2.8-2.7-3.7-6.1-2.4-9.8,1.3-3.9,4.3-6,8.3-6.5,1.5-.2,3,0,4.5,0,0,0,0-.1,0-.2ZM75.8,152.6h0c-1,0-2-.1-3,0-.7.1-1.3.8-2,1.2.4.6.7,1.5,1.3,1.9,2.2,1.7,5.2,1.7,7.4,0,.6-.4,1.2-1.4,1.1-1.9-.1-.5-1.1-1-1.8-1.2-1-.2-2,0-3,0Z"/>
  <path class="cls-1" d="M194.1,144.4c2,.2,4,.1,5.9.6,7,1.8,9.4,10.5,4.4,15.7-5.4,5.7-15.4,5.8-20.8,0-2.7-2.8-3.5-6.2-2.1-9.9,1.4-3.8,4.3-5.8,8.3-6.2,1.4-.1,2.8,0,4.2,0,0,0,0-.2,0-.2ZM194,157.4c1.5-.7,3-1.2,4.3-2,.4-.2.6-1.2.5-1.7,0-.4-.8-.9-1.2-1-2.3,0-4.6,0-6.9,0-.5,0-1.3.6-1.4,1.1-.1.5.3,1.4.7,1.6,1.2.7,2.6,1.3,4.1,2Z"/>
</svg>