<?xml version="1.0" encoding="UTF-8"?>
<svg id="Layer_1" data-name="Layer 1" xmlns="http://www.w3.org/2000/svg" version="1.1" viewBox="0 0 300 300">
  <defs>
    <style>
      .cls-1 {
        fill: #fff;
        stroke-width: 0px;
      }
    </style>
  </defs>
  <path class="cls-1" d="M146.4,271.5c-32.8,0-65.7,0-98.5,0-16.6,0-29.7-10.2-33.5-25.8-.6-2.6-.9-5.4-.9-8.1-.1-5.9,0-11.8,0-17.7,0-6.1,2.7-9.4,8.7-10.7,9.3-2.1,15.6-8.5,17.1-17.6,1.8-10.6-5-21-15.4-23.8-1.1-.3-2.2-.4-3.3-.7-4-1.2-6.8-3.9-6.9-8-.3-8.2-.8-16.6.3-24.7,2.2-17.1,15-28.3,32.2-29.3.6,0,1.2,0,1.8,0,65.7,0,131.4,0,197,0,15.7,0,28.2,8.8,32.8,23,1,3,1.5,6.1,1.6,9.2.3,6,.1,12,.1,18,0,7.9-2,10.4-9.7,12.4-8.3,2.1-13.8,7.4-15.8,15.7-2,8.2.3,15.5,6.8,20.8,2.9,2.3,6.7,3.9,10.3,4.9,5.5,1.6,8.4,4.6,8.3,10.4,0,7.6.6,15.3-.4,22.8-2.2,17.2-15.9,28.9-33.3,29.1-13.5.1-27,0-40.6,0-19.6,0-39.2,0-58.9,0ZM23.4,157.5c3.3,1.2,6.5,2,9.5,3.5,11.5,5.7,17.6,18.1,15.9,31.9-1.6,12.6-10.5,22.6-23,25.4-2.2.5-2.7,1.3-2.7,3.4.2,5.4,0,10.8.1,16.2,0,2.3.4,4.7,1,6.9,3.1,10.6,12.2,16.9,24.3,16.9,65.3,0,130.5,0,195.8,0,1,0,2,0,3,0,10.7-.6,20.1-8,21.6-18.6,1.1-7.9.2-16.1.2-24.3,0,0-.4-.2-.6-.2-15-3.3-24.3-14.5-24.6-29.5-.2-15.5,8.8-27.3,23.7-30.9,1.9-.4,2.2-1.2,2.2-2.9,0-5.9,0-11.8-.2-17.7-.1-2.6-.7-5.3-1.6-7.7-3.7-9.7-12.3-15.1-23.8-15.1-65.2,0-130.3,0-195.5,0-.9,0-1.8,0-2.7,0-11.9.8-21.2,8.9-22.5,20.6-.8,7.3-.1,14.8-.1,22Z"/>
  <path class="cls-1" d="M241.9,28.4c14.7.5,27.7,10,31.6,24.1,4.7,17.6,8.8,35.4,13.1,53.2.7,3-.9,5.5-3.6,6.1-2.8.7-5.1-.9-6-4.2-3.5-14.2-6.9-28.4-10.4-42.6-.6-2.6-1.2-5.1-1.9-7.7-3.4-13.7-15.8-21.3-29.6-17.9-50,12.1-100,24.3-150,36.4-14,3.4-28,6.8-42,10.2-7.7,1.9-13.3,6.2-16.8,13.3-1.7,3.5-4.2,4.7-7,3.3-2.7-1.3-3.4-4.1-1.7-7.6,4.6-9.5,12-15.7,22.3-18.3,40.8-10,81.6-19.9,122.5-29.8,23.2-5.6,46.3-11.3,69.5-16.9,3.2-.8,6.6-1.2,9.9-1.7Z"/>
  <path class="cls-1" d="M118.4,180.1c0,13.7-.5,27,.1,40.3.7,13.7-11.2,19.6-20.6,19.1-5.7-.3-10.8-2.1-14.7-6.3-5.8-6.2-5.4-14.8,1.1-20.2,6.5-5.3,13.9-6.8,22-4.2.7.2,1.3.4,2.2.8,0-5.2,0-10.2,0-15.1,0-10.8,0-21.6,0-32.3,0-5.6,2.2-8.5,7.5-9.9,17.9-4.9,35.8-9.8,53.8-14.6,6.7-1.8,11.8,2.1,11.8,9.1,0,20.5,0,41.1,0,61.6,0,11.4-5.1,17.3-16.3,18.9-5.7.9-11.2-.2-16-3.4-9-5.9-9.1-17.9-.2-24,7-4.7,14.5-5.4,22.6-2.3v-32c-17.8,4.8-35.5,9.6-53.4,14.5ZM118.5,169.8c1.1-.3,2.1-.5,3-.7,14.7-4,29.3-7.9,44-11.9,7-1.9,7-1.9,6.4-9.3,0,0,0-.2-.3-.6-17.7,4.8-35.4,9.6-53.1,14.4v8.1ZM98.7,216.8c-2.5,1-5.1,1.5-7.3,2.9-3.1,2-3,5.6,0,7.9,3.6,2.9,11.3,2.9,14.9,0,3-2.4,3-6.1-.3-8.1-2.1-1.3-4.6-1.7-7.2-2.7ZM162,218.4c2.5-.8,4.9-1.2,6.8-2.2,3.9-2.1,3.9-6.3.3-8.8-3.7-2.5-10.6-2.4-14.1.2-3.2,2.3-3.3,6.2,0,8.2,2.1,1.3,4.6,1.8,6.9,2.6Z"/>
  <path class="cls-1" d="M221.3,245.2c0,2.6-2.2,5-4.7,5-2.5,0-4.7-2.1-4.8-4.6-.2-2.6,2-5,4.6-5.1,2.6-.1,4.9,2.1,5,4.7Z"/>
  <path class="cls-1" d="M221.3,157.4c0,2.6-2.4,4.9-4.9,4.8-2.5,0-4.8-2.5-4.6-5.1.1-2.5,2.2-4.6,4.7-4.6,2.6,0,4.9,2.2,4.8,4.8Z"/>
  <path class="cls-1" d="M216.6,191.5c-2.5,0-4.8-2.3-4.8-4.9,0-2.5,2-4.7,4.5-4.8,2.6-.1,4.9,2,5,4.7,0,2.6-2.2,5-4.7,5Z"/>
  <path class="cls-1" d="M216.6,220.8c-2.6,0-4.8-2.2-4.9-4.8,0-2.5,2-4.7,4.5-4.8,2.6-.1,4.9,2,5,4.7.1,2.6-2.1,5-4.7,5Z"/>
  <path class="cls-1" d="M216.5,132.9c-2.5,0-4.8-2.4-4.8-4.9,0-2.7,2.3-4.8,4.9-4.7,2.5,0,4.6,2.2,4.6,4.7,0,2.6-2.3,5-4.8,4.9Z"/>
</svg>