<?xml version="1.0" encoding="utf-8"?>
<!-- Generator: Adobe Illustrator 28.0.0, SVG Export Plug-In . SVG Version: 6.00 Build 0)  -->
<svg version="1.1" id="Layer_1" xmlns="http://www.w3.org/2000/svg" xmlns:xlink="http://www.w3.org/1999/xlink" x="0px" y="0px"
	 viewBox="0 0 300 300" style="enable-background:new 0 0 300 300;" xml:space="preserve">
<style type="text/css">
	.st0{fill:#FFFFFF;}
</style>
<path class="st0" d="M237.6,261.1c-4.8,0-9.7-0.1-14.5,0c-3.5,0.1-5.2-2-5.1-5.2c0.1-3.4-0.1-6.8,0.1-10.3c0.2-3.4-0.5-6.5-1.5-9.6
	c-3.5-11-6.9-22-10.4-33c-0.8-2.4-1.5-4.8-2.2-7.2c-0.3-1-0.8-1.6-1.8-2.1c-6.4-2.6-12.8-5.2-19.2-7.9c-5.4-2.2-10.9-4.4-16.2-6.7
	c-0.9-0.4-1.3-0.2-1.7,0.7c-2.8,5.6-5.6,11.2-8.6,16.6c-3.6,6.5-9.2,10.5-16.3,12.5c-5.4,1.5-10.7,0.9-15.9-0.8
	c-5.4-1.8-10.7-3.5-16.1-5.3c-5.8-1.9-11.5-3.8-17.3-5.8c-1-0.4-1.5-0.1-2.1,0.6c-2.9,3.8-6.8,6-11.5,6.7c-1.5,0.2-3.2,0.1-4.7-0.1
	c-3-0.4-5.8-1.4-8.5-2.8c-1.5-0.8-2.2-2.6-1.7-4.4c0.5-1.8,1.2-3.5,1.8-5.3c2.8-7.7,5.5-15.4,8.3-23.1c0.2-0.7,0.6-1.3,1-1.9
	c1.1-1.8,2.8-2.4,4.8-1.7c11.2,3.8,22.4,7.7,33.7,11.5c5.8,2,11.7,4,17.5,5.9c1.3,0.4,1.3,0.3,1.9-0.9c2.7-5.9,5.4-11.7,8.1-17.6
	c5.7-12.3,11.5-24.6,17.2-36.9c3-6.4,5.9-12.8,8.9-19.1c1.5-3.1,0.6-6-2.6-7.4c-3-1.4-6.1-2.7-9.1-4.1c-0.7-0.3-1.2-0.2-1.8,0.3
	c-7.9,6.8-15.7,13.5-23.6,20.2c-3.6,3.1-7.6,4.2-12.2,3.1c-6.7-1.7-11.5-8.8-9.1-16.2c0.8-2.5,2.1-4.7,4.1-6.4
	c8.4-7.2,16.7-14.4,25.1-21.5c3.7-3.1,8-5.1,12.8-5.6c5.4-0.6,10.6,0,15.6,2.4c6.4,3,12.9,5.9,19.4,8.7c3.3,1.4,5.4,3.9,6,7.3
	c0.2,1.3,0,2.8-0.3,4.1c-0.7,3-0.3,5.8,0.9,8.5c1.7,4.1,6.5,5.4,10.6,2.9c1.7-1,3.2-2.4,4.5-3.9c1.8-2.1,3.6-3.9,6.5-4.5
	c2.1-0.4,4,0.1,5.9,1c5.4,2.4,10.8,4.9,16.2,7.3c3.2,1.4,2.2,1.6,4.9-0.8c7-6.4,14-12.9,21.1-19.3c2.5-2.3,5.5-3.8,9-3.8
	c4.8,0.1,8.6,2.3,11.2,6.4c3,4.9,2.3,11.1-1.8,15.5c-2,2.2-4.3,4.2-6.5,6.2c-5.5,5.1-10.9,10.1-16.4,15.1c-2.7,2.5-5.7,4.7-9.1,6
	c-4.3,1.7-8.9,2.5-13.5,1.6c-2.9-0.6-5.7-1.6-8.4-2.7c-2.8-1.1-5.4-2.4-8.1-3.6c-0.6-0.3-1.4-0.5-2.1-0.6c-3.2-0.4-4.6,0.3-6,3.2
	c-4.7,10-9.3,20.1-14,30.1c-0.7,1.6-0.7,1.6,0.9,2.3c5.7,2.4,11.4,4.6,17,7.1c6.1,2.7,10.6,7.1,13.3,13.2c1.3,3.1,2.2,6.3,3.2,9.5
	c2.2,7,4.4,14.1,6.6,21.1c2.1,6.8,4.2,13.6,6.3,20.4c0.4,1.1,0.6,2.3,1.1,3.4c0.1,0.4,0.6,0.8,1,0.9c2.4,0.9,4.8,1.8,6.7,3.6
	c3.8,3.3,6,7.3,6.2,12.4c0.1,1.9,0.1,3.9,0,5.8c-0.1,2.2-1.9,3.8-4.1,3.8C247.9,261.1,242.8,261.1,237.6,261.1
	C237.6,261.1,237.6,261.1,237.6,261.1z M186.5,156.1c0.3-0.6,0.6-1.1,0.9-1.7c2-4.2,3.9-8.4,5.9-12.6c2.8-6.1,5.7-12.1,8.5-18.2
	c0.9-1.9,2.1-3.5,3.7-4.8c3.6-2.9,7.7-3.3,12-2.4c0.7,0.2,1,0,1.4-0.7c1.1-2.3,2.2-4.6,3.4-6.9c0.3-0.6,0.2-0.9-0.4-1.1
	c-1.7-0.8-3.3-1.6-5-2.3c-1-0.4-2.1-1.3-3-1.1s-1.5,1.5-2.2,2.3c-2.9,3.3-6.4,5.9-10.8,6.9c-7.3,1.7-13.8-1.3-17.1-8
	c-2.3-4.6-3-9.5-1.6-14.6c0.1-0.5,0.2-0.9-0.4-1.2c-3.1-1.4-6.1-2.8-9.2-4.2c-0.5-0.2-0.8,0-1,0.5c-0.9,2-1.9,4.1-2.8,6.1
	c-0.8,1.8-0.8,1.8,0.7,3.1c4.8,3.9,6.3,9.8,3.8,15.5c-1.9,4.4-4,8.8-6.1,13.2c-6.8,14.6-13.6,29.1-20.4,43.7
	c-1.6,3.3-3.1,6.6-4.7,9.9c-0.2,0.5-0.4,0.9,0.3,1.2c3.5,1.4,7,2.8,10.4,4.3c1,0.4,1.3,0.1,1.7-0.7c0.9-1.8,1.8-3.6,2.8-5.4
	c0.9-1.8,1.9-3.5,2.8-5.3c0.6-1,1.5-1.7,2.7-1.7c1.3,0.1,2.7,0.4,4,0.9c8.2,3.4,16.4,6.8,24.7,10.2c1.1,0.4,2.2,0.8,3.4,1.3
	c1.6-3.9,3.1-7.7,4.6-11.6c-0.2-0.1-0.3-0.2-0.5-0.3c-4.4-1.9-8.9-3.8-13.3-5.6c-5.9-2.5-11.9-4.9-17.8-7.3c-0.7-0.3-1.4-0.8-2-1.2
	c-1.3-1-1.8-2.6-1.3-4.2c0.6-1.6,1.6-2.7,3.3-2.6c1.2,0,2.5,0.2,3.6,0.7C176.5,151.8,181.4,153.9,186.5,156.1z M234.8,235
	c-0.1-0.3-0.1-0.6-0.1-0.8c-1.7-5.3-3.4-10.6-5.1-16c-2.1-6.7-4.2-13.5-6.3-20.2c-1.5-4.6-2.9-9.3-4.5-13.8
	c-1.8-4.9-5.5-8-10.3-10.1c-1.2-0.5-1.5-0.5-2,0.8c-1.3,3.2-2.5,6.5-3.8,9.7c-0.2,0.5-0.1,0.7,0.4,0.9c0.9,0.4,1.7,0.8,2.6,1.1
	c3.1,1.2,4.9,3.4,5.8,6.6c1.1,3.5,2.2,7,3.3,10.6c1.7,5.4,3.4,10.7,5,16.1c1.5,4.7,3,9.4,4.4,14.1c0.2,0.8,0.6,1.1,1.5,1.1
	c2-0.1,4,0,6,0C232.8,235,233.8,235,234.8,235z M95.9,180.1c-1.1,3-2.2,6-3.3,9c0.2,0.1,0.5,0.2,0.7,0.3c10.4,3.5,20.8,7,31.3,10.4
	c2.9,1,5.8,1.9,9,1.9c7.4-0.2,12.6-3.7,16.2-10.1c0.4-0.7,0.2-1.2-0.5-1.5c-1.3-0.6-2.7-1.1-4-1.7c-2.3-0.9-4.6-1.9-6.9-2.8
	c-0.2,0.4-0.4,0.7-0.6,1c-1.9,3.3-5.2,5-9,4.3c-1.6-0.3-3.1-0.9-4.6-1.4c-4.8-1.6-9.7-3.2-14.5-4.8
	C105,183.2,100.5,181.7,95.9,180.1z M164.6,81.8c-3.4-1.6-6.6-3.1-10.4-3.2c-5.1-0.2-9.6,1.1-13.5,4.5c-7.6,6.6-15.3,13.1-23,19.7
	c-0.9,0.8-1.7,1.7-2.3,2.6c-1.7,2.8,0.1,6.3,3.3,6.8c1.6,0.2,2.9-0.1,4.1-1.2c5.4-4.6,10.8-9.2,16.1-13.8c3.1-2.6,6.1-5.2,9.2-7.7
	c1.8-1.4,4-1.9,6.2-1.3c1.9,0.5,3.8,1.3,6,2.1C161.7,87.6,163.1,84.8,164.6,81.8z M225.9,120c0.9,0.4,1.7,0.7,2.4,1.1
	c3.8,1.8,7.9,2.6,12.1,1.9c3.9-0.6,7.2-2.7,10.1-5.3c6.8-6.2,13.5-12.5,20.3-18.8c0.9-0.8,1.8-1.7,2.6-2.7c1.3-1.7,1.2-4.5-0.1-5.9
	c-1.9-2-4.1-2.4-6.2-0.9c-1.8,1.3-3.3,2.8-4.9,4.2c-6.2,5.7-12.4,11.5-18.7,17.2c-1.1,1-2.5,1.9-3.9,2.3c-2.2,0.7-4.4,0.3-6.5-0.7
	c-1-0.5-2.1-0.8-3.1-1.2C228.6,114.3,227.2,117.1,225.9,120z M79.1,174.2c0,0.1-0.1,0.2-0.2,0.3c-1.8,4.9-3.5,9.8-5.3,14.7
	c-0.7,1.9-1.4,3.8-2,5.7c-0.2,0.5-0.3,1.1,0.5,1.3c5.1,1,9.1-0.9,11.2-5.4c0.7-1.7,1.3-3.4,1.9-5.1c1-2.7,1.9-5.4,2.9-8.1
	C85.1,176.4,82.1,175.3,79.1,174.2z M226.3,252.8c7.3,0,14.4,0,21.6,0c1,0,1.2-0.4,1.1-1.3c-0.4-4.6-4.2-8.2-8.8-8.3
	c-3.7-0.1-7.5,0-11.2,0c-0.9,0-1.8,0-2.7,0C226.3,246.4,226.3,249.6,226.3,252.8z M235,55.2c0,3.8,0.1,7.5,0,11.3
	c-0.2,5.6-2.5,10.4-6.5,14.4c-3.4,3.4-7.6,5.7-12.5,6.2c-13.5,1.6-24.3-8.6-24.8-21c-0.1-4-0.3-8.1,0.2-12.1c0.9-6.9,5-11.6,11.7-14
	c2.3-0.8,4.7-1.1,7.1-1.1c6.3,0,12.6,0,19,0c0.4,0,0.9,0,1.4,0c2.5,0.1,4.3,1.7,4.4,4.2C235.1,47.1,235,51.1,235,55.2
	C235,55.2,235,55.2,235,55.2z M226.7,47.2c-0.5,0-0.9,0-1.2,0c-5.6,0-11.2,0-16.8,0c-4.8,0-8.8,3.4-9.1,8.1c-0.3,3.8-0.3,7.6,0,11.4
	c0.8,9.3,10.1,14.6,18.5,11.4c5.5-2.1,8.5-6.3,8.6-12.2c0.1-5.6,0-11.2,0-16.8C226.7,48.5,226.7,47.9,226.7,47.2z M79.5,132.6
	c-18.5,0-37,0-55.5,0c-0.9,0-1.9,0-2.8,0c-2.7,0.1-4.4,2.6-3.6,5.2c0.6,1.9,2.3,3.1,4.6,3.1c38.1,0,76.2,0,114.3,0
	c0.2,0,0.4,0,0.5,0c2.8-0.1,4.7-2.5,4.2-5.3c-0.4-1.9-1.8-3-4-3C118,132.6,98.8,132.6,79.5,132.6L79.5,132.6z M92.9,158.7
	c11.5,0,22.9,0,34.4,0c0.6,0,1.2,0,1.8-0.2c2-0.4,3.5-2.3,3.5-4.2c0-1.9-1.6-3.6-3.7-3.9c-0.8-0.1-1.5-0.2-2.3-0.2
	c-22.7,0-45.4,0-68.1,0c-0.8,0-1.5,0.1-2.3,0.2c-1.6,0.3-3,1.8-3.3,3.6c-0.2,1.2,0.8,3.3,2.2,3.8c1.1,0.5,2.4,0.8,3.6,0.8
	C70.1,158.7,81.5,158.7,92.9,158.7C92.9,158.7,92.9,158.7,92.9,158.7z M75.1,123c5.6,0,11.2,0,16.8,0c0.5,0,1,0,1.4-0.1
	c2.2-0.3,3.6-2,3.6-4.1c-0.1-2.1-1.7-3.8-3.7-4c-0.7-0.1-1.4-0.1-2.2-0.1c-10.8,0-21.7,0-32.5,0c-0.7,0-1.4,0.1-2.1,0.2
	c-2.5,0.4-4,3.4-2.9,5.6c1,2,2.7,2.6,4.8,2.6C63.8,123,69.5,123,75.1,123L75.1,123z M86.2,96.9c-2.4,0-4.9-0.1-7.3,0
	c-2,0.1-3.6,2.1-3.6,4.1c0,1.9,1.6,3.7,3.5,4c0.8,0.1,1.7,0.2,2.5,0.2c3.3,0,6.7,0,10.1,0c0.8,0,1.6-0.1,2.4-0.2
	c1.7-0.3,3.1-2.1,3.2-3.8c0.1-2.5-1.6-4.3-4.3-4.4c-2.1-0.1-4.2,0-6.3,0C86.2,96.8,86.2,96.9,86.2,96.9z M34.8,114.6
	c-1.6,0.1-3.2,0.1-4.9,0.2c-2.1,0.2-3.6,2-3.6,4c0,2,1.6,4,3.7,4.1c3.2,0.1,6.5,0.1,9.7,0c2.1-0.1,3.6-1.9,3.6-4
	c0-2.2-1.4-3.9-3.6-4.1c-1.6-0.1-3.2,0-4.9,0C34.8,114.7,34.8,114.6,34.8,114.6z"/>
</svg>
