<?xml version="1.0" encoding="UTF-8"?>
<svg id="Layer_1" data-name="Layer 1" xmlns="http://www.w3.org/2000/svg" version="1.1" viewBox="0 0 300 300">
  <defs>
    <style>
      .cls-1 {
        fill: #fff;
        stroke-width: 0px;
      }
    </style>
  </defs>
  <path class="cls-1" d="M283.3,62.4c-2.1,7.5-4.2,15-6.3,22.5-3.5,12.4-6,25.2-10.5,37.3-13.1,35.3-38.3,57.8-74.7,67.6-2.1.6-2.6,1.4-2.7,3.4-1.7,37.2-18,66.1-48.7,87-2.7,1.8-5.5,2.7-8.6,3h-1c-5.2-.5-10.4-.7-15.5-1.5-21.8-3.3-40.3-13.3-56-28.7-15.4-15-24.9-33.3-30.1-54.1-3.7-14.8-7.8-29.5-11.8-44.2-1.4-5.2-.9-6.4,3.8-9.1,27.8-15.7,57.3-26.7,88.6-32.9.5,0,1-.2,1-.2,0-5.4,0-10.6,0-15.8,0-11.6,3-22.6,6-33.7,3.7-13.5,7.2-26.9,10.8-40.4,1.4-5.2,2.5-6.1,8.1-6,51,.6,98.7,13.4,143.1,38.5,1.7,1,3.1,2.7,4.6,4v3.1ZM179.1,189.5c-.5-4.8-.6-10.7-2-16.3-4.4-18-9.3-35.9-13.9-53.8-.4-1.6-1.3-1.5-2.5-1.5-9.9.7-19.8,1.1-29.6,2.3-35.9,4.3-69.6,15.4-101.3,32.7-1.5.8-1.8,1.6-1.3,3.2,4.1,15.1,8.1,30.3,12.2,45.4,11.2,41.1,47.4,70.1,89.1,71.3,1.5,0,3.3-.4,4.6-1.3,29-19.2,43.4-46.5,44.8-82.1ZM188.9,179.7c.7-.2,1.5-.3,2.2-.5,33-9.7,55.6-30.6,66.5-63.2,5.5-16.4,9.2-33.4,13.8-50.1.5-2,.2-2.8-1.6-3.8-40.5-21.9-83.6-33.6-130.7-34.8-2.2,0-3.1.5-3.7,2.7-3.1,12.2-6.4,24.3-9.7,36.4-3.1,11.3-5.9,22.7-5.5,34.5.1,3.3.3,6.5.5,9.8.7,0,1,0,1.2,0,14.1-2.2,28.3-3.2,42.5-3.2,1.8,0,3.9.9,5.3,2.1,1.1.9,1.9,1.4,3.3,1.4,7.7-.4,15,1.4,21.7,5.3,10.2,5.8,17.2,14.2,20.1,25.7.7,2.9-.8,5.5-3.6,6.3-2.5.8-5.2-.6-6.3-3.3-.4-1.1-.7-2.3-1.2-3.4-4.7-12.4-18-21.2-30.1-19.9,4.5,19.4,11.2,38.2,14.3,58.2Z"/>
  <path class="cls-1" d="M108.6,232.1c-10.2-.2-19.7-3.8-27.7-11.4-2.8-2.6-3.1-5.7-.9-8,2.2-2.3,5.2-2.1,8,.4,17.8,15.9,44,8.8,51.5-13.9,1.2-3.6,3.8-5.3,6.8-4.3,3.1,1,4.2,3.7,3.1,7.4-5.1,17.5-21.5,29.7-40.9,29.7Z"/>
  <path class="cls-1" d="M140.8,161.2c6.1,0,11.3,2.1,15.8,6.2,2.5,2.3,2.8,5.4.8,7.6-2,2.3-4.9,2.4-7.6.2-8.2-6.6-17.5-4.1-21.4,5.8-1.2,3.1-3.9,4.5-6.8,3.5-2.7-.9-3.9-3.7-3.1-6.8,2.6-9.6,12-16.6,22.4-16.6Z"/>
  <path class="cls-1" d="M80.2,177.4c6.1,0,11.4,2,15.8,6.2,2.7,2.4,2.9,5.5.8,7.8-2.1,2.3-4.9,2.3-7.6,0-8-6.5-17.5-4-21.3,5.8-1.2,3.2-3.8,4.6-6.7,3.7-2.8-.9-4.1-3.7-3.2-7,2.8-9.6,11.9-16.4,22.2-16.5Z"/>
  <path class="cls-1" d="M227.3,107.1c-10.7,0-19.9-6.7-22.8-16.2-1-3.5.1-6.2,3.1-7.2,3-1,5.5.4,6.8,3.9,3.6,9.5,13.2,12.1,21.2,5.6,2.7-2.2,5.6-2.2,7.6,0,2.1,2.3,1.9,5.3-.8,7.8-4.4,4.1-9.6,6-15.1,6.2Z"/>
  <path class="cls-1" d="M166.9,90.9c-10.7,0-19.9-6.6-22.8-16.2-1-3.5,0-6.2,3.1-7.2,2.9-1,5.5.4,6.8,3.9,3.6,9.5,13.2,12.1,21.2,5.6,2.7-2.2,5.6-2.2,7.7,0,2.1,2.3,1.9,5.3-.8,7.8-4.4,4.1-9.6,6-15.1,6.2Z"/>
</svg>