<?xml version="1.0" encoding="UTF-8"?>
<svg id="Layer_1" data-name="Layer 1" xmlns="http://www.w3.org/2000/svg" version="1.1" viewBox="0 0 300 300">
  <defs>
    <style>
      .cls-1 {
        fill: #fff;
        stroke-width: 0px;
      }
    </style>
  </defs>
  <path class="cls-1" d="M20.4,154.2c1.2-2.4,3.3-3.3,5.8-3.9,46.2-10.9,85.1-34.1,116.9-69.3,1.4-1.6,1.9-3.1,1.9-5.2,0-16.3,0-32.6,0-48.9,0-5.8,3.7-8,8.7-5.1,10.6,6.1,21,12.5,31.8,18.2,5.7,3.1,5.5,8.3,0,11.2-9.7,5.1-19,10.9-28.5,16.3-1.4.8-1.7,1.8-2,3.3-1.2,6.5,2.2,10.6,6.3,14.9,31,32.3,68.1,53.9,111.7,64.4.8.2,1.6.4,2.5.6,2.5.7,4.1,2.5,4.2,4.8.1,2.3-1.3,4.2-3.8,5.1-.4.1-.8.2-1.2.4v88.1c4.3,1.7,5,2.7,5,7.3,0,5.8,0,11.6,0,17.5,0,4-1.5,5.4-5.5,5.4-82.6,0-165.2,0-247.8,0-2.8,0-4.7-.6-6-3.1,0-7.8,0-15.5,0-23.3,1.5-1.4,3.1-2.8,4.9-4.6v-86.4c-2-1.9-3.5-3.3-4.9-4.7,0-1,0-2,0-3ZM155.5,94.4c-.3,0-.6.1-.9.2.5,7,.2,14.2,1.5,21,9.7,52,34,96.2,72.4,132.6.8.8,2.2,1.2,3.3,1.2,10.1,0,20.2,0,30.4,0,.7,0,1.3,0,2,0v-91c-42.2-11.4-78.4-32.8-108.8-64.1ZM35.7,158.5v91c11.2,0,22.3,0,33.3,0,.9,0,2-.8,2.7-1.5,37.2-35.3,60.9-78.1,71.5-128.3,1.8-8.3,1.7-16.6,1.5-25.6-15.2,15.9-31.9,29-50.3,40-18.5,10.9-38.1,19-58.8,24.6ZM269.4,259.6h-3.2c-24.2,0-48.4,0-72.7,0-6.7,0-13.3,0-20,0-2.2,0-4-.7-5.1-2.7-2-3.6.6-7.4,5.1-7.5,12.8,0,25.7,0,38.5,0,.9,0,1.7,0,3.2,0-31.9-32.3-53.3-69.9-65.3-113.1-11.9,43.3-33.4,80.8-65.2,113.1,10.4,0,20.1,0,29.7,0,4.2,0,8.4,0,12.7,0,3,0,5,2.1,5.1,4.9,0,2.8-1.9,4.9-4.8,5.2-.8,0-1.7,0-2.5,0-30.5,0-60.9,0-91.4,0h-2.9v10h238.7v-10ZM174.6,45.7c-6.7-3.9-12.9-7.4-19.4-11.2v22.4c6.5-3.8,12.8-7.4,19.4-11.2Z"/>
  <path class="cls-1" d="M63.3,72.6c0-6.4,0-12.4,0-18.3,0-5.4,3-7.3,8.1-5.5,7.4,2.7,13.7,6.9,18.5,13.1,2.1,2.7,2,5.8-.3,7.6-2.4,1.9-5.2,1.3-7.6-1.2-2.5-2.6-5.2-5.1-7.8-7.6-.3.2-.5.4-.8.5,0,.9,0,1.8,0,2.7,0,8.8,0,17.5,0,26.3-.1,9.3-5.9,17-14.5,19.5-8.5,2.5-17.5-.7-22.5-7.9-5.1-7.4-4.7-17.2.9-24.3,5.5-6.9,15.1-9.4,23.3-6.1.8.3,1.5.6,2.7,1.1ZM43,90.4c0,5.6,4.6,10.1,10.2,10.1,5.5,0,10.1-4.7,10.2-10.2,0-5.7-4.6-10.2-10.4-10.1-5.6,0-10,4.6-10,10.2Z"/>
  <path class="cls-1" d="M242.2,45.2c0-5.7,0-11.2,0-16.6,0-1,0-2,0-3,.3-3.6,3.3-5.8,6.7-4.6,7.9,2.6,14.6,6.9,19.8,13.4,2.3,2.9,2.2,5.9-.2,7.8-2.4,2-5.1,1.3-7.7-1.5-2.4-2.6-5.1-4.9-7.7-7.4-.3.2-.5.3-.8.5,0,.8,0,1.6,0,2.4,0,8.9,0,17.7,0,26.6,0,10.9-8,19.4-18.9,20.4-10,.9-19.4-6.4-21.3-16.6-1.4-7.7,1-14.2,7-19.2,6-5,12.9-5.9,20.2-3.3.9.3,1.7.7,2.8,1.2ZM232,52.8c-5.7,0-10.1,4.4-10.2,10,0,5.7,4.6,10.3,10.2,10.3,5.5,0,10.1-4.7,10.1-10.2,0-5.6-4.5-10.1-10.1-10.1Z"/>
  <path class="cls-1" d="M150,259.6c-2.8,0-5.1-2.4-5.1-5.2,0-2.7,2.3-4.9,5-4.9,2.8,0,5.1,2.4,5.1,5.1,0,2.7-2.3,4.9-5,4.9Z"/>
</svg>