<?xml version="1.0" encoding="UTF-8"?>
<svg id="Layer_1" data-name="Layer 1" xmlns="http://www.w3.org/2000/svg" version="1.1" viewBox="0 0 300 300">
  <defs>
    <style>
      .cls-1 {
        fill: #fff;
        stroke-width: 0px;
      }
    </style>
  </defs>
  <path class="cls-1" d="M274.3,219.9c-1.3,5-2.9,9.8-6.2,14-7.9,10.1-21.8,13.9-33.8,9.1-11.9-4.8-19.5-17.3-18.1-29.8,1.4-13.2,11.4-23.8,24.2-25.9,6.7-1.1,13,.1,19.2,3.3v-59.6c-29.3,8.3-58.6,16.6-88.2,24.9,0,.9,0,1.9,0,2.8,0,28.7,0,57.4,0,86.2,0,16.7-13.5,29.7-30.3,29.3-14.5-.4-26.9-12.5-27.9-27-1-14.9,9.5-28.3,23.9-30.8,6.3-1.1,12.2-.2,17.9,2.5.5.2,1,.4,1.8.8v-2.9c0-31.2,0-62.5,0-93.7,0-5.8,1.5-7.8,7-9.4,33-9.4,66.1-18.7,99.1-28,6.1-1.7,8.2-.9,11.4,4.4v130.6ZM171.5,140.9c29.6-8.4,58.9-16.7,88.2-25v-14c-29.5,8.3-58.8,16.6-88.2,24.9v14ZM245.3,230.6c8,0,14.5-6.6,14.5-14.6,0-8-6.5-14.5-14.5-14.5-8.1,0-14.7,6.6-14.6,14.7,0,8,6.7,14.5,14.6,14.4ZM142.3,230.6c-8,0-14.6,6.5-14.6,14.5,0,8,6.4,14.6,14.4,14.7,8.1,0,14.7-6.5,14.7-14.6,0-8-6.5-14.5-14.5-14.5Z"/>
  <path class="cls-1" d="M78.6,25.7c1.9,1.9,4.2,3.5,5.7,5.7,7.5,11.6,15.5,22.9,26.1,32.1,5.6,4.9,11.5,9.5,17.2,14.1,12,9.8,17.1,22.3,13.5,37.4-3.5,14.9-13.4,23.9-28.3,27.4-2,.5-4.2.6-6.3.7-4.7.1-8-2.9-8.1-7.2,0-4.2,3.1-7.2,7.7-7.4,7.6-.3,13.7-3.6,17.9-10,6.4-9.7,4.1-22.3-5.3-29.4-10.9-8.2-21.3-16.9-30.2-27.2-1.4-1.6-2.8-3.3-4.6-5.4,0,1.5,0,2.3,0,3.1,0,37.4,0,74.9,0,112.3,0,16.8-13.5,29.8-30.2,29.3-14.5-.4-26.9-12.3-28-26.9-1.1-14.9,9.5-28.5,24.1-30.9,6.8-1.1,13.2,0,19.6,3.4v-3.1c0-36.2,0-72.5,0-108.7,0-4.4,1.3-7.7,5.4-9.5,1.3,0,2.6,0,3.9,0ZM54.9,157.8c-8,0-14.6,6.5-14.6,14.5,0,8,6.4,14.6,14.4,14.7,8.1,0,14.7-6.5,14.7-14.6,0-8-6.5-14.5-14.5-14.5Z"/>
</svg>