<?xml version="1.0" encoding="utf-8"?>
<!-- Generator: Adobe Illustrator 28.0.0, SVG Export Plug-In . SVG Version: 6.00 Build 0)  -->
<svg version="1.1" id="Layer_1" xmlns="http://www.w3.org/2000/svg" xmlns:xlink="http://www.w3.org/1999/xlink" x="0px" y="0px"
	 viewBox="0 0 300 300" style="enable-background:new 0 0 300 300;" xml:space="preserve">
<style type="text/css">
	.st0{fill:#FFFFFF;}
</style>
<path class="st0" d="M52.3,127.8c0-1.4,0-2.5,0-3.6c0-27.7,0-55.5,0-83.2c0-5.2,1.2-6.4,6.3-6.4c60.9,0,121.9,0,182.8,0
	c5,0,6.2,1.2,6.2,6.2c0,17.6,0,35.1,0,52.7c0,1,0,2,0,3.3c4.3,0,8.3,0,12.3,0c3.9,0,5.4,1.5,5.4,5.3c0,47.2,0,94.3,0,141.5
	c0,12.1-9.8,21.9-21.9,21.9c-62.3,0-124.7,0-187,0c-12.1,0-21.9-9.8-21.9-21.9c0-36.8,0-73.6,0-110.4c0-3.8,1.5-5.3,5.4-5.3
	C44,127.8,48,127.8,52.3,127.8z M224.4,256.5c-1-3.1-2.3-5.8-2.7-8.6c-0.6-4.1-0.7-8.3-0.7-12.4c-0.1-37.6,0-75.3,0-112.9
	c0-1.2,0-2.3,0-3.6c-15.6,0-30.7,0-45.9,0.1c-0.8,0-1.8,0.8-2.5,1.4c-4.7,4.6-9.3,9.2-13.9,13.9c-1.6,1.7-3.5,2.4-5.9,2.4
	c-35.3-0.1-70.7-0.1-106-0.1c-1.1,0-2.2,0-3.4,0c0,1.3,0,2.3,0,3.3c0,33.7,0,67.3,0,101c0,10.3,5.2,15.5,15.5,15.5
	c54.3,0,108.6,0,162.9,0C222.8,256.5,223.8,256.5,224.4,256.5z M238.7,43.7c-59.3,0-118.3,0-177.3,0c0,28.1,0,56.1,0,84
	c0.4,0.1,0.6,0.1,0.8,0.1c29.6,0,59.2,0,88.8,0c1,0,2.3-0.7,3-1.4c4.6-4.5,9.2-9.1,13.7-13.7c1.7-1.8,3.6-2.6,6.1-2.6
	c16.6,0.1,33.3,0,49.9,0c5,0,6.2,1.2,6.2,6.2c0,36.8,0,73.6,0,110.4c0,1.1,0,2.1,0,3.1c3.2,0,5.9,0,8.8,0
	C238.7,167.7,238.7,105.8,238.7,43.7z M247.7,105.7c0,1.3,0,2.4,0,3.5c0,41.2,0,82.5,0,123.7c0,4.4-1.4,5.8-5.7,5.8
	c-3.9,0-7.9,0-12,0c0,2-0.1,3.6,0,5.3c0.7,8.4,8.4,14,16.5,12c6.3-1.5,10.1-6.8,10.1-14.1c0-44.6,0-89.1,0-133.7c0-0.8,0-1.6,0-2.5
	C253.5,105.7,250.8,105.7,247.7,105.7z M158.7,180.8c9.3,1.3,13.4,6.2,13.5,15.2c0,11.1,0,22.2,0,33.3c0,8.3-5.6,13.9-13.9,13.9
	c-17.4,0-34.8,0-52.2,0c-8.2,0-13.8-5.6-13.8-13.7c0-11.4,0-22.8,0-34.1c0-8.3,4.7-13.5,13.3-14.4c0-2.8,0-5.6,0-8.5
	c0.1-14.1,10.6-25.9,24.1-26.9c14.6-1.1,27,8.7,29,23.1C159.2,172.7,158.7,176.9,158.7,180.8z M132,234.3c8.5,0,17,0,25.5,0
	c4.3,0,5.9-1.6,5.9-5.9c0-10.9,0-21.8,0-32.7c0-4.3-1.6-5.9-5.9-5.9c-16.8,0-33.6,0-50.4,0c-4.3,0-5.9,1.6-5.9,5.8
	c0,10.9,0,21.8,0,32.7c0,4.3,1.6,5.9,5.9,5.9C115.3,234.4,123.6,234.3,132,234.3z M150,181c0-3.4,0.2-6.5,0-9.6
	c-0.6-9-7.1-15.8-16.1-16.9c-7.9-0.9-16.3,4.4-18.3,12.5c-1.1,4.4-0.9,9.2-1.4,14C126.4,181,138,181,150,181z M118.9,86.8
	c5.1,3.3,9.2,7.7,11.4,13.5c1.1,3,1.7,6.4,1.9,9.7c0.2,3-1.7,4.5-4.7,4.5c-14.5,0-29,0-43.5,0c-3.2,0-4.8-1.7-4.8-5.1
	c0-8.3,4-14.6,9.8-19.9c1.1-1,2.3-1.8,3.6-2.8c-3.7-4.4-5.4-9.5-4.4-15.2c0.7-4.3,2.8-8,6.3-10.8c6.6-5.4,16.2-5.3,22.7,0.2
	C124.6,67.1,125.2,75.8,118.9,86.8z M88.8,105.5c11.3,0,22.4,0,33.6,0c-1.3-7.3-8.8-13.1-16.8-13.1C97.7,92.3,90.2,98.2,88.8,105.5z
	 M105.6,83.4c4.8,0,8.9-4.2,8.8-8.9c0-4.7-4.2-8.9-8.9-8.8c-4.8,0-8.8,4.1-8.8,8.9C96.7,79.3,100.9,83.4,105.6,83.4z M168.6,65.7
	c-3.4,0-5.2,1.6-5.3,4.3c-0.1,2.9,1.8,4.5,5.3,4.6c15.7,0,31.4,0,47.1,0c3.4,0,5.2-1.6,5.3-4.3c0.1-2.9-1.9-4.5-5.3-4.5
	c-7.8,0-15.7,0-23.5,0C184.3,65.7,176.5,65.7,168.6,65.7z M215.6,96.7c3.5,0,5.4-1.6,5.4-4.5c0-2.8-1.9-4.4-5.5-4.4
	c-15.6,0-31.2,0-46.8,0c-3.5,0-5.4,1.6-5.4,4.5c0,2.8,1.9,4.4,5.5,4.4c7.8,0,15.5,0,23.3,0C199.9,96.7,207.8,96.7,215.6,96.7z
	 M124.8,211.6c-0.9-0.9-1.8-1.9-2.8-2.7c-2-1.7-4.5-1.6-6.2,0.1c-1.6,1.6-1.9,4.2-0.2,6c2.9,3.1,5.9,6.1,8.9,9.1
	c2,1.9,4.3,2,6.2,0.2c6.2-6,12.4-12.1,18.4-18.4c1.6-1.7,1.3-4-0.4-5.8s-3.8-1.8-5.8-0.4c-0.8,0.5-1.4,1.2-2,1.9
	c-4.3,4.3-8.6,8.6-13.2,13.2C126.5,213.5,125.7,212.6,124.8,211.6z"/>
</svg>
