<?xml version="1.0" encoding="UTF-8"?>
<svg id="Layer_1" data-name="Layer 1" xmlns="http://www.w3.org/2000/svg" version="1.1" viewBox="0 0 300 300">
  <defs>
    <style>
      .cls-1 {
        fill: #15244c;
        stroke-width: 0px;
      }
    </style>
  </defs>
  <path class="cls-1" d="M128.1,57.8v-10.4c-.2-9.4,6.1-17.5,13.8-20.6,11.5-4.6,24,1.4,28.3,12.3,1.1,2.7,1.5,5.5,1.5,8.4v9.5c0,.6.1,1,.8,1.2,16.5,5.2,29.6,15.1,39.6,29.2,4.7,6.7,8.1,14,10.4,21.9,2,7.1,3.1,14.4,3.1,21.8v24.7c0,5.6.3,11.1,1.4,16.6,1,4.5,1.7,9.1,3,13.6,2.7,9.6,6.8,18.7,12,27.3,4.3,7,9.2,13.5,14.8,19.4.7.7,1.3,1.5,1.8,2.4,2.4,4.4-.4,9.9-5.4,10.5-1.3.2-2.5.1-3.8.1h-62.9c-.7,0-.9.2-1.1.9-2.8,11.1-9.2,19.3-19.4,24.5-4.2,2.2-8.7,3.3-13.4,3.7-17.2,1.4-33.2-9.9-37.9-26.4,0-.4-.3-.8-.4-1.2q-.4-1.5-2-1.5H47.8c-4.2,0-6.9-2.9-7.6-5.9-.5-2.4.3-4.5,1.8-6.3,2.7-3.2,5.5-6.2,8.1-9.5,6.6-8.4,11.8-17.6,15.8-27.5,2.1-5.2,3.9-10.4,5-15.8,1.1-4.9,1.9-9.9,2.5-14.9.4-3.4.5-6.9.5-10.4,0-8.9,0-17.8,0-26.7,0-5.1.8-10.2,2-15.2,3.5-15.2,11.1-28.1,22.5-38.8,7.6-7.1,16.4-12.3,26.2-15.9,1-.4,2-.6,3.2-1h.3ZM236.9,231.1c-.4-.6-.7-1-.9-1.4-6-8.2-10.9-17-14.9-26.3-3.8-9.2-6.6-18.7-8.2-28.5-1.3-7.8-2-15.7-2-23.7v-23c0-3.7-.3-7.3-1.1-10.9-1.8-8.1-5-15.6-9.8-22.4-6.9-9.7-15.8-16.8-26.7-21.4-6.8-2.9-14-4.3-21.3-4.6-7.3-.3-14.4.9-21.3,3.2-10,3.4-18.6,9-25.7,16.7-7.9,8.6-12.9,18.8-15,30.2-.5,2.9-.7,5.8-.8,8.7,0,6.9,0,13.9,0,20.8,0,6.3-.2,12.6-.9,18.9-.5,4.7-1.6,9.3-2.4,13.9-1,5.7-2.8,11.2-4.7,16.5-4.2,11.6-10.1,22.4-17.4,32.4-.2.2-.3.5-.4.8h173.7-.2ZM130.3,245.7c2.6,9.5,12.9,15.5,24,14.3,7.5-.8,16.8-8.5,17.1-14.3h-41.1ZM157.2,54.5v-7.7c0-.9-.2-1.9-.6-2.7-1.6-3.5-5-5-8.9-4-2.4.6-5.2,3.6-5.1,6.7v7.2c0,.2,0,.4.1.5h14.5ZM40.3,130.9c.4,3.1,2.7,5.5,6.1,6.3,2.2.6,5.3-.8,7-3,1.1-1.4,1.3-3.1,1.4-4.8.3-4.5.4-9,1.1-13.5,1.2-8.6,3.7-16.9,7.2-24.9,3.9-8.6,8.8-16.4,15-23.5,1.7-1.9,3.5-3.6,5-5.6,1.8-2.2,2.1-4.7,1-7.3-1-2.5-3-4-5.7-4.3-2.4-.3-4.4.5-6,2.1-3.9,3.8-7.4,7.9-10.6,12.3-8.9,12-15,25.2-18.5,39.7-1.8,7.3-2.6,14.8-3.1,22.4,0,1.3,0,2.7.2,4h-.1ZM258.4,112.7c-1.1-6.7-2.7-13.3-5.1-19.7-3.2-8.9-7.5-17.3-12.9-25.1-3.7-5.4-8-10.4-12.5-15.1-3.5-3.6-8-2.9-10.6-.4-2.7,2.7-2.8,7-.1,10.1,1.3,1.4,2.7,2.8,3.9,4.2,12.1,13.6,19.7,29.4,22.7,47.3.9,5.2,1.1,10.6,1.4,15.9.2,4.1,2.8,6.5,6.5,7.3,2.7.6,6.3-1.7,7.5-4.6.8-1.8.7-3.7.7-5.7-.5-4.7-.8-9.5-1.5-14.2h0Z"/>
</svg>