<?xml version="1.0" encoding="utf-8"?>
<!-- Generator: Adobe Illustrator 28.0.0, SVG Export Plug-In . SVG Version: 6.00 Build 0)  -->
<svg version="1.1" id="Layer_1" xmlns="http://www.w3.org/2000/svg" xmlns:xlink="http://www.w3.org/1999/xlink" x="0px" y="0px"
	 viewBox="0 0 300 300" style="enable-background:new 0 0 300 300;" xml:space="preserve">
<style type="text/css">
	.st0{fill:#FFFFFF;}
</style>
<path class="st0" d="M41.5,114.1c0.3-2.2,0.5-4.3,0.9-6.4c5-27.5,20.1-47.7,46-58.2c29-11.8,56-6.7,79.8,13.7
	c10.1,8.6,16.9,19.6,21.1,32.2c0.6,1.7,1.4,2.4,3.2,2.5c11.1,0.5,21.6,3.3,31.1,9c18,10.6,29.2,26.2,33.4,46.7
	c6.1,30-9.2,61-36.8,74.4c-6.1,3-12.5,5.1-19.2,6.2c-1.2,0.2-2.6,0.8-3.6,1.6c-11.4,8.7-24,15-37.9,18.4c-11.9,2.9-23.9,3.1-36,2.6
	c-11.4-0.4-22.5-2.7-33.1-7c-8-3.2-15.4-7.5-22.4-12.7c-3.4-2.5-6.8-5.1-10.2-7.6c-6.7-5.1-7-12.4-0.9-18.1c7.3-6.7,14.4-13.7,23-19
	c1.9-1.2,3.8-2.3,6-3.6c-0.7-0.4-1.2-0.7-1.8-1c-19.6-9.9-32.8-25.2-39.4-46.1c-1.4-4.5-2-9.4-3-14c-0.1-0.7-0.3-1.4-0.5-2
	C41.5,121.7,41.5,117.9,41.5,114.1z M131.9,249.7c4.9-0.3,9.9-0.4,14.8-0.8c11.6-1.1,22.8-4.3,32.8-10.3c7.6-4.5,14.7-9.9,22-15.1
	c2.9-2.1,3-4.4,0.4-6.8c-2.6-2.4-5.3-4.9-8-7.3c-19.2-17.7-41.8-26.2-68-24.6c-13.6,0.8-26.2,4.9-38.1,11.5
	c-10,5.5-18.1,13.4-26.4,21.1c-2,1.8-1.7,4.1,0.4,5.8c2.4,1.9,4.9,3.6,7.3,5.5c7.4,5.8,15.3,10.8,24.1,14.3
	C105.6,247.9,118.6,249.9,131.9,249.7z M128.8,102.6C115.7,88,109.5,70.7,109,51.3C94.6,53.3,82.3,58.8,72,68
	c15.3,15.3,30.5,30.5,45.7,45.7C121.2,110.2,124.9,106.5,128.8,102.6z M49.4,110.9c19.7,0.5,36.8,6.8,51.2,19.7
	c3.9-3.9,7.6-7.6,11-10.9C96.5,104.5,81.3,89.3,66,74C57,84.3,51.4,96.5,49.4,110.9z M95.4,135.7c-13.2-11.6-28.7-17.1-46.3-17.4
	c-1,16,6.2,35.1,17.2,46.5C75.9,155.1,85.6,145.4,95.4,135.7z M163.1,68.2c-13.5-11.7-29-17.6-46.8-17.3c0.4,17.9,6,33.4,17.6,46.5
	C143.7,87.6,153.3,78,163.1,68.2z M141.2,130.2c4.6,0.7,5.5,4.4,6.8,7.8c1.4,3.6,2.8,7.1,4.3,10.6c0.4,0.9,1.2,1.7,2.1,2.1
	c3.9,1.7,7.8,3.3,11.8,4.7c0.9,0.3,2.2,0.2,3-0.3c5.3-3.4,10.5-6.9,15.7-10.4c0.6-0.4,1.2-1.5,1.2-2.3c0.1-3.7,0-7.3,0.1-11
	c0-1.3-0.4-2.1-1.4-2.8c-5.5-3.8-11-7.7-16.5-11.5c-1.9-1.3-4-2.5-3.8-5.3C156,114.1,145.9,122.1,141.2,130.2z M117.8,178.1
	c-1.9-14.1-7.5-26.4-16.6-36.7c-9.8,9.8-19.5,19.5-29.2,29.2c6.5,5.9,14.1,10.3,22.6,13.3c0.6,0.2,1.5,0,2.2-0.2
	c4.7-1.4,9.3-2.9,13.9-4.2C113,178.9,115.3,178.6,117.8,178.1z M251,168.5c-3,2.4-5.1,1.1-7.3-0.4c-5.5-3.8-11.1-7.4-16.7-11.2
	c-1-0.7-1.8-0.8-2.9-0.2c-2.6,1.3-5.4,2.4-8,3.8c-0.7,0.4-1.5,1.1-1.7,1.9c-2,6.5-3.8,13.1-5.6,19.7c-0.2,0.6,0.1,1.7,0.5,2.2
	c2,2.1,4,4.2,6.1,6.1c0.7,0.7,1.9,1.2,2.9,1.2c6.6,0.1,13.3,0.1,19.9,0c2.5,0,4.8,0.1,5.9,3C248.4,186.4,250.6,178.1,251,168.5z
	 M215.1,110.6c0.1,2.6-1.5,3.8-3.2,5c-5.7,3.9-11.3,7.9-17,11.8c-1,0.7-1.5,1.4-1.5,2.7c0.1,3.7-0.1,7.3,0.1,11c0,0.9,0.7,2,1.4,2.5
	c4.9,3.4,10,6.6,14.9,10.1c1.2,0.8,2.1,0.8,3.3,0.2c2.7-1.3,5.5-2.5,8.2-3.9c0.9-0.5,1.7-1.4,2-2.4c2.1-6.9,4-13.8,5.9-20.7
	c0.6-2,1.4-3.6,3.8-4.1C227.7,117.7,222,113.6,215.1,110.6z M189.6,180.7c3.5,0,6.9,0.1,10.4-0.1c0.6,0,1.6-0.6,1.8-1.1
	c1.8-5.8,3.4-11.6,5-17.4c0.2-0.6-0.2-1.7-0.7-2.1c-5.1-3.5-10.1-6.9-15.3-10.2c-0.5-0.3-1.5-0.3-2,0c-5.1,3.3-10.3,6.7-15.3,10.2
	c-0.5,0.3-0.8,1.4-0.7,2c1.5,5.8,3.2,11.5,4.8,17.3c0.3,1.2,0.9,1.5,2.1,1.5C183,180.7,186.3,180.7,189.6,180.7z M168.6,73.8
	c-9.9,9.6-19.7,19.2-29.7,28.9c3.5,2.5,6.5,4.6,9.4,6.8c1.1,0.9,2,0.8,3.2,0c5.5-3.9,11.5-6.8,18-8.7c4.3-1.2,8.7-2.1,13.1-3.1
	C180.4,90.1,174,79.2,168.6,73.8z M171.6,185.7c0-0.5,0.1-0.8,0-0.9c-2.1-7.2-4.1-14.5-6.3-21.7c-0.2-0.7-1-1.5-1.7-1.8
	c-3.6-1.6-7.3-2.9-10.9-4.4c-1.3-0.6-2.1-0.4-3.1,0.6c-4.4,4.5-9,8.9-13.4,13.5c-2.1,2.2-4.2,3.6-7.4,1.4c0.3,1.9,0.5,3.3,0.7,4.9
	C144.1,176.8,158.1,179.7,171.6,185.7z M210.1,224.2c11.9-4.3,21.3-11.3,28.8-21c0.7-1,0.6-1.7,0.1-2.7c-0.5-0.9-0.9-1.8-2.3-1.7
	c-5.9,0.1-11.9,0-17.8,0.1c-0.8,0-1.9,0.7-2.2,1.3c-2.3,4.3-4.4,8.7-6.5,13c-0.3,0.6-0.5,1.6-0.2,2.1
	C211.2,218.2,211.3,221,210.1,224.2z M250.8,158.9c-0.4-2.2-0.9-5.1-1.6-8c-1.8-7.1-4.9-13.6-9-19.6c-1-1.4-2.1-1.1-3.3-1.1
	c-0.4,0-1.1,0.6-1.2,1.1c-1.8,5.9-3.4,11.9-5.1,17.8c-0.1,0.5,0.2,1.4,0.6,1.7c5.3,3.6,10.6,7.2,16,10.7
	C248.4,162.4,250.9,161.1,250.8,158.9z M106.2,136.1c6.3,7.1,11.3,15.2,14.8,24.5c0.3-0.5,0.5-0.6,0.5-0.7c0.7-8.2,3-16,6.5-23.5
	c0.2-0.4,0.1-1.3-0.2-1.6c-3.3-3.4-6.7-6.8-10-10.1C113.9,128.6,110.1,132.3,106.2,136.1z M189.8,122.1c5.3-3.7,10.6-7.4,15.8-11.1
	c0.6-0.4,1.2-1.2,1.2-1.9c0-1.1-0.5-2.1-1.9-2.3c-4.9-0.6-9.9-1.8-14.8-1.8c-5.2,0-10.3,1.1-15.5,1.9c-0.7,0.1-1.3,1.4-1.8,2.2
	c-0.1,0.3,0.2,1.1,0.6,1.3C178.7,114.4,184.2,118.2,189.8,122.1z M210.7,196c-2.3-2.2-4.4-4.5-6.7-6.6c-0.8-0.7-1.9-1.2-2.9-1.2
	c-7.3-0.1-14.7-0.1-22-0.1c-0.5,0-1,0.1-2.1,0.2c10.6,5.4,19,12.7,27.2,20.6C206.4,204.5,208.5,200.4,210.7,196z M137.1,135.2
	c-0.1,0.1-0.2,0.2-0.3,0.3c-5.1,8.5-7.7,17.8-8.3,27.6c0,0.6,0.9,1.5,1.6,1.8c0.6,0.2,1.6,0,2.1-0.4c4.2-4.1,8.3-8.3,12.4-12.4
	c0.8-0.8,1-1.5,0.5-2.6c-1.5-3.6-3.1-7.3-4.4-11C140.1,136.7,139,135.6,137.1,135.2z M132.1,128.4c3.8-4.3,7.6-8.7,11.4-13.1
	c-3.1-2.4-6.2-4.8-9.1-7.1c-3.9,3.8-7.6,7.6-11.2,11.2C126,122.3,130,125.4,132.1,128.4z M99.4,227.7c4.4,0,3.3-4,3.7-6.9
	c2.4,0,4.6,0,7,0c0.3,2.9-0.7,6.7,3.5,6.9c4.8,0.2,3.6-4,4-6.9c2.4,0,4.7,0,7,0c0.3,2.8-0.7,6.6,3.5,6.9c4.8,0.2,3.6-4,4.1-6.8
	c2.4,0,4.6,0,6.8,0c0.3,2.9-0.6,6.7,3.6,6.8c4.7,0.2,3.6-4,4.1-6.8c2.4,0,4.6,0,6.9,0c0,1.2-0.1,2.2,0,3.1c0.2,2.4,1.7,3.8,3.7,3.8
	c2,0,3.4-1.5,3.6-3.9c0.1-1,0-2.1,0-3.1c3.1-0.2,6.9,0.5,7-3.6c0.1-4.6-4-3.6-6.9-4c-0.6-5.6-1.4-7.2-3.8-7c-4.4,0.4-3.5,4.1-3.9,7
	c-2.3,0-4.5,0-6.8,0c-0.3-2.9,0.5-6.9-3.7-6.9c-4.4-0.1-3.6,4-3.9,6.9c-2.3,0-4.5,0-6.9,0c-0.4-2.8,0.6-6.8-3.6-6.9
	c-4.6-0.1-3.6,4.1-3.9,6.9c-2.4,0-4.6,0-6.9,0c-0.3-2.9,0.7-6.9-3.7-6.9c-4.4,0-3.5,4-3.8,6.9c-2.4,0-4.7,0-7,0
	c-0.6-5.6-1.4-7.2-3.7-7c-4.5,0.4-3.5,4.1-3.7,7c-2.9,0.4-7-0.7-7,3.8c0,4.6,4.1,3.3,7,3.8C95.9,223.7,94.9,227.7,99.4,227.7z"/>
</svg>
