<?xml version="1.0" encoding="utf-8"?>
<!-- Generator: Adobe Illustrator 28.3.0, SVG Export Plug-In . SVG Version: 6.00 Build 0)  -->
<svg version="1.1" id="Layer_1" xmlns="http://www.w3.org/2000/svg" xmlns:xlink="http://www.w3.org/1999/xlink" x="0px" y="0px"
	 viewBox="0 0 300 300" style="enable-background:new 0 0 300 300;" xml:space="preserve">
<style type="text/css">
	.st0{fill:#FFFFFF;}
</style>
<g>
	<path class="st0" d="M116.7,122.7c22.2,0,44.3,0,66.6,0c0-3.4,0-6.6,0-10.3c-3,0-6.1,0-9.2,0c-1.1,0-2.3,0-3.4,0
		c-3.3-0.1-5.4-2.2-5.5-5.1c-0.1-3,2.2-5.3,5.6-5.3c3.4-0.1,6.8,0,10.2,0c0.8,0,1.5-0.1,2.4-0.1c0-3.4,0-6.7,0-10.3
		c-4.1,0-8.2,0.1-12.3-0.1c-1.5-0.1-3.3-0.7-4.4-1.7c-1.6-1.3-1.9-3.3-1.1-5.3c0.9-2.3,2.7-3.4,5.1-3.5c4.2-0.1,8.3,0,12.7,0
		c0-3.5,0-6.8,0-10.5c-4.5,0-8.7,0.1-12.9,0c-2.6-0.1-4.6-1.7-5-4.1c-0.4-2.4,0.4-4.4,2.6-5.5c1-0.5,2.3-0.7,3.5-0.8
		c2.8-0.1,5.7,0,8.9,0c-2.2-4.8-5.1-8.5-8.8-11.6c-0.7-0.6-1.4-1.1-2-1.6c-2.5-2.1-2.8-5.1-1-7.4c1.8-2.3,4.9-2.7,7.5-0.8
		c9.8,7.3,15.6,16.9,17.5,28.9c0.4,2.5,0.5,5,0.5,7.5c0,26.5,0,53,0,79.5c0,22.6-15,40.4-37.3,44.3c-23.3,4.1-47.2-13.5-50.1-37
		c-0.3-2.4-0.5-4.9-0.5-7.3c0-26.7-0.1-53.3,0-80c0-14.9,6.2-26.9,18-36c2-1.5,4.2-1.8,6.3-0.5c2,1.2,2.9,3.2,2.2,5.4
		c-0.5,1.5-1.6,2.9-2.9,3.8c-3.9,3.1-7,6.7-9.4,11.1c-0.2,0.4-0.3,0.8-0.6,1.5c3.1,0,5.9,0,8.8,0c3.8,0,6.2,2.1,6.2,5.2
		c0,3.2-2.3,5.2-6.1,5.3c-3.9,0-7.8,0-11.9,0c0,3.5,0,6.8,0,10.4c3.2,0,6.5,0,9.7,0c1.1,0,2.3-0.1,3.4,0c2.9,0.3,5,2.6,4.9,5.4
		c-0.1,2.7-2.2,4.9-5.1,5c-4.3,0.1-8.5,0-13,0c0,3.5,0,6.8,0,10.5c4.2,0,8.3,0,12.5,0c2.3,0,4.4,0.9,5,3.1c0.4,1.6,0.4,3.8-0.5,5.1
		c-0.9,1.2-3,2.1-4.6,2.2c-4.1,0.3-8.2,0.1-12.4,0.1C116.7,115.9,116.7,119.2,116.7,122.7z M116.7,133.5c0,0.9-0.1,1.6-0.1,2.4
		c0.1,8.4-0.4,16.8,0.6,25c1.9,15.9,16.5,28,32.8,28c16.4,0,31.1-12.1,32.9-28.1c1-8.9,0.4-17.9,0.5-26.9c0-0.1-0.2-0.3-0.3-0.4
		C161,133.5,138.9,133.5,116.7,133.5z"/>
	<path class="st0" d="M165.7,236.3c9.2,1,16.5,4.9,21.7,12.4c3.2,4.6,4.8,9.7,4.9,15.2c0.1,3.7-2,5.9-5.7,5.9c-24.4,0-48.8,0-73.2,0
		c-3.7,0-5.7-2.2-5.7-6c0.1-12.9,10.2-24.8,23.1-27c1.1-0.2,2.2-0.4,3.5-0.6c0-5.5,0.1-11-0.1-16.5c0-0.6-1.1-1.5-1.9-1.8
		c-17.9-5.5-31.3-16.4-40-33c-4.7-8.9-7-18.5-7.1-28.6c0-3.7,1.9-6,5.1-6c3.2-0.1,5.3,2.2,5.4,6c0.8,27.5,20.3,49.3,47.6,53.2
		c29.1,4.1,57.6-18,60.7-47.3c0.2-2.1,0.4-4.2,0.5-6.3c0.2-3.4,2.2-5.6,5.2-5.6c3.2,0,5.2,2.3,5.3,5.8c0.3,25.5-17,50.5-41.3,59.8
		c-1.1,0.4-2.1,0.8-3.2,1.1c-4.7,1.6-4.7,1.6-4.7,6.7C165.7,227.8,165.7,231.9,165.7,236.3z M180.8,259.3
		c-1.7-7.1-8.7-12.4-16.4-12.5c-9.6-0.1-19.2-0.2-28.8,0c-7.1,0.1-12.4,3.7-15.7,10c-0.4,0.7-0.6,1.5-0.9,2.4
		C139.8,259.3,160.2,259.3,180.8,259.3z M155.1,236.2c0-5.3,0-10.4,0-15.6c-3.5,0-6.8,0-10.2,0c0,5.3,0,10.4,0,15.6
		C148.3,236.2,151.6,236.2,155.1,236.2z"/>
	<path class="st0" d="M40.1,110.3c0-20.3,0-40.6,0-60.9c0-0.9-0.1-1.8,0.1-2.6c0.4-2.7,2.6-4.6,5.2-4.6c2.6,0,4.8,1.9,5.2,4.6
		c0.1,0.9,0.1,1.7,0.1,2.6c0,40.5,0,81,0,121.5c0,0.3,0,0.7,0,1c0,3.7-2.1,6.2-5.3,6.2c-3.1,0-5.2-2.5-5.2-6.2
		C40.1,151.4,40.1,130.8,40.1,110.3z"/>
	<path class="st0" d="M249.4,110c0-20.1,0-40.2,0-60.4c0-0.9,0-1.7,0-2.6c0.3-2.8,2.5-4.8,5.3-4.8c2.6,0,4.8,2,5.1,4.6
		c0.1,0.8,0.1,1.6,0.1,2.3c0,40.7,0,81.4,0,122c0,0.3,0,0.7,0,1c-0.1,3.5-2.3,5.9-5.3,5.9c-3,0-5.2-2.5-5.2-6
		C249.4,151.4,249.4,130.7,249.4,110z"/>
	<path class="st0" d="M16.1,110.2c0-10.7,0-21.4,0-32.2c0-4.8,1.7-7.2,5.3-7.1c3.5,0,5.2,2.4,5.2,7c0,21.5,0,43.1,0,64.6
		c0,4.5-1.9,7-5.3,6.9c-3.3,0-5.2-2.5-5.2-7C16.1,131.7,16.1,121,16.1,110.2z"/>
	<path class="st0" d="M74.7,110.2c0,11.2,0,22.3,0,33.5c0,3.4-2.2,5.7-5.2,5.7c-3.1,0-5.2-2.3-5.3-5.9c0-0.6,0-1.2,0-1.8
		c0-12.9,0-25.8,0-38.7c0-8.1,0-16.2,0-24.3c0-5.4,1.6-7.7,5.2-7.8c3.7,0,5.3,2.3,5.3,7.6C74.7,89.1,74.7,99.7,74.7,110.2z"/>
	<path class="st0" d="M235.8,110c0,11.2,0,22.5,0,33.7c0,3.4-2.2,5.7-5.2,5.7c-3.1,0-5.2-2.3-5.3-5.9c0-0.6,0-1.2,0-1.8
		c0-13.3,0-26.5,0-39.8c0-7.8,0-15.7,0-23.5c0-5.1,1.6-7.5,5.2-7.5c3.7,0,5.3,2.3,5.3,7.6C235.8,89,235.8,99.5,235.8,110z"/>
	<path class="st0" d="M283.9,110.2c0,11.1,0,22.1,0,33.2c0,2.1-0.6,4-2.4,5.2c-3.2,2.1-7.4,0.2-8-3.6c-0.1-0.6-0.1-1.2-0.1-1.8
		c0-22,0-43.9,0-65.9c0-3.6,1.5-5.8,4.3-6.2c3.6-0.6,6.1,1.9,6.2,5.9C283.9,88,283.9,99.1,283.9,110.2z"/>
	<path class="st0" d="M155.2,35.5c0,2.8-2.3,5.1-5.1,5.2c-2.9,0-5.3-2.4-5.3-5.3c0-2.9,2.5-5.3,5.4-5.2
		C153.1,30.3,155.3,32.6,155.2,35.5z"/>
	<path class="st0" d="M150,166.1c-2.8,0-5.3-2.5-5.2-5.4c0.1-2.8,2.4-5,5.2-5c3,0,5.3,2.4,5.2,5.3
		C155.1,163.8,152.7,166.2,150,166.1z"/>
</g>
</svg>
