<?xml version="1.0" encoding="utf-8"?>
<!-- Generator: Adobe Illustrator 28.3.0, SVG Export Plug-In . SVG Version: 6.00 Build 0)  -->
<svg version="1.1" id="Layer_1" xmlns="http://www.w3.org/2000/svg" xmlns:xlink="http://www.w3.org/1999/xlink" x="0px" y="0px"
	 viewBox="0 0 300 300" style="enable-background:new 0 0 300 300;" xml:space="preserve">
<style type="text/css">
	.st0{fill:#FFFFFF;}
</style>
<g>
	<path class="st0" d="M106.3,139.9c0-13.5,0-26.5,0-39.9c-5-1.3-10-2.7-15.1-4c-3.4-0.9-6.8-1.8-10.1-2.6c-2.1-0.5-3.7-1.6-3.7-4
		c0-2.6,1.6-3.6,3.8-4.2c30-7.9,60-15.9,90-23.8c1.2-0.3,2.7-0.3,3.9,0c30,7.9,60,15.9,90,23.8c2.2,0.6,3.9,1.7,3.9,4.2
		c0,2.4-1.6,3.6-3.7,4c-1.5,0.3-1.8,1-1.8,2.4c0.1,7.3,0,14.7,0.1,22c0,0.9,0.7,2.1,1.5,2.7c2,1.4,4.3,2.6,6.4,3.8
		c1.7,0.9,2.5,2.3,2.5,4.3c0,8.7,0.1,17.3-0.1,26c0,1.4-1.2,3.3-2.3,3.9c-1.1,0.6-3.1,0.1-4.3-0.6c-2.3-1.3-4.3-3.1-6.4-4.7
		c-1-0.8-1.8-0.9-2.8,0c-2.1,1.7-4.2,3.2-6.4,4.8c-1.4,1.1-3.2,1.7-4.6,0.5c-1.1-0.9-2.1-2.5-2.1-3.9c-0.2-8.7-0.1-17.3-0.1-26
		c0-1.9,0.7-3.4,2.4-4.3c0.1-0.1,0.3-0.2,0.4-0.3c2.5-1.5,6-2.4,7.2-4.6c1.3-2.3,0.5-5.8,0.5-8.8c0-4.6,0-9.2,0-13.7
		c0-0.2-0.1-0.3-0.2-0.7c-5,1.3-10.1,2.6-15.3,4c0,1,0,1.9,0,2.8c0,14.2,0,28.5,0,42.7c0,4-1,5.1-4.9,5.8
		c-5.9,1.1-11.8,2.2-17.7,3.3c-0.2,0-0.4,0.2-0.9,0.5c0.9,0.6,1.7,1.2,2.6,1.7c16.1,10.4,32.2,20.8,48.3,31.1
		c2.6,1.7,3.7,3.6,3.7,6.7c-0.1,12.8-0.1,25.7-0.1,38.5c0,4.7-1.1,5.8-5.7,5.8c-51.1,0-102.2,0-153.2,0c-4.2,0-7.8-1.2-11.2-3.6
		c-23-16.6-46.1-33.2-69.2-49.7c-3.9-2.8-5.7-6.3-5.7-11c0-5.9,0-11.8,0-17.7c0-10.1,6.8-17,16.9-17c20.1,0,40.2,0,60.2,0
		C104.1,139.9,105.1,139.9,106.3,139.9z M54.9,147.9c1,0.8,1.4,1.1,1.8,1.4c18.1,12.7,36.2,25.5,54.4,38.2c1,0.7,2.5,0.9,3.7,0.9
		c45.1,0,90.2,0,135.2,0c0.8,0,1.6,0,3,0c-1.2-0.8-1.7-1.2-2.3-1.6c-13.1-8.4-26.3-16.6-39.2-25.4c-5-3.4-9.5-4.1-15.3-2.8
		c-9.4,2.1-19.1,4-28.7,2.5c-19.2-3-38.4-6.6-57.5-10c-1-0.2-2.3-0.9-2.8-1.8c-0.8-1.3-1.7-1.3-2.9-1.3c-15.7,0-31.3,0-47,0
		C56.7,147.9,56.2,147.9,54.9,147.9z M231.9,102.3c-0.8,0.2-1.5,0.3-2.1,0.5c-17.9,4.7-35.8,9.5-53.8,14.2c-1.7,0.4-3.7,0.5-5.3,0
		c-15.1-3.9-30.2-8-45.4-12c-3.5-0.9-7-1.8-10.7-2.8c0,14,0,27.7,0,41.6c12.8,2.4,25.4,4.8,38.1,7.2c9.9,1.9,19.9,3.3,30,1.7
		c8.7-1.3,17.4-3,26.1-4.5c7.7-1.4,15.3-2.9,23.1-4.4C231.9,130.9,231.9,116.3,231.9,102.3z M262.9,196.6c-0.8,0-1.3-0.1-1.9-0.1
		c-49.7,0-99.5,0-149.2,0c-5.4,0-8.7,3.4-8.7,8.8c0,5.5,0,11,0,16.5c0,6.1,3.1,9.2,9.3,9.2c49.2,0,98.5,0,147.7,0c0.9,0,1.8,0,2.7,0
		c0-2.3,0-4.3,0-6.5c-1.2,0-2.2,0-3.1,0c-39.4,0-78.8,0-118.2,0c-4.1,0-5.9-1.3-5.9-4.1c0-2.7,1.8-4,6-4c39.4,0,78.8,0,118.2,0
		c1,0,2.1,0,3.1,0c0-2,0-3.5,0-5.3c-1.2,0-2.3,0-3.4,0c-29,0-58,0-87,0c-1.1,0-2.2,0-3.2-0.1c-2-0.4-3.1-1.6-3.2-3.6
		c-0.1-2,0.8-3.4,2.7-4c1.1-0.3,2.3-0.3,3.5-0.3c29.2,0,58.3,0,87.5,0c1,0,2.1-0.1,3.2-0.1C262.9,200.7,262.9,198.8,262.9,196.6z
		 M97.4,89.1c0.8,0.4,1.1,0.5,1.4,0.6c24.3,6.5,48.7,12.9,73.1,19.3c1,0.3,2.1,0.1,3.1-0.1c23.8-6.3,47.6-12.6,71.4-18.9
		c0.7-0.2,1.4-0.4,2.6-0.8c-0.7-0.2-0.9-0.3-1.2-0.4c-24.4-6.5-48.8-13-73.3-19.4c-1-0.3-2.3-0.1-3.4,0.2c-12,3.1-24,6.3-35.9,9.5
		C122.7,82.4,110.3,85.7,97.4,89.1z M102.2,191.2c-0.9-0.7-1.5-1.2-2.2-1.6c-18.9-13.3-37.7-26.5-56.6-39.8c-2.9-2.1-5.1-2-7.2,0.9
		c-1.2,1.6-2,3.7-2.1,5.7c-0.3,6-0.1,12-0.1,18c0,2.1,0.7,3.5,2.4,4.8c18.9,13.5,37.7,27.1,56.6,40.6c0.6,0.4,1.2,0.7,2,1.2
		c0-5,0.1-9.5,0-14.1C94.8,200.5,96.7,195.2,102.2,191.2z M266,147.2c0-5.9,0-11.1,0-16.2c0-0.4-0.4-0.9-0.7-1.2
		c-4.1-3.4-5.6-3.5-10.2-0.8c-0.4,0.2-0.8,0.4-1.1,0.6c-0.4,0.4-0.9,0.8-0.9,1.3c-0.1,5.1,0,10.2,0,15.3c0.1,0.3,0.2,0.5,0.3,0.8
		C257.5,141.5,261.6,142.3,266,147.2z"/>
</g>
</svg>
