<?xml version="1.0" encoding="UTF-8"?>
<svg id="Layer_1" data-name="Layer 1" xmlns="http://www.w3.org/2000/svg" version="1.1" viewBox="0 0 300 300">
  <defs>
    <style>
      .cls-1 {
        fill: #fff;
        stroke-width: 0px;
      }
    </style>
  </defs>
  <polyline class="cls-1" points="102.1 92.2 44.2 150 102.1 207.8"/>
  <g>
    <path class="cls-1" d="M95.2,126c2.8-.6,7.2-1,11.6-1,6.4,0,10.5,1.1,13.5,3.6,2.6,1.9,4.1,4.8,4.1,8.7s-3.1,8.9-8.3,10.8h0c4.7,1.3,10.2,5.2,10.2,12.5s-1.7,7.5-4.2,9.9c-3.4,3.1-9,4.6-17,4.6s-7.8-.3-9.9-.6c0,0,0-48.5,0-48.5ZM101.5,146.2h5.8c6.7,0,10.7-3.5,10.7-8.3s-4.4-8-10.8-8-4.6.2-5.6.4v15.9h0ZM101.5,169.8c1.2.2,3.1.3,5.3.3,6.6,0,12.7-2.4,12.7-9.6s-5.8-9.5-12.7-9.5h-5.3v18.8Z"/>
    <path class="cls-1" d="M142.8,159.1l-5.1,15.5h-6.6l16.8-49.3h7.7l16.8,49.3h-6.8l-5.3-15.5h-17.5,0ZM159,154.1l-4.8-14.2c-1.1-3.2-1.8-6.1-2.6-9h-.1c-.7,2.9-1.5,5.9-2.5,8.9l-4.8,14.3h14.8Z"/>
    <path class="cls-1" d="M213,173c-2.3,1.2-7,2.3-13,2.3-13.9,0-24.4-8.8-24.4-24.9s10.5-25.9,25.7-25.9,10,1.3,11.7,2.2l-1.5,5.2c-2.4-1.2-5.9-2-9.9-2-11.6,0-19.2,7.4-19.2,20.3s6.9,19.8,18.9,19.8,7.8-.8,10.4-2l1.3,5h0Z"/>
    <path class="cls-1" d="M220.9,125.3h6.4v23.8h.2c1.3-1.9,2.6-3.7,3.9-5.3l15.1-18.5h7.9l-17.8,20.9,19.2,28.4h-7.5l-16.2-24.2-4.7,5.4v18.8h-6.4v-49.3h0Z"/>
  </g>
</svg>