<?xml version="1.0" encoding="utf-8"?>
<!-- Generator: Adobe Illustrator 28.0.0, SVG Export Plug-In . SVG Version: 6.00 Build 0)  -->
<svg version="1.1" id="Layer_1" xmlns="http://www.w3.org/2000/svg" xmlns:xlink="http://www.w3.org/1999/xlink" x="0px" y="0px"
	 viewBox="0 0 300 300" style="enable-background:new 0 0 300 300;" xml:space="preserve">
<style type="text/css">
	.st0{fill:#FFFFFF;}
</style>
<g>
	<path class="st0" d="M216.3,153.1c-1.4,0-2.8,0-4.2,0H202c-0.6,0-1.2,0-1.8,0c-1,0-2,0-3,0c-1.7,0-3.2,0.7-4.4,1.9
		c-1.1,1.2-1.8,2.7-1.8,4.3c0.1,3.3,2.8,6,6.1,6.1c6.4,0.1,12.8,0.1,19.1,0c1.7,0,3.2-0.7,4.4-1.9c1.1-1.2,1.8-2.7,1.7-4.3
		C222.4,155.9,219.7,153.2,216.3,153.1z"/>
	<path class="st0" d="M140.2,222.1L140.2,222.1c6.4,0.1,12.9,0.1,19.4,0c3.2,0,6-2.9,6-6.1c0-3.3-2.7-6-6-6.1c-1.5,0-3-0.1-4.5,0
		l-8.1,0c-1.1,0-2.2,0-3.2,0c-1.2,0-2.4,0-3.5,0c-3.4,0.1-6,2.8-6,6.1C134.3,219.3,137,222,140.2,222.1z"/>
	<path class="st0" d="M165.6,159.2c-0.1-3.3-2.8-6-6.1-6.1c-1.6,0-3.2,0-4.9,0l-10.7,0l-3.6,0c-3.4,0-6.1,2.7-6.1,6
		c0,1.6,0.6,3.2,1.7,4.4c1.1,1.2,2.7,1.8,4.3,1.8c6.4,0.1,12.8,0.1,19.1,0c1.7,0,3.2-0.7,4.4-1.9C165,162.3,165.6,160.8,165.6,159.2
		L165.6,159.2z"/>
	<path class="st0" d="M196.9,222.1c6.5,0.1,13.1,0.1,19.6,0c3.2,0,5.9-2.9,5.9-6.2c0-3.2-2.7-6-5.9-6h0c-2.2-0.1-4.4,0-6.7,0l-3.1,0
		l-3.8,0c-0.9,0-1.9,0-2.8,0c-1.1,0-2.1,0-3.1,0c-3.3,0.1-6,2.9-5.9,6.1C191.1,219.2,193.8,222,196.9,222.1z"/>
	<path class="st0" d="M233.5,268.3c2.9-0.7,5.6-1.3,8.2-2.3c16.7-6.4,27.9-22.8,27.9-40.7v-5.1c0-42.6,0-85.1,0-127.7
		c0-22.3-17.5-41.3-39.8-43.2c-2.8-0.2-5.7-0.2-8.7-0.1c-1.6,0-3.1,0.1-4.7,0.1h-3.5l0-6.7c0-2.1,0-4,0-5.9c0-4-2.5-6.6-6.1-6.6
		c-3.6,0-6.1,2.7-6.1,6.7l0,5.9l0,6.1H99.4l0-6.1c0-2,0-4,0-5.9c0-3.9-2.6-6.6-6.2-6.6c-3.6,0-6.1,2.7-6.1,6.5c0,1.9,0,3.8,0,5.8V49
		l-5.9,0L76,49c-13.6,0-25,4.8-33.8,14.3c-6.2,6.6-10,14.6-11.3,23.7c-0.1,0.6-0.3,1.1-0.4,1.5l0,141.8c0.1,0.5,0.3,1.2,0.4,1.9
		c0.3,1.6,0.6,3.2,1.1,4.7c5.9,18.5,18,29,37,32.1c0.5,0.1,1,0.2,1.3,0.4l159.5,0C231,268.9,232.2,268.6,233.5,268.3l0.3,1.6l0,0
		L233.5,268.3z M51.8,70.9c5.3-5.4,15.2-11.5,32.3-9.2l3,0.4l0,15.4c0,2.1,0,4.2,0,6.2c0.1,3.3,2.7,6,6.1,6c3.3,0,6.1-2.7,6.1-6
		c0.1-3.8,0.1-7.5,0-11.2l0-11h101.2l0,11.4c0,3.6,0,7.1,0,10.6c0,1.7,0.7,3.2,1.8,4.3c1.1,1,2.5,1.6,4.5,1.7
		c3.2-0.1,5.9-2.7,5.9-6.1c0-4.3,0-8.6,0-12.8v-8.5l2.9-0.5c12.4-2,24,1.1,31.6,8.3c7.7,7.3,11.1,18.5,9.8,32.3l-0.3,3.1H43.6
		l-0.5-2.9C41.2,90.1,44.4,78.5,51.8,70.9z M224.6,256.9c-24.8,0-49.7,0-74.6,0c-24.9,0-49.7,0-74.6,0c-19,0-32.8-13.9-32.8-33
		V118.2h214.6V224C257.3,243.1,243.5,256.9,224.6,256.9z"/>
	<path class="st0" d="M107.2,155c-1.2-1.2-2.7-1.9-4.4-1.9c-3.2,0-6.4,0-9.6,0c-3.2,0-6.4,0-9.6,0c-3.3,0-6,2.8-6.1,6.1
		c0,3.4,2.7,6.1,6.1,6.2c1.7,0,3.4,0,5.1,0l4.2,0l3.1,0c2.2,0,4.4,0,6.7,0c3.3-0.1,6.1-2.8,6.1-6.1
		C108.9,157.7,108.3,156.2,107.2,155z"/>
	<path class="st0" d="M83.7,222.1c2.2,0.1,4.3,0,6.5,0l3.1,0l3.1,0c2.2,0,4.5,0,6.7,0c3.3-0.1,6-2.9,6-6.2c0-3.3-2.7-6-5.8-6.1
		c-6.3-0.1-12.7-0.1-19.6,0c-3.3,0-5.9,2.8-5.9,6.1C77.6,219.3,80.3,222,83.7,222.1z"/>
</g>
</svg>
