<?xml version="1.0" encoding="UTF-8"?>
<svg id="Layer_1" data-name="Layer 1" xmlns="http://www.w3.org/2000/svg" version="1.1" viewBox="0 0 300 300">
  <defs>
    <style>
      .cls-1 {
        fill: #fff;
        stroke-width: 0px;
      }
    </style>
  </defs>
  <path class="cls-1" d="M150,17c42,0,84.1,0,126.1,0,5.7,0,6.9,1.2,6.9,6.9,0,47.4,0,94.8,0,142.2,0,5.6-1.2,6.9-6.9,6.9-84.1,0-168.2,0-252.2,0-5.7,0-6.9-1.2-6.9-6.9,0-47.4,0-94.8,0-142.2,0-5.7,1.2-6.9,6.9-6.9,42,0,84.1,0,126.1,0ZM67.6,163.6h165.5c0-8.6-.3-17,0-25.4.4-10.6,1.9-21.1,6.7-30.8,1-2,2.1-3.9,3.2-5.9-31.3-15.6-48.6-40.5-51.9-75.1h-82.6c-1.1,16.5-6.1,31.4-15.4,44.8-9.3,13.4-21.5,23.4-36.3,30.2,11.9,19.4,9.9,41,10.7,62.2ZM241.7,163.6h32v-54.4c-6.8-1.4-13.3-2.7-19.9-4-.8-.1-2.1.3-2.5.9-1.8,3.2-3.9,6.4-5.1,9.9-5.2,15.4-4.3,31.4-4.6,47.6ZM26.3,163.6h32.5c-.7-11.6-1.1-22.9-2-34.2-.6-7.2-2.4-14.1-6.1-20.4-2.5-4.3-2.5-4.1-7.2-3.1-5.6,1.2-11.4,2.1-17.1,3.2v54.5ZM273.7,26.3h-35.9c.5,17.2,17.4,35.1,35.9,36V26.3ZM26.3,62.3c19.8-1.6,35.2-19.4,36-36H26.3v36ZM26.4,99.2c40.5-1.9,71.6-36.3,72.8-72.9h-8.5c-5.8,37.3-27.1,58.6-64.5,64.4,0,2.2,0,4.5,0,6.9,0,.6.1,1.1.2,1.6ZM273.7,90.3c-17-1.5-31.8-8-43.9-20-12.2-12.1-18.7-26.9-20.2-43.9h-9c2.6,44.1,40.4,72.3,73,72.7v-8.8ZM273.7,72.1c-26.1-4.5-41.3-19.7-45.8-45.8h-8.8c1.3,28.1,27,53.8,54.5,54.5v-8.7ZM26.3,80.8c29.5-1.3,53.6-27.7,54.4-54.4h-8.6c-4.5,26.2-19.8,41.4-45.8,45.8v8.6Z"/>
  <path class="cls-1" d="M95,191c8.6-10.2,24.6-13.3,36.7-.2,11.8-12.8,27.8-10.3,36.7.2,4.8-5.6,10.8-8.9,18.4-8.9,7.4,0,13.4,3.2,18.3,9,3.9-4.5,8.5-7.5,14.3-8.6,13.6-2.5,26.5,7.8,26.9,21.7.2,5,0,9.9,0,14.9,1.8.7,3.4,1.1,4.9,1.9,8.5,4.2,13,11,13.4,20.4.2,4.6,0,9.2,0,14.2,4.1,0,8,0,12,0,4.9,0,6.3,1.4,6.3,6.3,0,5.1,0,10.1,0,15.2,0,4.5-1.5,6-6,6.1-16.2,0-32.5,0-48.7,0-68.1,0-136.2,0-204.3,0-5.8,0-7-1.2-7-7.1,0-5,0-9.9,0-14.9,0-3.9,1.7-5.5,5.6-5.5,4.1,0,8.2,0,12.7,0,0-3.7,0-7.3,0-10.9,0-13.8,5.2-21,18.3-25.5,0-4.2,0-8.5,0-12.8,0-10.7,5.4-19,14.5-22.6,9.2-3.6,18.5-1.3,26,6.6.2.2.4.4.8.7ZM26.3,273.6h247.4v-8.8H26.3v8.8ZM77.1,227c1.4-1.2,3.4-3.2,5.7-4.6,2.3-1.4,4.9-2.3,7.6-3.5,0-4.8.2-9.8,0-14.8-.3-7.1-6.3-12.7-13.3-12.8-7.2-.2-13.5,5.3-14,12.4-.3,5.1,0,10.3,0,14.5,5,3.1,9.5,5.9,14.2,8.8ZM127,218.2c0-4.2.2-9.3,0-14.3-.4-7-6.5-12.5-13.5-12.6-7.1,0-13.3,5.3-13.8,12.4-.3,5.1,0,10.3,0,14.5,5,3.1,9.5,6,13.7,8.6,4.2-2.6,8.7-5.5,13.7-8.6ZM163.7,218.1c0-3.9.1-8.7,0-13.6-.2-7.1-5.9-12.9-12.9-13.2-7.2-.4-13.7,4.8-14.4,12-.5,5.3,0,10.6,0,14.9,5.1,3.3,9.6,6.1,13.6,8.6,4.3-2.7,8.8-5.5,13.8-8.6ZM173,218.1c5.2,3.3,9.7,6.1,13.6,8.6,4.4-2.7,8.8-5.5,13.8-8.6,0-4.2.3-9.4,0-14.5-.5-7-6.7-12.4-13.7-12.4-7,0-13.2,5.6-13.6,12.6-.3,5,0,10.1,0,14.2ZM209.7,218.1c5.2,3.3,9.7,6.1,13.7,8.6,4.3-2.7,8.8-5.5,13.8-8.6,0-4.2.3-9.4,0-14.5-.5-7.2-6.8-12.6-14-12.4-7,.2-13,5.8-13.3,12.8-.2,4.9,0,9.9,0,14ZM44.6,255.3h27.4c0-5,.2-9.9,0-14.7-.4-7.1-6.7-12.6-13.8-12.6-7,0-13.1,5.6-13.5,12.6-.3,4.8,0,9.7,0,14.7ZM108.7,255.3c0-4.8.1-9.4,0-14.1-.2-7.1-5.9-12.9-12.9-13.3-7.2-.4-13.7,4.7-14.4,11.9-.5,5.1,0,10.2,0,15.5h27.4ZM145.3,255.3c0-5.3.4-10.4,0-15.5-.6-6.4-6.1-11.3-12.4-11.9-6.3-.5-12.8,3.3-14,9.4-1.1,5.9-.8,12-1.2,18h27.7ZM182.1,255.4c0-5,.1-9.7,0-14.3-.2-6.7-5.6-12.3-12.2-13-6.5-.7-13.4,3.4-14.5,9.8-1,5.7-.7,11.6-1,17.5h27.7ZM191.3,255.3h27.4c0-5,.2-9.9,0-14.7-.4-7.1-6.6-12.6-13.8-12.6-7,0-13.1,5.6-13.5,12.6-.3,4.8,0,9.7,0,14.7ZM228,255.3h27.4c0-5.1.3-10.1,0-15-.5-7.1-6.8-12.5-14-12.3-7,.2-13,5.8-13.3,12.8-.2,4.7,0,9.5,0,14.5Z"/>
</svg>