<?xml version="1.0" encoding="utf-8"?>
<!-- Generator: Adobe Illustrator 28.0.0, SVG Export Plug-In . SVG Version: 6.00 Build 0)  -->
<svg version="1.1" id="Layer_1" xmlns="http://www.w3.org/2000/svg" xmlns:xlink="http://www.w3.org/1999/xlink" x="0px" y="0px"
	 viewBox="0 0 300 300" style="enable-background:new 0 0 300 300;" xml:space="preserve">
<style type="text/css">
	.st0{fill:#FFFFFF;}
</style>
<path class="st0" d="M154,38.3c-0.9-0.4-1.5-0.4-2.5,0c-32.1,13.9-64.2,27.7-96.2,41.5c-0.9,0.4-1,0.6-1,1.7c0,8.9,0,17.9,0,26.8
	c0,7,0,13.9,0,20.9c0,1.6-0.3,3.3-2.7,4.4c-6.8,3.3-10.4,8.8-10.6,16.2c-0.2,7.7-0.1,15.6-0.1,23.2c0,2.9,0,5.9,0,8.8h13l0.2,2.1
	c0.1,0.5,0.1,0.9,0.1,1.3c0,25.5,0,51,0,76.5h197c0-0.4,0-0.9,0-1.3l0-128.7h-39.7l-0.2-2.4c0-0.6-0.1-1.1-0.1-1.6l0-6.6
	c0-4.8,0-9.5-0.1-14.2c0-2.7,1.5-3.7,3-4.4c13.1-5.5,26.1-11.1,39.1-16.7l5.7-2.5L232,72C206,60.8,180,49.6,154,38.3z M64.8,91.8
	l2.7,0.9c0.4,0.1,0.8,0.2,1.2,0.4l4.4,1.9c6.2,2.6,12.4,5.3,18.6,8c1,0.4,2.5,1.8,2.6,3.3c0.1,6.3,0.1,12.6,0.1,19v6.5H64.8
	C64.8,131.8,64.8,91.8,64.8,91.8z M51.6,171.8l-0.2-1.9c0-0.4-0.1-0.8-0.1-1.2l0-2.8c0-5.1,0-10.1,0-15.2c0-2.5,0.9-4.8,2.6-6.4
	c1.5-1.5,3.5-2.1,5.7-2.2c4.6,0.1,8,3.7,8.1,8.6c0,4.5,0,9.1,0,13.7l0,7.5L51.6,171.8L51.6,171.8z M240.8,142.2v109.5h-176V182H78
	c-0.1-4.6-0.1-9.3,0-13.8c0.1-8,0.2-16.3-0.6-24.3l-0.2-1.8H95l-0.7,2.1c-0.6,1.9-0.1,2.3,2.4,3.3l0.7,0.3
	c17.9,7.6,35.9,15.3,53.8,23.1c1.2,0.5,2,0.5,3.1,0.1c18.1-7.8,36.2-15.6,54.4-23.3c2.8-1.2,3.2-1.5,2.5-3.2l-0.8-2.2L240.8,142.2
	L240.8,142.2z M104.7,108.6l2.2,0.9c6.4,2.7,12.5,5.3,18.5,7.9l1.7,0.7c8.1,3.5,16.3,7,24.4,10.5c1,0.4,1.7,0.4,2.7,0
	c9.9-4.3,19.9-8.6,29.8-12.8l12.3-5.3c0.6-0.2,1.1-0.5,1.8-0.7l2.9-1.2l0,15c0,4.4,0,8.7,0,13.1c0,2-0.8,3.3-2.7,4.1
	c-6.7,2.8-13.4,5.7-20.1,8.6c-7.7,3.3-15.4,6.6-23.1,9.8c-0.6,0.3-1.5,0.4-2.4,0.4c-0.7,0-1.4-0.1-2-0.4
	c-7.9-3.3-15.8-6.7-23.7-10.1c-6.5-2.8-13-5.5-19.4-8.3c-2.1-0.9-3-2.3-3-4.6c0.1-5.6,0.1-11.2,0.1-16.8L104.7,108.6z M228.9,85.4
	c-0.5,0.3-0.9,0.5-1.4,0.7l-8,3.4c-21.4,9.2-42.9,18.4-64.3,27.5c-0.7,0.3-1.6,0.5-2.4,0.5c-0.8,0-1.5-0.1-2.1-0.4
	c-18.9-8-37.8-16.1-56.7-24.2l-16.2-6.9c-0.3-0.2-0.7-0.3-1.1-0.6l-3.7-2l25.2-10.9c17.4-7.5,34.8-15,52.2-22.5
	c1.4-0.6,3.2-0.6,4.5,0c21.5,9.2,43,18.5,64.4,27.8l8,3.4c0.4,0.2,0.8,0.4,1.3,0.6l3.7,1.8L228.9,85.4z"/>
</svg>
