<?xml version="1.0" encoding="utf-8"?>
<!-- Generator: Adobe Illustrator 27.8.1, SVG Export Plug-In . SVG Version: 6.00 Build 0)  -->
<svg version="1.1" id="Layer_1" xmlns="http://www.w3.org/2000/svg" xmlns:xlink="http://www.w3.org/1999/xlink" x="0px" y="0px"
	 viewBox="0 0 300 300" style="enable-background:new 0 0 300 300;" xml:space="preserve">
<style type="text/css">
	.st0{fill:#FFFFFF;}
</style>
<g>
	<path class="st0" d="M207.6,207.2l-4.9,0c-3.8,0-7.6,0-11.4,0c-6.6-0.1-11.4,2.4-15.3,7.7c-5.1,7-10.3,13.9-15.5,20.9l-5.2,7
		c-1.3,1.7-3.2,3.7-5.3,3.7c-2,0-4-2-5.2-3.7l-5.4-7.2c-5.1-6.7-10.1-13.4-15-20.2c-4-5.6-9.4-8.4-16.3-8.2
		c-15.6,0.1-31.3,0.1-46.9,0l-5.2,0c-1.9,0-4-0.1-6-0.5c-10.2-2.3-16.6-10.5-16.6-21.5l0-65.9l0-25.3l0-6c0-4.5,0-9,0-13.6
		c0.2-12,9.1-20.8,21.1-20.9c2.9,0,5.7,0,8.5,0h6.6c6,0,8.2-3.7,8.3-6.9c0-1.8-0.6-3.5-1.8-4.7c-1-1-3-2.3-6.3-2.3
		c-5.1,0-10.1,0-15.2,0C35,39.7,19.6,55.1,19.6,74.6l0,37.1l0,18.6l0,13.7c0,14.2,0,28.3,0,42.5c0,2.8,0.3,5.4,0.9,7.8
		c3.9,16,17.6,26.8,34.1,26.8h3c17.1,0,34.1,0,51.2,0c0,0,0,0,0,0c1.8,0,2.8,0.5,3.9,2c7.2,9.8,14.4,19.5,21.8,29.1
		c4.1,5.3,9.3,8.1,15.2,8.1c1.2,0,2.4-0.1,3.7-0.3c4.8-0.9,9-3.6,12.4-8.2l6.3-8.4c5.1-6.8,10.2-13.6,15.2-20.4
		c0.9-1.3,1.9-1.6,3.3-1.7c5.7,0.1,11.5,0,17.2,0c2.7,0,5.1-1.2,6.4-3.2c1.2-1.8,1.5-4.1,0.7-6.2
		C213.9,208.7,211.4,207.2,207.6,207.2z"/>
	<path class="st0" d="M94.3,156.2C94.3,156.2,94.4,156.2,94.3,156.2c12.5,0,22.6-10.2,22.5-22.6c0-6-2.4-11.7-6.8-16
		c-4.3-4.3-9.9-6.7-15.9-6.5c-12.4,0.1-22.4,10.4-22.3,22.9C71.9,146.3,82,156.2,94.3,156.2z M85.6,133.7c0-4.8,3.9-8.6,8.7-8.6
		c0,0,0,0,0,0c2.3,0,4.5,0.9,6.2,2.6c1.6,1.6,2.5,3.8,2.5,6.1c0,4.8-3.9,8.6-8.7,8.6c0,0,0,0,0,0c-2.3,0-4.5-0.9-6.2-2.6
		C86.5,138.1,85.6,136,85.6,133.7z"/>
	<path class="st0" d="M279.9,68.4c-3.5-17.5-17.3-28.9-35.1-28.9l-156,0c-1.1,0-2.4,0-3.7,0.3c-3.6,0.8-5.7,4-5.1,7.3
		c0.6,2.8,3.2,4.8,4,5.4c1.5,1,3.3,1,5.2,0.9l155.2,0c1.8,0,3.6,0,5.1,0.3c10.5,2.1,17.1,10.3,17.1,21.5c0,21.2,0,42.4,0,63.5
		l0,21.2l0,8c0,6,0,12,0,18c-0.2,11.7-8.3,20.3-19.9,21c-4.3,0.2-8.6,0.2-12.9,0.2c-2.3,0-4.5,0-6.8,0c-5.5,0.1-8,3.5-8,6.9
		c0,4.1,3.3,7,8,7l5.3,0c2.1,0,4.1,0,6.2,0c2.5,0,5,0,7.5-0.1c12.7-0.4,22.8-6.1,29.2-16.7c1.7-2.8,2.7-5.9,3.7-8.9
		c0.4-1.3,0.8-2.5,1.3-3.7l0.2-121.9L279.9,68.4z"/>
	<path class="st0" d="M208,156.2C208,156.2,208,156.2,208,156.2c6.1,0,11.7-2.4,16-6.7c4.3-4.3,6.6-9.9,6.6-15.9s-2.4-11.7-6.8-16
		c-4.3-4.2-9.9-6.6-15.7-6.6c-0.1,0-0.1,0-0.2,0c-12.3,0.1-22.3,10.2-22.3,22.5c0,6.1,2.3,11.8,6.6,16.1
		C196.4,153.9,202,156.2,208,156.2z M199.4,133.6c0-2.3,0.9-4.5,2.6-6.1c1.7-1.6,4-2.2,6.2-2.5c2.3,0,4.5,0.9,6.1,2.6
		c1.6,1.6,2.5,3.8,2.5,6.1c0,4.8-3.9,8.6-8.7,8.6c0,0,0,0,0,0c-2.3,0-4.5-0.9-6.1-2.6C200.2,138.2,199.3,136,199.4,133.6z"/>
	<path class="st0" d="M151.2,156.2c5.9,0,11.5-2.3,15.8-6.5c4.3-4.3,6.7-10,6.7-16c0-12.3-10-22.5-22.2-22.6c-0.1,0-0.2,0-0.3,0
		c-12.3,0-22.3,10-22.5,22.4c-0.1,5.9,2.2,11.6,6.4,15.9c4.3,4.4,10,6.8,16,6.8C151.1,156.2,151.2,156.2,151.2,156.2z M151.2,125
		C151.2,125,151.2,125,151.2,125c2.3,0,4.5,0.9,6.1,2.5c1.6,1.6,2.5,3.8,2.5,6.2c0,4.9-3.8,8.6-8.6,8.6c0,0,0,0,0,0
		c-4.9,0-8.6-3.7-8.6-8.7c0-2.4,0.9-4.6,2.5-6.2C146.7,125.9,148.9,125,151.2,125z"/>
</g>
</svg>
